<svg id="Layer_1" data-name="Layer 1" xmlns="http://www.w3.org/2000/svg" viewBox="0 0 1080 1080"><g id="Jnt0Cr.tif"><path d="M286.75,147.74c-.2-1-.35-2-.61-2.9A30.57,30.57,0,0,1,285,141c-.67-5.11-1.06-10.21.12-15.35.69-3,1-6.14,1.44-9.21.06-.39.05-.91.29-1.14,1.47-1.36,1.89-2.84,2.08-5s2.06-4.32,3.51-6.24c4.17-5.52,9.78-9.25,15.66-12.83,3-1.84,5.73-.8,8.58-1,.6,0,1.24.79,1.93,1.28.63-1.6,1.27-1.53,2.8-.62s3.94.66,5.7,1.47c4,1.83,8.33,2.9,11.51,6.66,1.83,2.15,3.1,5.22,6.19,6.26.27.09.65.39.67.63.39,3.58,3.46,5.42,5.1,8.17,1.09,1.85,1.39,4.17,2.06,6.27a8.94,8.94,0,0,0,.6,1.54c1.37,2.53,2.77,5,4.15,7.54.08.14.2.37.15.45-2.65,4,1.67,8.1-.2,12.26-1.68,3.72-2.2,8.06-4.3,11.46-1.32,2.13-1.57,6-5.52,6-.41,0-1.05.83-1.19,1.38-1.54,6-6.25,8.56-11.44,10.6a22.07,22.07,0,0,1-2.56.73c-2.09.55-3.2,1.21-3.08,4.05.14,3.35-1.19,6.76-1.85,10.15a2.86,2.86,0,0,0,.1,1.39,41.21,41.21,0,0,0,1.54,4.28,3.37,3.37,0,0,0,1.48,1.8c3.58,1.26,7.07,2.87,11.08,2.39a33.22,33.22,0,0,1,5.06.24c.77,0,1.55-.14,2.33-.16,1.29,0,2.58,0,3.86-.05a30.83,30.83,0,0,0,4.07-.41c1.32-.26,2.5-.58,3.44.83.21.33.95.4,1.45.43,3.76.22,7.52.34,11.28.63a9.21,9.21,0,0,1,2.55,1.09c1.45.63,2.86,1.63,4.37,1.8,4.34.5,8.72.77,13.09.91,2.63.09,5.27-.25,7.91-.35a39.46,39.46,0,0,1,4.07,0,35,35,0,0,1,6.07.61,67.17,67.17,0,0,1,6.77,2.38c.83.29,1.83,1,2.48.73,3.78-1.35,7.2.45,10.76,1a17.67,17.67,0,0,0,4.46.3c4.22-.45,7.83,1.73,11.75,2.47a63.7,63.7,0,0,0,6.35.52c1.17.1,2.64-.19,3.47.41,3.52,2.53,7.84,2,11.62,3.34a17.78,17.78,0,0,1,2.9,1.71c.92.54,1.84,1.07,2.75,1.62,1.71,1,2.8,3.1,5.43,2.64.65-.11,1.87,1.4,2.4,2.39a75,75,0,0,1,4,8.5c.73,1.89.46,4.21,1.37,5.95,2.51,4.78,1.35,10,2.13,15,.37,2.28-.58,4.76-.29,7.06.35,2.81,1.37,5.54,1.72,8.28a25.68,25.68,0,0,0,.09,4.12c.33,1.89-.6,8.57-1.63,10.11,1.86,2.37,1.83,3.86.24,5.84.6,1.52,1.49,2.76,1.47,4,0,2.79,1.07,5.64-.5,8.41-.44.79-.18,2.05-.09,3.08.24,2.59-.74,5,.24,7.9s1.7,6.89.44,9.76c-1.49,3.4,1,7.05-1.48,10.14-.29.36.89,1.91,1.47,3.09l-1.13.81c.87,4.67,1.74,9.1,2.49,13.55a8.72,8.72,0,0,1-.41,2.29,14.42,14.42,0,0,0-.12,2.18c0,.53.4,1.18.2,1.57-1.09,2.21-.7,4.27.3,6.37a4.58,4.58,0,0,1,.29,1.89c0,3.77-.1,7.53-.13,11.29,0,1.12.13,2.24.12,3.36a9.54,9.54,0,0,1-.56,3.22c1.45,2.27,1.3,4.35-.57,6.51a2.82,2.82,0,0,0-.12,2.51c1.42,2.77.8,5.31-.47,7.86,1.77,1.57,1.76,4.82.47,7.11a37.63,37.63,0,0,0-2.18,5.92,3.21,3.21,0,0,1-.52,1.25,18.08,18.08,0,0,1-8,5.06,12.79,12.79,0,0,0-4.29,2.64c-1.66,1.34-3.11,2.92-5.57,2.4a2,2,0,0,0-1.5.5c-3.53,3.46-7.41,3-11.44,1.12-.59-.26-1.2-.47-1.79-.7-1.5,2.32-5.19,3.67-8.1,3.05a5.23,5.23,0,0,0-2.56-.15,8.77,8.77,0,0,1-6.28,0c-1.15-.42-3.08.91-4.52,1.69a15.88,15.88,0,0,1-9.18,2.27c-.31,0-.85-.06-.9.07-1.08,2.51-3.21,1.4-5,1.53-.47,0-1.17,0-1.36.34-1.61,2.45-5,2.29-6.63,4.32-1.16,1.42-2.29,3.29-1.68,5.52a2.9,2.9,0,0,1-.13,2.21c-2.06,2.45-4.31,4.74-6.43,7.14a24.81,24.81,0,0,0-2.7,3.53c-.89,1.48-3.8,1.71-5.22.11a7,7,0,0,1-2-6.06,17,17,0,0,1,2.19-7.18c1.35-2.16-1.28-5.63-4-5.75a92.58,92.58,0,0,1-9.86-.67c-2-.29-4-1-4.48-3.58-.3-1.6-1-3.11-1.47-4.68s2.32-4.51,4.66-4.43c2.55.09,5.08.62,7.63.91a9.63,9.63,0,0,0,1.55,0c0-1.45.05-2.56-.07-3.64a1.76,1.76,0,0,0-.78-1c-2.48-1.63-1.81-4.31-2.24-6.62-.56-3,.71-4.78,3.46-5.75a10.32,10.32,0,0,0,1.8-1.27,41.1,41.1,0,0,1,3.61,4.12,42.28,42.28,0,0,1,2.53,5.31c.75-1.51,1.48-2.39,1.59-3.34.21-1.91-.17-3.91.18-5.79a15.32,15.32,0,0,1,2-4.94,3.06,3.06,0,0,1,4.24-1.13,2.66,2.66,0,0,0,3.75-1c1.07-1.59,5.44-2.23,7.81-1.49s2.15,3.15,3,4.83c.24.48-.25,1.39-.52,2.05-.93,2.36-1.95,4.69-2.87,7.06-.52,1.35-.14,1.82,1.46,1.74a15.24,15.24,0,0,0,9.2-3.55c1.33-1.06,3.32-1.32,5-1.86,2.49-.8,5-1.46,7.5-2.28,4.92-1.62,9.79-3.38,14.73-4.93a6.25,6.25,0,0,1,3.08.31c3.1.79,5.06-.68,5.36-3.75.24-2.52,1.16-5,1.3-7.49.18-3-.78-6.18-.11-9,1-4.16-.18-8.33.88-12.46.66-2.58,1.14-5.73.24-8.06-1.18-3.08.08-5.78-.11-8.64-.31-4.77-.68-9.74.36-14.3.6-2.66-1-4.43-.64-6.68.26-1.66.26-3.36.39-5,0-.37.31-.76.24-1.1a57.33,57.33,0,0,1-1.52-7.2c-.26-3.67,0-7.37-.1-11.06,0-.93-.36-1.84-.42-2.78-.19-2.72-.31-5.45-.46-8.17,0-.4,0-.79-.05-1.18-.1-1.2-.6-2.55-.23-3.58,1.84-5-.89-9.61-1.31-14.4-.31-3.53-.6-7.07-1.19-10.56a71.65,71.65,0,0,0-2-7.35c-.05-.15-.22-.29-.22-.43,0-3.88-2.49-6.61-5.27-8.31-3-1.82-4.91-5.86-9.83-4.59-2,.53-5-.14-7.41-1.73-1.56-1-4.08-.48-6-1.05-2.8-.8-5.73-.91-8.32-2.92-2.35-1.82-5.55-2.55-8.35-3.8-.74-.34-1.4-.85-2.12-1.23-.41-.22-1-.58-1.29-.44-1.82,1-3.36-.32-5-.44-3.43-.26-6.89-.15-10.32-.34-3-.17-6-.64-9-.84-4.67-.31-9.36-.67-14-.64-1.14,0-2.25,1.43-3.41,2.16a25.42,25.42,0,0,1-3.75,2.21c-1.67.7-3.58.88-5.17,1.7-2.85,1.46-3.49,4-3.28,7.13.27,3.91-2.54,6.2-6.06,5.24-2.18-.59-1.4-2.69-2.08-4a7.8,7.8,0,0,1-.29-2c-2.62,2.14-1.9,4.87-1.76,7s.82,4-1,5.59C347.51,257,349,260,346,264l2.43,1.14c-1.84,1.57-1.82,2.65-.37,3.87,2,1.72,1.21,4.23,1.3,6.38.13,3.66-.34,7.35-.15,11,.13,2.6,1.16,5.16,1.33,7.77.12,1.76-.57,3.56-.88,5.34-.11.59-.39,1.56-.16,1.71,2.85,1.92,1.42,4.82,1.69,7.27.3,2.81.2,5.67.49,8.48.45,4.43,1.18,8.83,1.6,13.25.39,4.05.56,8.12.75,12.18a3.24,3.24,0,0,1-.53,2c-1.5,1.85-1.31,3.47.57,5.05l-1.71.93c.91,1.75,2.8,3.37,1,5.55a.47.47,0,0,0,0,.46c2.95,4,.23,9.18,2.69,13.36.46.77-.32,2.18-.28,3.29.1,3.12,1.21,6.15.41,9.38-.21.86,1.32,2,1.38,3.11.19,3.31.05,6.64.05,10a13.64,13.64,0,0,0,.08,1.92c.51,3.53.95,7.07,1.62,10.57a22.27,22.27,0,0,0,1.54,3.75c.8,2.08,2.06,4.1.09,6.32a2.54,2.54,0,0,0,.23,2.43c2.46,2.49,1.14,5.48,1.29,8.25.17,3.09.18,6.2.28,9.3,0,.62.4,1.48.11,1.83-2,2.49,0,4.37.85,6.41.14.35.77.77.7.91-1.59,3.11,1.48,4.91,2.12,7.38.51,2,1.86,3.69,2.82,5.54a1.93,1.93,0,0,1,.32,1.12c-1.13,3.8,2,5.45,3.87,7.68,2.24,2.62,4.48,5.24,6.84,7.74a23,23,0,0,0,3.87,3.14c2.86,1.93,6.06,3.44,8.62,5.69a37,37,0,0,0,10.31,5.9,8.77,8.77,0,0,1,2.4,2c2.7,2.6,5.27,5.35,8.07,7.82,2.64,2.32,5.79,4.09,8.21,6.58a35.84,35.84,0,0,0,8,6.2c4.18,2.43,8.43,5.06,11.82,8.44,3.19,3.21,7.29,5,10.42,8.22a40.54,40.54,0,0,0,11.29,8.48,2.36,2.36,0,0,1,1.08,1.53c.54,2.85,2.88,3.71,5,4.91.68.39,1.06,1.32,1.56,2a4.18,4.18,0,0,0,.64.92c1.91,1.44,4,2.71,5.76,4.27,2.62,2.24,5.71,4.29,7.46,7.13,2.43,3.95,6.53,4.88,9.83,7.23,2,1.38,3.28,3.62,5.08,5.28a21,21,0,0,0,3.72,2.32c.2.12.5.11.67.25,2,1.64,3.88,3.32,5.86,4.93a23.77,23.77,0,0,0,2.58,1.74,15.32,15.32,0,0,1,1.54.69c3.09,2.35,6.14,4.73,9.21,7.09a2.7,2.7,0,0,0,.64.31c2.83,1.22,3,1.52,2.61,4.64,2.1-.92,3.34-.22,3.77,1.94.08.38.31,1,.52,1,3.3.36,4.12,3.77,6.55,5.33,2.73,1.75,4.64,4.74,7,7.09,1.1,1.1,2.53,1.86,3.64,2.95a19.43,19.43,0,0,1,2.46,3.27,25.41,25.41,0,0,1,2.77,4.77,7.22,7.22,0,0,1,.18,5.08c-.64,1.88-.39,4.15-.17,6.21.27,2.56,1.15,4.9-.87,7.42-1.11,1.38-.64,3.91-1.41,5.7-1.37,3.2-2,6.77-5.12,9.17-1.24,1-1.75,2.89-2.9,4.21.1,2.75-1.35,4.34-3.92,5.3a6.25,6.25,0,0,0-2,1.63c-.83.85-1.53,1.84-2.39,2.66-1.23,1.17-3.17,1-4.14,3.19-.67,1.51-3.51,2-5.34,3.07-.72.41-1.9,1-1.9,1.52,0,4-3.67,4.34-6,6-1.17.85-2.62,1.33-3.85,2.12-4.56,3-8.82,6.57-13.72,8.7-2.85,1.23-4.36,3.66-7,4.92-3.55,1.7-6.72,4.16-10.17,6.07-2.06,1.15-4.47,1.66-6.5,2.84a29.34,29.34,0,0,0-4.27,3.73l-3.22,2.88c-3.06,2.7-6.06,5.48-9.2,8.08a12.62,12.62,0,0,1-3.45,1.57c-.43.17-1.13,0-1.39.24-3,3.17-7.94,3.84-10.36,7.89-.42.71-1.8.9-2.76,1.23-2.06.72-4.14,1.38-6.56,2.18l1.56,1.65c-3.28,1.54-6.51,2.91-9.6,4.54-2.67,1.41-5.18,3.13-7.79,4.67-.81.47-1.76.69-2.54,1.2a10.21,10.21,0,0,0-2.3,2c-1.15,1.41-1.12,4.18-4.13,3.35-.27-.08-.81.24-1,.53-3.18,4.61-8,6.56-13.09,8a3.84,3.84,0,0,0-2.73,2.59c-.64,1.43-2.33,2.44-3.66,3.5-2.79,2.21-5.6,4.4-8.5,6.46-1.6,1.14-3.44,1.92-5.08,3a16.84,16.84,0,0,0-2.82,2.52c-.76.82-1.26,1.84-2.72,1.32-.33-.12-1.3.48-1.31.75,0,1.94-1.39,2.13-2.8,2.69-2.64,1-4.3,3.26-6,5.49-.8,1-2.55,1.38-3.9,2-1.5.66-3,1.25-4.54,1.88-.07,0-.11.14-.18.16-3.72.84-5.7,3.71-7,6.8-1.5,3.43-4.69,6.64-2.7,10.92,2.52,5.4,4.07,11.23,7.6,16.17,1.51,2.13.9,6.13-.69,7.33-1.74,1.32-6.21,1.08-7.25-1-2.08-4.19-5.43-3.21-8.28-2.2-1.67.59-4.45,1.4-4.23,4.4a1,1,0,0,1-.21.66,25.46,25.46,0,0,1-3.73,4.13c-2.56,1.89-5.67,2.4-8.8,2.55-1.81.09-4.62-3.47-4.73-5.57-.08-1.63-.64-3.23-.71-4.86a10.55,10.55,0,0,1,.81-3c-.2-.92-.13-2.49-.86-3.46a10.5,10.5,0,0,0-3.63-2.42c-3.47-1.76-7.31-.79-10.95-1.33-2.43-.36-3.32-1.61-2.35-3.79a2.4,2.4,0,0,0,.26-.88c0-2.59.77-3.52,3.25-3.83l1.88-.22c-.19-2.08-.66-3.42-3-3.39-1.47,0-2.16-.93-2.67-2.53-.73-2.27-.79-3.88.79-5.93.69-.91-.35-3.12-.55-4.75q-.32-2.77-.52-5.56c-.06-.69,0-1.39,0-2.08-.28-3.41,1.1-4,4.32-5.28,4.22-1.65,4.82,2.24,7,3.53,3.43,2,6.77,4.24,10.81,4.43,1.07,0,2.42-1.4,3.3-2.45,3-3.61,5.77-7.45,8.89-11,1.41-1.59,3.43-2.63,5.17-3.94,2.6-2,5.69-3.51,7.66-6,2.32-2.87,5.25-4.06,8.31-5.6a49.49,49.49,0,0,0,9.68-6.82c2.29-2,3.94-4.69,6.07-6.89a21.15,21.15,0,0,1,4-2.87,45.64,45.64,0,0,1,10.51-5.29c2.22-.72,3.91-3,6-4.34,3-2,6.19-3.76,9.28-5.65,2.33-1.42,4.64-2.86,6.92-4.35,5.12-3.34,10.1-6.9,15.35-10,3.21-1.91,6.85-3.1,10.22-4.75,2.07-1,3.95-2.39,6-3.4,1.9-.94,3.95-1.57,5.9-2.42,1.57-.68,3.11-1.46,4.64-2.24a6.14,6.14,0,0,0,1.32-1c.23-.2.31-.72.54-.77,3-.78,4.93-3.65,7.51-4.61,4.38-1.62,7.57-4.63,11.22-7.14a27.22,27.22,0,0,1,5.62-2.63,28.91,28.91,0,0,0,10.81-6.95,15.69,15.69,0,0,1,3.76-2.47c.94-.54,2.06-.8,3-1.4,2.5-1.65,4.78-3.71,7.42-5.06,4.37-2.24,8.06-5.46,12.29-7.89,1.44-.82,2.27-2.73,3.36-4.15.19-.25.24-.68.47-.82,3.32-1.93,4.62-5.57,7-8.32,1.09-1.27,1.36-3.29,1.83-5a50.12,50.12,0,0,0,1.13-5.58c.23-1.49.27-3,.37-4.53.06-.9.07-1.8.12-3.13-1.74-1.86-2-4.8-2.53-7.7a9.36,9.36,0,0,0-1.17-3.35c-2.22-3.53-4.61-7-6.89-10.46-1.17-1.79-2.19-3.69-3.37-5.48a11.38,11.38,0,0,0-1.56-1.44c-.58-.6-1.11-1.24-1.65-1.88a25.25,25.25,0,0,0-1.61-1.95c-2.4-2.35-4.83-4.65-7.3-6.82-1.24-.9-2.46-1.84-3.74-2.68-2.15-1.41-4.35-2.76-6.54-4.14l-7.83-4.95c-3.35-2.12-6.76-4.18-10.05-6.4-2.5-1.69-4.78-3.7-7.28-5.38a50.67,50.67,0,0,0-4.65-2.36,9,9,0,0,1-2.28-1.54,20.84,20.84,0,0,0-9-5.78,29.15,29.15,0,0,1-9.76-4.67,130.68,130.68,0,0,0-12.3-8.12c-.77-.48-2-.23-2.78-.68-1.84-1-3.45-2.55-5.36-3.43-3.77-1.74-6.23-5.64-10.61-6.34-.25,0-.48-.42-.66-.67-2.24-3.08-5.4-4.56-9-5.46-.94-.24-1.7-1.14-2.59-1.65-2.71-1.54-5.42-3.08-8.17-4.53a30.09,30.09,0,0,1-6.33-4.78c-2.58-2.39-5.39-4.55-8.11-6.8a53.5,53.5,0,0,0-4.67-3.71c-1.58-1-3.47-1.59-5-2.65-4.38-3-8.63-6.18-13-9.21a18.51,18.51,0,0,0-3.54-1.75c-2.24-.93-4.5-1.8-6.77-2.63a2.3,2.3,0,0,0-1.62-.1c-2.39,1.2-4.72,2.53-7.08,3.79a7.35,7.35,0,0,1-1.68.74c-2.05.52-2.94,1.82-2.24,3.69a19.36,19.36,0,0,1,0,13.48c-.47,1.36-1.86,2.51-3.05,3.47-1.8,1.45-3.45,3-6,3.45a7.51,7.51,0,0,1-5.85-1.3,4,4,0,0,1-1.42-3.14c.59-4,1.54-8,2.34-12a44.75,44.75,0,0,0,.8-4.86,1.68,1.68,0,0,0-1.12-1.2c-2.22.09-4.55-.65-6.51,1.43a5.53,5.53,0,0,1-3.74,1.13c-4,0-7.89-1.1-10.15-4.38-.93-1.35-3-4-.55-6.45-1.35.56-2.72,1.07-4,1.69-4.84,2.29-9.75,4.45-14.45,7-2.89,1.57-5.35,3.91-8.16,5.64-5.18,3.19-8.38,8.44-13.08,12.16-3.11,2.47-5.57,5.77-8.4,8.61-1.08,1.08-2.53,1.79-3.55,2.9-3.77,4.09-7.43,8.28-11.13,12.43-.26.3-.47.71-.81.89-4,2.22-6.13,6.27-9.1,9.49-1.35,1.46-2.83,2.79-4.23,4.21-2.16,2.2-4.48,4.28-6.42,6.67-2.12,2.6-3.79,5.57-5.81,8.26-1.3,1.72-2.93,3.18-4.35,4.82-2.59,3-5.1,6.07-7.72,9-1.2,1.36-2.63,2.52-3.89,3.84-2,2.09-3.92,4.26-5.92,6.36-1.3,1.36-2.67,2.65-4,4-1.86,1.86-3.77,3.69-5.56,5.63-.9,1-1.42,2.35-2.4,3.22-2.9,2.61-6.44,4.67-8.76,7.69-1.72,2.23-3.65,4.31-5.34,6.56a6.19,6.19,0,0,1-2.53,1.63,2.61,2.61,0,0,0-1.83,2.64c-.2,2.14.11,4.91-2.8,5.92,1.07,3.11-4.91,2.83-3.1,6.45.25.5-.88,1.6-1.2,2.48-1,2.78-1.9,5.59-2.87,8.39-.15.44-.31,1-.65,1.22-2.5,1.28-1.77,3.39-1.55,5.42a10.66,10.66,0,0,1-.08,3.09c-.47,2.2-1.13,4.35.54,6.4.28.35.13,1.1.08,1.66-.18,2.11,1,3.42,2.54,4.59.52.4,1.39,1.15,1.29,1.4-.75,1.8.37,2.31,1.57,3.17,1,.72,1.5,2.1,2.34,3.09a7.13,7.13,0,0,0,2.43,2.23c4.36,1.66,7.44,5,10.89,7.86a12.14,12.14,0,0,0,2.28,1.3c2.65,1.31,6,2,7.78,4.07,2,2.3,4.56,3.46,6.94,4.92s5.21,2.3,7.79,3.51a11.32,11.32,0,0,1,2.22,1.65c.36.3.57.86,1,1q4.05,1.64,8.18,3.12c1,.35,2,.46,3,.76,1.32.41,2.66.84,2.76,2.61,0,.27.33.74.51.75a10.79,10.79,0,0,1,6.13,2.45c1.87,1.37,4.3,1.93,6.41,3,1.89,1,3.68,2.16,5.49,3.29a2.29,2.29,0,0,1,1,1c.7,2.15,2.41,3,4.31,3.85,1.43.67,2.49,2.09,3.85,3s3.12,1.73,4.7,2.56c2.31,1.2,4.63,2.38,6.94,3.57.14.08.35.16.38.28.89,3.16,3.77,3.7,6.25,4.78.22.1.55.14.63.31,1.86,3.87,6.16,3.19,9.06,5,3.05,1.88,6.46,1.47,9.4,2.66,3.38,1.38,6.81,1.7,10.24,2.41.9.18,1.61,1.14,2.49,1.6a46.16,46.16,0,0,0,5,2.35c1.4.52,3.35.06,3.53,2.41,0,.22.6.54.93.56,1.57.11,1.52,1.07,1.36,2.23a21.26,21.26,0,0,1-.25,3.51c-.74,2.39-3.54,3.55-6.36,3a11.86,11.86,0,0,0-2.95.18,14.43,14.43,0,0,1,.27,2.6,7.79,7.79,0,0,1-.51,1.86c1.29,2.22,2.73,4.1,3.52,6.23s-2.33,4.84-4.72,4.35-4.72-1.17-7.1-1.63a2.73,2.73,0,0,0-2,.45c-1.47,1.19-1,5.57.4,6.75.52.43,1.05,1.66.81,2-1.46,2.24.19,2.38,1.23,2.59a7.61,7.61,0,0,1,.61,2.43,15.37,15.37,0,0,1-1.12,4.9c-1.26,2.49-5.4,3.54-7.21,1.82a12.83,12.83,0,0,1-3-4.68c-.48-1.25-.95-2.25-2.21-1.88a2.87,2.87,0,0,0-1.62,2.18c0,1.82-.28,3-2.37,3.15-.49,0-1.1.88-1.32,1.47-1.53,4-4.06,4.65-7.19,1.82-1.06-1-2.33-1.44-2.27-3.61.07-2.43-2-3.1-5.08-2.65-1-.91-1.81-1.5-2.46-2.21-.38-.41-.89-1.12-.77-1.51.43-1.38-.07-2.17-1-3.13a4.52,4.52,0,0,1,.59-6.8c2.55-2.1,2.59-4.43.39-6.85-1.76-1.95-3.13-4.26-4.95-6.14s-4.07-3.51-6.09-5.29c-1.6-1.41-3.1-2.92-4.72-4.31-2.09-1.8-4.17-3.63-6.41-5.22a29.24,29.24,0,0,0-4.86-2.48c-5.52-2.53-11.39-4.5-16.48-7.7-3.21-2-6.81-2.67-9.93-4.58-.34-.21-.81-.29-1.06-.57-2.92-3.43-7-5.39-10.39-8.25-1.17-1-3.09-1.07-4.55-1.8-3.85-1.93-7.63-4-11.45-6-.62-.32-1.27-.58-1.91-.85a5.6,5.6,0,0,1-1.5-.6c-3.65-3.2-7.11-6.62-10.9-9.63-5.38-4.28-10.62-8.66-15-14-.54-.65-.8-1.54-1.28-2.25-2-2.87-3.64-6-6.35-8.27a1.83,1.83,0,0,1-.43-.59c-2-4.35-4.13-8.68-6.1-13.07a10.77,10.77,0,0,1-.57-3.08c-.42-3.72-.82-7.45-1.17-11.18-.1-1,0-2.08,0-3.11-.31-6.32,1.32-12.16,4-17.84,1.21-2.56,1.45-5.6,2.78-8.08,1.87-3.5,4.42-6.63,6.54-10,2.69-4.3,5.19-8.71,7.86-13,1.89-3,3.87-6,5.9-9s4.86-5,6.19-8.65c.91-2.5,3.66-4.3,5.5-6.49,1-1.23,1.81-2.66,2.81-3.93.87-1.1,2-2,2.79-3.16,1.74-2.64,3.17-5.49,5-8.07,2-2.84,4.24-5.5,6.45-8.18.44-.53,1.31-.69,1.8-1.2,1-1.05,1.9-2.21,2.82-3.35.44-.55.75-1.23,1.24-1.74,2.33-2.46,4.77-4.82,7-7.34,3.36-3.73,6.42-7.76,10-11.31,2.43-2.44,4.74-5,7.91-6.82,2.48-1.41,4.12-4.34,6.06-6.65a19,19,0,0,1,6.18-5.2c1.41-.71,2-2.87,3.21-4.22,2.66-3.08,5.43-6.06,8.15-9.09a2.57,2.57,0,0,0,.69-.95c.72-3.28,3.43-4.88,5.68-6.87.4-.36.7-.85,1.12-1.18,1.32-1,2.67-2,4-2.95.56-.39,1.39-.46,1.83-.92q5.59-5.86,11.08-11.84a23.7,23.7,0,0,0,1.55-2.34c.42-.58.92-1.52,1.42-1.54,2.57-.13,3-2.11,4-3.85,1.4-2.43,3.22-4.62,4.76-7a34.59,34.59,0,0,0,3.21-5.63c.56-1.38.29-3.08.66-4.56,1.48-5.83,3.22-11.6,4.56-17.46a89.08,89.08,0,0,0,1.16-9.42c.15-1.26.39-2.52.44-3.78.17-4.15.33-8.3.36-12.46,0-1.42-.8-2.95-.5-4.26.69-3.07-.45-6-.39-8.95.08-3.74.08-7.48,0-11.21-.09-2.64-.52-5.28-.62-7.92-.21-5.55-.24-11.1-.47-16.64-.12-2.93-.6-5.84-.74-8.76-.13-2.68,0-5.38,0-8.06a56.25,56.25,0,0,0-.57-7.46c-.77-4.5-1.88-8.93-2.65-13.43-.47-2.76-.5-5.6-.86-8.38-.28-2.2-.85-4.36-1.16-6.56-.82-5.65-1.8-11.26-.61-17,.46-2.25-.22-4.72-.37-7.09-.35-5.49-.6-11-1.08-16.46-.37-4.17-1-8.31-1.57-12.46a13.85,13.85,0,0,0-.72-2c-1.16,1.7-2,2.94-2.85,4.22a16.46,16.46,0,0,0-1.32,2.49c-.2.45-.37,1.31-.16,1.46,1.14.87,1.13,1.91.17,2.62A5.87,5.87,0,0,1,242.8,267c-3.51-.19-5.59-3.08-8-5.09-.66-.54-.13-2.54-.14-4a4.08,4.08,0,0,0-1,1c-1.12,2-2.31,2.29-3.87.74a3.74,3.74,0,0,0-4.09-1.2c-1.38.4-3,.11-5.34.13l6.62-10.3c-1.36-1.29-2.41-1.61-3,.63a7.86,7.86,0,0,0-1.82-.85c-2.11-.36-3.6-.85-2.75-3.67.37-1.25-.67-2-2.37-1.59-4,1-8.14,1.77-12.18,2.76-3.57.87-7.09,1.95-10.64,2.88-2.69.71-5.38,1.4-8.1,2-2.91.63-6.05.67-8.71,1.83-3.05,1.34-6.6,1.79-9,4.55-1.05,1.18-2.86,1.65-4.13,2.68a37.55,37.55,0,0,0-4.2,4.07c-2.82,3.11-3.38,7-4.25,11a24.78,24.78,0,0,0-1,6.39c0,1.26-.28,2.27,1,3.09a1.59,1.59,0,0,1,.73,1.17c-.48,3.44,1.26,6.53,1.42,9.86.23,4.73,1,9.53.46,14.17-.36,3,2.27,4.87,1.56,7.74-.95,3.86.83,7.44,1.66,11.11.13.57-.2,1.24-.23,1.87-.09,2-.85,4.14.85,5.9a.8.8,0,0,1,.23.42c.08,2.9.11,5.8.22,8.7a21.79,21.79,0,0,0,.46,2.62c.38,2.35.78,4.71,1.12,7.08.07.52-.37,1.33-.13,1.58,2.56,2.7,1.68,6.3,2.53,9.43.57,2.09.38,4.39.61,6.58.19,1.78.44,3.55.78,5.3a44.24,44.24,0,0,0,1.54,6.62c1.11,3,2.34,6,5.69,7.5,1.94.85,4.34,1.5,4.56,4.49,1.92-.77,3.5-.56,4.32,1.61a1.38,1.38,0,0,0,.88.72,133.5,133.5,0,0,0,13.4,2.06c1.75.12,3.59-1.41,5.43-2.07,2.37-.84,4.84-1.43,7.16-2.4a40.09,40.09,0,0,0,5.43-3,25.71,25.71,0,0,0,7.73-7.11c.63-.9,2.16-1.15,2.91-2,2.51-2.84,6.18-3.34,9.31-4.91.07,0,.16-.1.23-.08,3.18.85,6.18-1,9.21-.72,1.89.18,3.7,1.6,5.42,2.67.35.22.31,1.34.2,2a25.66,25.66,0,0,1-.86,2.46c-1,3.57-.06,5.21,3.73,5.72,2,.26,2.47,1.36,2.36,2.94-.21,3-4.95,7.19-8,6.72-2.33-.35-3.63-.24-3.3,2.51,0,.11-.24.22-.3.36s0,.29,0,.44c.6.16,1.63.19,1.73.5.79,2.66,2.87,4.37,4.48,6.42a.83.83,0,0,1,.15.68c-1.13,2.28.23,4.52.09,6.79-.16,2.57-4.66,5.78-7,4.61s-3.33-.21-4.1,1.86c-1.17,3.14-2.31,6.32-3.73,9.35a19,19,0,0,1-3.27,4.48,2.16,2.16,0,0,1-2.12-.13,38,38,0,0,1-4.73-5.65,2.24,2.24,0,0,0-2.76-1.18c-1.72.39-3.46.73-5.17,1.16s-2.53-.53-2.71-1.93a24.87,24.87,0,0,1,.07-4.31,41,41,0,0,0,.2-4.56c-.12-1.73-1.48-2.06-2.85-1.66-2,.6-3.95,1.58-6,2.14-3.13.86-6.31,1.55-9.48,2.19a10.66,10.66,0,0,1-2.35-.24c-1.27,0-2.54,0-3.8,0-3.26.17-6.26,1.21-9.85,0-3.1-1-6.7-1.2-10.08-2-2.41-.56-4-1.89-5.88-3.12a11.57,11.57,0,0,1-2.81-2.44c-.5-.65-.48-1.71-.72-2.74-2.38-.72-3.8-2.66-4.77-5.18-.71-1.84-1.74-3.57-2.62-5.35a58.27,58.27,0,0,1-2.78-5.74q-3.51-9.75-6.78-19.59c-1.39-4.16-2.34-8.49-4-12.54-3.37-8.27-4.46-17-5.46-25.71-.55-4.8-1.38-9.57-1.92-14.38-.66-5.81-1.37-11.63-1.63-17.47-.11-2.55.23-5.07-.9-7.49-.16-.34.25-.91.28-1.38a16.57,16.57,0,0,0,0-2.54c-.1-.94-.44-1.85-.51-2.78-.26-3.45-.66-6.91-.61-10.36.06-3.24.68-6.47.94-9.71.16-2.12.66-4.16-.06-6.42-.54-1.69.18-3.76.25-5.67s-.07-4.13.11-6.18c.32-3.62.9-7.22,1.2-10.84.35-4.17.36-8.36.82-12.51.19-1.72,1.13-3.35,1.78-5,.78-2,1.5-4.07,2.47-6a10.8,10.8,0,0,1,2.57-3.49,38.45,38.45,0,0,1,4.86-3,11.66,11.66,0,0,0,2.24-1.42c2.81-2.73,6.18-2.68,9.8-2.55,3.45.11,6.93-.54,10.41-.8a24.06,24.06,0,0,1,5.22-.12,18.27,18.27,0,0,0,11.07-1.54,2.7,2.7,0,0,1,2.11-.14c3.42,1.86,7,.22,10.44.46,2.79.19,5.71-.81,8.42-.35,6,1,11.95-.5,17.93.41,2.41.36,5-.46,7.5-.51,3.44-.07,6.91.26,10.34.07,3.08-.17,6.06-1,9.24-.17,1.31.32,3-.82,4.48-1.3,5.9-1.86,11.52-4.67,17.93-4.78a11.25,11.25,0,0,0,5.35-1.62c3.14-1.91,6.46-1.58,9.83-1.55,2.81,0,5.57.18,8.29-1.28,4.35-2.35,5.63-3.6,5-8.26-.6-4.29-.26-8.48-.08-12.72a1,1,0,0,0,0-.24c-.77-3.16-1.69-6.29-2.3-9.48-.71-3.75-3.7-5.67-6-8.16-.41-.45-.58-1.12-1-1.61-.88-1.1-1.86-2.13-2.71-3.26a6.32,6.32,0,0,1-.86-1.86c-.48-1.46-.89-2.93-1.32-4.4Zm12.53,643.13c.1,1.77-.2,3.45.36,4.76,1.46,3.39,3.34,6.6,5,9.93a11,11,0,0,1,.54,2.48,33.52,33.52,0,0,0,.77,3.44c.51,1.59,1.78,3.22,1.59,4.69-.29,2.18.48,2.14,2.14,2.29,2.48.23,5.25.12,6.21,1.91,0,3-.22,5,.13,6.9.66,3.7,1.47,7.35,0,11.06,3.44.29,5.12-.59,6.51-3.24.34-.64.67-1.53,1.22-1.75,2.55-1,3.06-3.21,3.69-5.51.71-2.62,3.85-4.28,5.87-2.67,1.75,1.39,3.46,1.16,5.22,1.52L345,828c-1-1.54-1.8-2.78-2.55-4.07a76.31,76.31,0,0,1-3.83-6.83,66.62,66.62,0,0,1-2.51-7.2c-.1-.3.24-.73.32-1.11s.33-1,.15-1.33c-1.54-2.74,0-5,1.13-7.25.86-1.84,2.2-3.58,2.58-5.51.94-4.68,4.83-6.09,8.32-7.4,2.9-1.08,6.05-1.32,8.16-4a6.25,6.25,0,0,1,1.81-1.19,55.73,55.73,0,0,0,5.26-3.19c1.93-1.48,3.56-3.37,5.48-4.88,2.24-1.77,4.62-3.38,7-4.94,1.31-.86,2.78-1.47,4.18-2.21a26.21,26.21,0,0,0,4.86-2.67c1.62-1.36,2.65-3.43,4.28-4.76s2.8-4.38,6-3.45c.29.09.78-.66,1.24-.93,1.85-1.08,3.62-2.62,5.63-3.07,2.61-.59,3.46-3,5.41-4.17,1-.6,1.43-2,2.31-2.9,2-2,4.18-3.94,6.33-5.83a19.66,19.66,0,0,1,2.92-2.1c4.6-2.78,10.15-3.45,14.53-6.79,3.43-2.61,7.07-5,10.65-7.38,2.22-1.5,4.49-2.9,6.76-4.31,3.17-2,6.43-3.84,9.51-6a64.7,64.7,0,0,0,5.85-4.91c1.78-1.56,3.46-3.24,5.25-4.8a11.07,11.07,0,0,1,2.67-1.77c2.41-1.08,5.09-1.71,7.31-3.09,4.5-2.79,8.72-6,13.16-8.94,2.61-1.71,5.47-3.06,8.13-4.71s5.3-4.29,8.33-5.33a24.52,24.52,0,0,0,10.42-7.17,6.61,6.61,0,0,1,2.76-2.17c3.38-.87,5.44-3.45,7.66-5.71a47.66,47.66,0,0,0,4.75-6.3c2.4-3.44,5-6.77,7-10.46,1.55-3,2.27-6.37,3.22-9.62a16.15,16.15,0,0,0,.54-4.11,71.71,71.71,0,0,0-.09-9,10.57,10.57,0,0,0-1.83-5.47,77.76,77.76,0,0,0-7.46-7.16c-.82-.76-1.81-1.34-2.56-2.16-1.87-2-3.43-4.36-5.49-6.14-4.76-4.14-10.05-7.68-13.84-12.88a1.42,1.42,0,0,0-1-.5c-3.11,0-5.18-2.12-7.39-3.69-3.5-2.49-6.6-5.53-10-8.22-3.76-3-7.73-5.74-11.43-8.81-3.48-2.88-6.73-6-10.07-9.06-2.82-2.57-5.41-5.45-8.5-7.63-2.34-1.66-3.62-4.23-6.31-5.68-3.05-1.64-5.34-4.64-8.11-6.88-4.31-3.48-8.76-6.8-13.11-10.22-2-1.58-3.93-3.28-5.94-4.87-1.67-1.32-3.86-2.26-5-3.93-1-1.43-1.68-2.21-3.13-1.94a12.45,12.45,0,0,0-1.71-2.06c-1-.81-2.33-1.31-3.31-2.18-1.93-1.69-3.41-4.18-5.61-5.21-6-2.8-9.78-8.05-14.8-11.88a57.68,57.68,0,0,0-6.61-4.63c-3.16-1.76-6.9-2.66-9.7-4.83-5.83-4.52-11.92-8.93-16.08-15.19A104.09,104.09,0,0,1,363.44,463c-.77-1.5-1.13-3.21-1.95-4.66-1.23-2.15-2.71-4.16-4.1-6.27,1.48-1.33,1.92-2.33.56-3.83a7.51,7.51,0,0,1-1.65-3.9,83.2,83.2,0,0,1-.47-8.93c0-2.11.49-4.25.34-6.34-.28-3.67-.89-7.32-1.36-11-.18-1.43-.25-2.87-.51-4.28-.58-3.15-1.25-6.29-1.88-9.43a3.84,3.84,0,0,1,0-.48c-.23-3-.37-6-.73-8.94-.29-2.41-1-4.76-1.26-7.16-.38-3.15-.43-6.35-.85-9.5-.27-2.1-1.21-4.14-1.34-6.25-.18-2.79.33-5.62.2-8.42-.1-2.2-.83-4.37-1.07-6.57a37.84,37.84,0,0,1-.3-7.13,26.2,26.2,0,0,0,0-6.38c-.54-3.4-.4-6.91-.66-10.37-.19-2.45.7-5.06-.95-7.36-.16-.23.38-.87.4-1.33a60.38,60.38,0,0,0,0-6.59c-.27-3.16-.92-6.28-1.19-9.45-.25-3-.15-6-.34-9s-.66-6-.79-9.07c-.08-1.75.57-3.55.38-5.28-.59-5.26-1.43-10.5-2.19-15.75a39.15,39.15,0,0,1-.74-4.88c0-1.61.48-3.11-.29-4.83s-.67-3.57-.77-5.39c-.23-3.9-.28-7.82-.53-11.73-.09-1.41-.62-2.79-.79-4.2a18.34,18.34,0,0,1,2.81-11.84c1.67-2.81,3.63-5.33,7.52-4.87a8.58,8.58,0,0,0,2.08-.46,21.85,21.85,0,0,1,4.29-.56c4.07.19,8.13.53,12.19.87,4.54.39,9.07.9,13.61,1.26,5.93.48,11.82,2,17.83.78a2,2,0,0,1,.73,0c3.28.7,6.55,1.47,9.84,2.12,6.36,1.25,12.08,4.19,18,6.57,2.72,1.09,5.8,1.21,8.59,2.17,3.53,1.21,7.88,0,10.66,3.53a2.53,2.53,0,0,0,1.31.55c3.42.89,7.46.32,9.61,4.14.42.74.83,1.49,1.24,2.24-.18.14-.36.28-.55.41,1.3.73,2.82,1.29,2.12,3.33a1.16,1.16,0,0,0,.49,1c1.81,1,2.49,2.32,3.2,4.5.83,2.54,2.58,4.82,2.36,7.77a21.88,21.88,0,0,1-.25,2.68,12.36,12.36,0,0,1-.86,2.06c3.41.53,2.3,2.68,2.06,4.51-.11.76-.57,1.89-.23,2.23,1.85,1.91,1.11,4.44,1.65,6.61s-.31,4.49-.6,7.32c2.16,2.38,2.16,2.38-1,6.55,2.57,2.82,2.93,6,1.83,9.56a2.46,2.46,0,0,0,.28,1.87c.86,1.3.71,2.15-.78,2.72-.17.07-.26.35-.5.69l1.15.44c.41,1.18.69,1.9.9,2.63a4.92,4.92,0,0,1,.33,1.74c-.23,2.16-1.47,4.81-.63,6.35,1.22,2.23-.4,2.75-1.14,3.93.19.33.27.69.5.86,1.81,1.37,2.46,2.91,1.37,5.16a7.41,7.41,0,0,0-.18,3.34c.11,2.42.32,4.84.46,7.26.08,1.55-.35,3.32.26,4.6.8,1.7.47,2.5-1,3.32a19.62,19.62,0,0,0-1.95,1.5c2.74,2.47,1.93,5.4,1.52,8.37a59.23,59.23,0,0,0-.42,7.77c0,2.86.31,5.71.37,8.57.06,3,0,6.08,0,9.12,0,1.85,0,3.7.06,6.12,2.08,1.7,2.05,1.69.54,5.08a2.74,2.74,0,0,0,.11,1.56c.54,2.25-.22,3.42-2.32,4.27-2.52,1-4.94,2.31-7.63,3.59-1.52-1.49-3.22-.71-4.64.63a4.93,4.93,0,0,1-5,1.15,5.63,5.63,0,0,0-3.12.69c-1.86.8-3.59,2-5.49,2.66-2.7,1-5.56,1.55-8.26,2.54-2.05.75-3.91,2-5.91,2.84-2.91,1.28-5.92,2.31-8.77,3.7s-7.27.06-8.27-2.8c-.65-1.86-.85-3.53-2.73-.84-.19.26-.74.24-1.11.39-1.51.59-3,1.22-4.51,1.79a10.15,10.15,0,0,1-2.94.93c-1.94.1-3.79,1.62-3.2,3.05,1.13,2.71-.77,4.49-1.88,6.45-.27.46-1.71.51-2.54.35-3-.54-5.92-1.41-8.92-1.79-.89-.11-1.93,1-2.91,1.51.59.78,1.08,2.14,1.77,2.26a45.2,45.2,0,0,0,9.12.78c3.7-.17,7.29-.05,10.67,1.49,2,.91,2.23,2.79.76,4.51l-2.61,3,1.91,1.05c-.41,1.21-.7,2.07-1,2.93.73.09,1.06,0,1.22-.23q3.66-5,7.25-10a1.35,1.35,0,0,0,.25-.92c-.37-1.9,1-2.75,2.3-3.21a70.5,70.5,0,0,0,7-3c3.29-1.62,7.42-1.54,11.19-2.21a15,15,0,0,0,4-.86c3.11-1.54,6.21-2.63,9.72-1.8a2,2,0,0,0,1.38,0,9.11,9.11,0,0,1,7.77-1.18,6.19,6.19,0,0,0,2.39,0c3.87-.61,7.73-1.3,11.6-1.92,1.61-.26,3.49,0,4.82-.72a63,63,0,0,0,10.88-7c1.22-1,2.05-3,3.39-4.36.37-.37-.13-1.57.24-2,2.94-3.39,1.39-7.31.9-10.82a15.4,15.4,0,0,1,.11-5.51,12.1,12.1,0,0,0,.42-2.5c0-2.42-.21-4.84-.25-7.26,0-3,.18-6,0-9-.25-3.26-1.21-6.49.35-9.7.2-.4-.27-1.12-.45-1.68a9,9,0,0,1-.76-2.53c0-3.08.26-6.16.3-9.25,0-.89-.58-1.83-.46-2.69.2-1.6-.76-2.89-.92-4.28a69.23,69.23,0,0,1-.18-9.77c.1-2.84.73-5.67.74-8.51,0-4.34-.27-8.7-.48-13-.17-3.38-.47-6.74-.63-10.12-.07-1.66,0-3.34.09-5q.09-4.58.2-9.15a3.26,3.26,0,0,1-.68-3.32,28.75,28.75,0,0,0,.51-8.54c-.51-6.35-1.41-12.67-2.05-19-.16-1.7.25-3.46.09-5.16-.37-3.76-.75-7.55-1.48-11.25-.68-3.45-.21-7-2.82-10.26-2-2.54-4.84-3.16-7-5a35.26,35.26,0,0,0-3.25-2.14c-1.3-.3-2.91-.69-4.54-1-3.78-.78-7.57-1.56-11.37-2.27-1.79-.33-3.62-.45-5.43-.76a10.52,10.52,0,0,1-3.07-.8,11,11,0,0,0-7.6-1.28,15.88,15.88,0,0,1-8.36-.8,11.59,11.59,0,0,0-5.46-1c-1.57.13-3.41.28-4.71-.4A19.31,19.31,0,0,0,406.45,208c-1.48.17-3,0-4.49,0-3,.11-6-3.32-9.09-.16-.08.08-.32.05-.47,0-3.27-1.06-6.64.1-10.1-.84a80.3,80.3,0,0,0-13-2.59c-3.7-.37-7.4-1.28-11.19-1.27-1.41,0-2.83.24-4.24.21-4.38-.11-8.77-.3-13.15-.45a32.44,32.44,0,0,1-12.45-2.46,11,11,0,0,1-6.79-7.92,33.83,33.83,0,0,1-.5-9.64,63.86,63.86,0,0,1,2-11.32c.41-1.57,1.75-3.7,3.08-4.06,4.56-1.24,8.89-2.63,12.14-6.28,3.09-3.48,6.21-6.94,9.21-10.5.5-.59.47-1.64.67-2.49a12.54,12.54,0,0,1,.32-1.62c.89-2.38,4.6-4,2.06-7.32-.06-.09.07-.31.07-.46,0-3.5,1.71-7.14-.87-10.43a2.1,2.1,0,0,1-.23-.68c-1.42-5.19-3.11-10.29-6.25-14.73-1-1.43-2.59-2.46-3.63-3.88-2.52-3.46-4-7.93-9.06-8.8-.33-.06-.55-.6-.89-.77-1.64-.84-3.25-2.1-5-2.32-2.93-.38-5.95-.06-8.93-.09-3.51,0-6.91-.47-9.7,2.8-2.35,2.76-5.59,4.75-8.21,7.31-1,1-1.37,2.63-2,4-1.38,2.76-3.38,5.31-2.81,8.69,0,.06-.09.13-.14.19-2.06,2.86-2.27,6-1.72,9.38.07.41-.19.87-.24,1.31-.17,1.33-.78,2.84-.37,4,1.09,2.92.9,5.75.47,8.69a5.93,5.93,0,0,0,.56,2.35c-.42,1.45-.8,2.75-1.3,4.5l2.44-.77c.7,1.6,1.36,3.07,2,4.56.26.63.17,1.54.6,1.93,1.93,1.73,4,3.35,6,4.94a4.6,4.6,0,0,0,1.76.69c2.38.51,3.37,1.79,3.57,4.29.17,2.11-.3,4.36,1.24,6.27.34.42.11,1.36,0,2.05-.25,1.81-1,3.66-.78,5.41.41,3.63,1.37,7.19,1.95,10.81a6.65,6.65,0,0,1-.41,3c-.48,1.36-1.45,2.57-1.79,3.94-.82,3.39-4,6.75-7.19,7.18s-6.31.68-9.44,1.15c-6.7,1-13.4,2.07-20.07,3.24a23.66,23.66,0,0,0-5.38,1.68c-1.69.74-3.11,2.27-4.84,2.69a78.56,78.56,0,0,1-10,1.5c-1.57.18-3.26-.31-4.76.06-2.13.53-4.12,1.34-6.23,0-.32-.2-.93.06-1.4.1l-8,.76a.32.32,0,0,1-.22-.08c-2.94-2.36-6-.61-9-.12-2.1.34-3.88.54-5.77-.53a6.53,6.53,0,0,0-3.15-1c-3.26.12-6.52.45-9.76.82-1.28.14-2.52.88-3.78.87-2.94,0-5.89-.38-8.84-.52-2.61-.13-5.22-.58-7.72.92-1.4.84-3.09,1.21-3.76-1-1.28.49-2.95,1.58-3.39,1.21-3-2.49-6.12.5-9.05-.6-.3-.12-1,.27-1.22.61-.94,1.58-1.92,1-3,.21a2.1,2.1,0,0,0-1.26-.51c-2.83.47-5.86.55-8.38,1.71-1.77.81-3.18,2.76-4.76,4.19-1.23,1.11-1.79,3-2.86,4.87,1,2.3-2.53,2.73-3,4.83.19.67.83,1.67.56,2.11a8.82,8.82,0,0,0-1.18,5c0,2.55-1,5.09-1.26,7.66-.16,1.72,1,3.58-.57,5.17-.05,0,.05.33.14.44,1.45,1.76.56,3.08-.26,3.7.11,1.81.28,3,.23,4.24-.08,1.9-1.15,4.43-.3,5.57,2.44,3.25-.29,6.16.09,9.23.31,2.58-.58,5.31-.94,8-.19,1.41-.4,2.82-.61,4.35,1.74,1.38,1.18,3.28.92,5.26a30.92,30.92,0,0,0-.22,6.66c.19,2.34,1,4.62,1.21,7,.19,1.87-.08,3.78,0,5.67,0,1.36.39,2.71.45,4.07a33.25,33.25,0,0,0,0,4.35c.51,2.73,1.53,5.37,1.92,8.1s-.16,5.78.52,8.47c.76,3,.34,6.37,2.43,9a2.59,2.59,0,0,1,.23,1.4c.08,3.34.09,6.7.26,10a2.75,2.75,0,0,0,1,2c1.83,1,1.54,2.59,1.5,4.16a6,6,0,0,0,0,1.84c.47,1.44,1.15,2.8,1.63,4.23s1.18,3-.37,4.41c-.2.18.07,1.35.23,1.38,3.84.58,4.95,2.81,4,6.37,0,.06.07.14.1.21,1.24,2.41,2.56,4.79,3.69,7.25.61,1.33.85,2.83,1.33,4.23a18.34,18.34,0,0,0,1.55,4c1.12,1.82,1.8,3.59.86,5.84a5.32,5.32,0,0,0,1.57.95c1.54.34,2.12,1,2.23,2.75.12,2,.75,4.19,3.33,4.82.45.12.87.7,1.15,1.17,2.14,3.56,5.09,5.43,9.4,4.77a5.7,5.7,0,0,1,2.31.46c2.95.86,5.41,3.63,9,2,2.51-1.12,5.28.14,8.12-1.32,3.39-1.75,7.76-1.16,11.46-2.89a50,50,0,0,1,7.67-2.65c1.52-.43,2.92-1,4.63.61,1.52,1.45,1.11,3.75,2.44,4.61,2.1,1.35,4.56,2,5.74,4.59.44.94,1.43,1.59,2,2.47a11.8,11.8,0,0,1,.85,2.45c.76-1.9,1.59-3.09,1.65-4.32.12-2.26-.37-4.56-.3-6.83.13-3.76,2-4.87,5.33-3.35.29.13.61.44.87.4a27.71,27.71,0,0,0,3.83-.91c.23-.08.39-1.08.2-1.47a24.16,24.16,0,0,0-1.7-2.6,53.49,53.49,0,0,1-4.15-6.52,4.92,4.92,0,0,1,.12-4.15c1.24-1.75.57-2.43-.65-3.57a3.5,3.5,0,0,1-1.1-2.73,7.16,7.16,0,0,1,3.67-4.37c.62-.37,1-1.2,1.45-1.82a47.38,47.38,0,0,0-8.54,1.6c-.13,0-.2.25-.31.36-2,2-3.85,4.21-6,6-2.79,2.36-5.82,4.45-8.77,6.61-4.59,3.36-10.22,3.88-15.43,5.51-2,.61-4.31-.57-6.2,1.05-.22.2-.79.09-1.18,0-2.48-.55-5-.94-7.42-1.73-3.65-1.19-7.24-2.6-10.79-4.06a8.35,8.35,0,0,1-2.55-2c-1.55-1.59-3-3.24-4.49-4.93-3.13-3.64-7-6.95-6.14-12.54a2.15,2.15,0,0,0-.13-.69c-.71-3-1.49-5.95-2.09-8.94-.21-1.06.12-2.21,0-3.29-.2-1.7-.59-3.38-.87-5.07-.49-3-.87-6-1.45-9s-1.53-6.1-2-9.2c-.33-2.1.07-4.31-.21-6.42-.47-3.53-1.84-7-.74-10.62.08-.27,0-.82-.15-.91-1.66-.82-1.11-2.44-1.33-3.72q-.91-5.51-1.58-11.05c-.17-1.46,0-3,0-4.45,0-1.05-.11-2.11-.21-3.15-.22-2.26-.44-4.51-.71-6.76-.3-2.62-.71-5.23-1-7.85-.53-5.38-.93-10.76-1.47-16.14a14.74,14.74,0,0,1,1.59-8.52c1.05-2,1.84-4.38,3.44-5.81,4.39-3.91,9.1-7.48,13.8-11,1-.79,2.9-1.75,3.72-1.33,2,1,2.83-.29,4.16-1a30.82,30.82,0,0,1,4.62-1.72c1-.32,2-.47,3-.73,2.38-.62,4.74-1.34,7.14-1.87s4.86-.47,7-1.34a53.47,53.47,0,0,1,16.17-4.11,63.77,63.77,0,0,1,9.57-.22c4.91.39,9.77,1.24,14.66,1.85,5.72.71,11.45,1.34,14.78,7,.52.89,1.08,1.76,1.62,2.65a8.41,8.41,0,0,0,1.47,2c2.4,2.12,3.06,4.87,3,7.89,0,2,.58,4.46-.32,6-1,1.73-.8,2.9.34,3.66,2.27,1.49,1.42,3,.62,4.73a4.25,4.25,0,0,0-.38,1.95c.09,1.88.3,3.75.42,5.2.47,1.08,1.11,1.87,1.09,2.63-.06,1.84-.63,3.67-.63,5.5,0,2.32.34,4.64.59,7.56-.06.2-.79,1.22-.56,1.94a7.77,7.77,0,0,1-.57,6.14c-.23.47.22,1.32.45,2a11.27,11.27,0,0,1,.84,1.94c.43,3.25.73,6.52,1.16,9.77a3.64,3.64,0,0,0,.8,1.8,2.75,2.75,0,0,1-.39,4.09,9.31,9.31,0,0,0-1.07,1.41c2.59-.58,2.1.86,2.06,2.08a8.63,8.63,0,0,0,.13,2.54c1.05,4,3.25,7.78,2.64,12.19-.31,2.29-.33,4.62-.49,6.94-.27.5.59.9.59,1.3,0,2.75,0,5.52-.25,8.26-.16,1.91-.78,3.6.09,5.73,1,2.36.78,5.22,1,7.87a34.09,34.09,0,0,0,0,3.92c.73,3.67,1.69,7.2.32,11-.78,2.15-1.39,4.92-.67,6.9.89,2.47.43,5,1.34,7.37.46,1.18,1,2.86.49,3.76-1.31,2.39-.13,4.46.32,6.56.8,3.77,1.35,7.49.26,11.27-.49,1.7-2.16,3.36,0,5.08.18.14,0,.76,0,1.15-.42,3.06.15,6.15-1.3,9.21-.94,2-1.25,4.31-2,6.49-1.37,3.93-1.74,8.2-2.7,12.3A10.84,10.84,0,0,1,261.6,459c-.58,1.59-.91,2.66-1.36,3.67s-1.74,2.41-1.44,2.95c.89,1.57.06,2.3-.71,3.38a83.1,83.1,0,0,0-4.89,7.36c-1.63,2.86-2.94,3.72-5.71,3.36-2.22,1.83-.92,5.91-4.82,6.4a.48.48,0,0,0-.31.34c-.32,3.66-4,4.62-5.72,7.14-.48.7-1.07,1.7-1.73,1.81a9,9,0,0,0-4.66,2.18A25.92,25.92,0,0,0,224,504c-2.75,4.52-7.6,7.47-9.48,12.64a1.13,1.13,0,0,1-.68.66c-3.2.59-3.87,3.88-5.8,5.76a42.39,42.39,0,0,1-7.31,6.08,4.43,4.43,0,0,0-1,1c-2.55,3.08-4.89,6.36-7.67,9.21-2.28,2.33-5.21,3.86-7.33,6.57s-5.47,4-6.62,7.47c-.09.25-.45.44-.72.61-3.23,2.09-5,5.39-7.34,8.3-2,2.56-4.78,4.56-7.14,6.87-.86.85-2.31,2.08-2.14,2.82a2.82,2.82,0,0,1-1.77,3.52,7.22,7.22,0,0,0-4.18,5.55c-.19,1-1.7,1.66-2,2.65-.59,2.26-1.21,4.26-3.66,5.21-.65.26-1.09,1.09-1.57,1.71-.93,1.2-1.76,2.49-2.74,3.65-1.38,1.63-3,3.1-4.26,4.78-.53.7-.33,1.94-.84,2.67-1.42,2-3,3.93-4.6,5.82-.63.76-1.76,1.23-2.12,2.06-.67,1.6-.81,3.19-2.11,4.78-2.12,2.58-3.22,6-4.85,9a7.51,7.51,0,0,1-1.84,2c-1.64,1.37-4.91,1.52-3.65,5,.06.16-.17.43-.28.65-2.2,4.42-4.48,8.81-6.58,13.28-.66,1.41-1.53,3.28-1.11,4.54.84,2.45.32,3.82-1.56,4.52,0,2-.3,3.74.13,5.29a9.72,9.72,0,0,1,.07,6.3c-.06.15.23.4.29.63.85,2.81,1.74,5.62,2.48,8.46a2.76,2.76,0,0,1-.3,2.08c-1.18,1.65-.14,2.48,1,3.4a8.94,8.94,0,0,1,2.06,1.9c1.86,3.05,3.59,6.19,5.38,9.28a.89.89,0,0,0,.56.42c1.69.13,1.91,1.42,2.28,2.69.16.55.74,1,1.13,1.47l3.26,4.06a21.78,21.78,0,0,0,2.56,3c2.92,2.5,6.09,4.73,8.9,7.35,2.43,2.26,4.35,5.06,6.8,7.3,1.54,1.42,3.61,2.28,5.47,3.34a40.58,40.58,0,0,0,4,2c2.81,1.22,5.68,2.29,8.47,3.55,1.2.55,2.79,1.18,3.24,2.2.87,1.94,2.47,2.34,4.06,3.14,2.29,1.18,5.24.94,7,3.26.68.89,1.23,2.06,2.14,2.57,2.6,1.43,5.35,2.6,8.05,3.85,2.19,1,4.42,2,6.6,3.06,1.36.65,2.59,1.76,4,2.06,4.75,1,9.37,2.12,12.58,6.19.14.18.42.25.6.4,1.22,1,2.43,2.08,3.64,3.14a46.16,46.16,0,0,0,3.5,3.08c1.92,1.37,4,2.53,5.94,3.84.35.24.82.8.75,1.09-.68,2.76,1.85,2.54,3,2.68,3.6.43,5,1.57,4.94,4.31a56.17,56.17,0,0,1,4,4.1c2.4,3,3,6.76.72,9.13-1.23,1.25-2.57,2.4-3.87,3.6l.25.92c1.25.31,2.63,1.11,3.71.82,2.87-.78,4.45,0,5.09,2.88.05.23.12.54.29.65.54.38,1.26,1.06,1.67.92.62-.22,1.54-1.15,1.44-1.57-.68-3,1.72-3.76,3.44-4.9s2.61.26,3.58,1.38c.22.27.8.22,1.06.47.81.79,1.57,1.63,2.3,2.48s1.17,1.48,1.76,2.21c.3-1,.94-2,.82-2.92s-1-1.68-1.58-2.5c-.21-.31-.74-.62-.7-.86.37-2-.88-3.65-1.14-5.39-.35-2.33.38-5,1.2-7.29.69-2,4.67-2.28,6.17-.8a4.69,4.69,0,0,0,6.54-.24c-1.38-1.73-2.49-3.79-4.19-5a4.18,4.18,0,0,1-1.82-4.53,3.81,3.81,0,0,1,3.89-3,41.09,41.09,0,0,0,5.85-.41,6.55,6.55,0,0,0,1.61-.63c-.27-.42-.45-1-.84-1.23-3.63-1.66-7.28-3.28-11-4.81a2.3,2.3,0,0,0-1.85.16c-1.83,1.17-3.45.59-5.25-.15s-3.56-.83-5.28-1.41c-3.19-1.08-6.51-2-9.42-3.56s-5.58-4.17-8.41-6.21c-1.6-1.15-3.23-2.67-5-3-3.89-.76-5.36-4.39-8.32-6.21-2.79-1.72-5.28-3.93-7.92-5.9-1.12-.83-2.28-1.6-3.42-2.4s-2.08-2-3.11-2c-2.59,0-4.07-1.63-5.87-3s-3.47-2.35-5.25-3.46c-1.59-1-3.22-1.93-4.87-2.83-.74-.4-1.64-1-2.32-.9-2.69.58-4.65-.79-6.74-2-2.4-1.4-4.89-2.66-7.33-4-3.81-2.06-7.61-4.11-11.41-6.19a2.93,2.93,0,0,1-.67-.69,22.16,22.16,0,0,0-10.73-6.89,6.77,6.77,0,0,1-2.78-1.43c-4.13-3.8-8.21-7.67-12.25-11.57-1-.94-1.53-2.46-2.64-3.09-5.76-3.29-6-9.43-7.66-14.75-.54-1.77.55-4,.56-6,0-3.52,2.85-6.43,2.07-10.1-.06-.28.43-.65.6-1,.95-2.08,1.86-4.19,2.85-6.26.81-1.7,1.74-3.34,2.57-5,1-2.11,1.88-4.35,3.11-6.34a64.2,64.2,0,0,1,6.3-9.2c5.25-5.93,10.84-11.57,16.29-17.33,2.69-2.84,5.41-5.65,8.09-8.5,2.11-2.25,4-4.76,6.3-6.75a48.24,48.24,0,0,0,10.59-11.94,31,31,0,0,1,3.3-4.22c1.89-2.22,3.87-4.36,5.76-6.58s3.94-4.78,5.94-7.14c1.72-2.06,3.48-4.08,5.24-6.1.42-.47.91-.87,1.36-1.32,2-2,4.2-3.9,6-6.07,5-5.92,9.31-12.44,15.86-16.9a5.77,5.77,0,0,0,1.06-1.23,23.09,23.09,0,0,1,2.46-3.13c3.13-2.85,6.5-5.44,9.53-8.38a80.41,80.41,0,0,0,5.37-6.49c.23-.29.7-.37,1-.61.93-.73,1.87-1.45,2.76-2.24.73-.63,1.29-1.47,2.07-2q7.14-5,14.36-9.93c4.92-3.34,10.58-4.87,16.18-6.55,2.24-.67,4.45-1.45,7.1-2.33-2.32-2.15-1.77-4.16-1.25-6.23.71-2.84,3-4.37,4.78-6.39,2-2.29,4.21-2.57,6.88-1.83a3.3,3.3,0,0,0,4-1.45c1.31-2,3-3.56,5.61-3.46,1.1,0,2.21.11,3.32.14,2.5.06,6.19,4.08,5.85,6.4-.6,4,.37,5.36,4.34,5.77a19.31,19.31,0,0,1,2.86.09c.76.22,1.86.8,2,1.41.49,2.18.63,4.43,1,7.4,1.89,1,4.31,2.35,6.85,3.45,3.23,1.4,7.31.92,9.57,4.44.08.13.48,0,.67.13,1.64.9,3.29,1.77,4.89,2.74.59.36,1,1,1.58,1.4,3.25,2,6.53,4,9.81,6,2.12,1.27,4.63,2.13,6.32,3.81,3.7,3.68,7,7.71,11.62,10.4,1,.58,2.23,1,2.83,1.87a8.09,8.09,0,0,0,5.67,3.27c1.88.35,3.66.72,3.81,3.18a5,5,0,0,1,5.51,2.46,1.54,1.54,0,0,0,.68.66,18.77,18.77,0,0,1,8.6,5.7c.21.26.74.26,1.06.46,2.33,1.5,4.65,3,6.95,4.53a24.6,24.6,0,0,0,2,1.58c2,1.06,4.16,1.86,6.11,3,5.59,3.33,11.06,6.86,16.67,10.16,3.75,2.2,7.63,4.18,11.48,6.21,3,1.56,6.06,2.58,8.76,5,2.41,2.18,5.44,4,8.05,6.14a24.41,24.41,0,0,0,3.63,2.08c3,1.74,6.84,2.85,8.93,5.38,2.62,3.18,6.63,3.59,9.38,6.53s9,2.4,10.24,8c0,.25.49.39.71.62,1.1,1.21,2.18,2.42,3.27,3.64.42.5,1.55.46,2,1,2.45,3.12,4.75,6.37,7.07,9.59a54.41,54.41,0,0,1,3.22,4.66,75.09,75.09,0,0,1,4.44,8.41,45.88,45.88,0,0,1,2.12,7.55,55.54,55.54,0,0,1,1.78,9.2c.14,2.27-.68,4.6-1.17,6.88-.28,1.3-.76,2.55-1,3.18-.25,1.93-.12,3.36-.64,4.49a28.71,28.71,0,0,1-3.21,5,64.28,64.28,0,0,1-4.52,5.49,58,58,0,0,1-6.74,6.66c-2.65,2-5.72,3.54-8.58,5.32-.79.49-1.42,1.53-2.23,1.65-2.74.39-4.51,2-6.25,4-.81.92-2.28,1.27-3.45,1.86s-2.72,1.21-4,2c-1.69,1.07-3.26,2.33-4.88,3.5-1.37,1-3.39,1.67-4,3-1.12,2.47-3.46,2.42-5.23,3.51-2.06,1.27-4.17,2.5-6.28,3.7-4.18,2.39-8.35,4.8-12.59,7.09-2.73,1.48-5.55,2.8-8.35,4.13a62.47,62.47,0,0,1-8.63,3.85c-1.82.54-3.8.15-3.66,2.93,0,.22-.37.54-.63.67-2,1-4,2.08-6,3-1.26.57-2.66.82-3.89,1.43a43.94,43.94,0,0,0-3.85,2.39c-1.67,1-3.32,2.13-5,3.14-2.05,1.22-4.18,2.31-6.2,3.58-1.36.86-2.6,1.91-3.88,2.9A14.56,14.56,0,0,1,401,735c-4.1,2.25-8.26,4.4-12.36,6.67a13.07,13.07,0,0,0-3.52,2.55,8.27,8.27,0,0,1-4.64,2.6c-2.92.69-5.87,1.58-7.82,4.49a7.31,7.31,0,0,1-4.49,2.63c-1.64.3-1.92.8-2,2.24a6.9,6.9,0,0,1-1.25,3,21.37,21.37,0,0,1-2.39,2.91,8,8,0,0,1-2,1.73c-3.89,2.11-8.35,3-11.87,6-2.6,2.24-5.94,3.63-8.55,5.87s-4.43,4.85-6.63,7.3q-1.61,1.77-3.26,3.49c-.81.84-1.6,1.7-2.46,2.5-2,1.86-4.34,3.45-5.95,5.6s-3.32,3.44-5.91,3.4c-2.12,0-4.48.23-6.28-.61s-3.29-2.92-4.93-4.43S301.37,790.53,299.28,790.87ZM319.8,507.48c-.12-.53-.67-1.52-.39-2.13a2,2,0,0,0-1.2-2.92c-.7-.23-2.06.59-2.68,1.32A25.55,25.55,0,0,0,313,508c-.5.87-1.46,2-1.23,2.65.42,1.23,1.45,2.94,2.44,3.1s2.35-1.25,3.23-2.26A26.74,26.74,0,0,0,319.8,507.48Zm-21.6-11.74a20.8,20.8,0,0,0,4.05-1.6c.55-.34.52-1.62.75-2.47a10.39,10.39,0,0,0-2.16-.45,32.37,32.37,0,0,0-4,.34c-1,.14-1.94.45-2.91.69a22.83,22.83,0,0,0,2.05,2.89C296.3,495.53,297.13,495.48,298.2,495.74ZM326.89,490c-4.4-1.23-5.76-.88-6.95,1.67C321.33,492.59,325.07,491.75,326.89,490Zm64.23-72.6,5.24.5C393.77,414.65,392.29,414.5,391.12,417.37Zm-81.54,57,2.54,3.11c.34-.34,1-.88,1-1-.59-1.07-1.31-2.08-2-3.1Zm-69.7-225.45c2,.15,3.13-.9,3.42-3.21C240.31,244.88,240.46,247.2,239.88,248.92Z"/><path d="M286.54,287.12a31.55,31.55,0,0,1,1.72-5.11c.39-.74,1.65-1,2.51-1.52.37.91.78,1.81,1.08,2.75a5,5,0,0,1,.07,1.45c0,.74.27,1.79-.1,2.13a4.52,4.52,0,0,1-2.51.88A11,11,0,0,1,286.54,287.12Z"/><path d="M320,281.18c-1.76-.23-3-.17-4.05-.63a2.52,2.52,0,0,1-1.07-2.1,3.69,3.69,0,0,1,5.66-2.88,1.57,1.57,0,0,1,.66,1.3C320.88,278.39,320.38,279.87,320,281.18Z"/><path d="M317.73,424c-1.6-.71-4.5.68-4.46-2.28,0-1.3,1.47-2.86,2.67-3.75.72-.54,4.06,2.59,3.84,3.5C319.5,422.61,319.7,424.27,317.73,424Z"/></g></svg>