<svg id="Layer_2" data-name="Layer 2" xmlns="http://www.w3.org/2000/svg" viewBox="0 0 215.24 723.04"><defs><style>.cls-1{fill:#010101;}</style></defs><g id="IjZBH0.tif"><path class="cls-1" d="M126.14,417.57a4.29,4.29,0,0,0-2.44,2.58c-.44,1.22-.94,2.41-1.38,3.62a2.23,2.23,0,0,0-.14.85c0,1.93.07,3.88.15,5.81.07,1.12.3,2.24.36,3.38,0,.34-.28.71-.4,1.08a2.22,2.22,0,0,0-.21.85c.28,2.65.59,5.29.89,7.94,0,.1-.07.19-.07.28.07,1.14.42,2.18-.45,3.33-.59.78,0,1.95.6,2.87.91,1.44.8,2.28-.42,3.54.34.84,1.07,1.49.5,2.69-.33.71.43,1.88.36,2.82-.11,1.77-.47,3.54-.75,5.3a3.29,3.29,0,0,0,0,.7c.08,1.51.15,3,.27,4.5a7.08,7.08,0,0,0,.33,1.28c-1.15,1.08-1.19,2.35-.77,4.06a19.09,19.09,0,0,1,.08,4.47c0,.2-.38.4-.64.65l.78.83a12.23,12.23,0,0,1-.36,1.7,16.58,16.58,0,0,1-.75,1.61c1.44.95.61,2.26.47,3.38s-.64,2-.85,3.06c-.25,1.31-.33,2.65-.55,4-.26,1.51-.67,3-.88,4.52a5.8,5.8,0,0,0,.21,2.19c.58,2.34-.16,4.56-.53,6.77-.05.23.13.5.2.75s.27.56.2.78c-.39,1.21-.89,2.4-1.25,3.62a1.69,1.69,0,0,0,.12,1.32,1.87,1.87,0,0,1-.07,2.63c-.25.33-.16,1-.13,1.45,0,.84.25,1.68.25,2.53,0,1.61.79,3.25-.11,4.88-.22.4-.25,1.29,0,1.51a1.85,1.85,0,0,1,.59,2.54,2.24,2.24,0,0,1-.27.34.64.64,0,0,0-.09.57c1.24,1.93,0,4.1.58,6.09a1.27,1.27,0,0,1,0,.84,7.49,7.49,0,0,0-.27,5.39,4.7,4.7,0,0,1-.34,1.69c1.32.54.44,1.94.57,3,.15,1.35,1.09,2.86-.48,4-.08.06-.07.28-.06.42.19,2.79.45,5.57.54,8.37a7.09,7.09,0,0,1-.59,3.88c-.38.7.21,1.9.32,2.89.19,1.82.67,3.69-.4,5.27.32.58.82,1.1.83,1.62,0,1.77-.11,3.54-.13,5.3a12,12,0,0,0,.19,2.4c.24,1.32,1,2.68,0,3.38.12,1.59.23,2.78.28,4,.07,1.41.1,2.81.08,4.23s-.07,3-.1,4.43c0,1.73-.07,3.46-.09,5.2a4.84,4.84,0,0,1,0,1.14,5.57,5.57,0,0,0,.69,3.85,5.74,5.74,0,0,1,0,4.51,1,1,0,0,0,0,.72c.57,1.31,1,2.61.38,3.54.14,1,.22,1.69.32,2.35s.23,1.23.34,1.86c.06.37.25.9.09,1.09-1,1-.5,1.85.18,2.82.33.46.2,1.26.28,1.91,0,.42.1.84.14,1.26.13,1.17.27,2.34.4,3.52,0,.1-.07.22,0,.29a10.38,10.38,0,0,1,.26,6.89,9.09,9.09,0,0,0-.11,3.33,76.16,76.16,0,0,1,.52,8.13c0,1.23-.59,2.46-.69,3.7s.19,2.33.2,3.5c0,.55-.28,1.11-.3,1.69a3.13,3.13,0,0,0,.18,1.74c1,1.54.78,3,.14,4.56-.36.86-.06,2,0,3l0,1.62c0,1.46,0,2.92,0,4.37,0,1.3,0,2.6,0,3.91,0,.33-.21.8-.06,1,1.41,1.79-.26,3.87.61,5.78.29.64-.39,1.7-.63,2.55,1.34,1.06,1.45,3.52.14,5.18l1.06-.15c0,2.14,0,4.32.12,6.47.11,1.53.54,3,.75,4.55,0,.33-.21.7-.32,1.06a2.73,2.73,0,0,0-.26,1.09c.14,1.18.44,2.35.6,3.53.39,2.72.73,5.45,1.1,8.18a1.93,1.93,0,0,1,0,.72c-.57,2.08-.3,4.18-.3,6.28a10.93,10.93,0,0,1-.62,2.44c1.55,2.41.33,5.13-.36,7.79a5.9,5.9,0,0,1-2,3.26,22.7,22.7,0,0,1-5,2.08c-1.57.57-3.33.6-4.7,1.72a.84.84,0,0,1-.68.19c-1.85-.59-3.18.74-4.74,1.2a4.63,4.63,0,0,1-2.2.42c-1.61-.41-2.61.9-4,1.08s-2.89-.12-4.32,0a6.59,6.59,0,0,0-3,1,9.34,9.34,0,0,1-5.53,1.79c-1,0-1.76.76-2.94.68a3.69,3.69,0,0,1-3-2.25,7.87,7.87,0,0,1-.35-6.27c.38-.91,1.46-1.51,2.23-2.24.27-.26.56-.5,1.07-1-1.45-.82-2.67-1.64-4-2.25a28.42,28.42,0,0,1-6-3.2,2.52,2.52,0,0,1-.66-3.37,3.82,3.82,0,0,1,1-1.52c.33-.23,1,0,1.48,0a11.36,11.36,0,0,1,1.28.31c.07-.41.3-.9.15-1.2-.87-1.77.09-3.24.76-4.67a2.37,2.37,0,0,1,2-.61c1.07,0,1.69-.2,2.05-1.33s.81-2.41,2.39-2.33a5.15,5.15,0,0,1,2.26.43c1,.55,1.36.22,1.54-.7.42-2.12,2.43-2.9,4-1.51a10.27,10.27,0,0,1,2.08,2,6.45,6.45,0,0,1,.61,2.41l1.31,3.94a3.66,3.66,0,0,0,3.15-.06,17.71,17.71,0,0,1,4.31-1c1.82-.3,2.58-1.73,3.12-3.14,1-2.62,0-5.35.1-8,.07-2.38.41-4.74.56-7.11a17.35,17.35,0,0,0-.06-3.38c-.35-2.64-1-5.27-1.18-7.92a42,42,0,0,0-1-7.14c-.35-1.52.07-3.21,0-4.81-.18-2.74,0-5.55-1.28-8.13a7.2,7.2,0,0,1-.31-2c-.44-2.53-.86-5-1.36-7.51-.34-1.69-.81-3.37-1.21-5a1.14,1.14,0,0,1,0-.58c.66-2.22-.23-4.27-.55-6.41-.54-3.65-.82-7.34-1-11a34.63,34.63,0,0,1,.46-5.08,1.59,1.59,0,0,0,0-.72c-1.07-2.59-.89-5.33-.87-8a52.13,52.13,0,0,0-.92-10v-.16c.8-2.86-.22-5.7-.11-8.57.11-2.62-.4-5.28-.2-7.9s-1.06-5-1.32-7.53c-.22-2.2-.86-4.36-1.21-6.56-.11-.64.28-1.35.18-2-.33-2.19-.82-4.33-1.14-6.52a42.72,42.72,0,0,1-.32-4.52c0-1.52.09-3,0-4.54-.17-2-.61-4-.79-5.91s-.14-3.66-.19-5.5c0-.32.08-.73-.09-.94-1.17-1.43-.9-3.13-.93-4.75,0-2.85.18-5.69.13-8.53,0-2.53-.35-5.06-.4-7.6,0-1.36.27-2.73.28-4.06l-.27-2.23c-.16-1.27-.38-2.53-.45-3.84-.22-3.51-.33-7-.57-10.54-.08-1.26-.43-2.53-.58-3.79-.19-1.69-.26-3.38-.47-5.07-.16-1.29-.54-2.52-.69-3.85-.3-2.65-.49-5.31-.75-8-.26-2.84-.58-5.66-.81-8.51a21.25,21.25,0,0,1,.13-2.76c.11-1.84.54-3.74.21-5.5-.26-1.44.52-2.76-.21-4.29-.62-1.28-.3-3-.34-4.57s0-3.45,0-5.16l-.07-3.58c-.1-2.09-.24-4.22-.31-6.27a15.66,15.66,0,0,1,.13-2.16c.06-.85.11-1.63.21-2.43.16-1.34.48-2.66.53-4,.09-2.41,0-4.83.06-7.24.06-1.75.78-3.57.42-5.21-.48-2.38.72-4.34.84-6.52a16.15,16.15,0,0,0,.18-1.69,23.12,23.12,0,0,1,1.46-9.17A22.33,22.33,0,0,0,93,411a2.46,2.46,0,0,1,.32-1.1c1-1.14.89-2.55,1.15-3.93.52-2.82.45-5.87,2.51-8.25.18-.2.39-.55.33-.76a9.7,9.7,0,0,1,1-7.19,9.62,9.62,0,0,0,.54-2.11c.26-1,.56-2,.79-3.06.39-1.91.72-3.83,1.11-5.74.48-2.3,1-4.59,1.45-6.89a40,40,0,0,0,.86-5c.18-2.65,0-5.32.23-8,.2-2.21.77-4.39,1.16-6.57,0-.28.28-.61.2-.8-1.44-2.83.2-5.39.58-8.08a27.71,27.71,0,0,0,0-3.53c0-.89,0-1.8.09-2.69.21-2.49.52-4.95.66-7.43.11-1.86,0-3.73,0-5.59a7.48,7.48,0,0,1,.12-1.16,15.77,15.77,0,0,0-.46-6.76,5.5,5.5,0,0,1-.11-1.94c.14-1.29-.67-1.6-1.65-1.77-1.25-.2-2.55-.35-3.75-.58-2.61-.49-3.55-2-3.1-4.58A1.93,1.93,0,0,0,96,306a3.53,3.53,0,0,1-2.4-2.49c-.14-.36.35-1.08.7-1.5a4.72,4.72,0,0,1,1.3-.76l1.78.7c-.28-.67-.3-1.06-.51-1.21-1.64-1.25-3.32-2.47-5-3.66-2-1.42-3.83-2.91-5.83-4.25-1.34-.91-2.85-1.55-4.27-2.39-1-.59-1.86-1.38-2.86-1.93a8.39,8.39,0,0,0-2.45-.8c-1.9-.36-3-1.88-4.28-3a31.94,31.94,0,0,0-3.44-3.14,20.34,20.34,0,0,1-5.12-4.93,66.57,66.57,0,0,1-4.71-8.46c-1.15-2.32-1.83-4.88-3.1-7.12a17.17,17.17,0,0,1-2.73-10.69c.17-2.54.55-5,.89-7.52.2-1.45.62-2.86.72-4.3a18,18,0,0,0-.22-3.67c-.19-1.38-.64-2.75.61-3.89a.71.71,0,0,0,.14-.54c-.47-3.56.5-6.91,1.31-10.31.39-1.57.33-3.24.61-4.85.24-1.43.71-2.82,1-4.24.45-2.27.8-4.56,1.28-6.79a33.37,33.37,0,0,1,1.1-3.24c.75-2.22,1.55-4.43,2.23-6.68.46-1.48.79-3,1.13-4.55q.2-.81.42-1.65c.46-1.69.86-3.48,1.4-5.18.89-2.77,1.88-5.51,2.85-8.25a1.24,1.24,0,0,1,.62-.69c.84-.3.9-.71.52-1.46a1.65,1.65,0,0,1,.13-1.25c.48-1,1.51-2,1.48-3,0-1.76,1.08-3.14,1.06-4.82,0-.27.07-.71.23-.79,1.54-.73,1-2.35,1.63-3.51.71-1.5,1.38-3,2.25-4.92-.35-.63.19-1.41.8-2.46a36.43,36.43,0,0,0,2.44-5.67l1.42-3.45c.81-2,1.7-4,2.48-6,1-2.52,1.87-5.11,2.88-7.57s2.12-4.82,3.11-7.25c.68-1.66,1.17-3.41,1.84-5,.48-1.2,1.21-2.3,1.63-3.51.56-1.59.79-3.31,1.44-4.86.81-2,2-3.92,2.89-6,.68-1.53,1.11-3.17,1.72-4.73a13.85,13.85,0,0,1,1-1.82,13.37,13.37,0,0,0,1-4c.09-.42,0-1,.32-1.21,1-.75.82-1.71.75-2.73a19.62,19.62,0,0,1,1.62-7.59,22.87,22.87,0,0,0,1.7-7.59c0-1.14.85-2.25,1.31-3.41.1-.21.32-.51.25-.65-1.1-2.11.26-4.08.32-6.11.07-2.6.19-5.2.21-7.79,0-.6-.48-1.19-.47-1.78,0-1.25.27-2.5.29-3.75,0-1.84-.19-3.7-.1-5.54.26-4,.06-8,1.68-11.74a2.35,2.35,0,0,1,1.1-1,10,10,0,0,1,1.69-.52c.19-.05.47-.21.54-.14.91.83,2.41,1.6,2.52,2.55.23,2-.56,4.05-.37,6,.13,1.42,1.17,2.75,1.81,4.12a11.33,11.33,0,0,0,2.28-1.73,13.6,13.6,0,0,0,2-3.26c.7-1.65,2.68-2.65,2.45-4.77,0-.22.06-.59.22-.67,1.93-1,1.82-3.31,3-4.73a10.21,10.21,0,0,1,2.15-2,1.69,1.69,0,0,1,2.35.44,1.88,1.88,0,0,1,.25.56c.1.39-.34.92-.61,1.56.72,1.74-.37,3.25-1.37,4.8a18,18,0,0,0-.92,1.87c-1,2.06-2,4.07-2.9,6.17a7,7,0,0,0-.1,2.45,12.27,12.27,0,0,0,2.66-1,26.61,26.61,0,0,0,2.89-2.52c.15-.13.41-.21.45-.35.44-2.27,2.33-1.92,3.88-2.19a2.2,2.2,0,0,0,.71-.15c1.12-.59,1.68-.11,2.09,1a14.05,14.05,0,0,0,.95,1.75l-.83.8c1.21,1.86,1.2,2.2-.07,3.58a6,6,0,0,0-.64,1,12,12,0,0,0,1.46.38,10.6,10.6,0,0,1,2.63.34c.62.28,1,1.11,1.51,1.66.71.74-.22,1.48-.12,1.86.48,1.77-.86,2.9-1.63,3.83-1.35,1.72-3.38,2.92-5.13,4.32-.25.2-.55.34-1.12.7,1.34.64,2.43,1.18,3.54,1.68a3.23,3.23,0,0,1,1.36,4.36,3.14,3.14,0,0,1-.18.31c-1,1.41-1.52,3.32-3.5,3.87a22.81,22.81,0,0,1-2.57.73c-1.78.32-3.67.27-5.33.87a7.68,7.68,0,0,0-2.85,2.59c-1.41,1.66-2.7,3.43-4,5.14a22.15,22.15,0,0,0-1.42,2.51c-.88,1.6-1.77,3.21-2.62,4.84a7.48,7.48,0,0,0-.36,1.25,18.13,18.13,0,0,1-.75,2c-.6,1.24-1.33,2.41-1.9,3.66-.47,1-.34,2.37-1.64,3-.13.06-.2.32-.24.5q-.84,3.63-1.69,7.25c-.07.29-.09.71-.28.81-2.23,1.2-1.27,3.28-1.51,5.1a16.39,16.39,0,0,1-1.06,3.12c-.46,1.31-.84,2.66-1.42,3.92-.35.79-1.48,1.47-1.44,2.16a12.44,12.44,0,0,1-1.58,5.95c-1.3,2.79-2.43,5.65-3.67,8.52-.2.47-.59,1-.49,1.44.51,1.93-.7,3.08-1.74,4.33-.15.17-.37.38-.37.56-.07,2-1.11,3.6-2,5.3a4.31,4.31,0,0,0-.78,3.4c.19.63-.28,1.52-.59,2.24-.88,2-1.9,4-2.76,6.07-.64,1.51-.78,3.39-1.77,4.55A13.08,13.08,0,0,0,86.75,165a6.08,6.08,0,0,0-.24,1.2c-.17,1.08,0,2.28-1.4,2.81-.23.08-.28.7-.38,1.09-.2.73-.13,1.8-.6,2.13-1.22.87-1.17,2.12-1.56,3.28-.44,1.32-.85,2.73-2.59,2.91.59,2.52,0,4-2.54,6.47l.86.91c-.48,1-1,1.88-1.44,2.86a36.2,36.2,0,0,0-1.42,4c-.2.71,0,1.55-.18,2.23-.68,2-1.52,4-2.26,6-.07.2.1.46.07.69a20.8,20.8,0,0,1-.45,2.95c-.41,1.52-.93,3-1.48,4.49-.17.45-.78.78-.82,1.22-.24,1.37-.3,2.78-.44,4.17,0,.23,0,.63-.08.69-2,1-.2,3.2-1.33,4.53-.3.36-.23,1-.4,2,.53.68.35,1.58-.89,2.16,1,1.77.9,2.52-.37,3.31l.12,6.76c0,.85.16,1.69.14,2.53,0,1.52-.16,3-.25,4.53a2.43,2.43,0,0,0,0,.85,1.92,1.92,0,0,1-1.16,2.7,2.5,2.5,0,0,1,1,3.52c-.15.33.33.94.53,1.43.11.28.41.68.31.84-.45.77.12,1,.47,1.59.55.83,1.37,1.92,0,2.47,1.46,2.09,3,4.1,4.34,6.22a11.53,11.53,0,0,0,3.1,3.6c.33.23.76.7.73,1-.19,1.93,1.37,2.31,2.59,2.68,2.17.71,3.51,2.26,4.8,3.95a1.85,1.85,0,0,0,.71.68c3,1.06,5.65,3,8.65,4.07,1.59.59,3.19,1.15,4.79,1.71a6.32,6.32,0,0,1,1.11.38c3.42,2.07,7.46,1.95,11.16,3a18.28,18.28,0,0,0,6.78.66c2.53-.26,5.29.42,7.67-1.13.55-.37,1.16-.66,1.67-1.05a17.91,17.91,0,0,0,2.41-1.82,5.77,5.77,0,0,0,1.61-4.77,8.28,8.28,0,0,0-.2-2.28,9.66,9.66,0,0,0-1.43-2.69c-1.62-2.1-3.57-4-4.92-6.24-.8-1.31-2.65-2.13-2.3-4.13,0-.2-.38-.51-.63-.72-.49-.4-1.32-.67-1.47-1.15-.76-2.46-3.31-3.86-3.59-6.7-.15-1.57-1.39-3-2.07-4.56a4.78,4.78,0,0,1-.28-1.68c0-1.8-.13-3.62-.1-5.42,0-1.3.18-2.6.33-3.88.2-1.83.46-3.66.68-5.48,0-.29-.05-.64.08-.85,1.39-2.5,1.46-5.71,4.14-7.55a4.58,4.58,0,0,0,1.13-1.83c1-2,3.14-2.16,4.69-3.25a12.25,12.25,0,0,1,1.6-1,4.89,4.89,0,0,1,1.73-.72c2-.1,4-.07,6.07-.11,1.84,0,3.82-.45,5.51.07,2.66.8,5.59.51,8,2.23,2.17,1.52,4.58,2.73,6.27,4.8a38.41,38.41,0,0,1,2.61,4.18c.06.08.1.23.16.23,2.13.27,2.26,2.3,3.12,3.65a20.07,20.07,0,0,1,1.66,3.8,41.78,41.78,0,0,1,2.2,6.62c.29,1.58,1.53,3.36-.25,5,.92.58,1.49,1.14.64,2a.83.83,0,0,0,0,.78c.81,1.13.46,2.19,0,3.31A16.81,16.81,0,0,0,163,252a5.64,5.64,0,0,1-.37,1.07,9.28,9.28,0,0,0-1.34,2.4c-.4,2.37-2.26,3.8-3.32,5.73-1.38,2.5-3.73,4.11-5.63,6.13a54.5,54.5,0,0,1-7,6,1.19,1.19,0,0,0-.44.85,6.73,6.73,0,0,0,.17,1.73c1.18,4.94,2.38,4.51,5.59,2.71,1-.55,2.35-.33,3.52-.56a24.51,24.51,0,0,0,2.9-.82,43.88,43.88,0,0,0,6.38-2.24,12.15,12.15,0,0,1,4.62-1.51c.51,0,1-.58,1.44-.95a24.58,24.58,0,0,1,8.48-4.08,35.77,35.77,0,0,0,3.65-1.86c.94-.46,2-.77,2.9-1.2a6.81,6.81,0,0,0,1.37-.82c2.37-1.61,4.67-3.35,6.87-5.19s4.35-4.07,4.78-7.23c.54-4,1.11-8,1.57-12.07.19-1.7-.16-3.57.26-5.21.6-2.27.15-4.51.35-6.73a4.08,4.08,0,0,1,.72-1.27c-2.18-.81-.84-2.53-.85-3.88a43.6,43.6,0,0,1,.6-6.65c.28-2,.78-4,1.09-6,.23-1.56.24-3.14.43-4.7.16-1.33.46-2.66.63-4a7.33,7.33,0,0,0-.12-1.48c0-.33-.23-.74-.1-1,.76-1.44.46-2.89.33-4.4-.11-1.28.33-2.6.35-3.9,0-.9-.39-1.8-.39-2.7,0-1.36.16-2.72.27-4.09a12.74,12.74,0,0,0-.58-5.13c-.31-1,.07-2.11-.06-3.14-.54-4-1.2-7.91-1.76-11.87a12.44,12.44,0,0,1,.13-2.44c0-.19.12-.41.08-.58-.55-2-1.23-4-1.67-6.05a72.39,72.39,0,0,1-1.19-7.34c-.13-1.09.22-2.27-1-3a.46.46,0,0,1-.17-.24c-.27-1.81-.52-3.62-.82-5.42a20.13,20.13,0,0,1-.59-3.54c.15-3.26-2.58-5.28-3.32-8.15a25.1,25.1,0,0,0-2.08-5.55c-1-1.84-1-4-2.09-5.77a18.1,18.1,0,0,1-1.37-4.31,4.85,4.85,0,0,0-.09-.55c-1-2.14-1.94-4.31-3-6.41s-2.26-4.51-3.61-6.63a48.59,48.59,0,0,0-3.22-3.8c-1-1.2-1.73-2.51-2.7-3.73s-2.17-2.25-3.15-3.46-2-2.22-2.26-3.48c-.33-1.54-1.64-2-2.23-3.07-.93-1.62-2.49-2.75-3-4.7-.3-1.06-1.68-1.77-2.37-2.78-1.1-1.57-2.54-2.93-2.7-5.11-.1-1.46-1-2.83-1.31-4.3a10,10,0,0,1,.68-6.07c.69-1.71,4-1.29,5.17.35,1,1.39,2.34,2.55,3.46,3.88.86,1,1.47.49,1.68-.35a15,15,0,0,0,.48-4c0-1.79-.49-3.58-.48-5.36a15.26,15.26,0,0,1,.77-4c.45-1.58,1.11-3.09,1.53-4.67a1.39,1.39,0,0,1,1.61-1.14l.16,0a2.27,2.27,0,0,1,1.27,1.27c.41,1,.41,2.2.9,3.13,1,1.72.39,3.29-.38,4.72-.62,1.14.44,1.86.28,2.72s-.89,1.51-1,2.32c-.21,1.16.44,1.61,1.6,1.21a3.67,3.67,0,0,0,2.41-2.12,41.17,41.17,0,0,1,2.65-4.36c.31-.5.45-1.08.73-1.59a41.69,41.69,0,0,1,2.18-3.7c.33-.47,1.08-.66,1.84-1.1l-1.16-.34L182.8,44a5.43,5.43,0,0,1,2-.56,1.58,1.58,0,0,1,1.55,1.62.91.91,0,0,1,0,.17,15.75,15.75,0,0,0,.32,1.69,4.18,4.18,0,0,1-.25,2.1A11.3,11.3,0,0,0,184.91,54c0,.53-.57,1-1.1,1.86a4.13,4.13,0,0,0,1.29-.36c1.35-1.06,2.93-1.81,3.92-3.37.42-.67,1.41-1,2.15-1.46,1-.59,1.9-1.16,2.86-1.74a2.84,2.84,0,0,1,1.07-.5c.84-.09,2.18-.43,2.53,0a4.23,4.23,0,0,1,.72,4.27c-.73,2.08-2.32,3.34-4,4.52-.69.48-1.34,1-2.29,1.73.58.16,1.18.52,1.63.39A18.61,18.61,0,0,0,196.51,58a3.51,3.51,0,0,1,4.06,1,3,3,0,0,1,.72,3.77c-.45.91-1,1.79-1.37,2.74-.81,1.84-2.82,2-4.06,3.21a7.36,7.36,0,0,1-3,1.44c-2.21.78-4.32,1.88-6.47,2.82a18.35,18.35,0,0,0-2,.76,11.83,11.83,0,0,0-2.19,1.73c-.09.09.28.68.47,1,.78,1.35,2.82,2,2,4.26,1.78,0,2.55.69,2.14,2.41-.08.35.46.92.87,1.27a10.92,10.92,0,0,1,2.46,3.33c.6,1.31,2,2.23,2.85,3.45a55.36,55.36,0,0,1,3.29,5.28c.55,1,.55,2.31,1.26,3.06,1.54,1.66,1.88,3.67,2.55,5.64.53,1.56,1.39,3,2,4.54.5,1.39.78,2.88,1.21,4.31a27.62,27.62,0,0,0,1,3.19c1.13,2.81,2.38,5.59,3.45,8.39.55,1.46.74,3.07,1.28,4.55.71,1.94,1.65,3.8,2.43,5.72a4.67,4.67,0,0,1,.58,2.43c-.3,1.29.69,1.9,1,2.82,0,.12.29.18.31.29.34,2.37.68,4.74,1,7.12,0,.22-.25.54-.17.68.87,1.55.27,3.24.46,4.85.06.53-.44,1.14-.35,1.7.25,1.47,1,2.94.92,4.37-.09,1.75,1.13,3,.77,4.61a8.83,8.83,0,0,0-.13,2.81c.31,1.2.88,2.1.53,3.63-.38,1.77.57,3.81.95,5.74a9.46,9.46,0,0,1,.24,1.27l0,2.78c.07.56.17,1.31.26,2.07s.15,1.4.21,2.1c.18,2.13.4,4.22.51,6.38.08,1.52.73,3,0,4.59a1.41,1.41,0,0,0,.18,1.2c1.19,1.59.72,3.37.65,5.06,0,1.31.12,2.63.19,3.95l0,1.89c.94,1.2.73,3,.87,4.74,0,.54-.07,1.09-.05,1.63,0,1.59.06,3.18.23,4.76.14,1.35-.42,2.73.24,4.1.2.41-.09,1.07-.19,1.61a5.26,5.26,0,0,0-.27,1c-.09,3.21-.13,6.43-.22,9.66a15.74,15.74,0,0,1-.25,3.06,3.32,3.32,0,0,1-.79,1.17c-.48,2.18-.93,4.07-1.33,5.94-.2,1-.28,2-.48,3a21.64,21.64,0,0,0-.9,4.25,10.49,10.49,0,0,1-.88,3.48c-.69,2.08-1.18,4.25-1.81,6.34a3.16,3.16,0,0,1-.89,1.3,6.63,6.63,0,0,0-2,3,10.59,10.59,0,0,1-2.4,3.37,24.82,24.82,0,0,1-3.21,2.94,33.38,33.38,0,0,1-2.94,1.74c-.94.59-1.81,1.31-2.78,1.86-1.43.8-2.91,1.49-4.36,2.24-.3.16-.59.36-.88.54-1.42.87-2.8,1.88-4.27,2.68-2.94,1.59-6,3-8.89,4.63-2.51,1.38-5,2.88-7.48,4.36a10.69,10.69,0,0,0-1.19.91c.75,1.46,2,2.5,1.05,4-.21.31-.6.85-.75.81-1.51-.52-2.64.54-4,.78-2.16.39-2.83,1.35-2.14,3.35a10.47,10.47,0,0,1,.51,3.42c0,1.36-1.86,3.09-3.22,3.32a3.59,3.59,0,0,0-1.24.57,15.26,15.26,0,0,0-1.29.92c-.31,2.28-.69,4.37-.84,6.47a19.39,19.39,0,0,0,.37,3.48l0,1c0,.85.1,1.69,0,2.54a15,15,0,0,1-.23,1.64c-.07.57-.16,1.15-.18,1.7-.09,2.36-.12,4.72-.27,7.06a32,32,0,0,1-.62,4.87c-.72,3.15-.38,6.33-.48,9.5,0,1.31-.59,2.6-.65,3.92a35.66,35.66,0,0,0,.24,5.06,7.21,7.21,0,0,1-.76,4.63c-.51.9-.09,2.34,0,3.53,0,.75.16,1.49.19,2.25a11.48,11.48,0,0,0,.05,2.62A7.09,7.09,0,0,1,158,374a12.47,12.47,0,0,0-.13,7.5c.08.23.23.5.17.69-1,3,.43,5.73.77,8.57.18,1.47,1.37,2.8,2.08,4.19.88,1.78,2.73,3,3.09,5.15.11.63.82,1.15,1.25,1.72l.31-.3,0,1.33.32-.28c.7.69,1.41,1.36,2.1,2,1.22,1.23,2.45,2.49,3.63,3.71.58.61,1,1.35,1.65,1.92s1.53,1,2.15,1.65c.86.88,1.51,1.91,2.29,2.85a12.35,12.35,0,0,0,1.72,1.82,2.37,2.37,0,0,1,1,2.52c1.2,1.17,2.28,2.23,3.37,3.32,2.49,2.4,5,4.82,7.5,7.17,1.55,1.44,3.21,2.77,4.8,4.14.55.48,1.38.82.88,1.89-.06.12.53.76.86.78,1.51.09,2.41,1.17,3.47,2s2.44,1.51,3.1,2.59c1,1.59,2.51,2.65,3.46,4.06a27.53,27.53,0,0,0,6.35,6.44c1.59,1.23,2.77,3,4.24,4.39.86.83,2,1.38,2.93,2.17a11.28,11.28,0,0,1,1.25,1.58c1,1.24,2.08,2.49,3.18,3.72s2.08,2.1,3.16,3.1c.56.53,1.23.94,1.79,1.46a9.27,9.27,0,0,1,.92,1.17c.14.19.26.53.42.54,1.84.15,2.12,1.78,2.92,2.94a5.75,5.75,0,0,0,1.48,1.39,22.77,22.77,0,0,1,5.95,6.23c.58.84,1.72,1.36,2.49,2.13,2,2,4,4.1,5.95,6.17a4.86,4.86,0,0,1,.64,1c.17.29.24.77.48.88,2.09.92,2.79,3.09,4.23,4.59a44.16,44.16,0,0,1,3,3.84,1.23,1.23,0,0,0,.26.33c4.14,2.16,6.1,5.93,7.62,10.1a20,20,0,0,1,.88,10.28,9.74,9.74,0,0,1-1.8,4c-1.58,2.37-2.69,5.07-4.37,7.35a10.17,10.17,0,0,1-5,3.84,12.11,12.11,0,0,0-2.25,1.33,6.05,6.05,0,0,1-4.46.66,8,8,0,0,1-5.35,3.31c-.33,0-.63.38-1,.55-.92.48-1.86.95-2.79,1.4a4.28,4.28,0,0,0-.93.4,21.11,21.11,0,0,1-8.14,3.9c-.47.14-.91.35-1.37.49l-2.7.82c-.57,1.45-2.49,2.43-4.58,2.62a30.36,30.36,0,0,0-5.47,1.35,13.84,13.84,0,0,0-1.92.88l.45.32a16.51,16.51,0,0,1-2.14,1.27c-1.73.71-3.52,1.31-5.29,2l-1.87.74c-.09,0-.16.13-.24.17l-2.75,1-1.14-1.14-1.33,1.51c-.25.28-.44.76-.73.86-1.44.34-2.93.46-4.35.87-1.76.5-3.89.07-5.16,2a3.34,3.34,0,0,1-1.36.79c-2.37,1.07-4.75,2.13-7.15,3.16-1.25.53-2.74.7-3.77,1.49s-2.93.3-3.42,2c0,.11-.36.21-.53.18-2-.19-3.16,1.44-4.69,2.29-.16.09-.32.39-.43.37-1.63-.4-2.57,1.19-4,1.36-1.26.15-2.53.27-3.78.42-.24,0-.61.09-.67.24-.65,1.4-2.21,1.16-3.2,1.87a11.49,11.49,0,0,0-3.9,4.4c-.29.61.28,1.57,0,2.26-.54,1.8-1.31,3.53-2,5.3a2.54,2.54,0,0,0-.1,1.19c.06.56.31,1.09.36,1.63a10.77,10.77,0,0,1,0,2.6c-.09.57-.55,1.09-.67,1.65s-.26,1.24-.36,1.86a4.23,4.23,0,0,0-.1.94c0,.76.12,1.51.19,2.27-1-.06-2.25.26-2.86-.24-2.39-1.9-5.34-3.41-5.9-6.91-.11-.71-.17-1.44-.33-2.15-.07-.34-.28-.84-.51-.92a1.39,1.39,0,0,0-1.15.33c-.67.74-1.22,1.59-1.84,2.39a1.76,1.76,0,0,1-.73.65,3,3,0,0,0-2,1.62,5.24,5.24,0,0,1-2.7,1.8c-.84.33-2.49-1.73-2.3-2.87.54-3.22,1.18-6.39,3.22-9.11,1.38-1.85,1-3.58-1.24-4.85-1.86-1-4-1.47-5.66-2.79a4.39,4.39,0,0,1-1.41-2.59,2,2,0,0,1,1.56-2.17c1.54-.5,3-1.21,4.33-1.77-.2-3.51-.5-7-.58-10.57a3,3,0,0,1,3.57-2.65c.27.06.51.59.6.94.22.93,1.1,1.43,1.63.75a10.44,10.44,0,0,0,1.12-2.45c.51-1.19,1-2.39,1.53-3.56a7,7,0,0,1,.82-1.37c.46-.62.87-1.44,1.51-1.72a4,4,0,0,1,5.54,3c.33,1.32.56,2.67.78,4a2.65,2.65,0,0,0,2.74,2.29,25.61,25.61,0,0,0,2.77,0,8.17,8.17,0,0,0,1.74-.68,10.37,10.37,0,0,1,1.18-.42,50.8,50.8,0,0,0,5.1-1.56c2.37-1,4.61-2.35,7-3.33,1.07-.45,2.08-1,3.1-1.45,2.83-1.35,5.58-3,8.85-3.43,1.9-.27,3.67-1.47,5.51-2.19,1.31-.51,2.63-.9,4-1.37a7.6,7.6,0,0,0,.94-.36c1.6-.75,3.18-1.52,4.79-2.24,3.26-1.45,6.53-2.9,9.81-4.29.84-.37,1.86-.47,2.74-.85,1-.44,2-1,3-1.55,1.33-.54,2.64-1.15,3.91-1.82.84-.49,1.27-1.59,2.09-2a23.86,23.86,0,0,1,3.94-1.37c.18-.06.44,0,.56-.12,2-1.73,4.75-1.55,7-2.73,1.94-1,4.07-1.66,6-2.73a55.11,55.11,0,0,0,5-3.54c.12-.09.2-.24.34-.29,2.15-.76,3-2.79,4.08-4.49.44-.68.19-1.77.36-2.65.56-3-.57-5.62-1.6-8.27,0,0,0-.13-.06-.13-1.91-.42-2.27-2.5-3.62-3.51a19.43,19.43,0,0,1-2.6-3.2c-2-2.5-3.94-5-6.05-7.42-1.11-1.28-2.45-2.36-3.69-3.53a2.27,2.27,0,0,1-.3-.32c-1.92-3-5.46-4.56-7.09-7.92-.44-.91-1.9-1.31-2.86-2-.79-.55-1.55-1.14-2.32-1.73a19.07,19.07,0,0,1-5.22-5.48c-.15-.27-.52-.4-.76-.61a20.29,20.29,0,0,1-2.12-1.92c-1.73-2-3.28-4-5-6-1.17-1.33-2.69-2.37-3.71-3.8-1.91-2.71-4.83-4.25-7.1-6.53-1.11-1.12-1.89-2.58-3-3.69-1.48-1.47-3.19-2.71-4.71-4.14s-2.82-3.05-4.35-4.46c-2.19-2-4.49-3.93-6.72-5.91a3.64,3.64,0,0,1-1.18-1.4,1.58,1.58,0,0,0-1.86-1.25h0a2.12,2.12,0,0,1-2.08-1,18.83,18.83,0,0,0-3-2.74c-2.25-1.65-4.57-3.3-6.85-4.87-1.84-1.28-3.7-2.53-5.55-3.8l-1.26-1-.82,1.25.31.29-1.42.54c1,.76.74,1.56-.08,2-1.67.88-2.79,2.65-5,2.74-1.54,0-1.83,2.81-.38,4.06,1,.83,1,1.56.71,2.77-.2,1-1,2.26.15,3.38.23.21,0,.95,0,1.44-.4,2.32-.1,4.93-2.15,6.63-.84.67-2.17,1.47-3,1.22-1.65-.54-3.4-1.38-4-3.36-.74-2.52-1.58-5.11-2.13-7.71a27.22,27.22,0,0,1-.22-4.6c0-.37-.07-.75-.07-1.13,0-1.22-.61-1.54-1.79-1.38-1.49.19-4.13-2.11-4.58-4A26.87,26.87,0,0,1,126.14,417.57ZM135.82,273c-1.56-.68-1.7-.46-1.88,1.22a11.48,11.48,0,0,1-1.05,4.57,14.84,14.84,0,0,1-3.75,4.22,20,20,0,0,1-4.73,2.44c-3.25,1.35-6.74,1.18-10.13,1-1.6-.06-3.37.28-4.88-.84-.2-.15-.64,0-1,0a12.83,12.83,0,0,1-3-.17c-1.53-.44-3-1.17-4.47-1.7a19.29,19.29,0,0,0-2.13-.48,11.76,11.76,0,0,1-1.75-.43c-1.27-.5-2.49-1.16-3.78-1.62-1.08-.36-2.63-.15-3.26-.84-1.21-1.32-2.82-1.5-4.2-2.28-.5-.28-1-.61-1.45-.94A24.49,24.49,0,0,1,82,275.52c-1.5-1.26-2.91-2.63-4.4-3.9a5.82,5.82,0,0,0-2.08-1.31,3.88,3.88,0,0,1-2.58-2.41,2.87,2.87,0,0,0-.71-1.07c-3.24-2.42-5-5.95-7-9.26a1.73,1.73,0,0,1-.32-.84A11.11,11.11,0,0,0,63.69,252c-.75-1.67-.52-3.76-.61-5.67-.12-2.65-.18-5.31-.2-8,0-.75.48-1.52.36-2.23a32.47,32.47,0,0,1,.35-9.44c.27-2,.36-4.06.79-6,.66-3,1.52-5.94,2.33-8.94,1-3.68,2.05-7.34,3.08-11.05.75-2.66,1.44-5.33,2.26-8,1-3.13,2-6.24,3.1-9.31a36.16,36.16,0,0,1,2.15-3.84,6.25,6.25,0,0,0,.24-1,8.62,8.62,0,0,1,.61-1.7c.28-.49.83-.82,1.09-1.32,1.42-3.17,2.81-6.36,4.13-9.57,1-2.41,1.83-4.86,2.74-7.3.51-1.38.92-2.8,1.53-4.14.81-1.71,1.76-3.35,2.55-5.12.53-1.14.89-2.37,1.31-3.56.49-1.43,1-2.88,1.47-4.3s1-2.56,1.45-3.8a63.85,63.85,0,0,0,2-6.37c.49-2.18,2-3.85,2.53-6,.64-2.55,1.6-5.1,2.44-7.6a9.06,9.06,0,0,1,1.18-2.92c1.23-1.54,1.35-3.41,1.82-5.11.62-2.34,1.16-4.72,2-7,.62-1.79,1.76-3.37,1.69-5.4,0-.42.34-.85.55-1.29.74-1.46,1.56-2.9,2.24-4.38.24-.55,0-1.3.32-1.83,1-1.86,2.12-3.64,3-5.51.82-1.61,1.24-3.41,2.05-5a40.66,40.66,0,0,1,3.2-5.29c1.4-1.92,3-3.66,4.53-5.49a7.61,7.61,0,0,1,5-2.5,38.19,38.19,0,0,1,4.54-.13,1.58,1.58,0,0,0,1.63-1.5,1.37,1.37,0,0,0,0-.29,21.32,21.32,0,0,0-4.74-.67,2.69,2.69,0,0,1-2.91-1.68,3,3,0,0,1,.78-3.47,6.76,6.76,0,0,1,4.12-1.91,2.65,2.65,0,0,0,1.43-.49,13,13,0,0,0,1.66-1.82c.82-1.07,2.5-1.64,2.35-3.67a10.58,10.58,0,0,0-1,.49c-.27.18-.46.49-.75.63-1.3.67-2.62,1.27-3.91,1.95-.23.11-.32.46-.49.69a3.62,3.62,0,0,1-3.51,1.59c-.53-.06-.94-1.1-1.4-1.66l-.8-1c1.11-1.24,2.25-2.42,3.31-3.68a17.44,17.44,0,0,0,1.34-2.28L130,46.7a18.64,18.64,0,0,0-2.32,2,3.37,3.37,0,0,1-4.73.68,2.6,2.6,0,0,1-.43-.38,20.76,20.76,0,0,1-1.88-2.77c-.6.31-1.08.54-1.54.8s-1.34.49-1.67,1c-.9,1.25-1.59,1.55-2.61.46a8.78,8.78,0,0,1-1.43-2.89c-.57-1.54-.81-3.24-2.07-4.41l-1.51,1c.41.32,1.13.59,1.16.94.13,1.34.05,2.71.08,4.06.05,3-2.15,5.86-.51,8.94a2.17,2.17,0,0,1,.08.84c.14,2.36-.68,4.61-.53,7.05a39.57,39.57,0,0,1-1,9,37.78,37.78,0,0,1-1.67,5.59c-.36,1.08-1.15,2.1-1.21,3.19-.1,1.48-.17,2.79-1.58,3.3a5.62,5.62,0,0,1,.54,1.79c-.17,1.57-.46,3.13-.76,4.69a15,15,0,0,1-.6,2.65c-.76,2-1.62,4-2.43,6-.69,1.64-1.4,3.27-2.15,4.89a48,48,0,0,0-2.36,5c-1.24,3.73-2.07,7.65-4.13,11.06a5.06,5.06,0,0,0-.22,1c-.21.69-.44,1.39-.7,2.07-.14.35-.43.64-.57,1a49.07,49.07,0,0,1-2.15,5.63,15.18,15.18,0,0,0-1.63,3.63c-.72,3-2.18,5.74-3.34,8.59-.45,1.08-.9,2.17-1.37,3.25-.63,1.44-1.26,2.88-1.94,4.26-1,2.12-1.21,4.58-2.79,6.46a2.74,2.74,0,0,0-.4.78c-.8,2.29-1.54,4.61-2.41,6.89-.74,2-1.62,3.95-2.37,6a23.9,23.9,0,0,0-1.71,4.92c-.22,1.55-.21,3-1.4,4.26-.17.16-.18.51-.22.79a24.72,24.72,0,0,1-.6,3.61c-.42,1.28-1.31,2.4-1.7,3.68-.64,2-1,4.14-1.58,6.17-.54,1.76-1.8,3.41-1.85,5.16-.07,2.75-1.59,5.11-1.61,7.85,0,2.23-.84,4.47-1.28,6.71-.4,2-1.5,3.9-1.34,6.07a9,9,0,0,1-.35,2c-.33,2.07-.69,4.14-.93,6.22-.17,1.44.65,3.06-.77,4.11a4.28,4.28,0,0,1,.48,1.29c0,1.92-.06,3.85-.22,5.76-.26,3-.74,5.93-.91,9a27.66,27.66,0,0,0,.23,5.68,53.9,53.9,0,0,0,1.29,5.45,14.42,14.42,0,0,1,.43,1.75c0,.74.06,1.48,0,2.23a15.67,15.67,0,0,1,1.35.82,1.39,1.39,0,0,1,.49.72c.54,2,.81,4.07,2.76,5.3.24.15.63.37.64.56,0,1.63,1.43,2.09,2.42,3a19.92,19.92,0,0,1,3.84,4.15,6.81,6.81,0,0,0,4,3.43c.13,0,.23.18.32.3,1.85,2.5,4.62,3.66,7.2,5.15a42.09,42.09,0,0,1,3.91,3,16.08,16.08,0,0,0,1.71,1c1,.56,2.32.9,2.85,1.75,1,1.67,2.78,2.22,4.18,3.3.85.66,1.8,1.23,2.73,1.82a7,7,0,0,0,1.35.71c1.53.55,3.39.48,4.1,2.46.11.32.76.53,1.2.62,1.74.38,2.8,1.42,2.73,3.22,0,1.1.82,2.27-.13,3.33a.46.46,0,0,0,.05.41c1.34.82,1.12,2.22,1.32,3.4a38.33,38.33,0,0,1,.24,4.79,15.76,15.76,0,0,0,.09,1.68c.12.76,1.11,1.45.16,2.31a1.45,1.45,0,0,0,.53.89c1.14.43.82,1.27.7,2.08a14.19,14.19,0,0,1-.52,3.3c-.46,1.15.8,2.78-.62,3.26-.14.85-.2,1.35-.33,1.85s-.78,1.27.33,1.68a.74.74,0,0,1,.37.58c-.1,1.27-.27,2.54-.39,3.82-.08.84-.11,1.69-.18,2.54-.29,3.1.69,6.37-1.38,9.21-.12.16,0,.5,0,.75.1,1.51.75,3-.21,4.5-.13.19,0,.55,0,.84,0,1.24-.07,2.49-.17,3.72,0,.53-.45,1.14-.28,1.55a3.82,3.82,0,0,1-.77,4.06,1.68,1.68,0,0,0,0,1.54c.67,1,.87,1.8-.17,2.68-.25.22-.47.93-.31,1.14.64.83,0,1.42-.25,2.19-.57,1.8-.47,3.72-1,5.6s-.24,4.29-.55,6.41a37.1,37.1,0,0,1-1.31,4.75c-.42,1.5-.89,3-1.22,4.5-.51,2.26-1.86,4.34-1.57,6.79a3.87,3.87,0,0,1-.23.85c-.29,1-.65,2-.87,3-.35,1.7-.53,3.4-1,5-.27,1-.94,1.87-1.27,2.86a30.07,30.07,0,0,0-.72,3.26c-.29,1.3-.67,2.55-.86,3.89-.4,2.87-.67,5.77-1.07,8.64-.13,1-1,2.28-.62,2.88,1.14,1.79.34,3.43.27,5.17-.09,2-1.62,3.94-.37,6,.06.09-.09.29-.06.43.54,2.87-1.52,5.6-.34,8.58.4,1-.17,2.35-.22,3.54a10.65,10.65,0,0,0,.06,3.38c.42,1.47.44,2.75-.22,3.57a17.6,17.6,0,0,1,.58,3c0,1.16-.31,2.33-.25,3.49.1,2.08.49,4.14.57,6.21.07,1.49-.19,3-.21,4.47s.52,3.28,0,4.65-.12,2.78,0,4.15c.17,2.64.42,5.28.67,7.93a19,19,0,0,1,.35,2.61c-.07,1.33,1.24,2.94-.82,3.91l1.16.54c0,.73,0,1.27,0,1.8a15.23,15.23,0,0,1,.4,3.92,2.6,2.6,0,0,0,.41,2.35,5.68,5.68,0,0,1,.63,3c0,1.59-.43,3.22-.18,4.76a60.14,60.14,0,0,0,.74,6.05c.4,1.54.31,3.31.67,5a10.15,10.15,0,0,1-.14,2.06c0,1.28-.39,2.74.07,3.82a2.72,2.72,0,0,1-.4,3.07c1,.92,1,1.91,1.12,4.3,0,2-1.62,4,0,6,.06.08,0,.29,0,.43.09,2.53.19,5.07.27,7.6,0,.52,0,1-.11,1.54a5.85,5.85,0,0,1,1,1.88,21.47,21.47,0,0,1-.06,3.76,9.75,9.75,0,0,0-.3,1.86c.2,1.4.58,2.78.92,4.16.21.9.77,1.9.55,2.68-.5,1.77.23,3.23.56,4.84a48.53,48.53,0,0,1,.63,5.37c.13,1.32.23,2.65.33,4,0,.6.1,1.19.12,1.79a5.48,5.48,0,0,0,0,1c.37,1.61.91,3.2,1.15,4.84.33,2.53.42,5,.63,7.51.12,1.43.32,2.85.37,4.28.1,2.89.11,5.79.16,8.67.08,1.94.3,3.88.47,5.82,0,.56.23,1.12.25,1.69,0,1.56,0,3.1,0,5.38,1.29,5.12,1.11,11,.31,17.08a2.47,2.47,0,0,1,.76,3.32c.28.9.51,1.52.66,2.16.08.32,0,.67,0,1,.36,2.65.75,5.3,1.11,8,.14,1.14.23,2.3.32,3.45a27,27,0,0,0,.25,3.12,14.75,14.75,0,0,0,1.12,4.54,15.59,15.59,0,0,1,1,3.18,7.49,7.49,0,0,0,.34,1.49c.61,1.09,1,2.13.06,3,.31.51.72.89.74,1.28a11.35,11.35,0,0,1-.16,2.54c-.15,1,.55,2.33-1,2.81a2,2,0,0,0,.27,1,3.29,3.29,0,0,0,1,.48,7.56,7.56,0,0,0-.09,1.5c.32,2,.72,4,1,6a2,2,0,0,1-.1,1.29c-.57.81-.18,1.41.13,2.16a16.45,16.45,0,0,1,1,3.3,25.92,25.92,0,0,1,.09,2.79c.13,1.35.89,2.74-.47,3.91a.74.74,0,0,0-.18.68,2.86,2.86,0,0,1-.41,2.82c-.1.18-.14.58,0,.69,1.12,1.06.56,2.52.92,3.78a7,7,0,0,1-.39,4.78c-.52,1.19-.35,2.69-1.62,3.6-.06,0-.07.18-.07.28a1.75,1.75,0,0,1-1.72,1.78h-.15a1.52,1.52,0,0,0-.84.29c-2.09,1.73-4.63,1.4-7.06,1.57-1,.07-2.06.38-3.1.35a5.1,5.1,0,0,1-2.54-.58,8.73,8.73,0,0,1-1.78-2,15.07,15.07,0,0,1-3.09,1.53,3.92,3.92,0,0,0-2.5,2.28,16.12,16.12,0,0,1-1.26,1.72c-.34-.24-.52-.48-.73-.5a14.42,14.42,0,0,0-1.61,0,4.42,4.42,0,0,0,.47,1.27,6.28,6.28,0,0,0,1.63,1.66c2,1.18,2.1,3.4,2.92,5.21.08.17-.42.85-.76,1-3.36,1.45-3.56,1.53-2.08,4.62a1.57,1.57,0,0,1,.09.43c.09,1.15.64,1.17,1.45.61,3.48-2.37,7.5-2.83,11.52-3.42A71.3,71.3,0,0,0,109,740a102.8,102.8,0,0,0,10.17-3.81,3.67,3.67,0,0,0,2.54-3.43c0-1.26.12-2.54.17-3.78.13-2.94.3-5.88.33-8.82,0-1-.45-2.06-.49-3.1-.08-1.69.07-3.46,0-5.19s-.37-3.16-.48-4.75c-.14-2.22-.18-4.46-.3-6.69-.07-1.54-.19-3.08-.29-4.62-.19-2.72-.42-5.44-.53-8.16,0-1.58.48-3.29,0-4.72-.9-2.82-.35-5.62-.49-8.44-.12-2.54,0-5,0-7.5s0-5.26,0-7.9,0-5.13.09-7.69c0-1.16.39-2.31.36-3.46,0-3-.38-6-.32-9a32.92,32.92,0,0,0-.57-8.17,36.5,36.5,0,0,1-.87-9.78,34,34,0,0,0-.46-4.39c-.19-1.88-.32-3.76-.52-5.64-.22-2.15-.55-4.29-.72-6.44-.18-2.43.76-4.78.59-7.22-.1-2-.12-4-.24-5.92-.2-3.37-.51-6.75-.66-10.13-.1-2.53-.09-5.07,0-7.55,0-1.16.38-2.46,0-3.46a9.11,9.11,0,0,1-.27-5.22,7.39,7.39,0,0,0-.15-1.87c-.16-1.59-.39-3.18-.46-4.77-.1-2.35,1.57-4.52.52-7-.45-1.06,0-2.48,0-3.73.08-2,.17-4,.24-6,0-.23-.19-.46-.19-.68a13.14,13.14,0,0,1,0-1.54c.09-1.24.5-2.54.21-3.7a12.12,12.12,0,0,1-.29-5.77,4.22,4.22,0,0,0-.09-1.87c-.55-2.06-.08-4.22-.85-6.28a1.54,1.54,0,0,1-.09-.85c.3-1.11.69-2.21,1-3.33a3.19,3.19,0,0,0-.06-1.15,8.18,8.18,0,0,1-.28-1.63c.19-3.13.52-6.27.67-9.4.1-2-.17-4.12,0-6.16a37.58,37.58,0,0,1,.92-6.24,37.16,37.16,0,0,0,1.52-9.65c0-1,0-2,.09-3.05.19-2.78.27-5.59.69-8.33.36-2.34-.74-4.54-.13-7,.6-2.24.11-4.79.07-7.2s-.1-5.13-.21-7.69c0-1.29,0-2.58-.16-3.86-.26-2.38-1.31-4.73-.06-7.12.09-.17-.07-.47-.1-.71-.28-3.59-.59-7.18-.85-10.78a23.22,23.22,0,0,1,1.19-8.79,10.7,10.7,0,0,1,3.81-4.9,10.88,10.88,0,0,1,5.55-1.94c.7-.1,2.25-.17,1.73-1.36a8.42,8.42,0,0,1-.73-4.45.39.39,0,0,0-.11-.27c-1-1.17-.47-2.09.41-3.06a6.5,6.5,0,0,0,.82-1.62l-.09-.55a23.27,23.27,0,0,1,3.2,1.39,2.53,2.53,0,0,0,3.21-.27,3.65,3.65,0,0,1,4.24.63A4.7,4.7,0,0,0,146,404a1.92,1.92,0,0,1,2.57,1.86,4.85,4.85,0,0,1-1.22,3.28c-1,1.46-.81,2.34.9,3,2.4.92,4.89,1.61,6.82,3.45a.47.47,0,0,0,.39.11c1.33-.53,1.7.54,2,1.34s.87,1.08,1.6,1.43a8.55,8.55,0,0,1,2.05,1.79c.21.19.31.51.53.65,1,.65,2,1.23,3,1.86,2.24,1.43,4.43,2.95,6.73,4.29,1,.57,1.49,1.12,1.17,1.89l4.07,3.57.84-.08a15.19,15.19,0,0,0,.87,1.27c.87,1,1.79,2,2.68,3.08a10.43,10.43,0,0,0,1.32,1.5c1.84,1.44,3.85,2.68,5.59,4.23,2.1,1.89,4,4,6,6,1.86,1.84,4,3.3,5.34,5.82.77,1.48,2.71,2.31,3.94,3.76s3.56,2.26,3.82,4.71c0,.27.23.72.4.74,1.49.23,1.72,1.66,2.58,2.49a14.79,14.79,0,0,0,1.33.82,21.38,21.38,0,0,1,1.83,1.73c1.66,1.84,3.3,3.7,5,5.54.12.13.37.13.54.23a25.26,25.26,0,0,1,4.52,2.56c2,1.66,2.62,4.72,5.34,5.82a.35.35,0,0,1,.14.25c-.28,1.19.59,1.26,1.37,1.66a6.22,6.22,0,0,1,1.72,1.55c.65.71,1.26,1.46,1.9,2.19a9.56,9.56,0,0,1,1.52,1.72,8.51,8.51,0,0,0,1.4,1.81c.8.9,2.09,1.47,2.28,3a3.37,3.37,0,0,0,1.65,2.24,3.76,3.76,0,0,1,2.31,3.08c.06.33.45.83.73.83,1.16.11,1.46.94,1.87,1.8a6.12,6.12,0,0,0,1.57,2.37,4.12,4.12,0,0,1,1.91,4.52,6.22,6.22,0,0,0,.43,2.13c.24,1.17.89,2.48.6,3.49a62.85,62.85,0,0,1-3,7.33c-.12.28-.64.4-1,.59-1.06.63-2.52,1-3.06,1.92-1.35,2.25-3.86,2.54-5.72,3.87-1.2.87-2.89,1-4.34,1.59a12.8,12.8,0,0,0-3.6,1.56c-2,1.6-4.44,2.11-6.71,3-.58.23-1.31.08-1.86.34-2,1-4.07,2-6,3.17a67.68,67.68,0,0,1-11.74,5.29,18.14,18.14,0,0,0-2.09.88c-1.5.76-3,1.57-4.46,2.35a1.27,1.27,0,0,1-.28.06c-1,.33-2.11.59-3.12,1-1.23.47-2.43,1-3.62,1.58-1.62.74-3.2,1.62-4.88,2.21a5.86,5.86,0,0,1-3.16.23c-.56-.13-1-1-1.7-.33-.15.15.3.91.47,1.37-1,.51-2.11,1.1-3.24,1.62a5,5,0,0,1-1.68.47,5.18,5.18,0,0,0-2.84.81,18.23,18.23,0,0,1-3.3,1.59c-.42.18-.9.21-1.33.37a7.78,7.78,0,0,1-1.68.71c-1.6.15-2.07.58-1.79,2-.84.2-1.48,1.2-2.47.28-.07-.07-.53.24-.78.41s-.51.55-.78.57c-3.38.3-6.54,2.19-10.21,1.15-3-.84-4.55-2-4.78-5-.08-1-.28-2.17-1.38-2.21-.44,0-1.12,1.27-1.34,2.06-.65,2.26.51,4.85-1.13,6.94a4.4,4.4,0,0,1-1.5,1.28,1.08,1.08,0,0,1-1.47-.41,1.06,1.06,0,0,1-.12-.34,1.89,1.89,0,0,0-.86-1.12,2.76,2.76,0,0,0-1.86-.08c-.4.16-.57.85-.82,1.3.41.36,1.06.66,1.25,1.14a17.05,17.05,0,0,1,1.11,8.54,4.66,4.66,0,0,0,.17,2.48,20.29,20.29,0,0,0,2,2.77c.13.16.21.56.11.66-1.08,1.16.05,2.62-.53,3.85a1.07,1.07,0,0,0,.37,1c.32.08.73-.25,1.11-.3a6.11,6.11,0,0,1,2-.14,10.6,10.6,0,0,1,1.7.81,2.71,2.71,0,0,1,1.73,3.43,2.33,2.33,0,0,1-.11.28c-.4,1,1,3.22,2.12,3.21a1.09,1.09,0,0,0,.83-.59,25.56,25.56,0,0,0,.41-3.69,33.75,33.75,0,0,1,2.45-10.54,8.65,8.65,0,0,1,4.1-4.72,56.69,56.69,0,0,1,7.11-3.32c2.88-1.09,5.89-1.8,8.79-2.9,1.93-.74,4.08-1.5,5.47-2.91,1.7-1.72,3.79-2.37,5.81-3.21,3.42-1.4,7-2.51,10.47-3.75,2.12-.76,3.9-2.7,6.48-1.9a1.48,1.48,0,0,0,.41-.13c1.78-.88,3.54-1.76,5.34-2.49a30.62,30.62,0,0,1,3.71-1.27c1.44-.4,3-.56,4.34-1.09.91-.36,1.56-1.35,2.45-1.74,2.13-1,4.35-1.72,6.53-2.56.89-.34,1.82-.65,2.68-1.06,1.4-.68,2.74-1.47,4.15-2.12s2.83-1.14,4.19-1.77,2.83-1.3,4.19-2,2.66-1.45,4-2.14c2.22-1.16,4.44-2.28,6.7-3.41a3.31,3.31,0,0,1,.42-.12c1.47-.47,3-.9,4.41-1.46a15.93,15.93,0,0,0,2.72-1.63,22.72,22.72,0,0,0,1.92-1.61,11.33,11.33,0,0,0,1.2-1.2,11.63,11.63,0,0,0,1.11-1.5c1.41-2.14,3.18-4.14,4.06-6.48.69-1.8.11-4,.34-6,.4-3.34-1.72-5.64-3.12-8.24a1.41,1.41,0,0,0-.62-.61c-2.37-.92-2.49-4.26-5.16-4.84a.37.37,0,0,1-.07-.12,9.88,9.88,0,0,0-2.36-3.15c-2.45-2.33-4.45-5.15-6.73-7.68-1.44-1.58-3.1-2.94-4.6-4.47-1.25-1.27-2.42-2.63-3.59-4a12.21,12.21,0,0,0-2.06-2.41,18.19,18.19,0,0,1-4.55-4.46,3,3,0,0,0-.66-.77,27.48,27.48,0,0,1-6.78-5.94c-.63-.77-1.65-1.2-2.33-1.93-.86-1-1.59-2.15-2.47-3.17a29.85,29.85,0,0,1-3.16-3.42c-1.09-1.74-2.84-2.59-4.26-3.88-3-2.69-5.75-5.6-8.45-8.56a16.39,16.39,0,0,1-2.14-2.91c-.82-1.45-3.13-1.82-3.8-3.74,0-.07-.15-.11-.23-.16-1.23-.82-2.52-1.65-3.68-2.56-.86-.72-1.63-1.66-2.49-2.43a44.32,44.32,0,0,1-3.59-3.12c-1.39-1.58-3.38-2.69-4-4.88a.55.55,0,0,0-.33-.27c-2.4-.91-3.66-3.06-5.21-4.88s-2.86-3.68-4.51-5.29a19.5,19.5,0,0,1-3.9-4.9,2.32,2.32,0,0,0-.59-.58,24,24,0,0,1-2.16-1.72c-.71-.72-.89-2-2.34-1.84-.09,0-.23-.16-.31-.27-.66-1-1.34-1.91-1.94-2.91s-.95-1.88-1.5-2.78c-.87-1.41-1.8-2.76-2.67-4.18s-1.36-3-2.47-4c-1.78-1.66-1.92-3.59-1.92-5.68,0-1.86,0-3.72.1-5.59,0-1,.28-2.08.34-3.13.06-1.39,0-2.78.06-4.17.12-2.2.31-4.4.44-6.6.05-.77,0-1.54,0-2.32,0-1.28,0-2.58.14-3.87.18-1.81,1.13-3.83.58-5.32a10.22,10.22,0,0,1-.46-4.49c.1-1.64.19-3.28.36-4.91a24,24,0,0,1,.52-2.79c.13-.66.31-1.32.48-2a1.86,1.86,0,0,0-.18-1.56c-.91-1.13-.47-2.14,0-3.23a7.45,7.45,0,0,0,.72-2.35c.17-2-.49-4.08.45-6,.06-.1,0-.27,0-.42a59.43,59.43,0,0,1-.58-6.26c.06-4.06.34-8.11.54-12.16a3.92,3.92,0,0,1,.16-.56c.32-1.64.71-3.28.93-4.94a14.87,14.87,0,0,0,.08-3.59,5.15,5.15,0,0,1,2-4.51c1.22-.87,2.23-2,3.37-3a19,19,0,0,1,2.46-1.93c.9-.57,2-.88,2.84-1.47,1.23-.86,2.29-1.93,3.52-2.79a49.66,49.66,0,0,1,5-3.21c2.26-1.24,4.62-2.31,6.95-3.44a26.06,26.06,0,0,1,4.64-2.18c2.22-.56,3.49-2.35,5.29-3.4.95-.54,1.82-1.22,2.75-1.74s2.07-1,3-1.66a34.67,34.67,0,0,0,4.06-3.08,22.24,22.24,0,0,0,3.65-4.1c1.53-2.42,2.74-5,4.09-7.57a2.72,2.72,0,0,0,.26-1.08,21.26,21.26,0,0,1,.17-3.09,46.09,46.09,0,0,1,1.26-4.48,19.67,19.67,0,0,0,.7-2.38c.39-2.29.76-4.58,1-6.88.33-2.71.45-5.45.87-8.13.24-1.51.85-2.95.13-4.47a.72.72,0,0,1,0-.43c.24-1.39,1.1-2.78-.07-4.14-.07-.09,0-.3,0-.43a8.13,8.13,0,0,0,.11-3.95c-.37-2.22.76-4.59-.63-6.75v-.14c-.19-3.51-.13-7.06-.65-10.51-.33-2,1.26-4.3-.81-6.05,0,0,0-.19,0-.28-.16-3.2-.26-6.39-.49-9.58s-.54-6.52-.91-9.77c-.32-2.86-1.13-5.68-.62-8.61a2.4,2.4,0,0,0-.25-.65,6.06,6.06,0,0,1-.51-1.3c-.25-2.17-.4-4.35-.67-6.51-.12-.89-.61-1.75-.66-2.63-.12-2.13.16-4.31-.21-6.38a13.73,13.73,0,0,1,.08-3.39,8.53,8.53,0,0,0-.69-3.31c-.57-1.55-1.58-3-1.93-4.54a17.45,17.45,0,0,0-1.71-4.58,23.25,23.25,0,0,1-1.35-3.41c-.35-1.1-.55-2.24-.9-3.36-1.19-3.54-2.36-7.1-3.69-10.6a45.44,45.44,0,0,0-2.71-6.8c-1.07-1.87-1-4.31-2.78-5.87a.81.81,0,0,1-.11-.27c-.77-2.08-1.52-4.2-2.32-6.22-.09-.24-.42-.37-.61-.57A22.75,22.75,0,0,1,189,92.83c-1.08-1.67-1.69-3.84-3.07-5.22A35.92,35.92,0,0,1,181,80.72c-.57-.93-.89-2.21-1.66-2.76a5.28,5.28,0,0,1-1.83-2.81,1.59,1.59,0,0,1,.56-1.43,47.11,47.11,0,0,1,3.63-3.28,6.16,6.16,0,0,1,2-1.06,50.29,50.29,0,0,0,4.94-1.3c2-.79,3.73-2.14,5.73-2.8a3,3,0,0,0,2.39-2.73,7.49,7.49,0,0,0-1.42.11c-1.61.47-3.21,1.06-4.84,1.48-.78.2-1.64,0-2.43.21s-1.12.18-1.57-.55a24.68,24.68,0,0,0-2.16-2.71c-1.27,1.31-2.09.58-3.1-.56a3,3,0,0,0-4.38-.12c-1.12,1.49-2.59,1.74-4.19,2-.75.08-1.25.22-1.46,1.23-.38,1.89-3.65,3.39-4.86,2.24-1.43-1.36-3.65-1.75-4.53-3.8-.13-.29-1-.35-1.55-.33-.14,0-.29.66-.4,1a7.33,7.33,0,0,0,.69,4.93c.44,1.06.73,2.52,1.56,3,1.65,1,2.08,2.71,3.22,4,1.38,1.52,3,3,3.48,5.19a1,1,0,0,0,.52.49,4.1,4.1,0,0,1,2.42,2.89,15.7,15.7,0,0,0,4,5.61c1,1,1.88,2.17,2.88,3.19,2.18,2.21,2.68,5.49,4.92,7.65a.5.5,0,0,1,.13.26c.74,1.67.77,3.81,2.69,4.89.17.1.09.57.21.84.24.58.53,1.13.79,1.68a24.4,24.4,0,0,1,1.19,2.47c.85,2.33,1.66,4.68,2.41,7,.44,1.39,1.67,2.57,1.15,4.21,0,.17.21.42.29.64.55,1.52,1,3,1.65,4.55.45,1.15.12,2.53,1.38,3.5a5.29,5.29,0,0,1,1.5,2.46c.36,1,0,2.2,1.18,2.95.29.19.16,1.07.19,1.62s0,1.31,0,2a20.68,20.68,0,0,0,.38,2.22,7.41,7.41,0,0,0,.4,2.53,7.33,7.33,0,0,1,1.08,6.28c-.09.26,0,.58-.06.84-.45,1.7,1.16,2.72,1.39,4.26a17.82,17.82,0,0,0,1.47,3.88l-1.55.83,1.55.2c.13,1.59.19,3.09.37,4.56.23,1.94.65,3.86.78,5.8a40.65,40.65,0,0,0,.67,7.37,47.6,47.6,0,0,1,.87,5.58,10.21,10.21,0,0,1-.16,1.45c-.09,1.48-.19,3-.19,4.45,0,.51.36,1,.34,1.55-.14,4.23-.27,8.4-.51,12.59-.12,2.09-.44,4.15-.73,6.23-.11.8-.44,1.57-.51,2.37-.12,1.44,0,2.9-.22,4.33s-.69,2.88-.84,4.35c-.21,2.05-.25,4.13-.31,6.19,0,.62.18,1.24.21,1.86.1,1.85.27,3.72.21,5.57,0,1.35-.48,2.67-.55,4-.09,1.65.06,3.31,0,5a13.42,13.42,0,0,1-.43,3.34,12,12,0,0,0-.39,3.76,14.66,14.66,0,0,1-2.68,8.11,7.94,7.94,0,0,1-1.47,1.37c-.18.15-.52.26-.55.42-.24,1.87-1.88,2.13-3.12,2.92-1,.61-2.2,1.48-2.41,2.44a2.67,2.67,0,0,1-1.38,1.81,26.76,26.76,0,0,1-4.18,2.51c-2.06.88-4.2,1.51-6.55,2.32a2.26,2.26,0,0,1-2.08,1.52,8.9,8.9,0,0,0-2.34.81c-2.41,1.1-4.79,2.3-7.21,3.36-1.43.62-2.93,1.06-4.39,1.59-.23.08-.44.21-.68.29-2.85,1-5.7,2-8.57,3-.58.18-1.29,0-1.82.25-1.2.56-2.31,1.33-3.68.4-.19-.14-.64,0-.94.15-2.31.88-2.94.58-4.38-1.43a4.6,4.6,0,0,1-.81-2,28.14,28.14,0,0,0-1.54-4,5.81,5.81,0,0,1,2.32-6.7c2-1.41,4.85-1.6,6-4.26.08-.2.52-.23.74-.41a20.12,20.12,0,0,0,2.85-2.35c.94-1.08,1.46-2.56,2.48-3.54,2.49-2.48,3.07-5.92,4.7-8.83.6-1.09.4-2.76.62-4.16.46-2.93-.63-5.85-1-8.79a.71.71,0,0,0-.16-.39c-1.56-1.29-1.31-3.36-2.2-5a18.22,18.22,0,0,0-1.61-2.81c-1.37-1.66-3.35-3-4.23-4.85-1.13-2.39-3.15-3.28-5.15-4.36-1.61-.88-3.41-1.33-5.06-2.2a9.74,9.74,0,0,0-6.25-1c-1.68.24-3.3,1-5.06.3a1.09,1.09,0,0,0-.85.25c-1.66,1.29-3.81,1.58-5.58,3a14.82,14.82,0,0,0-4.61,6.46c-.8,2.26-2.14,4.47-1.91,7.17.17,1.9-.77,3.89-.68,5.81.15,2.21-1.79,4.84,1,6.66v.14c.47,1.68.9,3.43,1.43,5.13a2.78,2.78,0,0,0,.47,1.07c.86,1,1.77,2,2.68,3s2,2.17,2.93,3.26a4.5,4.5,0,0,1,.3.63,17.13,17.13,0,0,0,1,1.52c.16.22.62.32.64.52.24,1.84,1.55,2.28,3.09,2.66.85.22,2.15.81,2.3,1.42.36,1.57,2.12,2.64,1.58,4.49,0,.14.34.54.56.56,1.77.23,1.67,1.35,1.57,2.64Zm2.1,162.28c.42-.93.59-2.1,1.25-2.56s1.91-.38,2.83-.52c-.22-1.35-.35-2.53-.62-3.71a5.38,5.38,0,0,0-.88-1.95c-1.09-1.41-2.56-1.31-3.38.23-.5.92-.81,1.94-1.26,2.91h.51c.19.89.74,1.92.47,2.65-.52,1.43-.23,2.34,1.09,3Zm8.72-17.91c-.77-1.18-2-1.22-3.12,0-.83,1-1.79,2-3.29,1.85-.58,0-1.36-.48-1.35.65a1.31,1.31,0,0,0,1.11,1.47,1.34,1.34,0,0,0,.49,0c1.83-.2,3.68-.4,4.83-2.16.4-.58.87-1.13,1.34-1.75Zm22.87-365c.61.09,1.35.71,1.61-.56a8.4,8.4,0,0,1,.59-2.14c.3-.64.47-1.22-.4-1.24a1.67,1.67,0,0,0-1.25,1,17.81,17.81,0,0,0-.55,3ZM135.45,43l-.77-1a5.74,5.74,0,0,0-1.4.64,22.11,22.11,0,0,0-1.8,2c-.47.52-.94,1-1.42,1.59A2.25,2.25,0,0,0,133,45a4,4,0,0,1,1.11-1.49,4.79,4.79,0,0,1,1.36-.57Zm-2.79,375.52a30.76,30.76,0,0,0-2.86,1.46c-.21.12-.25.72-.17,1.05,0,.16.61.35.86.26A3.07,3.07,0,0,0,132.66,418.48Z" transform="translate(-53.03 -25.76)"/><path class="cls-1" d="M147.73,310.42c1.07,1.2,2.49,1.92,1.51,3.35a4,4,0,0,1-2.1,1.49c-.44.12-1.19-.51-1.65-.95a1.29,1.29,0,0,1-.15-1.19C146.07,312.22,146.85,311.38,147.73,310.42Z" transform="translate(-53.03 -25.76)"/><path class="cls-1" d="M137.16,372.64l-.73,2.85c-.51-.1-1.42,0-1.65-.36a6.39,6.39,0,0,1-.45-2.24Z" transform="translate(-53.03 -25.76)"/><path class="cls-1" d="M123.84,314.11a27.28,27.28,0,0,1-2.59,1.68c-.15.07-.65-.56-1-.83l2.28-2.22Z" transform="translate(-53.03 -25.76)"/></g></svg>