<svg id="Layer_1" data-name="Layer 1" xmlns="http://www.w3.org/2000/svg" viewBox="0 0 1080 1080"><g id="IjZBH0.tif"><path d="M372.16,588.6a5.08,5.08,0,0,0-2.94,3c-.55,1.43-1.16,2.83-1.71,4.25a2.49,2.49,0,0,0-.19,1c0,2.29,0,4.59.06,6.88.05,1.33.3,2.65.35,4,0,.41-.35.84-.5,1.27a2.7,2.7,0,0,0-.26,1c.27,3.14.58,6.28.88,9.42,0,.11-.09.22-.09.33.06,1.34.45,2.58-.6,3.92-.72.92,0,2.31.64,3.41,1.05,1.73.9,2.71-.57,4.18.39,1,1.23,1.79.54,3.19-.41.84.46,2.23.36,3.35-.17,2.09-.63,4.17-1,6.25a3.91,3.91,0,0,0-.06.83c.06,1.78.11,3.55.22,5.32a8.68,8.68,0,0,0,.36,1.53c-1.38,1.25-1.46,2.75-1,4.78a22.26,22.26,0,0,1,0,5.29c0,.24-.45.46-.77.76l.91,1a15.67,15.67,0,0,1-.46,2c-.24.64-.61,1.24-.93,1.89,1.69,1.15.67,2.68.49,4s-.8,2.38-1.07,3.61c-.33,1.54-.45,3.12-.74,4.67-.34,1.78-.86,3.53-1.14,5.32a7,7,0,0,0,.2,2.6c.64,2.78-.28,5.39-.77,8-.06.27.14.59.22.89s.31.67.22.92c-.49,1.43-1.1,2.82-1.56,4.26a2,2,0,0,0,.12,1.56,2.21,2.21,0,0,1-.14,3.11c-.31.39-.21,1.14-.19,1.71.05,1,.26,2,.25,3,0,1.91.86,3.86-.24,5.77-.27.47-.32,1.52,0,1.79a2.18,2.18,0,0,1,.32,3.41.76.76,0,0,0-.12.67c1.43,2.31-.07,4.85.55,7.22a1.46,1.46,0,0,1,0,1,8.79,8.79,0,0,0-.43,6.36c.12.54-.25,1.2-.45,2,1.56.66.49,2.3.61,3.59.15,1.6,1.23,3.41-.65,4.77-.1.07-.09.33-.08.5.16,3.3.41,6.6.46,9.91a8.47,8.47,0,0,1-.78,4.58c-.47.82.2,2.25.31,3.42.19,2.16.72,4.38-.58,6.22.36.7.94,1.32.94,1.94,0,2.09-.2,4.18-.26,6.27a14.22,14.22,0,0,0,.17,2.84c.26,1.57,1.19,3.19-.1,4,.11,1.88.22,3.29.25,4.71.05,1.67.06,3.33,0,5s-.14,3.49-.21,5.24q-.12,3.07-.22,6.15a6,6,0,0,1-.07,1.35,6.61,6.61,0,0,0,.73,4.57,6.76,6.76,0,0,1-.06,5.33,1.27,1.27,0,0,0,0,.86c.64,1.56,1.1,3.1.37,4.19.14,1.24.22,2,.33,2.79s.25,1.46.36,2.2c.06.44.28,1.08.08,1.29-1.18,1.23-.63,2.18.16,3.34.38.56.21,1.5.29,2.27.05.5.1,1,.14,1.49.13,1.39.27,2.78.39,4.18,0,.11-.08.25,0,.34a12.26,12.26,0,0,1,.16,8.15,10.68,10.68,0,0,0-.2,3.94,93.9,93.9,0,0,1,.44,9.63c0,1.46-.76,2.89-.9,4.36s.17,2.76.16,4.14c0,.66-.35,1.31-.39,2a3.69,3.69,0,0,0,.18,2.06c1.14,1.84.86,3.5.06,5.4-.44,1-.11,2.39-.12,3.6,0,.64,0,1.28,0,1.92,0,1.73,0,3.45-.07,5.17,0,1.54,0,3.08-.06,4.62,0,.4-.27.95-.09,1.18,1.63,2.15-.39,4.58.59,6.86.33.76-.5,2-.8,3,1.56,1.28,1.64,4.19.06,6.13l1.26-.16c0,2.54-.11,5.11,0,7.66.1,1.81.57,3.59.79,5.4.05.39-.27.82-.4,1.24a3.49,3.49,0,0,0-.34,1.29c.15,1.4.47,2.79.64,4.19.4,3.22.75,6.46,1.12,9.69a2.3,2.3,0,0,1,0,.86c-.72,2.44-.45,4.94-.49,7.42a13.32,13.32,0,0,1-.78,2.87c1.78,2.89.27,6.08-.6,9.21a6.92,6.92,0,0,1-2.44,3.81,26.36,26.36,0,0,1-5.94,2.35c-1.87.64-3.95.64-5.6,1.94a1,1,0,0,1-.81.21c-2.17-.74-3.77.81-5.63,1.32a5.66,5.66,0,0,1-2.61.45c-1.89-.52-3.11,1-4.69,1.19s-3.42-.2-5.11-.05a7.91,7.91,0,0,0-3.59,1.07,11,11,0,0,1-6.58,2c-1.12,0-2.1.86-3.49.74a4.35,4.35,0,0,1-3.53-2.72,9.27,9.27,0,0,1-.28-7.43c.47-1.06,1.76-1.75,2.68-2.6.33-.3.67-.58,1.29-1.12-1.7-1-3.12-2-4.66-2.75a34,34,0,0,1-7.08-3.91c-1.23-1-1.5-2.3-.7-4a4.38,4.38,0,0,1,1.23-1.78c.4-.27,1.16,0,1.75,0a11.55,11.55,0,0,1,1.51.39c.09-.48.38-1.06.21-1.42-1-2.11.17-3.83,1-5.51A2.81,2.81,0,0,1,313,946c1.27,0,2-.2,2.46-1.53s1-2.84,2.87-2.71a6.2,6.2,0,0,1,2.67.56c1.16.67,1.6.29,1.83-.79.54-2.5,2.94-3.38,4.83-1.7a12.1,12.1,0,0,1,2.41,2.44,7.55,7.55,0,0,1,.67,2.86l1.47,4.69a4.3,4.3,0,0,0,3.72,0,20.61,20.61,0,0,1,5.12-1.05c2.16-.32,3.09-2,3.76-3.65,1.26-3.08.14-6.33.29-9.5.13-2.81.59-5.6.82-8.4a20.67,20.67,0,0,0,0-4c-.36-3.13-1.12-6.25-1.23-9.39a49,49,0,0,0-1-8.46c-.39-1.81.15-3.8.06-5.69-.15-3.25.18-6.57-1.34-9.65a8.61,8.61,0,0,1-.32-2.38c-.47-3-.91-6-1.45-8.92-.36-2-.88-4-1.32-5.94a1.31,1.31,0,0,1,0-.68c.83-2.61-.18-5.06-.51-7.6-.56-4.33-.81-8.7-1-13.06a40.93,40.93,0,0,1,.66-6,1.9,1.9,0,0,0,0-.86c-1.21-3.08-.93-6.32-.86-9.49a60.85,60.85,0,0,0-.87-11.91c0-.06,0-.13,0-.18,1-3.37-.14-6.75.05-10.14.18-3.1-.36-6.26-.07-9.35s-1.15-5.92-1.4-8.94c-.21-2.61-.92-5.18-1.29-7.78-.11-.76.36-1.6.26-2.37-.34-2.59-.88-5.14-1.21-7.73a50.37,50.37,0,0,1-.28-5.36c0-1.79.17-3.59.05-5.37-.16-2.35-.64-4.68-.81-7-.15-2.16-.08-4.34-.11-6.51,0-.38.11-.87-.08-1.12-1.35-1.72-1-3.72-1-5.64.07-3.37.33-6.72.34-10.08,0-3-.31-6-.31-9,0-1.61.38-3.23.42-4.8-.09-.88-.19-1.76-.28-2.64-.16-1.51-.39-3-.45-4.55-.18-4.16-.24-8.32-.44-12.48-.07-1.5-.46-3-.61-4.5-.19-2-.23-4-.45-6-.16-1.53-.58-3-.73-4.57-.29-3.14-.46-6.3-.71-9.45-.25-3.36-.57-6.71-.78-10.08a23.91,23.91,0,0,1,.22-3.26c.16-2.18.71-4.41.36-6.5-.28-1.71.68-3.26-.15-5.08-.71-1.53-.3-3.58-.31-5.41,0-2,.1-4.08.12-6.11,0-1.41,0-2.82,0-4.23-.07-2.48-.19-5-.24-7.43a19.91,19.91,0,0,1,.2-2.55c.09-1,.17-1.92.31-2.87.22-1.58.62-3.14.71-4.73.16-2.85.06-5.71.22-8.56.12-2.07,1-4.21.62-6.16-.52-2.82.94-5.12,1.13-7.69a19.84,19.84,0,0,0,.25-2,27.37,27.37,0,0,1,1.92-10.81,27,27,0,0,0,.86-4.05,2.84,2.84,0,0,1,.4-1.29c1.26-1.33,1.11-3,1.44-4.62.68-3.33.66-6.94,3.15-9.71.22-.23.47-.64.4-.89a11.54,11.54,0,0,1,1.31-8.48,12,12,0,0,0,.68-2.49c.33-1.2.71-2.39,1-3.6.51-2.25.94-4.51,1.44-6.76.61-2.71,1.27-5.41,1.86-8.12a46.32,46.32,0,0,0,1.13-5.89c.27-3.13.11-6.29.44-9.4.28-2.61,1-5.17,1.51-7.74.06-.33.35-.72.25-.94-1.64-3.38.36-6.38.87-9.55a34,34,0,0,0,.1-4.17c0-1.06.06-2.13.16-3.19.3-2.93.72-5.84.94-8.77.17-2.2.12-4.41.18-6.61a8.14,8.14,0,0,1,.17-1.37,18.61,18.61,0,0,0-.4-8,6.35,6.35,0,0,1-.09-2.3c.19-1.53-.76-1.91-1.92-2.13-1.47-.27-3-.47-4.42-.77-3.07-.63-4.15-2.47-3.57-5.48a2.28,2.28,0,0,0-1.22-1.86c-1.65-.44-2.28-1.7-2.78-3-.16-.42.43-1.27.86-1.76a5.67,5.67,0,0,1,1.55-.87l2.09.87c-.31-.8-.33-1.26-.57-1.44-1.92-1.51-3.88-3-5.82-4.44-2.27-1.72-4.47-3.52-6.8-5.15-1.57-1.1-3.34-1.9-5-2.92-1.15-.72-2.17-1.67-3.34-2.34a10,10,0,0,0-2.88-1c-2.24-.47-3.47-2.29-5-3.69a37.1,37.1,0,0,0-4-3.79,23.82,23.82,0,0,1-5.95-5.94,77.59,77.59,0,0,1-5.39-10.11c-1.31-2.77-2.06-5.81-3.52-8.48a20.36,20.36,0,0,1-3-12.71c.26-3,.76-5.93,1.22-8.88.27-1.7.79-3.36.94-5.07a21,21,0,0,0-.18-4.34c-.19-1.64-.7-3.27.81-4.59a.87.87,0,0,0,.18-.64c-.48-4.21.73-8.16,1.77-12.16.49-1.85.46-3.83.82-5.72.32-1.69.9-3.33,1.27-5,.59-2.67,1.05-5.37,1.67-8A38,38,0,0,1,299.2,331c.93-2.61,1.92-5.21,2.78-7.85.57-1.75,1-3.57,1.43-5.36.17-.64.35-1.29.53-1.94.58-2,1.09-4.1,1.77-6.1,1.11-3.26,2.34-6.48,3.55-9.7a1.44,1.44,0,0,1,.75-.8c1-.34,1.08-.82.64-1.72a2,2,0,0,1,.18-1.48c.59-1.19,1.83-2.33,1.82-3.48,0-2.08,1.35-3.69,1.36-5.67,0-.32.09-.84.29-.93,1.83-.83,1.29-2.76,2-4.12.87-1.76,1.7-3.55,2.77-5.77-.4-.75.25-1.66,1-2.89a43.16,43.16,0,0,0,3-6.66l1.76-4.05c1-2.33,2.09-4.64,3.06-7,1.23-2.95,2.32-6,3.57-8.89s2.61-5.65,3.83-8.51c.84-1.94,1.46-4,2.29-5.91.59-1.4,1.48-2.69,2-4.11.7-1.87,1-3.9,1.81-5.72,1-2.39,2.45-4.6,3.55-7,.83-1.79,1.38-3.72,2.13-5.56a17.27,17.27,0,0,1,1.2-2.13c.87-1.44.93-3.11,1.31-4.69.12-.49.09-1.19.41-1.42,1.18-.87,1-2,.95-3.21a22.93,22.93,0,0,1,2.08-8.95,27.19,27.19,0,0,0,2.17-8.94c.06-1.35,1.05-2.64,1.62-4,.12-.25.39-.6.31-.76-1.26-2.52.4-4.82.51-7.23.14-3.07.34-6.14.42-9.21,0-.7-.54-1.41-.52-2.11,0-1.48.37-2.95.42-4.43.08-2.18-.14-4.38,0-6.55.4-4.68.24-9.46,2.24-13.86a2.78,2.78,0,0,1,1.33-1.14,10.87,10.87,0,0,1,2-.58c.23-.06.57-.24.65-.16,1.05,1,2.81,1.95,2.92,3.07.23,2.33-.75,4.78-.57,7.14.13,1.68,1.33,3.28,2.06,4.91a13.22,13.22,0,0,0,2.73-2,15.74,15.74,0,0,0,2.41-3.81c.87-1.94,3.23-3.07,3-5.59,0-.26.09-.69.28-.78,2.3-1.15,2.22-3.88,3.7-5.54a12.32,12.32,0,0,1,2.58-2.26,2,2,0,0,1,3.05,1.24c.11.47-.42,1.08-.75,1.84.82,2.07-.51,3.83-1.72,5.64a19,19,0,0,0-1.13,2.2c-1.21,2.41-2.51,4.77-3.57,7.23a8.66,8.66,0,0,0-.17,2.9,14.41,14.41,0,0,0,3.17-1.15,32,32,0,0,0,3.48-2.92c.17-.15.49-.24.53-.41.57-2.67,2.8-2.22,4.64-2.5a2.85,2.85,0,0,0,.84-.16c1.34-.68,2-.1,2.46,1.17a16.67,16.67,0,0,0,1.08,2.08l-1,.93c1.4,2.23,1.37,2.63-.16,4.24a8.14,8.14,0,0,0-.78,1.19,15.17,15.17,0,0,0,1.72.48,12.41,12.41,0,0,1,3.11.46c.73.34,1.15,1.33,1.75,2,.82.89-.3,1.74-.19,2.19.53,2.11-1.07,3.42-2,4.5-1.64,2-4.06,3.38-6.16,5-.3.23-.66.39-1.34.8,1.57.79,2.84,1.45,4.14,2.07a3.82,3.82,0,0,1,1.3,5.54c-1.19,1.65-1.87,3.9-4.22,4.51a30,30,0,0,1-3.06.81c-2.11.33-4.34.24-6.32.91-1.33.45-2.43,1.82-3.43,3-1.7,1.93-3.27,4-4.82,6a25.91,25.91,0,0,0-1.73,2.93c-1.08,1.88-2.16,3.76-3.2,5.67a9.69,9.69,0,0,0-.46,1.47,20.17,20.17,0,0,1-.92,2.38c-.74,1.45-1.63,2.82-2.33,4.29-.58,1.2-.45,2.79-2,3.48-.16.07-.25.38-.3.59-.72,2.85-1.43,5.7-2.15,8.54-.09.34-.13.84-.35.95-2.67,1.37-1.58,3.86-1.9,6a19,19,0,0,1-1.32,3.67c-.57,1.54-1.05,3.13-1.76,4.61-.44.92-1.78,1.7-1.75,2.52.09,2.63-.94,4.79-2,7-1.6,3.28-3,6.64-4.52,10-.25.55-.73,1.21-.61,1.69.56,2.3-.9,3.63-2.16,5.09-.18.2-.44.44-.45.66-.12,2.38-1.39,4.23-2.5,6.22-.63,1.13-1.43,2.36-1,4,.22.75-.36,1.8-.74,2.64-1.09,2.39-2.33,4.72-3.39,7.12-.79,1.78-1,4-2.2,5.35a15.6,15.6,0,0,0-3,4.82,6.68,6.68,0,0,0-.3,1.41c-.23,1.27-.07,2.7-1.72,3.29-.28.1-.35.83-.48,1.28-.25.86-.19,2.13-.75,2.51-1.46,1-1.43,2.48-1.91,3.85-.55,1.55-1.07,3.21-3.13,3.38.64,3-.06,4.7-3.15,7.6l1,1.1c-.59,1.11-1.26,2.2-1.76,3.35a42.77,42.77,0,0,0-1.77,4.73c-.25.83,0,1.83-.26,2.63-.85,2.37-1.88,4.67-2.8,7-.09.23.11.55.07.82a25.3,25.3,0,0,1-.6,3.48c-.52,1.79-1.16,3.54-1.84,5.28-.21.53-.94.9-1,1.42-.31,1.62-.42,3.28-.61,4.92,0,.28,0,.75-.11.82-2.42,1.19-.31,3.78-1.67,5.33-.36.42-.29,1.21-.52,2.31.62.82.38,1.87-1.09,2.54,1.19,2.11,1,3-.52,3.9,0,2.71,0,5.34,0,8,0,1,.15,2,.11,3-.08,1.79-.25,3.57-.39,5.35a3,3,0,0,0,0,1c.36,1.3.32,2.44-1.43,3.17,1.69,1.22,1.92,2.55,1.12,4.19-.18.38.38,1.12.6,1.7.13.34.47.81.35,1-.55.9.12,1.24.52,1.89.63,1,1.58,2.3,0,2.93,1.68,2.5,3.43,4.91,5,7.45a13.6,13.6,0,0,0,3.58,4.32c.39.28.89.84.85,1.21-.27,2.28,1.57,2.76,3,3.23,2.56.88,4.11,2.74,5.6,4.77a2.15,2.15,0,0,0,.82.82c3.55,1.32,6.62,3.62,10.14,5,1.87.73,3.75,1.43,5.63,2.13a7.51,7.51,0,0,1,1.31.47c4,2.52,8.78,2.47,13.14,3.78a21.56,21.56,0,0,0,8,.92c3-.25,6.25.61,9.1-1.17.66-.42,1.38-.76,2-1.2a22.28,22.28,0,0,0,2.89-2.11,6.85,6.85,0,0,0,2-5.6,9.72,9.72,0,0,0-.19-2.71,11.44,11.44,0,0,0-1.63-3.21c-1.87-2.52-4.14-4.79-5.69-7.48-.91-1.57-3.09-2.58-2.63-4.94,0-.23-.44-.61-.73-.86-.57-.49-1.54-.82-1.71-1.4-.85-2.92-3.83-4.63-4.1-8-.15-1.86-1.58-3.6-2.35-5.43a5.55,5.55,0,0,1-.3-2c0-2.13-.07-4.28,0-6.41.06-1.54.27-3.07.47-4.59.28-2.16.63-4.31.93-6.46.05-.34-.05-.76.11-1,1.7-2.93,1.85-6.73,5.06-8.85a5.42,5.42,0,0,0,1.37-2.14c1.19-2.3,3.76-2.49,5.62-3.74a14.46,14.46,0,0,1,1.91-1.09,5.61,5.61,0,0,1,2.06-.81c2.39-.08,4.79,0,7.19,0,2.18,0,4.53-.45,6.51.2,3.13,1,6.6.72,9.47,2.81,2.53,1.84,5.35,3.32,7.31,5.81a46.61,46.61,0,0,1,3,5c.06.1.11.27.18.28,2.52.36,2.63,2.77,3.61,4.38a23.52,23.52,0,0,1,1.89,4.53,48.8,48.8,0,0,1,2.45,7.88c.31,1.87,1.74,4-.4,5.86,1.08.71,1.74,1.38.71,2.43a1,1,0,0,0,0,.92c.94,1.35.5,2.6-.07,3.92a20.1,20.1,0,0,0-.71,2.44,6.51,6.51,0,0,1-.46,1.26c-.54.95-1.44,1.81-1.63,2.81-.53,2.79-2.76,4.45-4.06,6.71-1.68,2.93-4.5,4.78-6.79,7.13a64.07,64.07,0,0,1-8.45,6.95,1.43,1.43,0,0,0-.54,1,7.85,7.85,0,0,0,.16,2.05c1.29,5.87,2.72,5.38,6.56,3.32,1.16-.62,2.78-.33,4.17-.58a29.18,29.18,0,0,0,3.45-.91,50.74,50.74,0,0,0,7.59-2.51,14.37,14.37,0,0,1,5.5-1.69c.6,0,1.19-.66,1.73-1.09,3-2.37,6.51-3.57,10.11-4.65a38.05,38.05,0,0,0,4.36-2.12c1.12-.52,2.32-.87,3.46-1.35a8.3,8.3,0,0,0,1.63-.94,100.83,100.83,0,0,0,8.24-6c2.58-2.29,5.23-4.71,5.81-8.44.73-4.74,1.49-9.49,2.12-14.25.26-2-.12-4.22.42-6.16.76-2.67.27-5.32.56-7.95.06-.48.52-.92.87-1.49-2.55-1-.93-3-.92-4.6a51.07,51.07,0,0,1,.86-7.86c.37-2.37,1-4.69,1.41-7.05.31-1.83.36-3.7.61-5.54.22-1.58.6-3.14.83-4.72a7.54,7.54,0,0,0-.11-1.76c0-.39-.25-.88-.09-1.16.93-1.68.6-3.4.48-5.19-.1-1.52.45-3.07.5-4.61,0-1.06-.42-2.14-.4-3.2,0-1.61.25-3.22.4-4.83a15.2,15.2,0,0,0-.57-6.09c-.35-1.12.13-2.49,0-3.71-.56-4.7-1.26-9.38-1.83-14.08a14.8,14.8,0,0,1,.2-2.88c0-.23.16-.48.11-.68-.61-2.4-1.37-4.77-1.84-7.2-.56-2.87-1-5.78-1.25-8.7-.13-1.3.3-2.68-1.06-3.6a.51.51,0,0,1-.2-.28c-.28-2.15-.54-4.3-.85-6.44a22.69,22.69,0,0,1-.62-4.19c.24-3.86-2.94-6.3-3.76-9.71a29.44,29.44,0,0,0-2.34-6.62c-1.14-2.19-1.07-4.7-2.34-6.87-.88-1.49-1.05-3.39-1.53-5.12a4.77,4.77,0,0,0-.1-.66c-1.12-2.55-2.2-5.13-3.41-7.64-1.29-2.68-2.58-5.38-4.13-7.92a55.41,55.41,0,0,0-3.72-4.57c-1.11-1.44-2-3-3.12-4.46s-2.52-2.71-3.65-4.17c-1-1.3-2.3-2.66-2.6-4.16-.35-1.83-1.89-2.44-2.57-3.68-1.06-1.93-2.89-3.31-3.49-5.62-.33-1.26-1.95-2.13-2.75-3.34-1.26-1.89-2.94-3.52-3.08-6.11-.09-1.72-1.09-3.37-1.46-5.11a11.92,11.92,0,0,1,.94-7.17c.85-2,4.73-1.43,6.11.53,1.18,1.66,2.71,3.07,4,4.66,1,1.21,1.73.61,2-.37a17.92,17.92,0,0,0,.65-4.72c0-2.12-.5-4.25-.45-6.36a18.29,18.29,0,0,1,1-4.68c.56-1.85,1.38-3.63,1.91-5.49a1.65,1.65,0,0,1,2.11-1.27,2.69,2.69,0,0,1,1.48,1.53c.46,1.2.44,2.61,1,3.72,1.09,2.06.39,3.9-.55,5.57-.76,1.34.48,2.21.27,3.23s-1.09,1.76-1.28,2.72c-.28,1.37.48,1.91,1.86,1.46a4.31,4.31,0,0,0,2.9-2.45,49.06,49.06,0,0,1,3.23-5.1c.37-.58.55-1.27.9-1.86a44.43,44.43,0,0,1,2.66-4.33c.4-.55,1.28-.76,2.2-1.27l-1.37-.42-.13-.51a6.26,6.26,0,0,1,2.34-.63,1.88,1.88,0,0,1,1.78,2.16c-.06.66.33,1.36.34,2a4.89,4.89,0,0,1-.34,2.48,13.35,13.35,0,0,0-1.84,5.8c-.07.63-.7,1.18-1.34,2.18a4.9,4.9,0,0,0,1.53-.4c1.62-1.23,3.51-2.08,4.71-3.9.51-.79,1.69-1.15,2.57-1.68,1.14-.68,2.28-1.34,3.43-2a3.44,3.44,0,0,1,1.27-.57c1-.09,2.59-.46,3,0a5,5,0,0,1,.76,5.06c-.91,2.45-2.82,3.9-4.87,5.26-.82.55-1.6,1.17-2.75,2,.69.2,1.39.64,1.93.5a22.89,22.89,0,0,0,3.39-1.45,4.16,4.16,0,0,1,4.78,1.27,3.53,3.53,0,0,1,.77,4.48c-.55,1.07-1.19,2.1-1.67,3.21-1,2.16-3.38,2.31-4.87,3.71a8.76,8.76,0,0,1-3.57,1.64c-2.64.87-5.15,2.13-7.72,3.2a20.94,20.94,0,0,0-2.42.85,14.59,14.59,0,0,0-2.62,2c-.11.1.31.81.53,1.22.89,1.61,3.29,2.47,2.24,5.08,2.11,0,3,.87,2.48,2.9-.1.41.53,1.09,1,1.51a12.93,12.93,0,0,1,2.84,4c.68,1.56,2.3,2.68,3.3,4.14a67,67,0,0,1,3.78,6.31c.62,1.15.6,2.75,1.42,3.65,1.79,2,2.14,4.38,2.89,6.73.6,1.85,1.59,3.57,2.22,5.41.57,1.66.87,3.42,1.34,5.12A35.86,35.86,0,0,0,471,235c1.28,3.35,2.7,6.66,3.91,10,.62,1.74.8,3.65,1.41,5.41.8,2.31,1.87,4.53,2.75,6.82a5.45,5.45,0,0,1,.64,2.88c-.39,1.52.77,2.26,1.15,3.36.05.14.34.22.36.35.36,2.81.71,5.62,1,8.44,0,.26-.31.63-.22.8,1,1.86.25,3.84.44,5.75.06.63-.54,1.34-.45,2,.27,1.75,1.14,3.5,1,5.19-.15,2.07,1.27,3.59.81,5.47a10.79,10.79,0,0,0-.22,3.32c.35,1.43,1,2.51.55,4.31-.48,2.08.6,4.52,1,6.81a11.08,11.08,0,0,1,.26,1.51c0,1,0,2,0,3.29.07.66.17,1.55.26,2.45s.15,1.66.21,2.49c.17,2.52.38,5,.46,7.55.06,1.8.8,3.61-.05,5.43a1.7,1.7,0,0,0,.19,1.43c1.37,1.9.78,4,.66,6-.09,1.55.09,3.11.14,4.67,0,.64,0,1.28,0,2.24,1.09,1.44.8,3.58.93,5.62,0,.64-.1,1.29-.09,1.93,0,1.88,0,3.76.17,5.64.13,1.6-.56,3.22.19,4.85.23.49-.13,1.26-.26,1.9a8.09,8.09,0,0,0-.34,1.13c-.17,3.8-.29,7.61-.46,11.42a18.91,18.91,0,0,1-.37,3.62,3.74,3.74,0,0,1-.95,1.36c-.62,2.57-1.19,4.8-1.7,7-.26,1.16-.38,2.36-.64,3.52-.37,1.68-1.13,3.33-1.15,5a12.16,12.16,0,0,1-1.12,4.1c-.86,2.45-1.48,5-2.28,7.46a3.7,3.7,0,0,1-1.08,1.52,7.84,7.84,0,0,0-2.38,3.47,12.44,12.44,0,0,1-2.91,3.94,29.08,29.08,0,0,1-3.86,3.4,38.93,38.93,0,0,1-3.51,2c-1.13.68-2.17,1.51-3.33,2.14-1.71.91-3.48,1.7-5.21,2.56-.36.18-.7.41-1.05.62-1.7,1-3.35,2.16-5.11,3.07-3.51,1.82-7.11,3.47-10.61,5.29-3,1.58-6,3.3-8.95,5a12.18,12.18,0,0,0-1.42,1.05c.85,1.74,2.33,3,1.15,4.76-.25.37-.73,1-.9.95-1.77-.65-3.14.58-4.7.83-2.57.42-3.38,1.54-2.6,3.92a12.62,12.62,0,0,1,.52,4.06c0,1.6-2.26,3.61-3.87,3.85a4.29,4.29,0,0,0-1.49.65c-.66.39-1.27.87-1.54,1.06-.42,2.69-.91,5.15-1.13,7.64a23.1,23.1,0,0,0,.36,4.12c0,.38,0,.76,0,1.14,0,1,.08,2,0,3a18.63,18.63,0,0,1-.31,1.94c-.1.67-.21,1.35-.25,2-.16,2.79-.24,5.58-.47,8.35a38,38,0,0,1-.84,5.74c-.92,3.72-.58,7.48-.77,11.23-.08,1.55-.76,3.07-.85,4.62a41.07,41.07,0,0,0,.17,6,8.44,8.44,0,0,1-1,5.45c-.62,1.06-.15,2.77-.12,4.18,0,.89.16,1.77.18,2.66a13.36,13.36,0,0,0,0,3.1c.47,1.76-.09,3.28-.57,4.88a14.68,14.68,0,0,0-.32,8.87c.09.27.26.6.18.82-1.22,3.48.39,6.79.73,10.15.18,1.74,1.56,3.35,2.37,5,1,2.13,3.17,3.6,3.55,6.16.11.75.94,1.38,1.44,2.06l.37-.34V572l.38-.32c.81.82,1.64,1.63,2.44,2.46,1.42,1.48,2.84,3,4.22,4.47.67.73,1.19,1.62,1.9,2.31s1.79,1.21,2.51,2c1,1.05,1.75,2.29,2.65,3.41a14.11,14.11,0,0,0,2,2.2,2.8,2.8,0,0,1,1.16,3c1.4,1.41,2.65,2.69,3.92,4,2.89,2.89,5.77,5.8,8.71,8.64,1.81,1.74,3.74,3.35,5.59,5,.64.58,1.61,1,1,2.25-.07.15.61.91,1,.94,1.79.14,2.83,1.44,4.06,2.45s2.86,1.83,3.62,3.13c1.12,1.9,2.91,3.19,4,4.87a32.77,32.77,0,0,0,7.37,7.76c1.86,1.48,3.21,3.58,4.92,5.28,1,1,2.33,1.68,3.42,2.63a13.7,13.7,0,0,1,1.45,1.89c1.21,1.5,2.4,3,3.68,4.47s2.41,2.53,3.67,3.74c.65.64,1.43,1.14,2.09,1.77a10.5,10.5,0,0,1,1.06,1.4c.16.22.3.63.48.65,2.18.21,2.47,2.15,3.4,3.54a6.79,6.79,0,0,0,1.71,1.67,26.89,26.89,0,0,1,6.91,7.5c.67,1,2,1.64,2.9,2.57,2.35,2.44,4.62,4.94,6.91,7.43a5.77,5.77,0,0,1,.73,1.17c.2.35.27.92.55,1.05,2.45,1.13,3.23,3.72,4.9,5.52a50.55,50.55,0,0,1,3.43,4.61c.1.13.18.31.31.39,4.85,2.65,7.08,7.15,8.79,12.12a23.61,23.61,0,0,1,.82,12.17,11.52,11.52,0,0,1-2.21,4.7c-1.92,2.77-3.3,5.93-5.33,8.6a12,12,0,0,1-5.94,4.43,14.49,14.49,0,0,0-2.69,1.53,7.15,7.15,0,0,1-5.29.68,9.37,9.37,0,0,1-6.4,3.8c-.39,0-.75.44-1.14.63-1.1.55-2.22,1.08-3.34,1.6a5.17,5.17,0,0,0-1.1.45c-2.84,2.35-6.23,3.49-9.71,4.44-.56.15-1.09.39-1.64.55-1,.29-2,.56-3.21.91-.7,1.7-3,2.82-5.47,3a36.13,36.13,0,0,0-6.5,1.48,15.48,15.48,0,0,0-2.29,1l.52.39a19.62,19.62,0,0,1-2.55,1.45c-2.07.81-4.2,1.48-6.3,2.22-.75.27-1.49.56-2.23.84-.11,0-.19.15-.29.19l-3.27,1.11-1.33-1.37-1.6,1.76c-.3.33-.54.89-.88,1-1.71.37-3.48.48-5.17.93-2.09.56-4.6,0-6.15,2.23a3.91,3.91,0,0,1-1.62.9c-2.83,1.21-5.67,2.42-8.52,3.58-1.5.6-3.26.77-4.5,1.69s-3.47.29-4.09,2.32c0,.13-.42.24-.63.21-2.4-.27-3.77,1.63-5.59,2.6-.2.11-.39.46-.52.43-1.92-.51-3.07,1.35-4.75,1.52-1.49.16-3,.27-4.48.42-.28,0-.72.09-.8.27-.79,1.64-2.63,1.32-3.82,2.14a13.63,13.63,0,0,0-4.71,5.12c-.35.72.3,1.87,0,2.68-.68,2.12-1.63,4.15-2.42,6.23a3,3,0,0,0-.15,1.4c.07.66.35,1.29.4,1.94a12.6,12.6,0,0,1,0,3.07c-.12.68-.68,1.28-.83,1.94s-.33,1.46-.47,2.19a5.25,5.25,0,0,0-.13,1.11c0,.9.11,1.79.17,2.69-1.15-.09-2.66.26-3.38-.34-2.78-2.3-6.24-4.15-6.82-8.3-.12-.85-.18-1.71-.35-2.55-.08-.41-.31-1-.58-1.1a1.65,1.65,0,0,0-1.37.36c-.81.86-1.48,1.86-2.23,2.79a2.07,2.07,0,0,1-.88.75,3.55,3.55,0,0,0-2.43,1.87c-.59,1-2,1.62-3.23,2.07-1,.38-2.91-2.09-2.66-3.44.71-3.79,1.53-7.53,4-10.7,1.67-2.16,1.3-4.22-1.36-5.77-2.18-1.27-4.72-1.82-6.64-3.42a5.23,5.23,0,0,1-1.61-3.09,2.33,2.33,0,0,1,1.89-2.54c1.84-.55,3.6-1.36,5.17-2-.17-4.15-.45-8.33-.47-12.51,0-1.87,2.28-3.55,4.29-3.06.31.08.59.71.68,1.12.24,1.11,1.27,1.72,1.92.93a12.33,12.33,0,0,0,1.37-2.88c.63-1.39,1.24-2.8,1.89-4.18a9,9,0,0,1,1-1.6c.56-.72,1.06-1.68,1.82-2,2.8-1.2,5.77.52,6.49,3.65.36,1.57.61,3.17.84,4.76a3.13,3.13,0,0,0,3.19,2.77,29.89,29.89,0,0,0,3.28,0,9.29,9.29,0,0,0,2.07-.77c.46-.17.93-.34,1.4-.47a58.64,58.64,0,0,0,6.07-1.73c2.83-1.14,5.5-2.68,8.34-3.79,1.28-.51,2.48-1.1,3.7-1.65,3.38-1.53,6.66-3.4,10.54-3.87,2.25-.27,4.37-1.66,6.57-2.47,1.55-.57,3.13-1,4.7-1.53a11.57,11.57,0,0,0,1.12-.41c1.9-.85,3.79-1.73,5.71-2.55,3.89-1.64,7.78-3.28,11.7-4.86,1-.42,2.21-.52,3.25-.94,1.25-.5,2.41-1.21,3.64-1.77a50.13,50.13,0,0,0,4.67-2.07c1-.56,1.54-1.85,2.52-2.34a29.45,29.45,0,0,1,4.68-1.53c.22-.07.52,0,.67-.13,2.4-2,5.65-1.73,8.32-3.08,2.31-1.17,4.85-1.88,7.12-3.1a68.45,68.45,0,0,0,6-4.08c.14-.1.24-.28.4-.33,2.57-.86,3.59-3.24,4.93-5.23.53-.79.26-2.09.48-3.13.73-3.51-.55-6.65-1.71-9.81,0-.06,0-.15-.07-.16-2.25-.54-2.63-3-4.21-4.23-1.24-1-2-2.56-3-3.84-2.31-3-4.56-6-7-8.9-1.29-1.54-2.85-2.85-4.29-4.26a2.5,2.5,0,0,1-.35-.38c-2.21-3.61-6.36-5.52-8.22-9.53-.5-1.08-2.21-1.59-3.33-2.4-.93-.66-1.82-1.38-2.71-2.09a22.6,22.6,0,0,1-6.06-6.6c-.17-.32-.6-.48-.88-.74a23.59,23.59,0,0,1-2.47-2.31c-2-2.37-3.8-4.86-5.79-7.21-1.35-1.59-3.13-2.86-4.3-4.57-2.21-3.25-5.63-5.13-8.26-7.88-1.29-1.35-2.18-3.09-3.48-4.43-1.72-1.77-3.72-3.27-5.48-5s-3.28-3.66-5.05-5.36c-2.55-2.45-5.23-4.75-7.83-7.14a4.31,4.31,0,0,1-1.36-1.68,1.88,1.88,0,0,0-2.19-1.52,2.51,2.51,0,0,1-2.44-1.21,22.05,22.05,0,0,0-3.45-3.31c-2.62-2-5.33-4-8-5.91-2.15-1.55-4.32-3.07-6.48-4.61l-1.47-1.24-1,1.46.37.36-1.7.6c1.21.93.84,1.87-.13,2.39-2,1-3.36,3.07-6,3.13-1.82,0-2.23,3.29-.54,4.8,1.17,1,1.1,1.86.78,3.29-.26,1.16-1.23,2.65.11,4,.27.26,0,1.13-.08,1.7-.52,2.74-.23,5.83-2.69,7.8-1,.78-2.59,1.69-3.52,1.38-1.95-.67-4-1.71-4.66-4.06-.83-3-1.76-6.08-2.36-9.17a32.79,32.79,0,0,1-.16-5.44c0-.44-.06-.89-.06-1.34,0-1.44-.68-1.83-2.09-1.67-1.76.19-4.83-2.59-5.33-4.83A32,32,0,0,1,372.16,588.6Zm14.55-170.75c-1.83-.84-2-.58-2.24,1.4a13.78,13.78,0,0,1-1.35,5.39,17.61,17.61,0,0,1-4.52,4.91,23.58,23.58,0,0,1-5.65,2.78c-3.87,1.53-8,1.25-12,1-1.89-.1-4,.26-5.76-1.09-.23-.19-.76,0-1.16,0a15.1,15.1,0,0,1-3.51-.27c-1.8-.55-3.48-1.44-5.25-2.11a22.25,22.25,0,0,0-2.5-.61,14.3,14.3,0,0,1-2.07-.54c-1.49-.62-2.92-1.43-4.43-2-1.27-.45-3.11-.23-3.84-1.06-1.4-1.59-3.3-1.84-4.92-2.79-.58-.34-1.13-.75-1.69-1.14a31.42,31.42,0,0,1-2.87-2.09c-1.74-1.53-3.38-3.18-5.12-4.71a6.94,6.94,0,0,0-2.43-1.6,4.6,4.6,0,0,1-3-2.9,3.32,3.32,0,0,0-.82-1.28c-3.77-2.93-5.78-7.15-8.14-11.11a2.08,2.08,0,0,1-.35-1,13.11,13.11,0,0,0-1.24-5.61c-.85-2-.54-4.46-.6-6.72-.09-3.14-.1-6.29-.06-9.44,0-.88.59-1.79.47-2.63-.54-3.77.06-7.45.62-11.15.36-2.38.51-4.8,1.06-7.13.84-3.54,1.92-7,2.95-10.53,1.27-4.33,2.58-8.64,3.88-13,.94-3.13,1.82-6.28,2.84-9.38,1.22-3.68,2.46-7.34,3.87-10.94A42,42,0,0,1,319.5,306a7.09,7.09,0,0,0,.31-1.14,9.74,9.74,0,0,1,.76-2c.34-.57,1-.95,1.31-1.54,1.75-3.72,3.47-7.46,5.1-11.23,1.21-2.83,2.27-5.71,3.39-8.58.64-1.62,1.15-3.29,1.9-4.86,1-2,2.16-3.93,3.13-6,.65-1.34,1.1-2.78,1.62-4.18.62-1.69,1.2-3.39,1.84-5.06.57-1.5,1.24-3,1.79-4.46a75.14,75.14,0,0,0,2.56-7.49c.63-2.57,2.46-4.51,3.13-7.07.81-3,2-6,3.05-8.94a10.89,10.89,0,0,1,1.45-3.43c1.49-1.79,1.68-4,2.27-6,.78-2.76,1.47-5.56,2.45-8.25.77-2.1,2.16-3.95,2.12-6.35,0-.5.42-1,.68-1.51.91-1.72,1.9-3.4,2.74-5.14.3-.64.09-1.54.42-2.16,1.18-2.18,2.59-4.25,3.73-6.45,1-1.88,1.54-4,2.53-5.83a46.69,46.69,0,0,1,3.9-6.19c1.69-2.24,3.66-4.26,5.47-6.4a9,9,0,0,1,5.92-2.85,48,48,0,0,1,5.37-.06,1.85,1.85,0,0,0,1.95-2.08c-1.89-.33-3.76-1-5.59-.89a3.2,3.2,0,0,1-3.41-2.05,3.59,3.59,0,0,1,1-4.09,8,8,0,0,1,4.91-2.17A3.13,3.13,0,0,0,389,161a14.49,14.49,0,0,0,2-2.11c1-1.25,3-1.89,2.87-4.3a12.12,12.12,0,0,0-1.22.56c-.32.21-.56.57-.9.73-1.55.76-3.13,1.45-4.67,2.22-.27.13-.39.54-.59.81a4.31,4.31,0,0,1-4.19,1.81c-.63-.09-1.09-1.33-1.62-2l-.93-1.24c1.35-1.44,2.72-2.81,4-4.28a19.42,19.42,0,0,0,1.63-2.67l-.66-.53a22.73,22.73,0,0,0-2.79,2.36,4,4,0,0,1-6.11.24,24.55,24.55,0,0,1-2.16-3.32c-.72.36-1.29.62-1.84.91s-1.6.56-2,1.12c-1.09,1.45-1.91,1.79-3.09.48a10.38,10.38,0,0,1-1.64-3.45c-.64-1.83-.88-3.84-2.35-5.26l-1.81,1.17c.48.38,1.33.72,1.36,1.13.12,1.59,0,3.21,0,4.81,0,3.54-2.67,6.88-.79,10.56a2.66,2.66,0,0,1,.07,1c.12,2.79-.9,5.44-.77,8.32.15,3.51-.65,7.09-1.32,10.58a45.69,45.69,0,0,1-2.09,6.58c-.45,1.27-1.41,2.46-1.51,3.74-.14,1.75-.26,3.3-1.93,3.88a6.6,6.6,0,0,1,.59,2.12c-.23,1.86-.61,3.7-1,5.53a17,17,0,0,1-.76,3.13c-.94,2.35-2,4.65-3,7-.86,1.93-1.73,3.84-2.65,5.74a56.46,56.46,0,0,0-2.9,5.83c-1.55,4.39-2.61,9-5.12,13a5.5,5.5,0,0,0-.28,1.18c-.27.82-.55,1.64-.88,2.44-.17.41-.52.75-.69,1.16a59.65,59.65,0,0,1-2.67,6.61,18.16,18.16,0,0,0-2,4.26c-.92,3.48-2.7,6.74-4.14,10.09-.55,1.27-1.11,2.55-1.69,3.81-.78,1.69-1.55,3.38-2.38,5-1.24,2.48-1.54,5.39-3.44,7.58a3,3,0,0,0-.49.91c-1,2.7-1.92,5.42-3,8.1-.92,2.35-2,4.64-2.94,7a28.24,28.24,0,0,0-2.12,5.79c-.3,1.82-.32,3.59-1.75,5-.2.19-.22.6-.28.93a29.9,29.9,0,0,1-.78,4.26c-.53,1.5-1.6,2.81-2.1,4.32-.79,2.37-1.21,4.87-2,7.26-.67,2.07-2.2,4-2.29,6.07-.15,3.25-2,6-2.08,9.24,0,2.64-1.09,5.27-1.66,7.91-.51,2.39-1.85,4.58-1.71,7.15a11.09,11.09,0,0,1-.46,2.35c-.43,2.44-.9,4.88-1.23,7.34-.23,1.7.7,3.63-1,4.84a5.28,5.28,0,0,1,.54,1.54c-.08,2.27-.15,4.55-.39,6.81-.37,3.53-1,7-1.27,10.58a33.56,33.56,0,0,0,.16,6.72,63.82,63.82,0,0,0,1.4,6.47,16.86,16.86,0,0,1,.47,2.08,24.78,24.78,0,0,1,0,2.64,18.08,18.08,0,0,1,1.58,1,1.64,1.64,0,0,1,.57.86c.59,2.34.87,4.83,3.15,6.33.28.19.74.45.74.68,0,1.93,1.65,2.5,2.8,3.56a23.23,23.23,0,0,1,4.45,5,8.11,8.11,0,0,0,4.7,4.14c.15,0,.27.22.37.36,2.14,3,5.39,4.43,8.41,6.25a50.25,50.25,0,0,1,4.56,3.62,20,20,0,0,0,2,1.19c1.14.69,2.72,1.12,3.33,2.13,1.2,2,3.24,2.69,4.87,4,1,.8,2.11,1.49,3.19,2.21a8.49,8.49,0,0,0,1.59.87c1.79.68,4,.64,4.79,3,.13.38.89.64,1.41.76,2.05.48,3.28,1.73,3.16,3.86-.07,1.3.92,2.7-.23,3.94a.51.51,0,0,0,.06.48c1.56,1,1.27,2.66,1.48,4.05a44.58,44.58,0,0,1,.19,5.67,18.16,18.16,0,0,0,.07,2c.12.9,1.28,1.73.14,2.73a1.66,1.66,0,0,0,.6,1.07c1.34.53.94,1.52.79,2.47a17,17,0,0,1-.69,3.89c-.57,1.35.89,3.31-.8,3.85-.19,1-.27,1.59-.44,2.17s-.94,1.49.36,2a.85.85,0,0,1,.42.69c-.14,1.5-.37,3-.54,4.51-.11,1-.16,2-.27,3-.41,3.66.68,7.56-1.83,10.87-.14.18,0,.59.05.89.08,1.78.82,3.6-.35,5.31-.16.23,0,.66,0,1-.08,1.47-.14,2.94-.28,4.4-.06.62-.56,1.34-.37,1.82.75,1.88.13,3.32-1,4.79a2,2,0,0,0,0,1.82c.78,1.2,1,2.15-.25,3.17-.31.25-.58,1.09-.4,1.34.74,1,0,1.68-.34,2.58-.71,2.12-.63,4.4-1.28,6.61-.72,2.39-.37,5.07-.78,7.57a44.69,44.69,0,0,1-1.66,5.59c-.53,1.76-1.11,3.51-1.54,5.29-.65,2.67-2.29,5.1-2,8,0,.31-.19.65-.29,1-.37,1.18-.81,2.35-1.09,3.55-.46,2-.7,4-1.24,5.87-.33,1.17-1.15,2.19-1.56,3.35a38.31,38.31,0,0,0-.92,3.84c-.37,1.53-.85,3-1.1,4.58-.54,3.39-.92,6.81-1.45,10.2-.18,1.17-1.22,2.68-.8,3.39,1.31,2.14.33,4.07.21,6.13-.15,2.37-2,4.62-.57,7.11.07.11-.11.34-.08.5.58,3.41-1.92,6.6-.58,10.15.45,1.18-.25,2.77-.34,4.18a12.89,12.89,0,0,0,0,4c.46,1.75.46,3.26-.34,4.21a21.7,21.7,0,0,1,.63,3.52c0,1.37-.42,2.75-.38,4.12.08,2.46.49,4.91.55,7.36.05,1.76-.3,3.52-.35,5.28s.54,3.89-.07,5.5c-.68,1.78-.2,3.29-.12,4.91.14,3.13.38,6.26.62,9.39a22.16,22.16,0,0,1,.36,3.1c-.11,1.57,1.41,3.5-1.05,4.61l1.36.66c0,.87-.05,1.5,0,2.13.14,1.56.65,3.17.38,4.65a3.07,3.07,0,0,0,.44,2.79,6.73,6.73,0,0,1,.68,3.62c0,1.88-.58,3.8-.32,5.62.33,2.38.17,4.77.75,7.17.44,1.84.29,3.93.68,5.9a11.41,11.41,0,0,1-.21,2.43c-.06,1.52-.52,3.24,0,4.52A3.22,3.22,0,0,1,334,731c1.18,1.11,1.21,2.28,1.24,5.1,0,2.37-2,4.73-.09,7.1.08.1-.05.34-.05.51.05,3,.11,6,.15,9a15.39,15.39,0,0,1-.16,1.82,6.67,6.67,0,0,1,1.13,2.24,24.6,24.6,0,0,1-.15,4.45,11.79,11.79,0,0,0-.4,2.19c.21,1.66.63,3.3,1,4.94.23,1.07.87,2.26.6,3.18-.63,2.08.2,3.83.56,5.74a61.32,61.32,0,0,1,.63,6.37c.12,1.56.21,3.13.3,4.69,0,.71.09,1.41.1,2.12a6.57,6.57,0,0,0-.07,1.16c.4,1.92,1,3.81,1.25,5.75.34,3,.39,5.93.58,8.9.11,1.69.32,3.38.35,5.07.06,3.42,0,6.85,0,10.26.05,2.3.27,4.6.43,6.9.05.66.25,1.32.26,2,0,1.84-.06,3.67-.11,6.36,1.41,6.09,1.07,13.07,0,20.21a2.93,2.93,0,0,1,.82,3.95c.32,1.07.58,1.8.74,2.56.09.38-.08.8,0,1.2.37,3.14.78,6.28,1.14,9.43.15,1.35.22,2.72.31,4.09s0,2.48.23,3.69c.29,1.82.34,3.67,1.22,5.4a18.93,18.93,0,0,1,1.1,3.78,8.42,8.42,0,0,0,.37,1.77c.69,1.3,1.11,2.54,0,3.53.36.62.83,1.07.85,1.54a13.6,13.6,0,0,1-.24,3c-.2,1.16.6,2.76-1.29,3.3a2.39,2.39,0,0,0,.29,1.13,4,4,0,0,0,1.22.59,8.45,8.45,0,0,0-.13,1.77c.33,2.37.76,4.74,1.1,7.11a2.33,2.33,0,0,1-.15,1.52c-.69.95-.24,1.67.11,2.56a19.79,19.79,0,0,1,1.07,3.92c.17,1.08,0,2.21.05,3.31.12,1.59,1,3.25-.64,4.61a.87.87,0,0,0-.23.8c.58,1.25.06,2.28-.54,3.33-.13.21-.18.68,0,.81,1.3,1.28.6,3,1,4.49a8.23,8.23,0,0,1-.56,5.65c-.64,1.4-.48,3.17-2,4.22-.07.06-.08.22-.09.33a2.07,2.07,0,0,1-2.24,2.07,1.84,1.84,0,0,0-1,.32c-2.51,2-5.51,1.56-8.39,1.71-1.23.06-2.45.4-3.67.35a6.27,6.27,0,0,1-3-.74,10.34,10.34,0,0,1-2.06-2.36,18.09,18.09,0,0,1-3.69,1.74c-1.59.37-2.27,1.42-3,2.65a19.27,19.27,0,0,1-1.53,2c-.4-.29-.61-.58-.85-.6a17.45,17.45,0,0,0-1.91,0,5.51,5.51,0,0,0,.53,1.51,7.45,7.45,0,0,0,1.89,2c2.35,1.44,2.41,4.06,3.34,6.22.09.21-.51,1-.92,1.12-4,1.64-4.24,1.73-2.56,5.42a1.45,1.45,0,0,1,.1.51c.08,1.37.74,1.4,1.71.76,4.16-2.73,8.93-3.19,13.69-3.8A84.49,84.49,0,0,0,345,969.6a120.35,120.35,0,0,0,12.12-4.29,4.35,4.35,0,0,0,3.08-4c.07-1.49.19-3,.28-4.47.21-3.47.48-6.94.58-10.42,0-1.22-.49-2.45-.52-3.68-.06-2,.16-4.09.1-6.14-.05-1.88-.37-3.74-.46-5.62-.12-2.64-.12-5.29-.21-7.93-.05-1.82-.16-3.64-.25-5.47-.16-3.22-.38-6.44-.45-9.66,0-1.87.64-3.88.15-5.58-1-3.36-.29-6.66-.4-10-.09-3,.08-5.91.14-8.87s.13-6.22.21-9.34.13-6.07.27-9.1c.07-1.37.51-2.72.5-4.08,0-3.54-.32-7.09-.19-10.63a38.59,38.59,0,0,0-.5-9.67,43.4,43.4,0,0,1-.82-11.59,38.3,38.3,0,0,0-.45-5.2c-.18-2.23-.3-4.46-.49-6.69-.22-2.55-.56-5.08-.71-7.63-.17-2.88,1-5.64.85-8.53-.08-2.35-.06-4.7-.16-7-.16-4-.45-8-.56-12-.07-3,0-6,.1-8.93,0-1.37.5-2.9.06-4.1a10.82,10.82,0,0,1-.2-6.17,8.4,8.4,0,0,0-.14-2.22c-.15-1.88-.39-3.77-.44-5.65-.07-2.78,1.95-5.31.76-8.33-.5-1.26,0-2.93.1-4.41.13-2.37.29-4.74.41-7.11,0-.27-.21-.54-.21-.81a15.67,15.67,0,0,1,.09-1.81c.13-1.47.65-3,.33-4.38a14.36,14.36,0,0,1-.22-6.83,4.86,4.86,0,0,0-.07-2.21c-.6-2.45,0-5-.87-7.45a1.79,1.79,0,0,1-.08-1c.38-1.31.86-2.6,1.23-3.92a3.69,3.69,0,0,0-.05-1.36,10.14,10.14,0,0,1-.3-1.94c.3-3.7.76-7.4,1-11.1.16-2.42-.11-4.88.1-7.29a43.65,43.65,0,0,1,1.22-7.36c1-3.75,2-7.47,2-11.38,0-1.2.06-2.41.17-3.61.29-3.28.44-6.6,1-9.84.48-2.76-.78-5.38,0-8.28.76-2.64.23-5.66.23-8.51,0-3,0-6.07-.08-9.1,0-1.53,0-3.06-.11-4.58-.25-2.81-1.44-5.62.09-8.42.11-.2-.08-.56-.1-.84-.26-4.25-.55-8.51-.78-12.77a27.54,27.54,0,0,1,1.6-10.37,12.61,12.61,0,0,1,4.61-5.71c1.91-1.49,4.23-1.89,6.6-2.18.84-.1,2.67-.15,2.08-1.57a10,10,0,0,1-.77-5.28.46.46,0,0,0-.12-.32c-1.11-1.41-.51-2.49.55-3.61a7.82,7.82,0,0,0,1-1.9l-.09-.66a27.12,27.12,0,0,1,3.75,1.72,3,3,0,0,0,3.81-.25c1.18-.92,4.15-.42,5,.84a5.55,5.55,0,0,0,5.55,2c1.64-.47,2.85.52,3,2.25.12,1.58-.7,2.71-1.52,3.86-1.22,1.71-1,2.75,1,3.56,2.82,1.14,5.76,2,8,4.22a.54.54,0,0,0,.46.14c1.58-.6,2,.68,2.3,1.63s1,1.3,1.86,1.72a10.36,10.36,0,0,1,2.39,2.17c.24.23.35.61.61.78,1.16.78,2.36,1.49,3.53,2.26,2.62,1.74,5.18,3.59,7.87,5.22,1.14.69,1.74,1.36,1.34,2.26,1.64,1.49,3.1,2.83,4.74,4.31l1-.08c.39.6.65,1.1,1,1.53,1,1.24,2.07,2.46,3.1,3.69a12.2,12.2,0,0,0,1.53,1.81c2.15,1.74,4.5,3.25,6.52,5.12,2.45,2.28,4.6,4.88,6.94,7.27,2.17,2.22,4.69,4,6.2,7,.88,1.77,3.15,2.79,4.58,4.54s4.16,2.75,4.41,5.65c0,.32.26.85.46.88,1.76.31,2,2,3,3,.43.43,1.08.63,1.55,1a23.35,23.35,0,0,1,2.13,2.09c1.93,2.21,3.82,4.45,5.74,6.66.14.15.43.16.63.28,1.79,1,3.78,1.8,5.29,3.13,2.33,2,3,5.63,6.19,7a.36.36,0,0,1,.16.29c-.35,1.4.67,1.51,1.59,2a7.25,7.25,0,0,1,2,1.87c.76.85,1.46,1.75,2.2,2.63a11,11,0,0,1,1.76,2.07,10.32,10.32,0,0,0,1.62,2.17c.93,1.08,2.44,1.78,2.63,3.61a4,4,0,0,0,1.9,2.68,4.45,4.45,0,0,1,2.67,3.69c.07.4.52,1,.85,1,1.37.15,1.7,1.14,2.17,2.17a7.3,7.3,0,0,0,1.81,2.84,4.87,4.87,0,0,1,2.16,5.38,7.38,7.38,0,0,0,.46,2.53c.26,1.39,1,2.95.64,4.14a74.82,74.82,0,0,1-3.69,8.61c-.15.33-.76.46-1.15.68-1.26.72-3,1.12-3.66,2.2-1.64,2.64-4.62,2.92-6.84,4.46-1.44,1-3.44,1.17-5.17,1.78a15.64,15.64,0,0,0-4.3,1.77c-2.41,1.85-5.29,2.4-8,3.4-.69.25-1.55.06-2.2.36-2.43,1.13-4.86,2.3-7.21,3.62a80.05,80.05,0,0,1-14,6,21.93,21.93,0,0,0-2.5,1c-1.79.87-3.54,1.79-5.32,2.68a1.76,1.76,0,0,1-.33.07c-1.25.36-2.51.65-3.72,1.1-1.46.53-2.89,1.17-4.31,1.79-1.94.84-3.82,1.85-5.82,2.51a7,7,0,0,1-3.75.21c-.65-.17-1.19-1.17-2-.43-.18.17.34,1.08.53,1.63-1.21.58-2.52,1.25-3.87,1.84a5.77,5.77,0,0,1-2,.53,6,6,0,0,0-3.37.89,20.73,20.73,0,0,1-3.94,1.81c-.5.21-1.07.23-1.58.41a9.21,9.21,0,0,1-2,.8c-1.9.15-2.46.65-2.16,2.34-1,.22-1.78,1.39-2.93.28-.09-.08-.63.28-.94.47s-.61.64-.93.66c-4,.28-7.78,2.45-12.1,1.14-3.5-1.06-5.34-2.5-5.55-6.08-.07-1.22-.28-2.57-1.58-2.64-.52,0-1.35,1.48-1.63,2.41-.82,2.66.5,5.74-1.49,8.18a5,5,0,0,1-1.8,1.48,1.27,1.27,0,0,1-1.86-.92,2.25,2.25,0,0,0-1-1.34,3.26,3.26,0,0,0-2.19-.14c-.48.19-.7,1-1,1.53.48.43,1.24.8,1.45,1.37a20.15,20.15,0,0,1,1.13,10.12,5.49,5.49,0,0,0,.15,2.94,23.78,23.78,0,0,0,2.34,3.32c.15.2.24.67.12.79-1.3,1.35,0,3.1-.71,4.54a1.28,1.28,0,0,0,.41,1.17c.38.1.87-.28,1.32-.34a7.32,7.32,0,0,1,2.37-.12,11.93,11.93,0,0,1,2,1,3.21,3.21,0,0,1,1.83,4.42c-.49,1.2,1.14,3.83,2.44,3.84a1.28,1.28,0,0,0,1-.68,30.59,30.59,0,0,0,.56-4.36c.19-4.36,1.61-8.4,3.12-12.41a10.29,10.29,0,0,1,4.95-5.49,67.75,67.75,0,0,1,8.49-3.78c3.43-1.23,7-2,10.46-3.24,2.3-.83,4.86-1.69,6.53-3.32,2.05-2,4.53-2.73,6.94-3.67,4.08-1.59,8.3-2.83,12.47-4.22,2.52-.85,4.66-3.11,7.7-2.11.13,0,.33-.07.49-.14,2.12-1,4.22-2,6.37-2.83a36,36,0,0,1,4.41-1.42c1.71-.44,3.52-.6,5.16-1.2,1.09-.4,1.87-1.56,2.94-2,2.54-1.08,5.18-1.94,7.77-2.89,1.07-.39,2.17-.73,3.2-1.2,1.67-.77,3.27-1.68,4.95-2.42s3.37-1.29,5-2,3.37-1.48,5-2.28,3.17-1.65,4.76-2.44c2.65-1.32,5.3-2.6,8-3.89a2.62,2.62,0,0,1,.5-.13c1.75-.53,3.54-1,5.25-1.64a17.88,17.88,0,0,0,3.25-1.87,24,24,0,0,0,2.3-1.86,13.61,13.61,0,0,0,1.45-1.39,16.3,16.3,0,0,0,1.35-1.75c1.71-2.5,3.85-4.83,4.94-7.58.85-2.11.21-4.77.53-7.14.54-3.94-1.91-6.7-3.52-9.81a1.64,1.64,0,0,0-.71-.74c-2.79-1.14-2.86-5.09-6-5.83,0,0-.07-.09-.09-.14a11.55,11.55,0,0,0-2.72-3.78c-2.85-2.81-5.15-6.19-7.8-9.23-1.66-1.9-3.6-3.55-5.34-5.39-1.45-1.53-2.8-3.16-4.16-4.77-.81-1-1.4-2.2-2.39-2.9a21.38,21.38,0,0,1-5.28-5.37,3.63,3.63,0,0,0-.76-.92,32.55,32.55,0,0,1-7.9-7.18c-.73-.92-1.92-1.45-2.71-2.33-1-1.18-1.84-2.58-2.86-3.8-1.18-1.41-2.73-2.56-3.66-4.11-1.25-2.09-3.3-3.13-4.95-4.69-3.45-3.24-6.69-6.74-9.82-10.3a20,20,0,0,1-2.47-3.49c-.94-1.73-3.66-2.22-4.41-4.5,0-.09-.18-.14-.27-.2-1.44-1-2.94-2-4.3-3.11-1-.87-1.89-2-2.89-2.92a53.85,53.85,0,0,1-4.18-3.77c-1.61-1.9-3.94-3.25-4.66-5.86a.66.66,0,0,0-.38-.33c-2.83-1.13-4.27-3.69-6.06-5.88s-3.31-4.41-5.22-6.36a22.93,22.93,0,0,1-4.51-5.87,2.55,2.55,0,0,0-.69-.7,30,30,0,0,1-2.52-2.09c-.82-.86-1-2.39-2.72-2.22-.11,0-.27-.19-.36-.33-.76-1.15-1.55-2.29-2.24-3.48s-1.08-2.25-1.71-3.32c-1-1.69-2.07-3.31-3.07-5s-1.55-3.55-2.84-4.78c-2.06-2-2.19-4.28-2.15-6.76,0-2.2.1-4.4.24-6.6.07-1.24.38-2.46.47-3.7.11-1.64.06-3.29.17-4.93.18-2.6.46-5.2.66-7.8.07-.91,0-1.82.05-2.74.06-1.52.06-3.06.24-4.58.26-2.13,1.42-4.5.8-6.28a12.19,12.19,0,0,1-.44-5.32c.15-1.94.29-3.87.53-5.8a30.93,30.93,0,0,1,.67-3.29c.17-.78.4-1.55.61-2.33a2.21,2.21,0,0,0-.17-1.85c-1.06-1.35-.52-2.54.07-3.82a9,9,0,0,0,.9-2.76c.24-2.38-.5-4.84.66-7.14.07-.12,0-.32,0-.49a69,69,0,0,1-.55-7.42c.15-4.8.57-9.59.89-14.37a5,5,0,0,1,.2-.66c.42-1.94.92-3.87,1.21-5.82a17.31,17.31,0,0,0,.17-4.25,6.1,6.1,0,0,1,2.43-5.29c1.46-1,2.68-2.37,4.05-3.53a23.3,23.3,0,0,1,2.95-2.23c1.08-.65,2.35-1,3.4-1.67,1.47-1,2.75-2.24,4.22-3.23a61.92,61.92,0,0,1,6-3.69c2.71-1.42,5.52-2.63,8.3-3.92,1.84-.86,3.6-2,5.54-2.48,2.63-.61,4.17-2.7,6.33-3.9,1.13-.62,2.17-1.41,3.29-2s2.47-1.16,3.6-1.9a40.79,40.79,0,0,0,4.87-3.56,25.84,25.84,0,0,0,4.41-4.77c1.86-2.83,3.35-5.89,5-8.87a3.41,3.41,0,0,0,.33-1.27,25.92,25.92,0,0,1,.26-3.65c.4-1.78,1-3.51,1.59-5.27a23.28,23.28,0,0,0,.88-2.8c.51-2.7,1-5.4,1.35-8.12.44-3.2.64-6.43,1.2-9.6.31-1.78,1.07-3.47.25-5.28-.06-.14,0-.34.06-.51.31-1.63,1.35-3.26,0-4.9-.08-.1,0-.35,0-.5a9.69,9.69,0,0,0,.21-4.67c-.39-2.64,1-5.42-.6-8,0,0,0-.11,0-.17-.14-4.15,0-8.35-.54-12.44-.34-2.39,1.58-5.06-.82-7.18-.05,0,0-.22,0-.33-.12-3.78-.17-7.56-.37-11.34s-.5-7.72-.87-11.57c-.32-3.4-1.22-6.75-.55-10.2,0-.24-.18-.52-.28-.78a6.33,6.33,0,0,1-.57-1.55c-.25-2.57-.38-5.15-.66-7.71-.12-1.06-.68-2.08-.72-3.13-.1-2.52.28-5.09-.11-7.55a16,16,0,0,1,.16-4,10.09,10.09,0,0,0-.74-3.94c-.64-1.84-1.8-3.54-2.19-5.41a20.43,20.43,0,0,0-1.92-5.45,26,26,0,0,1-1.52-4.06c-.4-1.31-.61-2.67-1-4-1.33-4.21-2.64-8.45-4.13-12.61-1-2.71-1.62-5.52-3.06-8.11-1.23-2.23-1.12-5.12-3.16-7a.93.93,0,0,1-.13-.32c-.86-2.48-1.71-5-2.61-7.41-.1-.28-.49-.44-.71-.69a26.21,26.21,0,0,1-2.68-3.21c-1.25-2-1.92-4.58-3.52-6.25a42.26,42.26,0,0,1-5.69-8.25c-.65-1.11-1-2.63-1.9-3.3a6.25,6.25,0,0,1-2.11-3.37A1.86,1.86,0,0,1,441,183a56.34,56.34,0,0,1,4.36-3.81,7.31,7.31,0,0,1,2.42-1.2c2-.54,4-.72,5.88-1.44,2.35-.89,4.46-2.45,6.84-3.19a3.49,3.49,0,0,0,2.88-3.17,8.67,8.67,0,0,0-1.68.1c-1.92.52-3.82,1.18-5.76,1.64-.92.22-1.94,0-2.88.2s-1.33.19-1.84-.69a29.63,29.63,0,0,0-2.5-3.25c-1.53,1.52-2.49.64-3.65-.73-1.31-1.54-4-1.67-5.18-.23-1.36,1.73-3.1,2-5,2.21-.89.08-1.48.24-1.75,1.43-.5,2.23-4.39,3.93-5.8,2.54-1.66-1.64-4.28-2.15-5.28-4.59-.15-.35-1.19-.43-1.82-.42-.17,0-.36.77-.5,1.2-.65,2,0,4,.71,5.84.5,1.26.81,3,1.78,3.58,1.93,1.17,2.41,3.25,3.73,4.77,1.59,1.83,3.43,3.65,4,6.21a1.09,1.09,0,0,0,.6.59c1.64.6,2.32,2,2.81,3.47.88,2.69,2.72,4.71,4.59,6.73,1.16,1.24,2.18,2.6,3.34,3.83,2.53,2.66,3.05,6.55,5.66,9.15a.75.75,0,0,1,.15.31c.84,2,.82,4.53,3.07,5.85.2.12.1.67.23,1,.27.68.6,1.34.9,2a31.13,31.13,0,0,1,1.36,2.94c.95,2.78,1.86,5.58,2.7,8.39.49,1.65,1.91,3.07,1.27,5-.07.2.23.5.32.76.62,1.81,1.18,3.63,1.86,5.42.51,1.37.08,3,1.56,4.17a6.29,6.29,0,0,1,1.72,2.94c.4,1.18,0,2.61,1.33,3.52.34.23.16,1.26.19,1.92s0,1.55,0,2.31.29,1.76.41,2.64-.06,2.2.41,3c1.37,2.38,2.06,4.76,1.15,7.45-.11.31,0,.69-.09,1-.57,2,1.31,3.24,1.55,5.06a21.4,21.4,0,0,0,1.66,4.63l-1.86.94,1.83.27c.12,1.89.16,3.66.34,5.41.23,2.29.69,4.57.8,6.87.15,2.91-.05,5.83.64,8.73a56.33,56.33,0,0,1,.9,6.62,10.14,10.14,0,0,1-.22,1.71c-.13,1.75-.28,3.5-.32,5.26,0,.61.41,1.23.37,1.84-.25,5-.5,9.93-.87,14.89-.19,2.46-.61,4.9-1,7.35-.14.94-.55,1.85-.65,2.79-.18,1.7-.11,3.43-.35,5.12s-.88,3.39-1.09,5.12c-.3,2.42-.39,4.88-.5,7.32,0,.73.18,1.47.21,2.2.07,2.2.23,4.41.13,6.6-.07,1.59-.63,3.15-.74,4.73-.14,1.95,0,3.92-.05,5.87a15.77,15.77,0,0,1-.58,3.94,13.84,13.84,0,0,0-.54,4.44,17.27,17.27,0,0,1-3.35,9.53,9.34,9.34,0,0,1-1.77,1.59c-.21.18-.62.3-.65.49-.33,2.2-2.27,2.48-3.76,3.38-1.16.7-2.63,1.71-2.9,2.84a3.17,3.17,0,0,1-1.67,2.11,31.67,31.67,0,0,1-5,2.88c-2.45,1-5,1.7-7.8,2.6a2.66,2.66,0,0,1-2.49,1.75,11,11,0,0,0-2.79.91c-2.87,1.25-5.71,2.62-8.6,3.82-1.7.71-3.48,1.19-5.22,1.79-.28.09-.53.24-.81.33-3.4,1.14-6.79,2.29-10.21,3.38-.68.21-1.52,0-2.15.26-1.44.64-2.76,1.53-4.36.39-.23-.16-.76,0-1.12.16-2.75,1-3.49.62-5.15-1.78a5.38,5.38,0,0,1-.91-2.4c-.27-1.63-1.21-3.13-1.74-4.74a6.86,6.86,0,0,1,2.89-7.87c2.38-1.63,5.77-1.79,7.15-4.91.1-.24.62-.27.89-.47a24.61,24.61,0,0,0,3.42-2.72c1.13-1.26,1.78-3,3-4.13,3-2.88,3.76-6.94,5.75-10.35.74-1.27.54-3.26.83-4.91.6-3.45-.62-6.93-1-10.41a.82.82,0,0,0-.18-.47c-1.82-1.56-1.48-4-2.49-5.91a21,21,0,0,0-1.85-3.36c-1.58-2-3.9-3.61-4.9-5.83-1.28-2.85-3.65-3.95-6-5.27-1.88-1.07-4-1.65-5.93-2.71a11.56,11.56,0,0,0-7.37-1.32c-2,.25-3.93,1.08-6,.25a1.27,1.27,0,0,0-1,.28c-2,1.49-4.55,1.78-6.67,3.42a17.44,17.44,0,0,0-5.59,7.54c-1,2.65-2.63,5.24-2.41,8.44.16,2.25-1,4.58-.93,6.85.13,2.62-2.22,5.69,1.05,7.9,0,0,0,.11,0,.17.52,2,1,4.07,1.59,6.1a3.27,3.27,0,0,0,.53,1.27c1,1.24,2.05,2.44,3.1,3.65s2.28,2.6,3.4,3.92a5.16,5.16,0,0,1,.34.75,21.24,21.24,0,0,0,1.13,1.82c.18.26.73.39.75.62.24,2.19,1.78,2.73,3.59,3.22,1,.27,2.53,1,2.69,1.72.39,1.87,2.45,3.17,1.78,5.35-.05.16.39.65.65.68C387,415,386.86,416.33,386.71,417.85Zm-1,192c.52-1.09.74-2.47,1.54-3s2.26-.41,3.35-.56c-.23-1.6-.35-3-.65-4.4a6.37,6.37,0,0,0-1-2.33c-1.26-1.69-3-1.6-4,.2-.61,1.08-1,2.28-1.55,3.42H384c.2,1.06.83,2.28.5,3.14C383.85,608,384.17,609.09,385.72,609.89Zm10.7-21c-.88-1.41-2.39-1.49-3.69-.08-1,1.12-2.16,2.28-3.93,2.12-.69-.06-1.6-.6-1.61.74a1.54,1.54,0,0,0,1.86,1.74c2.17-.2,4.36-.4,5.76-2.45C395.29,590.24,395.85,589.6,396.42,588.87Zm34.89-431.21c.72.12,1.59.87,1.92-.63a10.23,10.23,0,0,1,.74-2.51c.38-.76.59-1.44-.44-1.48a2,2,0,0,0-1.5,1.11A21.21,21.21,0,0,0,431.31,157.66Zm-40.08-11.95-.89-1.17a6.65,6.65,0,0,0-1.67.73,24.53,24.53,0,0,0-2.17,2.27c-.57.6-1.13,1.21-1.71,1.84a2.66,2.66,0,0,0,3.49-1.27,4.82,4.82,0,0,1,1.34-1.74A5.51,5.51,0,0,1,391.23,145.71ZM379.85,589.82c-1.14.54-2.32,1-3.41,1.66-.25.14-.31.85-.22,1.24,0,.19.71.43,1,.33A3.61,3.61,0,0,0,379.85,589.82Z"/><path d="M400,462.32c1.24,1.44,2.9,2.33,1.71,4a4.72,4.72,0,0,1-2.51,1.71c-.52.14-1.4-.62-1.93-1.16a1.47,1.47,0,0,1-.15-1.4C398,464.41,398.94,463.44,400,462.32Z"/><path d="M386.16,535.69l-.93,3.36c-.6-.13-1.68,0-1.94-.47a7.44,7.44,0,0,1-.48-2.65Z"/><path d="M371.66,466.17a30.39,30.39,0,0,1-3.1,1.93c-.18.08-.76-.67-1.15-1l2.74-2.57Z"/></g></svg>