<svg id="Layer_1" data-name="Layer 1" xmlns="http://www.w3.org/2000/svg" viewBox="0 0 370 370"><defs><style>.cls-1{fill:#231f20;}</style></defs><g id="q5YkRj.tif"><path d="M216.73,107.52,223,109c5.39,1.28,10.75,2.7,16.18,3.79,5.28,1.06,10.68,1.56,15.93,2.72a29.92,29.92,0,0,1,9.57,3.48c4.4,2.79,7.79,6.64,8,12.4.18,4.1.92,8.19.9,12.29,0,6.7-.44,13.41-.75,20.11-.22,4.91-.34,9.83-.87,14.7a80.18,80.18,0,0,1-2.27,13c-1,3.52-6.07,5.45-10.22,4.47-6.37-1.51-12.73-3-19.07-4.63-1.22-.31-2.28-1.23-3.48-1.69-3.62-1.38-7.28-2.68-11.35-4.17.35,5.25.71,10.19,1,15.14.2,3.46,1.94,5.35,5.27,6.41,4.08,1.3,7.92,4.11,12,4.46,7.88.66,14.64,4.48,22,6.44,3.2.86,6.06,2.93,9.16,4.23s6.63,2.36,9.89,3.67a24.56,24.56,0,0,1,12.2,9.81c2.87,4.62,2.22,8.45-1.85,12.1-5.39,4.83-11.79,7.86-18.29,10.84-4.55,2.07-8.75,4.91-13.31,6.93q-12.64,5.61-25.57,10.58c-3.93,1.52-8.18,2.2-12.18,3.55-7.5,2.53-14.8,5.79-22.43,7.77s-12.84,7.13-18.89,11.29a11.27,11.27,0,0,1-4.5,2.21c-3.18.44-5.24-2.79-4.27-6.73a31.08,31.08,0,0,1-5.52-1.16c-1.11-.43-2.51-1.61-2.66-2.61s1-2.34,1.77-3.32,2.9-1.86,2.83-2.63c-.17-1.85-.64-4.06-3.08-4.69a1.34,1.34,0,0,1-.75-.49c-.71-1.12-2.17-2.71-1.84-3.33.57-1.08,2.25-1.59,4.09-2.72,0-.76.23-2.43.22-4.09,0-2.34.9-3.08,3.23-2.47a3,3,0,0,0,2.62-.85c1.22-1.93,2.69-3.14,5-2.46s4,3.67,3.62,6.08c-.67,4.87.87,6.21,5.71,4.39,5.31-2,10.44-4.42,15.65-6.65,3.61-1.54,7.2-3.13,10.85-4.57,5.48-2.16,11-4.19,16.51-6.32,9.22-3.59,18.46-7.11,27.58-10.92,1.86-.78,3.25-2.7,4.85-4.09l-.31-1.17c-2.74-.81-5.48-1.62-8.22-2.4-2.21-.64-4.44-1.19-6.64-1.87-3-.9-5.93-1.86-8.88-2.84-3.41-1.13-6.74-2.55-10.22-3.41-7-1.75-14.15-3.15-21.2-4.79-6.15-1.43-12.26-3-18.4-4.48-1.94-.45-4-.51-5.93-.9a57.13,57.13,0,0,1-7-1.66c-4.58-1.53-8.34.36-11.85,2.81a67.73,67.73,0,0,0-8.76,7.18,98.84,98.84,0,0,0-8.78,9.84c-4.35,5.6-8.4,11.43-12.65,17.12-2,2.65-4.31,5.06-6.13,7.82a89.19,89.19,0,0,0-7.08,12.26c-.66,1.49.11,4.32,1.23,5.73,1.55,2,4,3.28,6.17,4.66q5.72,3.6,11.63,6.89a43.32,43.32,0,0,0,6.07,2.7c5.83,2.18,11.63,4.46,17.55,6.35,10.36,3.3,20.78,6.37,31.2,9.48q7.77,2.32,15.63,4.4a5.23,5.23,0,0,0,2.85-.33c1.52-.54,2.95-1.33,4.44-2,3.32-1.4,5-.58,6.1,2.79A3.27,3.27,0,0,0,229,316.9c3.22,1.73,3.49,4.17,1,6.88a3.88,3.88,0,0,0-.64,3.25,4.11,4.11,0,0,1-1.79,5.23,5.36,5.36,0,0,0-2.6,5.3,3.7,3.7,0,0,1-1.31,2.78c-2.59,2-5.46,3.59-8.07,5.55-1.69,1.29-3.55,2.26-5.2.87a7.87,7.87,0,0,1-2.28-4.56c-.65-4.16-.78-8.41-1.38-12.59a3.76,3.76,0,0,0-2.13-2.41Q196,324,187.3,321.08c-9.44-3.14-18.93-6.12-28.37-9.26-7.1-2.37-14.27-4.61-21.2-7.43-4.71-1.91-9-4.86-13.56-7.12-3.76-1.87-7.74-3.28-11.51-5.13-4.42-2.16-8.92-4.31-12-8.45-2.09-2.85-1.35-10,1.26-13.83,3.22-4.75,6.53-9.46,9.5-14.37,2.34-3.86,4-8.14,6.38-12a106.51,106.51,0,0,1,7.57-10.18c4-5,8-10,12.27-14.76,4.11-4.61,8.46-9,12.82-13.38,4.06-4.06,8.47-7.78,12.3-12,1.65-1.82,2.5-4.53,3.23-7,1.35-4.52,3.09-9.12,3.32-13.76.34-7-.54-14-.78-21.07-.2-6.13-.19-12.27-.39-18.4,0-1-.56-2.75-1.1-2.85a13.93,13.93,0,0,0-4.61.32c-3.79.61-7.57,1.4-11.38,1.91-1.32.17-2.73-.35-4.1-.45-6.1-.48-12.15-1.1-18-3.08a13.8,13.8,0,0,0-4.81-.44,14.78,14.78,0,0,1-11.58-5.17,19.47,19.47,0,0,1-4.74-14c.44-10.25.75-20.52,1.65-30.73.4-4.53,2.29-8.92,3.13-13.44,1.08-5.75,1.39-11.66,2.73-17.34,1.84-7.84-.79-15.2-1.47-22.78-.18-1.92.5-3.92.79-5.89l1.2-.25c.89,1,1.72,2,2.68,2.92A13.06,13.06,0,0,0,120.7,23a12.6,12.6,0,0,0,1.2-2.26c.43-1.43.51-3,1.06-4.35a2.48,2.48,0,0,1,2-1.34c.63.12,1.34,1.1,1.59,1.85a43.75,43.75,0,0,1,1,4.85,20.21,20.21,0,0,1,2.41-1.31c1.46-.56,3-1.54,4.44-1.36,1.83.23,2.33,1.86,1.89,3.79-.1.43,1.2,1.63,1.93,1.7,5.1.51,5.68,1.42,4.13,6.32a3.39,3.39,0,0,0,.57,2.93c2.18,2,2.43,4.59,1,6.61a9.36,9.36,0,0,1-5.43,3.45c-3.4.69-5.64,2.34-6.45,5.53-1.48,5.84-2.85,11.72-3.9,17.65-.52,2.94-.12,6-.32,9-.48,6.91-1.11,13.8-1.59,20.71a39.88,39.88,0,0,0,.29,4.21c.16,4,1.57,5.44,5.55,5.68,8.74.54,17.5.92,26.21,1.71,3.35.3,6.58,1.84,9.93,2.28a65.71,65.71,0,0,0,10.87.33c2.42-.08,4.81-.82,7.22-1.16s5.13-.35,7.6-.92c6.54-1.51,8.59-3.77,8.72-10.08,0-1.42-1.64-2.83-2.41-4.31-2.57-4.93-6.57-9.33-5.35-15.64.41-2.1-.06-4.36,0-6.53.19-4,2.9-6.54,5.13-9.58,3.59-4.92,9.14-5.73,14-7.66a12.86,12.86,0,0,1,16.51,7,50,50,0,0,1,4.32,17,29.36,29.36,0,0,1-3.87,16.17,4.77,4.77,0,0,1-2.22,1.91c-3.08,1.32-5.06,4.43-8.81,4.92C218.78,102.3,218,105.2,216.73,107.52Zm-9.92-7.18a15.37,15.37,0,0,0,.11,2c.79,4-2.32,10.34-6.18,11.6-2.91,1-6.07,1.14-9.09,1.77a71.29,71.29,0,0,1-22.24.92c-8.69-.89-17.36-2-26-2.87-2.9-.3-5.82-.28-8.74-.38-8-.24-12.81-3.76-13.22-10.08a98.24,98.24,0,0,1,.08-13.4c.44-6,1.32-12,1.9-18,.39-4,.33-8,1-11.94,1.24-7.87,2.94-15.63,8.42-21.18l-2.08-5.06c-3.2-2.93-7-3.8-11.27-.79,0,.64-.05,1.62,0,2.59a48.68,48.68,0,0,1,.43,6.12c-.22,3.5-.76,7-1.2,10.47-.57,4.5-1,9-1.79,13.5-1,5.83-2.43,11.58-3.31,17.41-.5,3.3-.15,6.72-.36,10.07-.38,5.83-1.23,11.65-1.25,17.48,0,6.14,2.74,11,7.8,11.9a285.28,285.28,0,0,0,29.71,3.7c5.15.35,10.41-1,15.63-1.54,3.41-.35,7.9,2.71,7.93,5.5.05,4.2-.22,8.42-.1,12.62.11,4,.58,8,.85,12,.29,4.52.94,9.06.68,13.54A115,115,0,0,1,172.16,185c-.79,3.77-1.74,7.94-4,10.86-3.59,4.61-8.36,8.31-12.59,12.43q-7.62,7.46-15.17,15c-1.26,1.26-2.24,2.81-3.46,4.12-2.39,2.58-5.28,4.79-7.2,7.66-4.39,6.57-9.44,12.66-12.8,20-2.47,5.37-6.57,10-9.73,15a24.88,24.88,0,0,0-3.4,7.39c-.88,3.86,1.7,6.53,6.8,9,8.35,4,16.5,8.35,24.86,12.32,4.49,2.13,9.19,3.85,13.87,5.57,6.53,2.4,13.12,4.62,19.69,6.92,4.09,1.44,8.12,3,12.27,4.29,4.44,1.33,9,2.21,13.46,3.51,3.5,1,6.91,2.32,10.33,3.58,3.2,1.19,5.7,3,6,6.85.23,2.8.62,5.59,1,8.37a15.76,15.76,0,0,0,.7,2.38,7.62,7.62,0,0,0,2.42-1.4c1.59-2,1-5.43,4.36-6.26.13,0,.26-.61.17-.84-1.13-2.93.94-3.94,3-4.85-.75-1.81-1.76-3.43-2-5.16-.31-2-1.08-2-2.84-1.9a35.44,35.44,0,0,1-7.58-.75c-1.36-.23-2.63-1-4-1.29-4.95-1-10-1.56-14.86-2.86a128.88,128.88,0,0,1-14.29-5c-7.93-3.17-16.4-4.64-24.1-8.7-7.14-3.78-15.27-5.51-21.52-11.27-2.9-2.68-6.82-4.23-10.26-6.33-.58-.35-1.38-.83-1.49-1.37-.89-4.47-1.54-9,1.26-13.1s4.79-8.48,8.24-12.31c6.37-7.06,11.57-15.19,17.34-22.81,1.93-2.55,4-5,6.17-7.38,1.66-1.88,3.52-3.59,5.2-5.46a28.07,28.07,0,0,1,13.36-8.38c2.63-.75,5.76-.23,8.57.26,4.73.81,9.41,2,14.07,3.12,5.88,1.44,11.73,3,17.57,4.52,1.72.46,3.35,1.3,5.08,1.7,6,1.39,12,2.73,18,4,6.22,1.28,12.44,2.48,18,5.87a9.1,9.1,0,0,0,2.64.57c4.59,1.07,9.31,1.79,13.74,3.33,3.08,1.07,4.51,5.09,2.77,7.23a41.84,41.84,0,0,1-8.74,8.54c-2.72,1.83-6.34,2.35-9.58,3.4-2.48.81-5,1.42-7.48,2.34-4.19,1.57-8.24,3.53-12.47,4.95-9.44,3.17-18.86,6.25-27.55,11.33a60.29,60.29,0,0,1-13,5.37c-4.81,1.45-10,2.95-13.34-3-1-1.69-2.22-1.12-3,.35-2,4.07.87,7.88.78,11.87,0,.23.6.48.93.7,1.74,1.14,3.49,2.27,5.66,3.67a4.86,4.86,0,0,0,.84-.5c2.79-2,5.3-4.72,8.4-6,7.4-3.06,15.06-5.51,22.65-8.11,8.07-2.75,16.17-5.41,24.28-8,3.44-1.12,7.12-1.69,10.36-3.21,7.15-3.34,14.23-6.9,21.09-10.81S285,248,291.59,243.74c2.87-1.88,3.06-3.09,1.1-5.91a17.62,17.62,0,0,0-3.66-3.55,49.22,49.22,0,0,0-5.47-3.72,32,32,0,0,0-4.88-2.32q-9.44-3.62-18.91-7.09a92.19,92.19,0,0,0-10.53-3.51c-5.81-1.37-11.78-1.68-17.46-4.18-6.43-2.82-10.71-6.68-10.61-14,.07-4.93-.79-10.06,2.34-14.68-2.31-1.71-4.45-2.69-7.39-.88-2.72,1.68-6.86.41-8.1-1.93-1.06-2,.2-4.81,2.81-6.23a12.75,12.75,0,0,1,1.33-.56c-1.19-2.55-2.43-4.82-3.31-7.23-.66-1.84-.12-3.86,2.14-3.71,2.6.17,3.49-.86,4.4-3,.39-.92,2.28-1.28,3.56-1.68a1.32,1.32,0,0,1,1.07.17c-.33-4.13-.67-8.23-1-12.34-.39-4.91-.71-9.82-1.15-14.72-.23-2.55-1.57-5.14.73-7.47,2.14-2.17,5-2.34,7.47-1.88,8.9,1.64,17.86,3.22,26.51,5.8,2.87.86,6.41,4.35,7,7.17,1.53,7.67,1.92,15.61,2.17,23.46.16,4.89-.66,9.83-1.22,14.73-.5,4.42-2.67,5.77-7.14,5.66a93,93,0,0,1-19.43-2.26c-5.07-1.21-10.89-1.72-12-8.72l-.83-.35-3.24,4c.43,4,3.41,5.11,6.08,6.36,4.06,1.91,8.22,3.61,12.35,5.4,1.47.63,3,1.89,4.4,1.79,5.2-.36,9.74,2.08,14.63,2.88,2.88.48,6,2.29,8.67-.05s3.32-5.32,3.21-8.77c-.14-4.35,0-8.73.27-13.09.36-6.1,1.18-12.19,1.32-18.29.12-5.71-.45-11.43-.61-17.14-.08-2.72-2.09-5.9-4.61-6.85-2.27-.85-4.59-1.58-6.82-2.5-2-.83-3.84-2.25-5.91-2.69-4.44-1-9-1.41-13.47-2.1-7.16-1.09-14.34-2.07-21.44-3.44-1.31-.26-2.75-2-3.32-3.38a19.27,19.27,0,0,1-.9-5.87c-.18-2.38,3.19-8.16,5.23-8.33,3.76-.32,6.2-2.74,8.83-4.84a7.53,7.53,0,0,0,2.8-3.74c1.81-8.42,1.71-16.67-3-24.34-1.46-2.37-6.18-4.77-8.69-4A27.24,27.24,0,0,0,211.39,62c-3.29,1.88-7,3.51-9.51,6.16-2.72,2.83-4.48,6.33-3.56,11.08,1.53,8,7.6,13.15,10.84,20a11.29,11.29,0,0,1,.44,2.6Zm23.72,68.88c1.21.86,2.27,2.14,3.56,2.45a134.65,134.65,0,0,0,16.2,3.15c1.71.19,5,1.9,5.78-1.78a47.48,47.48,0,0,0,1.37-9.94c-.08-7.32-.5-14.64-1.07-21.94-.24-3-.77-6.11-4.66-6.9a31.83,31.83,0,0,1-6.05-1.86c-5.84-2.49-12.06-3.37-18.22-4.5-3.67-.66-5,.89-4.17,4.53a56.48,56.48,0,0,1,1.3,17,14.5,14.5,0,0,0,1.71,7.22c.52,1,2.64,1.38,4.09,1.87,3.49,1.2,4.87,4.22,3.06,7.21A29.25,29.25,0,0,1,230.53,169.22Z"/></g><path class="cls-1" d="M204.06,142.73l2.53,4.22a2.5,2.5,0,0,0,4.57-.6,2.63,2.63,0,0,0-.26-1.92l-2.52-4.23a2.51,2.51,0,0,0-4.57.6,2.6,2.6,0,0,0,.25,1.93Z"/><path class="cls-1" d="M211.48,146.69l3.42-3.33a2.61,2.61,0,0,0,.73-1.77,1.86,1.86,0,0,0-.22-1,1.93,1.93,0,0,0-.51-.81,2.52,2.52,0,0,0-1.77-.73,2.66,2.66,0,0,0-1.77.73L208,143.16a2.53,2.53,0,0,0-.74,1.76,1.9,1.9,0,0,0,.22,1,1.77,1.77,0,0,0,.52.8,2.48,2.48,0,0,0,1.76.73,2.61,2.61,0,0,0,1.77-.73Z"/></svg>