<svg id="Layer_1" data-name="Layer 1" xmlns="http://www.w3.org/2000/svg" viewBox="0 0 370 370"><defs><style>.cls-1{fill:#fff;}</style></defs><g id="s8Z3Nb.tif"><path d="M228.84,252.56c.8,3.25,1.57,6.51,2.42,9.75.75,2.83,1.62,5.63,2.38,8.46s1.5,5.39,2,8.13a64,64,0,0,1,1.52,10.35c.06,2.42-1,4.86-1.44,7.31-.19,1-.25,2-1.2,2.61s-1.89.72-2.62-.34c-.86-1.24-1.56-2.59-2.39-3.85a7.07,7.07,0,0,0-1.15-1.1,9.42,9.42,0,0,1-.7,1c-.77.84-1.42,2-2.38,2.4-1.65.68-2.74-.34-2.48-2.16.21-1.46.67-2.88.94-4.34a1.67,1.67,0,0,0-.17-1.29c-.23-.22-.85-.13-1.28-.05a15.29,15.29,0,0,1-3.06.59,2.27,2.27,0,0,1-1.57-1.28,6.29,6.29,0,0,1,.09-2.37,17.3,17.3,0,0,1-1.49-2.93,2.07,2.07,0,0,1,.51-1.87,16.22,16.22,0,0,1,4.13-2.42,2.69,2.69,0,0,0,1.6-4,7.22,7.22,0,0,1-.72-2.6c-.28-1.66-.37-3.36-.72-5-.22-1.07-.87-2-1.14-3.1-.38-1.55-.53-3.15-.9-4.7-.54-2.3-1.13-4.58-1.79-6.84a48.57,48.57,0,0,0-1.71-5c-.23-.57-.86-1-1.32-1.45-.08-.08-.27,0-.36-.14-2-1.8-5-2.33-6.28-5.08a6,6,0,0,0-1.6-1.73,1,1,0,0,0-.92-.2c-.21.11-.31.58-.3.89a33.77,33.77,0,0,1-1.64,11.24c-.53,1.68-.68,3.48-1.18,5.17s-1.25,3.49-1.92,5.21-1.29,3.28-1.94,4.92a1.86,1.86,0,0,1-.25.46,68.09,68.09,0,0,1-5,5.62,7.73,7.73,0,0,1-5.72,1.9,14.4,14.4,0,0,0-2,0c-2.4.25-4.48-1-6.72-1.46a12.05,12.05,0,0,1-2.77-.76c-2-1-3.92-2.18-5.93-3.16a37.63,37.63,0,0,0-4.61-1.86c-3-1-6-1.84-8.93-2.78q-3-1-6-2c-.81-.28-1.09,0-1,.79a43.08,43.08,0,0,0,.49,4.69c.09.46.84.89,1.38,1.15,1.41.67,3,1,3.87,2.53.52,1,1.16,1.91,1.72,2.88a6.79,6.79,0,0,1-.13,7c-.59,1.11-3.28,1.06-4.24-.1a5.55,5.55,0,0,0-1-.8,19.64,19.64,0,0,1-.74,3.06,1.59,1.59,0,0,1-2.74.11,5.41,5.41,0,0,0-1.57-.94c-.26.49-.5,1-.77,1.49a5.58,5.58,0,0,1-1.1,1.72c-.72.55-1.62,1-2.46,0a15.4,15.4,0,0,0-1.18-1.06c-.35.5-.62.93-.93,1.33a8,8,0,0,1-1.15,1.42c-1.41,1.16-2.11,1-3.26-.35a5,5,0,0,1-1.23-3.36c0-1-.51-1.95-.58-2.95a41.78,41.78,0,0,1,.63-12.07c.38-1.7.91-3.37,1.4-5,.09-.3.35-.56.34-.84a10,10,0,0,1,.17-1.66c.28-1.08.66-2.14,1-3.21.38-1.31-.41-2.05-1.43-2.48-1.6-.67-3.27-1.17-4.9-1.76-3-1.09-6.16-1.74-9-3.35a34.64,34.64,0,0,0-8-2.89,23.75,23.75,0,0,0-4.94-.27c-2-.08-4-.48-5.92-.17a12.89,12.89,0,0,0-4.28,2.09c-1.7,1-3.22.43-3.55-1.53-.24-1.49-.59-3-.74-4.46a2.91,2.91,0,0,1,.44-1.85,1.17,1.17,0,0,0-.07-1.62,3.48,3.48,0,0,1-.74-1.71,28.82,28.82,0,0,1,.15-4.05A4.09,4.09,0,0,1,96.14,231c1.63-.9,3.18-2,4.84-2.79a3.23,3.23,0,0,1,2.06,0c3.13.89,6.3,1.62,9.2,3.29a53.82,53.82,0,0,0,6.84,2.91,43.22,43.22,0,0,0,4,1.57c3.06.92,6.14,1.75,9.23,2.56,1.06.28,2.16.4,3.23.63a2.46,2.46,0,0,1,1.66,3.59A2.73,2.73,0,0,1,134,244.2c-2.07-.46-4.36-.42-6.2-1.32-2.31-1.14-5.13-.55-7.18-2.43-.5-.47-1.53-.3-2.24-.61-1.32-.57-2.56-1.34-3.88-1.92-2.14-.94-4.33-1.79-6.49-2.69-1-.4-1.94-.82-2.87-1.3a5.41,5.41,0,0,0-4.1-.29c-.24.07-.54,0-.76.09-.7.29-1.75.47-2,1-.29.69-.25,2.07.21,2.43,2.58,2,2,4.25.85,6.63,0,0,0,.09,0,.23a18.15,18.15,0,0,1,2.56-.83,20.92,20.92,0,0,1,2.51-.08,14.28,14.28,0,0,1,2-.25c2.73.23,5.48.87,8.19.73,4.35-.22,7.68,1.83,11.2,3.85,1.83,1.06,4,1.42,6.08,2.12,1.83.63,3.63,1.3,5.45,1.94.32.12.65.18,1,.28.09-.26.23-.45.18-.57-.9-2.33,0-4.66,0-7q-.09-5.92-.13-11.85c0-4.13,0-8.25-.07-12.37,0-1.3-.25-2.58-.33-3.88,0-.87,0-1.74,0-2.61-.06-2.66-.14-5.31-.19-8,0-2.06-.13-4.13,0-6.18.13-2.34.45-4.66.72-7a2.91,2.91,0,0,1,.39-1.24c.4-.6.26-1,0-1.65s-.58-2-.18-2.47c1-1.11.25-2.15.31-3.2,0-.3-.05-.61,0-.91.19-2.27.45-4.53.58-6.8.2-3.24.29-6.48.47-9.71a9.73,9.73,0,0,1,.42-1.33,6.85,6.85,0,0,0,.18-1.36c0-.37-.15-.79,0-1.11a25.2,25.2,0,0,0,1.11-5.85,23.83,23.83,0,0,1,1.21-4.09c0-.16.18-.41.13-.47-.71-.7-.09-1.42-.09-2.13a11.23,11.23,0,0,1,1.14-4.78,19.83,19.83,0,0,0,.95-4c.29-1.3.65-2.59.87-3.9.43-2.5,1.84-4.49,3.09-6.62s2.31-4,3.67-5.93c.3-.41.74-.72,1.06-1.12s.82-1.09,1.21-1.65c.15-.21.25-.63.4-.64,1.66-.14,2-1.77,3.12-2.59a16.19,16.19,0,0,1,1.42-.79,1.52,1.52,0,0,0,.56-.47c.49-.75.89-1.55,1.4-2.27,1.23-1.73,2.51-3.42,3.77-5.13a.24.24,0,0,0,.06-.11,64.85,64.85,0,0,0,2.13-8.13c.29-2.1-.22-4.31-.4-6.48-.27-3.38-2.08-6.08-4-8.72a10,10,0,0,0-1.34-1.26c-.26-.23-.74-.44-.76-.69-.11-1.32-1.22-1.83-1.89-2.71a24.19,24.19,0,0,1-2.23-4.29c-.48-1-.83-2-1.37-2.94a7.57,7.57,0,0,1-.89-5.76,29.2,29.2,0,0,0,.51-5.61,9.79,9.79,0,0,1,3-6.85,26.77,26.77,0,0,0,2-2.77,13.86,13.86,0,0,1,5.73-4.89s.09,0,.11-.06c.74-1.19,1.87-1.4,3.17-1.69,2.17-.49,4.24-1.38,6.52-1a12.38,12.38,0,0,1,1.6.37c1.19.37,2.39.74,3.54,1.21.46.19.77.69,1.19,1a3.52,3.52,0,0,0,1,.55c1.13.39,2.6.42,3.34,1.18,2,2,4.32,3.77,6.09,6.1,1.62,2.14,2,4.67,2.65,7a21.22,21.22,0,0,1,.05,9.74c-.34,1.57-.29,3.23-.69,4.78a24.3,24.3,0,0,1-2,5.26c-1.31,2.42-2.91,4.68-4.41,7-.75,1.15-2,2.17-2.26,3.42-.86,3.52-2,7.24.58,10.54a38.19,38.19,0,0,0,4.16,4c3.18,2.94,6.39,5.85,9.52,8.83,1.74,1.66,3.38,3.42,5,5.18a8,8,0,0,1,1.25,1.84c2.11,4.16,4.27,8.3,6.25,12.53a79.2,79.2,0,0,1,3.83,9.31c1.13,3.53,1.72,7.23,2.76,10.8.83,2.87.62,5.79.84,8.69.19,2.48.66,4.93.93,7.4.28,2.72.46,5.44.72,8.16s.61,5.2.83,7.81c.17,2.13.22,4.27.29,6.4.09,2.68.16,5.35.2,8s0,5.14.05,7.7c0,1.39.4,2.76.54,4.14q.65,6.21,1.22,12.41c.16,1.82.22,3.64.35,5.46a22.48,22.48,0,0,0,.31,2.31c.05.28.24.72.4.73a1.28,1.28,0,0,0,.9-.34c1.55-1.51,3.26-1.55,5-.19a10.85,10.85,0,0,0,6.46,2.27c2,.08,3.92.82,5.9,1.08,2.22.28,4.46.34,6.69.49.34,0,.7-.06,1,0,1.91.33,3.09-.69,3.35-2.62a28.55,28.55,0,0,1,1.12-4.69,2.09,2.09,0,0,1,2.19-1.53,5.79,5.79,0,0,0,2-.59,3.3,3.3,0,0,1,4.29,2.05c.1.32.58.76.85.73a4.53,4.53,0,0,1,4.44,2.7c1.58,2.93.58,5.57-1,7.83a43.86,43.86,0,0,1-3.5,4.91c-.94,1-1.18,2.15-1.83,3.17a14.83,14.83,0,0,1-2.6,2.78c-.87.8-1.86,1.47-2.79,2.22-.27.21-.46.61-.76.69-2.77.81-5.42,2.38-8.5,1.42a4.13,4.13,0,0,0-1.29.1c-.34,0-.78.17-1,0-2-1.51-4.67-1.11-6.73-2.2-1.73-.92-3.55-1-5.3-1.46a35.34,35.34,0,0,1-4.79-2.16l-1.1-.53ZM192,145.66l.6-.18a12.56,12.56,0,0,1,.06-2.3,10.57,10.57,0,0,1,1.08-3.72c1.16-1.79,3.21-2.64,5-3.74,1.13-.71,3.64.16,4.24,1.34.78,1.56,1.61,3.1,2.34,4.68a55.65,55.65,0,0,1,4.12,11.87c.46,2.26.72,4.55,1.07,6.83.3,1.93.67,3.86.86,5.8.41,4.42.72,8.85,1.1,13.27.19,2.19.47,4.37.65,6.57s.22,4.42.41,6.62.81,4.55.7,6.79.25,4.63.15,7c-.12,2.73.65,5.51,1,8.27.24,1.89.39,3.79.62,5.68.2,1.7.46,3.39.68,5.09s.37,3.26.65,4.87c.33,1.89.8,3.75,1.14,5.64.08.47-.31,1.13-.1,1.46,1.21,1.91.58,4.11,1.09,6.12.39,1.52.3,3.15.68,4.67.56,2.24,1.38,4.41,2,6.62.27.93.33,1.91.55,2.85.29,1.16.67,2.3,1,3.46s.44,2.13.72,3.18c.4,1.48.94,2.92,1.25,4.41.22,1,.1,2.17.23,3.25.36,2.92,1,5.82.46,8.8a14.9,14.9,0,0,0-.15,2.59c0,1.13.64,1.2,1.5.92a3.4,3.4,0,0,1,4.3,2.29c.13.4.59.69.9,1a3.45,3.45,0,0,0,.3-1.28c-.37-2-.83-3.94-1.22-5.92a9.58,9.58,0,0,1,0-1.42,3.09,3.09,0,0,0-.14-.86c-.31-.9-.71-1.78-1-2.68-.35-1.13-.58-2.29-.93-3.42-.53-1.71-1.21-3.38-1.65-5.11-.68-2.63-1-5.35-2.07-7.89a2.38,2.38,0,0,1-.11-.38c-.7-3-1.45-5.9-2.09-8.88-.47-2.24-1.07-4.47-.65-6.82.06-.38-.23-.82-.36-1.23a16.48,16.48,0,0,1-.69-2.09c-.28-1.57-.32-3.2-.72-4.73-.86-3.28.27-6.65-.8-10a10,10,0,0,1-.51-5.08,8.76,8.76,0,0,0,0-2.61c-.18-2.24-.5-4.48-.62-6.72s0-4.32-.07-6.47c-.14-3.52-.4-7-.57-10.56-.05-1,.14-2,0-3-.21-2.1-.56-4.18-.81-6.27-.2-1.58-.34-3.18-.51-4.76-.15-1.43-.34-2.85-.46-4.28-.15-1.84-.21-3.68-.37-5.51-.19-2.14-.45-4.27-.67-6.41-.18-1.76,0-3.62-.59-5.24-1-2.83-1-5.89-2.44-8.63a41,41,0,0,1-2-5.6c-.34-1-.59-2.07-.94-3.09a4.39,4.39,0,0,0-1-2c-1.42-1.08-1.85-2.7-2.56-4.17-1.08-2.27-1.78-4.81-3.21-6.84a55.35,55.35,0,0,0-6.45-7.17c-2.31-2.27-4.86-4.3-7.25-6.49-2-1.81-3.9-3.65-5.76-5.57a8.85,8.85,0,0,1-1.9-2.8c-.91-2.37-1.88-4.73-1-7.44a36,36,0,0,0,1.16-5.77c.5-3,2.77-5,4.52-7.2a22.27,22.27,0,0,0,3.38-6.68c.42-1.19.27-2.6.74-3.76,1-2.56.67-5.23.91-7.84a1.27,1.27,0,0,0-.05-.39c-.94-3.8-2.45-7.25-5.6-9.79-.35-.29-.37-1-.73-1.28-3.31-2.34-6.76-4.18-11-4.34a11.81,11.81,0,0,0-10.12,4.49c-1.54,1.87-3,3.8-4.47,5.74a3.18,3.18,0,0,0-.3,1.23c-.2,1.08-.38,2.15-.58,3.22-.47,2.51-.83,5,.54,7.39s2.57,5.24,4.77,7.41c1.83,1.8,3,4.3,5.55,5.34.21.08.33.38.5.57.83.93.22,2,.43,3.06.27,1.38.56,2.75.73,4.14a36.13,36.13,0,0,1,.38,4.64c0,2.53.77,5.2-1.09,7.47a2.77,2.77,0,0,0-.28.73,55.62,55.62,0,0,1-2.28,5.38,42.37,42.37,0,0,1-3.89,6c-1.78,2.25-3.8,4.3-5.75,6.4-.65.7-1.53,1.19-2.1,1.93-1.12,1.44-1.93,3.15-3.17,4.45-2.39,2.51-2.85,5.86-4.15,8.83-.88,2-.92,4.41-1.38,6.63-.14.64-.48,1.23-.67,1.86-.53,1.83-1.13,3.64-1.51,5.5s-.58,4-.89,6-.76,3.9-.95,5.86c-.51,5.06-.89,10.12-1.35,15.18-.19,2-.54,4.06-.69,6.1-.25,3.22-.48,6.44-.54,9.67s.14,6.69.17,10c0,1.75-.2,3.49-.16,5.24.06,2.88.29,5.75.37,8.63.08,3.11,0,6.22.13,9.33.06,1.81.37,3.62.38,5.44,0,2.58-.07,5.17-.2,7.75-.1,2.14-.7,4.32-.38,6.38.43,2.85-.58,5.38-.88,8.06a12,12,0,0,1,0,1.7c-1,3.67-1.94,7.35-3.06,11a22.46,22.46,0,0,0-.36,11.13c0,.19.36.33.62.55a6,6,0,0,1,.54-1.88,4.34,4.34,0,0,0,.75-3.49c-.25-1.41.49-1.72,1.7-1.84,1-.1,1.37.14,1.54,1.1a15.9,15.9,0,0,0,.69,2.23,20.64,20.64,0,0,0,2.24-.63,2.52,2.52,0,0,0,1.25-.91c.89-1.72,2.17-2.13,3.77-1.09a16.17,16.17,0,0,0,1.76,1.16,4.43,4.43,0,0,0,1.38.2c-.2-.48-.27-1.15-.62-1.38a16.53,16.53,0,0,0-2.84-1.37,18.9,18.9,0,0,0-2-.61,1.94,1.94,0,0,1-1.54-1.88c-.16-1.84-1.37-3.6-.35-5.51.06-.11-.1-.33-.14-.49a22.21,22.21,0,0,1-.33-6.76,46.36,46.36,0,0,0-.17-5.13c0-1-.28-2-.27-3,0-1.33.15-2.66.27-4,.08-.86.21-1.72.35-2.58a5.93,5.93,0,0,0,.27-1.26c-.08-1.28-.3-2.56-.38-3.84-.2-3.18-.45-6.37-.48-9.55s-.5-6.11,0-9.18a49.53,49.53,0,0,0,.41-5.6,18.77,18.77,0,0,0,.13-2.36c-.1-1.43-.38-2.85-.47-4.27-.06-1.08,0-2.17.07-3.26.08-2,.24-3.93.25-5.9,0-2.53-.19-5.07-.1-7.59.13-3.26,1.19-6.47.37-9.76a1.63,1.63,0,0,1,0-.66c.25-2,.45-4.07.77-6.09.66-4.08,1.39-8.15,2.07-12.23.11-.62.08-1.27.21-1.89.49-2.27,1.05-4.54,1.53-6.81.37-1.71.59-3.45,1-5.14a30.52,30.52,0,0,1,1.41-4.17c.5-1.24,1.19-2.4,1.77-3.61.17-.37.23-.8.37-1.19.62-1.78.92-3.77,2-5.25,1.39-2,5.77-2.67,7.42,0a7.47,7.47,0,0,1,.76,2.6,30.57,30.57,0,0,1,.82,5.81c-.08,3.28-.62,6.54-.17,9.84a31.37,31.37,0,0,1-.09,3.62c0,1.88.17,3.75.23,5.63,0,.56-.1,1.13-.08,1.7.08,3.45.24,6.9.27,10.34,0,2.18-.21,4.35-.15,6.52s-1.22,4.11-.62,6.28a.77.77,0,0,1,0,.26c-.3,3.13-.55,6.25-.9,9.37-.22,1.9,0,3.83-.59,5.73a39.29,39.29,0,0,0-.54,4.24c-.46,2.71-1,5.41-1.52,8.12-.38,2.14-.68,4.3-1,6.44-.21,1.27-.51,2.53-.63,3.81-.21,2.12-.17,4.27-.5,6.37A35.89,35.89,0,0,0,159,239c.12,1.66.21,3.33.37,5a31.89,31.89,0,0,0,.62,5.09c.59,2.24,1.56,4.38,2.25,6.6a7,7,0,0,0,4.11,4.17,1.46,1.46,0,0,0,2.19-.75,25.76,25.76,0,0,1,2.14-4.84c1.59-2.21,1.09-4.92,2.19-7.21a18.44,18.44,0,0,0,1.51-4.57c.43-2.39.53-4.84.85-7.26.24-1.83.64-3.64.9-5.46.23-1.6.44-3.21.54-4.82.11-1.83-.5-4,.26-5.41.87-1.67,2.89-2.73,4.41-4.06,3.06.39,6.26.07,8.77,2.59,2.85,2.84,5.92,5.46,8.89,8.18a21.51,21.51,0,0,0,2.56,2.41,26.28,26.28,0,0,1,5,4.78c2,2.29,4.2,4.44,6.4,6.55.32.31,1.22.22,1.74,0,.21-.08.29-1,.18-1.41-.46-1.81-.28-3.76-1.19-5.47,0,0,0-.09,0-.13-.48-2-1.06-4-3.22-4.94-.42-.19-.71-.65-1.09-.94a6.64,6.64,0,0,0-1.08-.66c-.66-.33-1.59-.45-2-1-1.78-2.56-5.23-3.35-6.58-6.32,0-.08-.13-.12-.19-.18-1.36-1.18-2.76-2.32-4.06-3.56-1.77-1.72-3.46-3.51-5.19-5.27-.09-.09-.23-.13-.33-.22a18.24,18.24,0,0,1-1.86-1.76c-1.1-1.34-2.05-2.81-3.19-4.13a5,5,0,0,0-4.89-1.37c-2.23.37-4.75.65-5.67,3.33q-2.82,8.1-5.52,16.23a5.47,5.47,0,0,0-.06,1.94c.06.83-1.62,2.26-2.41,2a1,1,0,0,1-.53-.51c-.65-2.23-1.55-4.31-.51-6.84a106.82,106.82,0,0,0,4.76-13.67c.7-2.67,3.26-3.43,4.3-5.57,0-.08.24-.07.37-.11,1.48-.47,2.94-1.06,4.46-1.38,2.75-.58,5.41-.33,7.64,1.62A31.28,31.28,0,0,1,189,202c2.42,2.58,4.84,5.16,7.3,7.71a4,4,0,0,0,1.22.61c-.35-2.7-.86-5.21-.94-7.74a9.63,9.63,0,0,0-1.13-4.62,2.22,2.22,0,0,1-.15-1c-.05-2.51-.11-5-.14-7.53,0-1.74,0-3.48,0-5.21,0-.91,0-1.83-.15-2.73a12.29,12.29,0,0,1-.41-1.64c0-1.22.32-2.44.28-3.65-.13-3.83-.38-7.65-.55-11.47,0-.77.16-1.56.08-2.32-.11-1.06-.39-2.11-.57-3.17-.22-1.24-.4-2.5-.6-3.75s-.45-2.79-.68-4.18c-.11-.68-.23-1.35-.39-2.25-1.5,1.75-3,3-2.36,5.36.27,1-.64,2.11-2,2.38s-1.77-.7-2.21-1.58a18.27,18.27,0,0,0-.85-2.18c-.51-.76-1.33-1.31-1.88-2.06a30.19,30.19,0,0,1-2-3.19,10,10,0,0,1-1-2.39,1.69,1.69,0,0,1,.35-1.39c.38-.4,1.16-.89,1.51-.74,1,.45,2.31.76,2.54,2.21a4.17,4.17,0,0,0,2.45,2.51c.18,0,.51-.07.56-.19a8,8,0,0,0,.93-2.73,7.33,7.33,0,0,1,1.21-4.24c1.85.37,2,1.88,2.23,3.5A8,8,0,0,0,192,145.66Zm-32.61,64.46c-.19-.49-.52-.91-.47-1.29.44-3.49.93-7,1.43-10.45.3-2.06.52-4.15,1-6.17a10.53,10.53,0,0,0-.14-3.33,36.54,36.54,0,0,1,.67-5.85,37.34,37.34,0,0,0,.39-3.93c0-2-.18-4.08-.15-6.12,0-1.79.34-3.57.34-5.35,0-2.39-.19-4.77-.28-7.16-.06-1.53-.08-3.06-.13-4.59-.07-1.9-.21-3.8-.2-5.71s.28-3.64.25-5.46c0-1.53-.31-3.06-.44-4.6-.09-1-.39-1.89-1.41-2.13-1.2-.29-1.79.63-2.09,1.57-1,3.21-2,6.43-2.93,9.68-1.06,3.82-2.13,7.65-2.93,11.52a70.17,70.17,0,0,0-1.12,8.79c-.27,3.39-1.19,6.73-.82,10.18a2.57,2.57,0,0,1-.21.86c-.18.65-.69,1.46-.47,1.91.75,1.54.12,3,.12,4.53,0,2.28-.24,4.56-.28,6.84-.06,3.08,0,6.15,0,9.23,0,4.29,0,8.59-.12,12.88-.07,2.87-.3,5.74-.44,8.61,0,.87,0,1.74,0,2.61.09,2.22.23,4.45.33,6.67.12,2.65.15,5.3.36,7.94a2.14,2.14,0,0,0,1.05,1.6,6.46,6.46,0,0,0,3.79.5c.89-.24,1.21-.55,1.21-1.34,0-2.16-.74-4.24-.22-6.48a47,47,0,0,0,.45-6c.16-1.64.45-3.28.68-4.92.27-2,.55-4,.79-6,.26-2.18.58-4.35.67-6.53C158.11,211.26,158.5,210.33,159.37,210.12Zm52.23,12.43c.18-.93.57-1.65.37-2.09-1-2.1-.58-4.41-1.15-6.62-.86-3.31-.64-6.9-.84-10.38-.11-1.93-.11-3.88-.26-5.81-.06-.71-.57-1.38-.6-2.09-.13-2.76-.08-5.53-.23-8.29-.2-3.68-.5-7.35-.81-11s-.23-7.59-1.35-11.26a1.83,1.83,0,0,1,0-.66,17.18,17.18,0,0,0-.91-7.28c-1.11-2.78-.66-6.07-2.75-8.55,0-.06,0-.16-.09-.24-.92-2.21-1.84-4.42-2.8-6.6a1.16,1.16,0,0,0-.76-.63,2.87,2.87,0,0,0-2.57,2,33.11,33.11,0,0,0-.07,8.95c.5,3.7.7,7.44,1,11.16.13,1.57.17,3.13.32,4.69.13,1.35.51,2.69.54,4,.06,3.64-.11,7.3,0,10.94.08,3.11.46,6.21.6,9.31.09,1.93.13,3.83,1.24,5.53a1.32,1.32,0,0,1,.24,1c-.75,1.75-.1,3.45.16,5.14a14.39,14.39,0,0,0,1.7,5.43c1,1.68,2,3.69.55,5.79a1.17,1.17,0,0,0,.19,1.1c1.29,1.31,2.09,3.19,4.11,3.71.32.08.55.43.84.62C209.32,221.12,210.39,221.78,211.6,222.55Zm-41,41.34a20.68,20.68,0,0,0,3.26,2.28c2.23,1,4.55,1.81,6.85,2.63a12.86,12.86,0,0,0,9.64,0,7.32,7.32,0,0,0,3.16-2.69,39.54,39.54,0,0,0,2.3-5.42c.31-.72.8-1.37,1-2.1.87-2.49,1.66-5,2.52-7.51a2.45,2.45,0,0,0,0-2.25c-.18-.31.09-.92.23-1.38.08-.28.4-.52.43-.79.15-1.86.18-3.73.38-5.59s-.39-3.53.63-5.21c.67-1.11.32-1.84-.85-2.37-.56-.25-1.27-.29-1.7-.67-1.31-1.15-2.54-2.39-3.76-3.64-1.72-1.77-3.4-3.6-5.13-5.38a1,1,0,0,0-.79-.29.84.84,0,0,0-.41.7c.42,1.24-.18,2.3-.41,3.45-.31,1.54-.3,3.15-.48,4.72a16.42,16.42,0,0,1-.6,3.73,15.3,15.3,0,0,0-.79,7.29,12.64,12.64,0,0,1-2.7,10.09,3.17,3.17,0,0,1-2.57,1.34c-1.54-.06-3.16.36-4.61-.56-.81-.51-1.18-.21-1.47.73-.67,2.18-1.16,4.44-2.65,6.3A21.48,21.48,0,0,0,170.62,263.89Zm55.87-26.51-.58.19c.55,3,1.12,6,1.64,9,.18,1.09.2,2.17,1.84,1.69.34-.1.81.29,1.23.41.7.2,1.42.4,2.14.53a33.1,33.1,0,0,1,4,.7c3.34,1.06,6.65,2.26,10,3.43.25.09.61.41.61.62,0,.94.51.85,1.13.66.4-.13.82-.23,1.21-.37,2.22-.8,4.63-.34,6.87-1.81a16.61,16.61,0,0,0,5.5-5.14c1-1.59,1.55-3.53,3.4-4.56.41-.22.48-1.18.53-1.81,0-.11-.89-.24-1.33-.45-.62-.28-1.2-.66-1.81-1a1.86,1.86,0,0,0-.88-.23,5.25,5.25,0,0,0-1.52.29c-.4.16-.94.4-1.06.74-.74,2.08-2.42,2.58-4.33,2.83a15.14,15.14,0,0,0-1.86.53,12.34,12.34,0,0,1-2.87.68,30.35,30.35,0,0,0-4.58-.1,9.33,9.33,0,0,1-2.92-.2c-2-.37-4.06-.83-6.09-1.27-.3-.06-.58-.2-.87-.27-.56-.13-1.14-.21-1.69-.36-1.21-.32-2.42-.65-3.61-1a22,22,0,0,1-2.11-.75,1.62,1.62,0,0,1-.81-.53C227.2,239,226.86,238.2,226.49,237.38Zm-48,5.41-.29,0c-.42,1.74-.87,3.48-1.22,5.24-.07.34.21,1,.46,1.1a6.53,6.53,0,0,0,3.21.5,2.75,2.75,0,0,0,1.38-2.3c-.37-2.66,1-5.1.73-7.7a6.67,6.67,0,0,1,.16-1.83c.07-.36.21-.91.45-1,1.05-.39.63-.93.32-1.54a2,2,0,0,1-.25-1c.26-2.95.59-5.89.84-8.84a12.78,12.78,0,0,0-.16-2.3c0-.28-.29-.62-.2-.83.66-1.53-.53-1.77-1.46-2-1.15-.29-1.58.62-1.77,1.5a20.73,20.73,0,0,0,0,2.09c-.42,4.15-.3,8.39-1.93,12.36-.07.17.05.42,0,.63Q178.69,239.83,178.54,242.79Zm-22.62,6.59-6.86-.77c0,2-.06,3.71,0,5.42,0,.82.19,1.63.23,2.45.06,1.35,1.28.93,2,1.29a11.67,11.67,0,0,0,2.68,1c1.38.34,2.8.54,4.2.8.41.07.81.16,1.19.24C158.14,256.28,157.05,252.91,155.92,249.38Z"/><path class="cls-1" d="M174.05,157.58c1.35.51,1.72.28,1.88-1.36a13.44,13.44,0,0,1,.25-1.8c.43-1.92,1.41-3.71,1.1-5.8a3,3,0,0,1,.4-1.85c.59-1-.23-2.25-1.08-2.94s-1.27.07-1.71.69a2.17,2.17,0,0,1-.8.84c-1.38.52-1.13,1.61-1,2.67,0,.13.09.33,0,.38-.38.32-.78.84-1.17.85s-1.06-.33-.73-1.17a2,2,0,0,0,0-1.62,3.76,3.76,0,0,0-1.94-1.28c-.44-.1-1.45.51-1.49.89-.3,2.54-.33,5,2.11,6.83a4.18,4.18,0,0,1,1.78,2.16A2.91,2.91,0,0,0,174.05,157.58Z"/><path class="cls-1" d="M149.26,256.48c0-.82-.22-1.63-.23-2.45,0-1.71,0-3.42,0-5.42"/><path class="cls-1" d="M159.28,259.8c-.38-.08-.78-.17-1.19-.24-1.4-.26-2.82-.46-4.2-.8"/><path d="M174.05,157.58a2.91,2.91,0,0,1-2.41-2.51,4.18,4.18,0,0,0-1.78-2.16c-2.44-1.78-2.41-4.29-2.11-6.83,0-.38,1.05-1,1.49-.89a3.76,3.76,0,0,1,1.94,1.28,2,2,0,0,1,0,1.62c-.33.84.19,1.17.73,1.17s.79-.53,1.17-.85c0,0,0-.25,0-.38-.09-1.06-.34-2.15,1-2.67a2.17,2.17,0,0,0,.8-.84c.44-.62.83-1.42,1.71-.69s1.67,1.95,1.08,2.94a3,3,0,0,0-.4,1.85c.31,2.09-.67,3.88-1.1,5.8a13.44,13.44,0,0,0-.25,1.8C175.77,157.86,175.4,158.09,174.05,157.58Z"/></g></svg>