<svg id="Layer_1" data-name="Layer 1" xmlns="http://www.w3.org/2000/svg" viewBox="0 0 370 370"><defs><style>.cls-1{fill:#fff;}</style></defs><g id="_9YqK41.tif" data-name="9YqK41.tif"><path d="M96.69,102.36a26.89,26.89,0,0,1,2.07-4.92,4.68,4.68,0,0,1,3.08-2c.69,0,1.72,1.53,2.14,2.57a14.11,14.11,0,0,1,.55,3.61c2.2-.25,4.62-1.24,6.23-.49,1.32.62,1.66,3.31,1.76,5.47a3.89,3.89,0,0,0,.79.5c5.26,1.67,5.21,1.66,4.42,7.13a4.36,4.36,0,0,0,.83,2.25c1.54,2.92.55,6.11-2.62,6.9-10.15,2.53-14.54,10.71-19,18.87-2.84,5.22-5.74,10.43-8.24,15.82-3.09,6.68-5.84,13.52-8.65,20.33a65.19,65.19,0,0,0-2.86,8.08c-1.78,6.79,1.17,12.12,5.34,17.18a149.39,149.39,0,0,1,9.78,13.19c5.66,8.7,10.91,17.67,16.59,26.37,3.69,5.67,7.86,11,11.75,16.57,2.44,3.46,5.58,6.22,9.76,6.6,5,.46,10.12.06,15.18,0,.59,0,1.18-.46,1.76-.44,3.36.16,5.18-1.33,5.3-4.59.17-4.85.32-9.7.33-14.55,0-5.31,0-10.62-.27-15.91a39.42,39.42,0,0,0-1.54-9c-1.41-4.7-5.5-7.37-9.23-9.82-6.11-4-12.82-7.13-19-11a47.74,47.74,0,0,1-9.3-7.71c-3.19-3.39-2.08-8.05-1.58-12,.58-4.53,2.55-8.91,4.13-13.27,2.36-6.5,4.95-12.92,7.37-19.4,3.81-10.18,7.72-20.31,11.26-30.58a118.27,118.27,0,0,0,3.94-15.43,9.7,9.7,0,0,0-1-5.25,12.05,12.05,0,0,1-.37-9.93,15.18,15.18,0,0,1,2.35-3.1A23.33,23.33,0,0,1,142.93,87c.56.64.6,1.72,1.64,2.8.66-1.74,1.25-3.51,2-5.22a17.8,17.8,0,0,1,2.33-4.48,3.83,3.83,0,0,1,3.22-1.28,4.32,4.32,0,0,1,2.35,2.82,23.25,23.25,0,0,1,.1,5.09c3.28.48,7-.05,9.15,1.57,3.55,2.73-.52,5.27-1.87,7.89.76.89,1.53,1.73,2.24,2.62,1.91,2.41,2.46,4.61-.52,6.8-.5.37,0,2.13.07,3.26,0,1.62.65,3.73-.14,4.74s-3,.81-4.53.66c-1.7-.16-4.11-1.8-4.87-1.18a16.28,16.28,0,0,0-4.29,6.16c-2.41,5.85-4.43,11.86-6.64,17.79-2.41,6.47-5.07,12.85-7.23,19.39-2.95,9-5.42,18.1-8.32,27.09-1.35,4.16,1.32,6.29,3.86,8.2a202,202,0,0,0,18.4,12.84c3.62,2.15,8,3.11,12.19,4.17,2.63.68,6-4.21,4.65-6.79-2-3.92-4.63-7.56-6.8-11.43a11.21,11.21,0,0,1-1.52-4.82,44.72,44.72,0,0,1,.46-9.82c.84-4.57,4-7.93,7.56-10.57,1.36-1,3.79-.78,5.72-.72,8.41.26,14.24,7,16.36,13.51,1.72,5.32-1.35,14.31-5.84,17.07-1.47.91-2.33,1.44-1.41,3.4s2.26,2.3,3.88,1.63c4.72-1.95,9.4-4,14-6.14,6.33-3,12.62-6,18.89-9.11,2.28-1.12,4.47-2.44,6.66-3.73,3.2-1.88,6.32-3.88,9.55-5.69,2.19-1.23,2.61-3.11,2.71-5.38.31-7-3.35-11.69-8.18-16.2-3.11-2.9-5.24-6.83-7.9-10.23-1.16-1.49-2.55-2.8-3.82-4.21-7.37-8.23-14.76-16.45-22.08-24.72-3.26-3.69-7.84-3.57-12.06-4.2a12.62,12.62,0,0,1-8.07-4.66,3.77,3.77,0,0,1-.61-3.12c.25-.69,1.63-1.21,2.58-1.36a35.93,35.93,0,0,1,5-.06c-.79-1.75-1.8-3.18-2-4.73-.29-1.84-.6-4.27.32-5.57,1.3-1.82,3.41-.93,5,.64,1.33,1.34,2.1.67,2.88-.79.89-1.67,1.81-3.55,3.25-4.66A6.55,6.55,0,0,1,196,85.12c.87.19,1.4,2.43,1.85,3.82a9.07,9.07,0,0,1,0,2.66l1.44,1a22,22,0,0,1,1.6-3c1.52-2.08,3.47-4,6.12-2.26s1.78,4.41.29,6.75a4.63,4.63,0,0,0-.28.79,11.64,11.64,0,0,0,1.88.91c2.11.59,3.7,2,3.26,4.08a7.49,7.49,0,0,1-3.06,4c-2,1.35-4.32,2.13-7.12,3.45,2.48,2.31,4.74,4.3,6.86,6.41,3.62,3.6,7.24,7.2,10.69,11a118.2,118.2,0,0,1,8.1,9.63c3.13,4.22,5.83,8.76,8.92,13,2.57,3.51,5.6,6.68,8.13,10.21,2.84,4,5.37,8.15,8,12.27,2.78,4.38.56,7.9-2.61,10.54a184.72,184.72,0,0,1-15.6,11.44q-10.23,6.84-20.84,13.09c-3.64,2.15-7.65,3.66-11.47,5.52-3,1.45-6,2.94-8.9,4.53-5.91,3.22-6.05,8.92-5.78,14.52.29,5.83,1.27,11.63,1.57,17.46.19,3.77-.44,7.58-.45,11.38,0,1.6.09,3.85,1.08,4.67,1.28,1.06,3.25,1.17,5.08-.57,3.15-3,6.8-5.48,10.2-8.22,3.06-2.47,6.18-4.87,9.08-7.52,7.14-6.51,14.19-13.14,21.25-19.74,3.54-3.32,7-6.7,10.55-10,4.78-4.53,9.5-9.13,14.38-13.54,7.72-7,15.76-13.64,23.28-20.85,6.75-6.48,8.83-10.15,4.65-18.83-3.69-7.67-7.4-15.34-10.9-23.11-1.61-3.56-2.64-7.37-4.09-11-1-2.46-2.15-4.86-3.36-7.22-3.56-7-6.79-14.21-12.75-19.66A10.4,10.4,0,0,1,255,99.85c-1.32-2.48.46-5.59,3.06-5,2.24.47,2.75-.81,3.7-2.11S264.15,89,265,89.13c1.54.27,2.81,2.11,4.59,3.64.21-.19.9-.74,1.52-1.36,2.43-2.42,4.44-2.37,6.22.44,1,1.61,1.81,2.21,3.83,1.33.86-.37,2.72.62,3.64,1.5a43.54,43.54,0,0,1,3.81,4.87c1.76,2.24,1.68,4.63-.31,6.59a9.46,9.46,0,0,1-2,1.6c-6.93,3.8-5.67,4.38-3.5,11.09,2,6.15,6.22,11.54,9.15,17.42,3.4,6.82,6.41,13.83,9.68,20.71,1.32,2.79,2.89,5.46,4.34,8.2,2.5,4.75,4,9.77,2.4,15a15.48,15.48,0,0,1-3.78,5.74c-4.58,4.86-9.39,9.51-14.08,14.27-4.11,4.16-8,8.51-12.29,12.52s-9.18,7.79-13.56,11.91c-3.39,3.19-6.32,6.87-9.63,10.17Q247.89,242,240.43,249c-4.18,3.92-8.49,7.72-12.8,11.51-4.76,4.2-9.58,8.34-14.38,12.49-4.32,3.72-8.6,7.5-13,11.12-5.34,4.38-11.48,7.07-18.43,7.1-12.66.06-25.32,0-38-.35A77.67,77.67,0,0,1,130,288.71a13.7,13.7,0,0,1-4.9-2.75c-3.92-2.92-7.74-6-11.59-9A52.37,52.37,0,0,1,97.28,256.5c-3.44-7.84-8.16-15.16-12.71-22.46-3.81-6.12-8.42-11.75-12.25-17.85a143.53,143.53,0,0,1-9.94-17.94c-2.37-5.34-1.65-10.88,1-16.38,5.23-10.94,9.9-22.15,15-33.17,2.17-4.73,5-9.15,7.13-13.91,3.18-7.27,6.07-14.76,2.77-22.82-2.18-5.31-.75-10,1.76-14.68.34-.62,1.86-1.33,2.15-1.11a11.73,11.73,0,0,1,3,3.3c.5.84.36,2.06.5,3.11Zm-3.87,9.29c.37,1.12.81,2.26,1.13,3.44.44,1.62,1.41,3.41,1.07,4.88a111.32,111.32,0,0,1-4.74,16.44c-2.37,5.86-5.78,11.28-8.47,17-4.53,9.63-8.73,19.41-13.29,29-3.32,7-3.09,13.74.8,20.34,2.42,4.11,5,8.15,7.54,12.17a110.51,110.51,0,0,0,6.22,9.29c8.54,10.79,14.42,23.08,20.46,35.31a28.7,28.7,0,0,0,6.18,8.69c5.24,4.64,11.28,8.38,16.51,13,4.45,3.95,9.54,5.19,15,5.07,12-.26,23.91,1.82,36,.71,6.47-.6,12.18-2.22,17.27-5.53a143.51,143.51,0,0,0,16.2-12.86c9.89-8.71,19.59-17.64,29.34-26.51,3.21-2.93,6.44-5.85,9.44-9,3.81-4,7.14-8.44,11.13-12.21,5.95-5.6,12.57-10.49,18.39-16.19,6.53-6.41,12.34-13.56,18.77-20.07,4.71-4.76,6.94-9.24,3.3-15.95-7.62-14-14.44-28.47-21.95-42.55-3.78-7.06-6.05-13.92-1.91-21.47-4.29-3.5-8.34,0-13.31-.44,7,7.37,9.41,16,13.1,24.07,1.6,3.47,2.58,7.23,4.17,10.71,3.37,7.31,7.2,14.41,10.34,21.82,1.7,4,3.35,8.51,3.27,12.76-.13,6.65-4.85,11.2-9.88,15.13-1.08.85-2.18,1.67-3.2,2.58-3.41,3-6.77,6.13-10.18,9.16-4.83,4.29-9.69,8.55-14.53,12.83-.94.84-1.83,1.74-2.8,2.56-2.31,2-4.82,3.73-6.93,5.88-5.17,5.25-10,10.9-15.28,16-6.67,6.36-13.73,12.31-20.66,18.4-5.69,5-10.78,10.68-18.39,13.23-5.43,1.82-10.05.25-10.14-4.57s.3-9.87.12-14.8c-.28-8-.58-16.08-1.37-24.07-.56-5.56,3.25-13.36,8.28-15.78,5.62-2.71,11.15-5.61,16.72-8.43,1.51-.77,3.1-1.41,4.52-2.32,3.41-2.17,6.61-4.68,10.11-6.67,8.17-4.65,16.55-8.94,23.41-15.57,1.9-1.84,4.11-3.26,1.88-6.32-1.46-2-2.64-4.24-3.95-6.37l-1.11.57c.23,2.09.37,4.19.72,6.25.52,3.08-.09,6.24-2.43,7.9a143.05,143.05,0,0,1-16,9.7c-7.86,4.16-15.89,8-23.94,11.8-5.21,2.45-10.52,4.7-15.91,6.71a5.44,5.44,0,0,1-4.4-.89c-3.58-2.76-5.12-6.55-5-11.17A4.85,4.85,0,0,1,177,191c3.23-2.16,5.69-4.68,5.56-9.17-.14-4.77-3.64-10-8.12-10.84a9.77,9.77,0,0,0-11.27,6.87c-.67,2.61-.92,5.9.11,8.23A52.75,52.75,0,0,0,171.2,199c3.49,4.06,2,7.41.12,11.06a9.81,9.81,0,0,1-9.85,4.61c-3.6-.76-7.17-1.65-11.78-2.72,1.24,1.37,1.85,2,2.4,2.67q1.57,2,3.07,4c3.16,4.23,2.41,9.35,2.72,14.05.62,9.18.38,18.42.58,27.63.16,7.19-2,10.85-7.43,11.8a71.46,71.46,0,0,1-11.58,1.58c-6.64,0-13.31-.62-18.45-5.55-2.29-2.2-4-5-6.21-7.28-8.09-8.17-13-18.51-19.15-28-3-4.64-5.62-9.56-8.79-14.09-4.62-6.61-9.6-13-14.37-19.49a5.8,5.8,0,0,1-1.18-2.85c-.31-4.94-1.21-9.74,1.14-14.71,2.94-6.18,4.6-13,7.31-19.28,2.59-6,5.67-11.88,8.82-17.65,5.2-9.54,9.51-19.79,19.33-25.69C105.46,111.51,99.33,111.5,92.82,111.65Zm41,90.86.25-.67c-2.42-2-4.95-3.92-7.22-6.1-3.44-3.32-7.22-6.64-5.43-12.29,4.17-13.16,8.25-26.36,12.61-39.46,3.08-9.24,6.35-18.42,10-27.46a27.73,27.73,0,0,1,6.11-9.38c2.45-2.37,3.35-3.61,1.34-6.43-1.75-2.46-3.4-2.62-7.27-.67a16.25,16.25,0,0,1,0,3.69,139,139,0,0,1-3.61,13.72c-4,11.57-8.4,23-12.56,34.58-1.3,3.6-2.25,7.32-3.6,10.9-2.25,5.95-5.23,11.67-6.87,17.76-1.24,4.56-1.25,9.75,3.19,13.22,3.76,2.93,7.77,5.56,11.69,8.28A4.23,4.23,0,0,0,133.85,202.51Zm100.41-48.09.72-.79c-4.39-5.79-8.83-11.55-13.15-17.4-5.36-7.27-12.63-14.58-15.73-15,3,3.09,5.94,5.58,8.27,8.53,5.46,6.92,10.6,14.08,16,21.06A31.57,31.57,0,0,0,234.26,154.42ZM193.52,99.87,187.84,105l6.62,3.69,3.81-7Z"/><path class="cls-1" d="M234.26,154.42a31.57,31.57,0,0,1-3.91-3.65c-5.38-7-10.52-14.14-16-21.06-2.33-3-5.24-5.44-8.27-8.53,3.1.47,10.37,7.78,15.73,15,4.32,5.85,8.76,11.61,13.15,17.4Z"/><path class="cls-1" d="M198.27,101.66l-3.81,7L187.84,105"/></g></svg>