<svg id="Layer_1" data-name="Layer 1" xmlns="http://www.w3.org/2000/svg" viewBox="0 0 370 370"><g id="X86wZU.tif"><path d="M249.77,148.44a15.67,15.67,0,0,0,1.66-.19,39,39,0,0,1,4.59-.33c.56,0,1.54.73,1.53,1.22a3.55,3.55,0,0,1-1.06,2.38c-.6.66-1.64.69-2.4,1,.65.4,1.5.9,2.13,1.27,1.1.64,2,1.29,1.68,2.62s-1.39,1.53-2.63,1.59c-.68,0-1.56-.13-2.26-.17.24.71.62,1.52.87,2.21.8,2.15.27,3.34-1.82,4.33a3.69,3.69,0,0,0-1.39,1.62c-.74,1.37-1.95,2.21-3.49,1.39a5.71,5.71,0,0,1-3-3.76,2.93,2.93,0,0,0-3.21-2.55,67.6,67.6,0,0,0-12.09,1.14c-3.15.46-6.34.68-9.48,1.21-4.79.8-9.54,1.87-14.33,2.64a103.61,103.61,0,0,1-13.22,1.47c-7.78.25-15.28,1.8-22.95,2.76-5,.63-10,1.16-15,1.81-2.49.33-4.91.81-7.43,1.12s-5.11.55-7.68.68c-4.57.23-9.17.37-13.77.46-.78,0-1.56-.14-2.36-.15-2.9,0-5.68-.11-8.64,0a2.69,2.69,0,0,0-1.77,1.3,5.69,5.69,0,0,0-.7,2.2c-.47,4-1,8.07-1.3,12.1-.19,2.67-.15,5.31-.19,8,0,3-.56,6-.34,9,.3,4.11,2.68,6.51,7,6.23,5.17-.33,10.39-1.64,15.57-2.35,3.92-.53,7.86-1.16,11.82-1.68,3-.4,6-.86,9.09-1.24s6.36-.87,9.58-1.08c5.53-.36,11.11-.31,16.69-.51,3.38-.11,6.65-.39,10.12-.49s7.21,0,10.78-.08c1.8,0,3.66-.46,5.49-.55,3.43-.16,6.89-.08,10.34-.13,5.12-.08,10.21-.23,15.34-.06,3.68.13,7.39.41,11.08.41,3.16,0,6.23-.32,9.43-.19s6.41.65,9.63.88c4.78.35,9.5.92,14.35,1,1.58,0,3.16-1.24,4.52-2.07a18.14,18.14,0,0,0,2.36-2.21,7.14,7.14,0,0,0,2.66-4.81c.22-3.94.07-7.75,0-11.7a4.74,4.74,0,0,0-.57-2c-1.46-2.91-1.4-5.85-1.68-9.05a6.33,6.33,0,0,1,.77-2.43,8.09,8.09,0,0,1,2.34.89,8.66,8.66,0,0,1,1.58,2.08c.83,1.15,1.4,1.17,2.1-.13a16.92,16.92,0,0,0,1.06-3c.31-1,.87-2.15,2.12-2s1.43,1,1.28,2.34-.43,3.16-.6,4.55a21.11,21.11,0,0,0,2.05-1.12c1.09-.72,2-1.55,3.1-2.15a1.91,1.91,0,0,1,1.88-.06,1.63,1.63,0,0,1,.38,1.79,47,47,0,0,1-2.65,4.56c1.52,0,3.15,0,4.64-.16,1.19-.11,2.37-.49,2.85.92.22.66-.88,1.73-1.27,2.34-.1.15-.44.55-.58.72a6.88,6.88,0,0,0,1.22.6c.35.1.82-.09,1,.07,1,.68,2.59,1.16,2.91,2.35.43,1.59-.7,2.6-2.24,2.89a21.86,21.86,0,0,1-5.18.19c-3.17-.25-4.59.36-5.48,3.48-1.31,4.62-2.35,9.37-3.81,14a10.14,10.14,0,0,1-5.2,6.54,17.91,17.91,0,0,1-6.41,1.48c-3.2.27-6.41.25-9.62.21-3.62,0-7.26-.3-10.88-.4a153.75,153.75,0,0,0-16.35.21c-4.47.36-8.89.93-13.34,1.49a80.39,80.39,0,0,0-8.78,1.29c-6.12,1.46-12.19,1.61-18.45,2s-12.6.95-18.87,1.7c-3.35.4-6.65,1.36-10,1.86-2.72.42-5.49.69-8.25.89-6.26.46-12.52,1.05-18.79,1.53-4,.3-7.91.32-11.88.55-1.45.09-2.88.54-4.34.6-2.11.1-4.19,0-6.3,0-3.88.06-7.71.19-11.6.32s-7.62.2-11.36-1.22c-1.53-.59-3.25-.6-4.53-1.92a13.92,13.92,0,0,1-4-11.32c.11-1.71.07-3.37.06-5,0-2.06.12-4.16,0-6.19-.27-3.43-.9-6.76-.89-10.19a111.42,111.42,0,0,1,.79-12.91c.43-3.6,1.59-7.1,2.06-10.69.72-5.42,1.12-10.87,1.68-16.31a15.32,15.32,0,0,1,.41-2.31c.77-3,0-5.53-.79-8.42s-2-5.4-1.24-8.54c1-4.17,3.84-8.85,8.41-10.06,4.12-1.1,9.12,1.19,10.56,5.32.84,2.39,1.82,4.9,1.56,7.43-.44,4.37-1,8.25-4,11.63-.94,1-2.63,1.34-3.88,1.95-1,.48-1.57,1-1.49,2.15a43.71,43.71,0,0,1,0,6.05c-.11,1.52.76,2.09,2.06,2.19a77,77,0,0,0,7.89.06c4.8-.12,9.55-.19,14.33-.51,4.09-.27,8.15-.89,12.23-1.27,2.69-.25,5.39-.38,8.08-.53,3.77-.23,7.55-.51,11.32-.69,2.27-.11,4.57,0,6.81-.1s4.42-.53,6.64-.75c4-.38,8.06-.86,12.11-1,3.34-.14,6.66.26,10,.17,4.32-.1,8.63-.29,12.94-.65,6.95-.59,13.86-1.06,20.79-2,3.78-.53,6.63-2.86,9.7-5a53.49,53.49,0,0,1,7.32-4.35c.66-.32,1.81.14,2.53.26a10,10,0,0,1-.48,2.74c-.37.82-1.25,1.27-1.73,1.87C249.47,148.12,249.63,148.44,249.77,148.44Zm36.69,28.9-1,.41c.23,1.23.44,2.51.72,3.71.58,2.42,1.42,4.77,1.76,7.23a21.18,21.18,0,0,1-.18,5.51,16.52,16.52,0,0,1-1.09,5.45,22.25,22.25,0,0,1-7.09,8.46,6.83,6.83,0,0,1-4,1.32c-3.36-.07-6.85-.46-10.1-.78s-6.26-.81-9.44-1.12c-2.52-.24-5-.28-7.51-.34-4-.1-7.92.12-11.91.13-2.51,0-5-.4-7.5-.45-3.35-.07-6.46.23-9.9.25s-7.11-.44-10.65-.34c-4.81.12-9.44,1.38-14.33,1.19-5.25-.2-10.57.18-15.88.32-3.4.1-6.69-.14-10.19.07s-7.29.91-10.83,1.37-7.12.78-10.67,1.2c-.81.1-1.6.37-2.4.47-4.14.54-8.31,1-12.41,1.79-5.52,1-11,2.54-16.59,2.43-4.06-.08-7.06-2.17-7.7-6.21-.58-3.66-.27-7.37-.32-11,0-3.06.14-6.06.36-9.11.34-4.57.88-9.2,1.49-13.74.16-1.21,1.06-3,2.12-3.3a23.28,23.28,0,0,1,8.4-.72,49.28,49.28,0,0,0,9.35.59c5.84-.42,11.64-.69,17.47-1.06,1.33-.09,2.63-.3,4-.42,3.79-.34,7.57-.44,11.35-1,5-.71,9.77-1.75,14.79-2.54,3.09-.49,6-1.56,9.24-.61.17.06.45-.14.67-.18.77-.17,1.59-.35,2.4-.46,2.79-.39,5.61-.73,8.41-1.14,1.07-.15,2.13-.52,3.19-.66,5.26-.71,10.61-1.14,15.75-2.34,3.85-.91,7.65-1.31,11.52-1.87s8.1-1.09,11.87-1.48c4.16-.44,4.65.32,6.62,3.8a11.76,11.76,0,0,0,1.48,1.83c0-.15.45-.15.43-.33-.06-.68-.22-1.29-.34-2.06s-.47-2.14-.11-2.85c1.29-2.58.6-4.56.15-7.2-2.73.17-3.13-1-2.9-3.5-1.65,1.08-3.19,2.15-4.88,3.23s-3.41,2.82-5.41,3.23a151.12,151.12,0,0,1-15.45,2.19c-3.7.36-7.38.15-11.09.25-2.22.06-4.42.17-6.64.3-4.57.29-9,.62-13.63.88s-9.36.4-14,.66c-2,.11-4,.47-5.92.56-3.17.14-6.35.08-9.53.22-3.78.16-7.57.44-11.35.66-2.09.13-4.19.22-6.27.46-1.65.19-3.28.77-4.92.89-5,.35-10.09.69-15,1-3.41.22-7.18.37-10.39.56-3.58.21-6.32-1.25-6.62-4.66-.23-2.53,0-4.31-.16-6.73a5.1,5.1,0,0,1,2.86-4.57c1.38-.82,3.33-1.27,4.23-2.6,2-3.05,2.47-6.28,2.73-9.85.07-1.05-.73-2-.89-3.11-.78-5-6.71-7-10.7-4-4.68,3.55-5.11,10.08-2,14.63a5.77,5.77,0,0,1,1.14,4.37c-.57,4.91-2.16,9-1.9,13.87a9.67,9.67,0,0,1-.29,2.18c-.59,3.27-1.17,6.56-1.72,9.84,0,.32.06.68,0,1-.19.78-.53,1.6-.73,2.33a14.11,14.11,0,0,0-.15,2c-.51,4.32-1.37,8.61-1.46,13-.11,5,.6,9.83.86,14.82.18,3.48-.26,7,.08,10.55a9.64,9.64,0,0,0,2.06,5.54c2.75,3.12,6.19,4,10.26,4.22s8.17-.13,12.25-.24c8-.21,16-.55,24.06-.84,2-.08,4,0,6-.23,4.12-.37,8.23-.85,12.35-1.18,2.34-.18,4.73,0,7.05-.31,6.76-.95,13.53-2.1,20.29-2.93,4.31-.53,8.68-.62,13-1s8.43-.87,12.66-1.39c2.38-.3,4.65-1.05,7-1.41,5.83-.9,11.65-1.61,17.52-2.16,1.17-.11,2.32-.14,3.49-.23,3.79-.28,7.57-.61,11.38-.61,4.63,0,9.32.39,13.94.42,4,0,8,0,11.94-.35a10.16,10.16,0,0,0,7.22-3.29,19.51,19.51,0,0,0,3.32-6.79c1.1-3.51,1.34-7,2.33-10.56a6.76,6.76,0,0,1,2-3.41c1.32-1.08,2.89-1.48,4.37-2.23a18.92,18.92,0,0,0-.75-2.63,2.37,2.37,0,0,0-1.15-.88c-.85-.41-1.8-.44-2.52-1.19s-1.15-1.35-2.39-1.33c-.47,0-1.1-.58-1.39-1-.57-.88-.82-1.09-1.67-.17a1.56,1.56,0,0,1-2.72-.2A16.47,16.47,0,0,1,286.46,177.34Z"/></g></svg>