<svg id="Layer_1" data-name="Layer 1" xmlns="http://www.w3.org/2000/svg" viewBox="0 0 76.78 74.25"><defs><style>.cls-1{fill:#231f20;}</style></defs><path class="cls-1" d="M12.84,35.9,23.4,53.58a13,13,0,0,0,7.47,5.74,9.38,9.38,0,0,0,5,.23,9.27,9.27,0,0,0,4.65-1.49,12.63,12.63,0,0,0,5.75-7.47A13,13,0,0,0,45,41L34.43,23.28A13,13,0,0,0,27,17.54a9.53,9.53,0,0,0-5-.23,9.33,9.33,0,0,0-4.65,1.49,12.65,12.65,0,0,0-5.74,7.47,13,13,0,0,0,1.26,9.63Z"/><path class="cls-1" d="M47.08,52.9,61.38,39a9.38,9.38,0,0,0,2.58-4A9.47,9.47,0,0,0,65,30.11,9.51,9.51,0,0,0,64,25.29a9.29,9.29,0,0,0-2.58-4,12.57,12.57,0,0,0-8.84-3.66,13.12,13.12,0,0,0-8.84,3.66l-14.29,14a9.31,9.31,0,0,0-2.59,4,9.47,9.47,0,0,0-1.08,4.81,9.51,9.51,0,0,0,1.08,4.82,9.31,9.31,0,0,0,2.59,4,12.55,12.55,0,0,0,8.83,3.66,13.12,13.12,0,0,0,8.84-3.66Z"/></svg>