<svg id="Layer_1" data-name="Layer 1" xmlns="http://www.w3.org/2000/svg" viewBox="0 0 370 370"><defs><style>.cls-1{fill:#010101;}</style></defs><g id="Jnt0Cr.tif"><path class="cls-1" d="M177,52.94c-.08-.42-.14-.83-.25-1.21a12.6,12.6,0,0,1-.47-1.59,17.66,17.66,0,0,1,.05-6.36c.29-1.25.41-2.55.6-3.82,0-.16,0-.38.12-.48a2.81,2.81,0,0,0,.86-2.07,6,6,0,0,1,1.45-2.59,22.36,22.36,0,0,1,6.5-5.32c1.24-.76,2.37-.33,3.55-.41.25,0,.52.33.8.53.27-.66.53-.63,1.17-.26s1.63.28,2.36.61c1.66.76,3.45,1.21,4.77,2.76.76.9,1.29,2.17,2.57,2.6.11,0,.27.16.28.26.16,1.49,1.43,2.25,2.11,3.39a12.37,12.37,0,0,1,.85,2.6,5,5,0,0,0,.25.64c.57,1.05,1.15,2.07,1.72,3.12,0,.06.09.16.07.19-1.1,1.66.69,3.36-.09,5.08-.69,1.55-.91,3.35-1.78,4.75-.55.89-.65,2.49-2.29,2.49-.17,0-.43.35-.49.57-.64,2.49-2.59,3.55-4.75,4.4a9.22,9.22,0,0,1-1.06.3c-.86.23-1.32.5-1.27,1.68A19.68,19.68,0,0,1,193.9,69a1.27,1.27,0,0,0,0,.58,16.27,16.27,0,0,0,.64,1.77,1.46,1.46,0,0,0,.61.75c1.49.52,2.93,1.19,4.6,1a13.25,13.25,0,0,1,2.09.1c.32,0,.65-.06,1-.07.54,0,1.07,0,1.6,0a13.63,13.63,0,0,0,1.69-.17c.55-.11,1-.24,1.43.34.08.14.39.17.6.18,1.56.09,3.11.14,4.67.26a3.71,3.71,0,0,1,1.06.46,7,7,0,0,0,1.81.74c1.8.21,3.62.32,5.43.38,1.09,0,2.18-.1,3.28-.15.56,0,1.12,0,1.69,0a15.16,15.16,0,0,1,2.51.26c1,.28,1.89.61,2.81,1,.34.12.76.42,1,.31,1.57-.56,3,.18,4.46.41a7.65,7.65,0,0,0,1.85.13c1.75-.19,3.25.71,4.87,1a25.67,25.67,0,0,0,2.63.22c.49,0,1.1-.08,1.44.17,1.46,1,3.25.83,4.82,1.38a7.58,7.58,0,0,1,1.2.71c.38.22.77.44,1.14.67.71.42,1.16,1.29,2.25,1.1.27-.05.78.58,1,1A30.53,30.53,0,0,1,259.78,87a23.44,23.44,0,0,0,.57,2.47c1,2,.56,4.14.88,6.22.15.94-.24,2-.12,2.92.14,1.17.57,2.3.71,3.44a10.86,10.86,0,0,0,0,1.71,10.37,10.37,0,0,1-.68,4.19c.78,1,.76,1.6.1,2.42a5.06,5.06,0,0,1,.61,1.66c0,1.15.45,2.34-.2,3.48a2.38,2.38,0,0,0,0,1.28c.1,1.08-.31,2.08.1,3.28a6.11,6.11,0,0,1,.18,4c-.62,1.41.41,2.93-.61,4.21-.12.15.37.79.61,1.28l-.47.34c.36,1.93.72,3.77,1,5.61a3.32,3.32,0,0,1-.17,1,5.49,5.49,0,0,0-.05.91c0,.22.17.49.08.65a2.84,2.84,0,0,0,.13,2.64,2.09,2.09,0,0,1,.12.78c0,1.57,0,3.12-.06,4.68,0,.47.06.93,0,1.4a3.8,3.8,0,0,1-.23,1.33,2,2,0,0,1-.23,2.7,1.16,1.16,0,0,0-.05,1,3.4,3.4,0,0,1-.2,3.26,2.52,2.52,0,0,1,.2,3,15.34,15.34,0,0,0-.91,2.45,1.33,1.33,0,0,1-.21.52,7.52,7.52,0,0,1-3.32,2.1,5.34,5.34,0,0,0-1.78,1.09c-.69.56-1.29,1.21-2.31,1a.79.79,0,0,0-.62.21c-1.46,1.43-3.07,1.24-4.74.46-.25-.11-.5-.19-.75-.29a3.45,3.45,0,0,1-3.35,1.27,2.28,2.28,0,0,0-1.07-.07,3.64,3.64,0,0,1-2.6,0c-.48-.17-1.28.38-1.87.7a6.57,6.57,0,0,1-3.81.95c-.13,0-.35,0-.37,0-.45,1-1.33.58-2.08.64-.19,0-.48,0-.56.14-.67,1-2.07.95-2.75,1.79a2.54,2.54,0,0,0-.7,2.29,1.18,1.18,0,0,1-.05.92c-.85,1-1.79,2-2.67,3a10.66,10.66,0,0,0-1.12,1.46,1.46,1.46,0,0,1-2.16.05,3,3,0,0,1-.83-2.52,7.1,7.1,0,0,1,.91-3c.56-.9-.53-2.34-1.66-2.39a37.29,37.29,0,0,1-4.09-.28c-.83-.12-1.66-.41-1.86-1.48a19.7,19.7,0,0,0-.6-1.94c-.2-.65,1-1.87,1.93-1.84s2.1.26,3.16.38a3.42,3.42,0,0,0,.64,0,14.29,14.29,0,0,0,0-1.51.69.69,0,0,0-.32-.41c-1-.68-.75-1.79-.93-2.75a1.91,1.91,0,0,1,1.44-2.38,4.76,4.76,0,0,0,.74-.53,17.32,17.32,0,0,1,1.5,1.71,17.74,17.74,0,0,1,1.05,2.2,5.83,5.83,0,0,0,.66-1.38c.09-.8-.07-1.63.07-2.41a6.59,6.59,0,0,1,.83-2,1.28,1.28,0,0,1,1.73-.49l0,0a1.1,1.1,0,0,0,1.52-.36l0-.06c.45-.66,2.26-.92,3.24-.61s.89,1.3,1.25,2c.1.2-.11.57-.22.85-.38,1-.81,1.94-1.19,2.93-.21.55-.06.75.61.72a6.34,6.34,0,0,0,3.81-1.48,6.92,6.92,0,0,1,2.07-.77c1-.33,2.08-.6,3.11-.94,2-.67,4.06-1.4,6.11-2a2.66,2.66,0,0,1,1.28.13,1.61,1.61,0,0,0,2.22-1.55c.1-1,.48-2.08.54-3.11.07-1.24-.32-2.56-.05-3.73.42-1.72-.07-3.45.37-5.17a6,6,0,0,0,.1-3.34c-.49-1.27,0-2.39,0-3.58a21,21,0,0,1,.15-5.93c.25-1.1-.41-1.84-.26-2.77.1-.69.1-1.39.16-2.07,0-.15.13-.32.1-.46a21.94,21.94,0,0,1-.63-3c-.11-1.52,0-3.06,0-4.59,0-.38-.15-.76-.18-1.15-.08-1.13-.13-2.26-.19-3.39a4,4,0,0,0,0-.49,3.79,3.79,0,0,1-.09-1.48c.76-2.08-.37-4-.55-6-.13-1.47-.25-2.93-.49-4.38a29.23,29.23,0,0,0-.83-3c0-.06-.09-.12-.09-.18a4.05,4.05,0,0,0-2.19-3.44c-1.24-.76-2-2.43-4.07-1.91a4.16,4.16,0,0,1-3.07-.71c-.65-.42-1.7-.2-2.49-.44a9,9,0,0,1-3.45-1.21,16.48,16.48,0,0,0-3.46-1.57c-.31-.15-.58-.36-.88-.51s-.42-.25-.54-.19c-.75.42-1.39-.13-2.07-.18-1.42-.11-2.86-.06-4.28-.14-1.24-.07-2.49-.27-3.73-.35-1.94-.13-3.88-.28-5.81-.26-.47,0-.93.59-1.41.89a10.54,10.54,0,0,1-1.55.92c-.7.29-1.49.36-2.15.7a2.72,2.72,0,0,0-1.36,3,1.91,1.91,0,0,1-2.51,2.17c-.9-.24-.58-1.11-.86-1.66a2.92,2.92,0,0,1-.12-.83c-1.09.89-.79,2-.73,2.91s.34,1.65-.42,2.31c1,1.28,1.57,2.52.32,4.18l1,.47c-.76.65-.76,1.1-.15,1.61.82.71.5,1.75.53,2.64.06,1.52-.14,3-.06,4.56.06,1.08.48,2.14.55,3.22a9.61,9.61,0,0,1-.36,2.22c0,.24-.16.65-.07.71,1.18.79.59,2,.7,3,.13,1.17.09,2.35.21,3.52.18,1.83.49,3.66.66,5.49.16,1.68.23,3.37.31,5a1.35,1.35,0,0,1-.22.83,1.31,1.31,0,0,0,.24,2.09l-.71.39c.38.73,1.16,1.4.41,2.3a.21.21,0,0,0,0,.19c1.23,1.66.1,3.81,1.12,5.54.19.32-.13.91-.12,1.37,0,1.29.5,2.55.17,3.88-.09.36.55.83.57,1.29.08,1.38,0,2.76,0,4.15a7.14,7.14,0,0,0,0,.8c.21,1.46.39,2.93.67,4.38a8.43,8.43,0,0,0,.64,1.55c.33.87.85,1.7,0,2.62a1,1,0,0,0,.09,1c1,1,.47,2.27.54,3.42s.07,2.57.11,3.86c0,.26.17.61,0,.76-.83,1,0,1.81.35,2.65.06.15.32.32.29.38-.66,1.29.61,2,.88,3.06a11.33,11.33,0,0,0,1.17,2.3.77.77,0,0,1,.13.46c-.47,1.58.83,2.26,1.61,3.19s1.85,2.17,2.83,3.21a10.07,10.07,0,0,0,1.61,1.3A35,35,0,0,1,221,193a15.27,15.27,0,0,0,4.28,2.44,3.94,3.94,0,0,1,1,.83c1.12,1.08,2.19,2.22,3.35,3.25s2.4,1.69,3.4,2.72a14.77,14.77,0,0,0,3.32,2.57,24.11,24.11,0,0,1,4.9,3.5c1.32,1.34,3,2.08,4.32,3.41a16.79,16.79,0,0,0,4.68,3.52,1,1,0,0,1,.45.63c.22,1.18,1.19,1.54,2.07,2,.28.16.44.55.65.83a2,2,0,0,0,.26.38c.79.6,1.66,1.12,2.39,1.77a14.06,14.06,0,0,1,3.09,3c1,1.63,2.71,2,4.08,3a23,23,0,0,1,2.11,2.19,7.93,7.93,0,0,0,1.54,1c.08.05.21.05.28.11.83.68,1.6,1.37,2.43,2a7.7,7.7,0,0,0,1.07.72c.21.09.43.18.63.29,1.29,1,2.55,2,3.82,2.94a1.34,1.34,0,0,0,.27.13c1.17.5,1.24.63,1.08,1.92.87-.38,1.39-.09,1.56.81,0,.15.13.41.22.41,1.37.15,1.71,1.56,2.71,2.21a20.24,20.24,0,0,1,2.91,2.94c.45.46,1.05.77,1.51,1.22a9.11,9.11,0,0,1,1,1.36,10.82,10.82,0,0,1,1.14,2,3,3,0,0,1,.08,2.1,6.2,6.2,0,0,0-.07,2.58c.11,1.06.48,2-.36,3.07-.46.58-.27,1.63-.59,2.37-.56,1.33-.83,2.81-2.12,3.8-.51.42-.72,1.2-1.2,1.75a2.11,2.11,0,0,1-1.63,2.19,2.73,2.73,0,0,0-.83.68c-.34.35-.63.76-1,1.1-.51.49-1.31.42-1.71,1.32-.28.63-1.46.83-2.22,1.28-.3.17-.79.41-.79.63,0,1.66-1.52,1.8-2.48,2.49-.49.35-1.09.55-1.6.87a39.14,39.14,0,0,1-5.69,3.61c-1.18.51-1.81,1.52-2.9,2-1.47.71-2.79,1.73-4.22,2.52-.85.48-1.85.69-2.69,1.18a11.78,11.78,0,0,0-1.77,1.54l-1.34,1.2c-1.27,1.12-2.51,2.27-3.81,3.35a5.77,5.77,0,0,1-1.43.65c-.18.07-.47,0-.58.1-1.24,1.31-3.29,1.59-4.29,3.27-.18.29-.75.37-1.15.51-.85.3-1.72.57-2.72.9l.65.69c-1.36.64-2.7,1.2-4,1.88-1.11.58-2.15,1.3-3.23,1.94-.34.19-.73.28-1.06.49a4.68,4.68,0,0,0-.95.83c-.48.59-.46,1.74-1.71,1.39a.54.54,0,0,0-.42.22c-1.31,1.91-3.31,2.72-5.42,3.32a1.6,1.6,0,0,0-1.14,1.07c-.26.59-1,1-1.51,1.45-1.16.92-2.32,1.83-3.53,2.68-.66.47-1.42.8-2.1,1.25a6.81,6.81,0,0,0-1.17,1c-.32.34-.53.76-1.13.55-.14-.05-.54.2-.54.31,0,.8-.58.88-1.16,1.11a6.07,6.07,0,0,0-2.49,2.28c-.33.41-1.06.57-1.62.83s-1.24.52-1.88.78c0,0-.05.06-.08.07a4.22,4.22,0,0,0-2.9,2.81c-.62,1.43-1.94,2.76-1.12,4.53,1.05,2.24,1.69,4.66,3.15,6.71a2.59,2.59,0,0,1-.28,3c-.72.54-2.58.44-3-.42-.86-1.74-2.25-1.33-3.43-.91-.69.24-1.85.58-1.76,1.82a.4.4,0,0,1-.08.28A10.46,10.46,0,0,1,193,339.9a6.57,6.57,0,0,1-3.65,1.06c-.75,0-1.91-1.44-2-2.31,0-.68-.26-1.34-.29-2a4.37,4.37,0,0,1,.33-1.24,3.57,3.57,0,0,0-.35-1.44,4.53,4.53,0,0,0-1.51-1c-1.44-.73-3-.33-4.54-.55-1-.15-1.38-.67-1-1.57a1.2,1.2,0,0,0,.1-.37c0-1.07.32-1.46,1.35-1.59l.78-.09c-.08-.86-.27-1.41-1.24-1.4-.61,0-.9-.39-1.11-1.05a2.31,2.31,0,0,1,.33-2.46c.28-.38-.15-1.29-.23-2s-.16-1.53-.22-2.3c0-.29,0-.58,0-.87-.11-1.41.46-1.66,1.79-2.19,1.75-.68,2,.93,2.91,1.47,1.42.83,2.8,1.76,4.48,1.83.44,0,1-.58,1.37-1,1.24-1.5,2.39-3.09,3.68-4.56a14.69,14.69,0,0,1,2.15-1.64,17.05,17.05,0,0,0,3.17-2.48,9.3,9.3,0,0,1,3.45-2.33,20.28,20.28,0,0,0,4-2.82c1-.83,1.64-1.95,2.52-2.86A8.51,8.51,0,0,1,211,301a18.69,18.69,0,0,1,4.35-2.19c.93-.3,1.63-1.25,2.49-1.8,1.25-.83,2.57-1.56,3.85-2.35,1-.58,1.92-1.18,2.87-1.8,2.12-1.38,4.19-2.86,6.36-4.15,1.33-.79,2.84-1.28,4.24-2,.86-.42,1.64-1,2.49-1.41s1.64-.66,2.45-1c.65-.28,1.28-.6,1.92-.93a2.71,2.71,0,0,0,.55-.41c.09-.08.13-.3.22-.32,1.24-.32,2-1.51,3.11-1.91a21.56,21.56,0,0,0,4.66-3,11,11,0,0,1,2.33-1.09,12.15,12.15,0,0,0,4.48-2.88,6.5,6.5,0,0,1,1.56-1c.39-.22.85-.33,1.24-.58a34.87,34.87,0,0,1,3.08-2.1c1.81-.93,3.34-2.26,5.09-3.27.6-.34.94-1.13,1.4-1.72.08-.1.1-.28.19-.34,1.38-.8,1.92-2.31,2.9-3.45a5.19,5.19,0,0,0,.76-2.07,20.28,20.28,0,0,0,.47-2.32c.1-.61.11-1.24.15-1.87,0-.38,0-.75.05-1.3-.72-.77-.82-2-1-3.19a4,4,0,0,0-.49-1.39c-.92-1.47-1.91-2.91-2.86-4.34-.48-.74-.9-1.53-1.39-2.27a5.25,5.25,0,0,0-.65-.6c-.24-.25-.46-.51-.68-.78s-.44-.55-.67-.81c-1-1-2-1.93-3-2.83-.51-.37-1-.76-1.55-1.11-.89-.58-1.8-1.14-2.71-1.71L256,232.64c-1.39-.87-2.8-1.73-4.16-2.65-1-.7-2-1.53-3-2.23a20.56,20.56,0,0,0-1.93-1,3.61,3.61,0,0,1-1-.64,8.6,8.6,0,0,0-3.73-2.39,12.08,12.08,0,0,1-4-1.94,55.48,55.48,0,0,0-5.1-3.37c-.32-.19-.83-.09-1.16-.28-.76-.41-1.43-1.06-2.22-1.42-1.56-.72-2.58-2.34-4.4-2.63-.1,0-.2-.17-.27-.28a6.18,6.18,0,0,0-3.73-2.26c-.39-.1-.71-.47-1.08-.68-1.12-.64-2.25-1.28-3.39-1.88a12.62,12.62,0,0,1-2.62-2c-1.07-1-2.23-1.89-3.36-2.82a21.83,21.83,0,0,0-1.94-1.54c-.65-.42-1.44-.66-2.07-1.1-1.82-1.24-3.58-2.56-5.39-3.82a8.05,8.05,0,0,0-1.47-.73c-.93-.38-1.87-.74-2.81-1.09a1,1,0,0,0-.67,0c-1,.5-2,1.05-2.93,1.57a2.72,2.72,0,0,1-.7.31c-.85.22-1.22.76-.93,1.53a8,8,0,0,1,0,5.59,3.74,3.74,0,0,1-1.26,1.44,5.48,5.48,0,0,1-2.49,1.43,3.14,3.14,0,0,1-2.43-.54,1.66,1.66,0,0,1-.59-1.3c.25-1.66.64-3.32,1-5a19.16,19.16,0,0,0,.34-2,.7.7,0,0,0-.47-.5c-.92,0-1.88-.27-2.7.59a2.27,2.27,0,0,1-1.55.47,4.85,4.85,0,0,1-4.21-1.81c-.38-.56-1.24-1.66-.22-2.68-.56.23-1.13.44-1.66.7-2,1-4,1.85-6,2.9-1.2.66-2.22,1.63-3.39,2.34-2.15,1.33-3.47,3.5-5.42,5a45.15,45.15,0,0,0-3.48,3.57c-.45.45-1,.75-1.48,1.21-1.56,1.69-3.08,3.43-4.61,5.15-.11.13-.2.3-.34.37-1.65.92-2.54,2.6-3.77,3.93-.56.61-1.17,1.16-1.75,1.75-.9.91-1.86,1.77-2.67,2.77s-1.57,2.3-2.4,3.42c-.54.71-1.22,1.32-1.81,2-1.07,1.24-2.11,2.52-3.2,3.73-.5.56-1.09,1.05-1.61,1.59-.83.87-1.63,1.77-2.46,2.64-.53.56-1.1,1.1-1.65,1.66-.78.77-1.57,1.53-2.31,2.33a15.49,15.49,0,0,1-1,1.34,26.65,26.65,0,0,0-3.64,3.19c-.71.92-1.51,1.78-2.21,2.72a2.59,2.59,0,0,1-1,.67,1.09,1.09,0,0,0-.76,1.1c-.08.88,0,2-1.16,2.45.44,1.29-2,1.17-1.29,2.68.11.2-.36.66-.49,1-.42,1.16-.79,2.32-1.19,3.48a1,1,0,0,1-.27.51c-1,.53-.74,1.4-.64,2.25a4.24,4.24,0,0,1,0,1.28c-.19.91-.47,1.8.23,2.65.11.15,0,.46,0,.69a2.07,2.07,0,0,0,1.05,1.9c.22.17.58.48.54.58-.31.75.15,1,.65,1.32s.62.87,1,1.28a2.88,2.88,0,0,0,1,.92c1.8.69,3.08,2.08,4.51,3.26a5.55,5.55,0,0,0,1,.54c1.1.54,2.48.83,3.22,1.69a11.29,11.29,0,0,0,2.88,2,33.72,33.72,0,0,0,3.23,1.45,4.71,4.71,0,0,1,.92.69c.15.12.24.35.41.41,1.12.45,2.25.89,3.4,1.29.41.15.83.2,1.24.32s1.1.35,1.14,1.08c0,.11.14.31.22.31a4.49,4.49,0,0,1,2.54,1,17.5,17.5,0,0,0,2.66,1.24c.78.42,1.52.9,2.27,1.37a.93.93,0,0,1,.42.41,2.76,2.76,0,0,0,1.78,1.6,13.21,13.21,0,0,1,1.6,1.24,19.81,19.81,0,0,0,1.95,1.06l2.88,1.48c.05,0,.14.07.15.12.37,1.31,1.57,1.53,2.59,2,.1,0,.23.06.27.13.77,1.6,2.55,1.32,3.75,2.07s2.68.61,3.9,1.11a23.61,23.61,0,0,0,4.25,1c.37.07.66.47,1,.66a19.5,19.5,0,0,0,2.07,1c.58.22,1.39,0,1.46,1,0,.09.25.23.39.23.65.05.63.45.56.93a7.8,7.8,0,0,1-.1,1.45,2.19,2.19,0,0,1-2.64,1.25,5,5,0,0,0-1.22.07,5.65,5.65,0,0,1,.11,1.08,3.37,3.37,0,0,1-.21.77,17.53,17.53,0,0,1,1.46,2.59c.33.88-1,2-2,1.8s-2-.49-2.94-.68a1.11,1.11,0,0,0-.83.19c-.61.49-.41,2.31.17,2.8.21.18.43.69.33.83-.6.93.08,1,.51,1.07a2.94,2.94,0,0,1,.25,1,6.18,6.18,0,0,1-.46,2,2.14,2.14,0,0,1-3,.76,5.41,5.41,0,0,1-1.24-2c-.2-.51-.4-.93-.92-.77a1.16,1.16,0,0,0-.67.9c0,.75-.12,1.24-1,1.31-.21,0-.46.36-.55.6-.64,1.66-1.68,1.93-3,.76-.44-.42-1-.6-.94-1.5s-.83-1.28-2.11-1.1c-.41-.37-.75-.62-1-.91s-.37-.47-.32-.63a1.17,1.17,0,0,0-.41-1.3,1.88,1.88,0,0,1,0-2.65l.2-.17a1.73,1.73,0,0,0,.16-2.84c-.73-.8-1.29-1.76-2-2.54s-1.69-1.46-2.52-2.2c-.67-.58-1.29-1.21-2-1.78-.87-.75-1.73-1.51-2.66-2.17a11.86,11.86,0,0,0-2-1,57.68,57.68,0,0,1-6.84-3.2c-1.33-.83-2.82-1.1-4.11-1.9a1.66,1.66,0,0,1-.44-.23c-1.21-1.42-2.91-2.24-4.31-3.42-.49-.42-1.28-.45-1.89-.75-1.59-.8-3.16-1.66-4.75-2.49-.25-.13-.52-.24-.79-.35a2.24,2.24,0,0,1-.62-.25c-1.51-1.33-3-2.74-4.52-4a40.27,40.27,0,0,1-6.22-5.81c-.22-.27-.33-.63-.53-.93a16.36,16.36,0,0,0-2.63-3.43.69.69,0,0,1-.18-.24c-.83-1.81-1.71-3.6-2.53-5.42a4.6,4.6,0,0,1-.24-1.28c-.17-1.54-.34-3.09-.48-4.63,0-.42,0-.87,0-1.29a15.35,15.35,0,0,1,1.66-7.4c.5-1.06.6-2.32,1.15-3.35.78-1.45,1.83-2.75,2.71-4.15,1.12-1.78,2.15-3.61,3.26-5.39.78-1.24,1.61-2.48,2.45-3.73s2-2.07,2.56-3.59c.38-1,1.52-1.78,2.28-2.69.42-.51.75-1.1,1.17-1.63s.83-.82,1.16-1.31c.72-1.09,1.31-2.27,2.07-3.34s1.76-2.28,2.67-3.39c.19-.22.55-.29.75-.5.41-.44.79-.92,1.17-1.39.18-.23.31-.51.51-.72,1-1,2-2,2.91-3,1.39-1.55,2.66-3.22,4.14-4.69a15.7,15.7,0,0,1,3.28-2.83,11.14,11.14,0,0,0,2.51-2.76,7.84,7.84,0,0,1,2.57-2.15c.58-.3.83-1.19,1.33-1.75,1.1-1.28,2.25-2.52,3.38-3.77a1.12,1.12,0,0,0,.28-.4c.3-1.36,1.42-2,2.36-2.85.16-.15.29-.35.46-.49l1.66-1.22c.23-.16.58-.19.76-.38,1.54-1.62,3.08-3.26,4.59-4.91a9.11,9.11,0,0,0,.65-1c.17-.24.38-.63.58-.64,1.07,0,1.25-.87,1.66-1.59.58-1,1.34-1.92,2-2.91a14.47,14.47,0,0,0,1.33-2.33,14.33,14.33,0,0,0,.27-1.89c.61-2.42,1.34-4.81,1.89-7.24a36.61,36.61,0,0,0,.48-3.91c.07-.52.16-1,.19-1.56.07-1.72.13-3.44.14-5.17,0-.59-.33-1.22-.2-1.77.28-1.27-.19-2.48-.16-3.71,0-1.55,0-3.1,0-4.64,0-1.1-.22-2.19-.26-3.29-.09-2.3-.1-4.6-.2-6.9,0-1.21-.25-2.42-.3-3.63s0-2.23,0-3.34a23,23,0,0,0-.24-3.1c-.32-1.86-.78-3.7-1.1-5.56-.19-1.15-.21-2.33-.35-3.48-.12-.91-.36-1.81-.49-2.72a20.12,20.12,0,0,1-.25-7,11.76,11.76,0,0,0-.15-2.94c-.15-2.27-.25-4.56-.45-6.82-.15-1.73-.41-3.45-.65-5.17a6.34,6.34,0,0,0-.3-.83c-.48.71-.83,1.22-1.18,1.75a6.89,6.89,0,0,0-.55,1c-.08.18-.15.54-.06.6.47.36.46.79.07,1.09a2.44,2.44,0,0,1-1.47.6c-1.45-.08-2.32-1.27-3.31-2.11-.28-.22-.06-1-.06-1.66A2.09,2.09,0,0,0,155,99c-.46.83-1,1-1.6.31a1.54,1.54,0,0,0-1.7-.5,10.09,10.09,0,0,1-2.21,0l2.74-4.27c-.56-.53-1-.67-1.24.26a3.08,3.08,0,0,0-.76-.35c-.87-.15-1.49-.35-1.14-1.52.16-.52-.27-.83-1-.66-1.66.41-3.37.73-5,1.14-1.48.36-2.94.81-4.41,1.2-1.12.29-2.23.58-3.36.83a18.36,18.36,0,0,0-3.61.76c-1.26.55-2.74.74-3.73,1.88-.44.49-1.19.69-1.71,1.11a15.53,15.53,0,0,0-1.75,1.69c-1.16,1.29-1.4,2.9-1.76,4.56a10.31,10.31,0,0,0-.41,2.65c0,.52-.12.94.41,1.28a.7.7,0,0,1,.31.49c-.2,1.42.52,2.7.58,4.09a35.06,35.06,0,0,1,.19,5.87c-.14,1.24,1,2,.65,3.21-.39,1.6.35,3.08.69,4.61a3.07,3.07,0,0,1-.1.77c0,.83-.35,1.72.36,2.45a.32.32,0,0,1,.09.17c0,1.2,0,2.41.09,3.61a9.93,9.93,0,0,0,.19,1.09c.16,1,.33,1.95.47,2.93,0,.22-.15.55-.06.66,1.07,1.12.7,2.61,1,3.91a17.41,17.41,0,0,1,.26,2.72c.08.74.18,1.48.32,2.2a18.59,18.59,0,0,0,.64,2.75,4.79,4.79,0,0,0,2.36,3.11c.8.35,1.8.62,1.89,1.86.79-.32,1.45-.23,1.79.67a.58.58,0,0,0,.36.29,55.33,55.33,0,0,0,5.56.86c.73,0,1.49-.59,2.25-.86,1-.35,2-.59,3-1a16.44,16.44,0,0,0,2.25-1.24,10.64,10.64,0,0,0,3.21-2.95c.26-.37.89-.47,1.2-.83,1-1.17,2.57-1.38,3.86-2,0,0,.07,0,.1,0,1.32.36,2.56-.41,3.82-.29a5.78,5.78,0,0,1,2.24,1.1c.15.09.13.56.09.83a8.8,8.8,0,0,1-.36,1c-.41,1.48,0,2.16,1.55,2.37a1,1,0,0,1,1,1.22c-.09,1.25-2.06,3-3.32,2.79-1-.15-1.51-.1-1.37,1,0,0-.1.09-.12.15s0,.12,0,.18c.25.07.67.08.71.21a8.4,8.4,0,0,0,1.86,2.66.31.31,0,0,1,.06.28c-.47,1,.1,1.88,0,2.82s-1.93,2.39-2.9,1.91-1.38-.09-1.7.77c-.49,1.3-1,2.62-1.55,3.88a8,8,0,0,1-1.35,1.86.92.92,0,0,1-.88-.06,15.11,15.11,0,0,1-2-2.34.93.93,0,0,0-1.15-.49c-.71.16-1.43.3-2.14.48a.83.83,0,0,1-1.13-.8,10.7,10.7,0,0,1,0-1.79,17.08,17.08,0,0,0,.09-1.89c-.05-.71-.62-.85-1.19-.69-.82.25-1.63.66-2.48.89-1.3.36-2.62.64-3.93.91a4.59,4.59,0,0,1-1-.1h-1.57c-1.36.07-2.6.5-4.09,0-1.28-.41-2.78-.5-4.18-.83a7.17,7.17,0,0,1-2.43-1.29,5,5,0,0,1-1.17-1,3.16,3.16,0,0,1-.3-1.14,3.22,3.22,0,0,1-2-2.15c-.29-.76-.72-1.48-1.08-2.22a24.92,24.92,0,0,1-1.16-2.38c-1-2.69-1.9-5.4-2.81-8.12-.57-1.72-1-3.52-1.65-5.2a39.94,39.94,0,0,1-2.27-10.66c-.23-2-.57-4-.79-6-.28-2.41-.57-4.82-.68-7.24a8,8,0,0,0-.37-3.11c-.07-.14.1-.38.11-.57a6.14,6.14,0,0,0,0-1c0-.39-.18-.77-.21-1.16-.11-1.43-.27-2.86-.25-4.29s.28-2.69.39-4a6.63,6.63,0,0,0,0-2.66,7.55,7.55,0,0,1,.11-2.35c0-.79,0-1.71,0-2.56.13-1.51.38-3,.5-4.5.14-1.73.15-3.46.34-5.19a8.71,8.71,0,0,1,.74-2.07c.32-.83.62-1.69,1-2.49a4.48,4.48,0,0,1,1.07-1.44,16,16,0,0,1,2-1.25,5,5,0,0,0,.93-.59c1.17-1.13,2.56-1.11,4.06-1s2.88-.23,4.32-.33a9.19,9.19,0,0,1,2.16,0,7.64,7.64,0,0,0,4.59-.64,1.12,1.12,0,0,1,.88-.06c1.42.77,2.9.09,4.33.19,1.16.08,2.37-.34,3.49-.15,2.49.42,5-.2,7.43.17a19.35,19.35,0,0,0,3.11-.21c1.43,0,2.87.11,4.29,0a12,12,0,0,1,3.83-.07c.54.13,1.25-.34,1.86-.54,2.45-.77,4.78-1.93,7.43-2a4.57,4.57,0,0,0,2.22-.67,7.12,7.12,0,0,1,4.08-.64A6.81,6.81,0,0,0,181,73.7c1.81-1,2.34-1.5,2.08-3.43A29,29,0,0,1,183,65a.17.17,0,0,0,0-.1c-.31-1.31-.7-2.61-.95-3.93-.29-1.56-1.53-2.35-2.49-3.39-.17-.18-.24-.46-.41-.66-.37-.46-.77-.89-1.13-1.36a2.34,2.34,0,0,1-.35-.77c-.2-.6-.37-1.21-.55-1.82Zm5.2,266.65a6.37,6.37,0,0,0,.15,2c.6,1.41,1.38,2.74,2.07,4.12a4.52,4.52,0,0,1,.23,1,11.8,11.8,0,0,0,.32,1.43c.21.66.73,1.33.65,1.94-.12.9.2.89.89.95,1,.1,2.18.05,2.58.79a18.16,18.16,0,0,0,.05,2.86c.27,1.54.61,3.05,0,4.59a2.34,2.34,0,0,0,2.7-1.34c.14-.27.28-.64.51-.73,1.05-.41,1.26-1.33,1.53-2.28s1.59-1.78,2.43-1.11a4.25,4.25,0,0,0,2.16.63l2.69.55c-.42-.64-.75-1.16-1.06-1.69a31.47,31.47,0,0,1-1.59-2.83,28.57,28.57,0,0,1-1-3c0-.12.1-.3.13-.46s.14-.41.07-.55c-.64-1.14,0-2.07.46-3a10.25,10.25,0,0,0,1.07-2.28c.39-1.94,2-2.53,3.45-3.07,1.21-.45,2.51-.55,3.39-1.66a2.7,2.7,0,0,1,.75-.49,23,23,0,0,0,2.18-1.32c.8-.62,1.47-1.4,2.27-2s1.92-1.4,2.9-2.05c.55-.35,1.16-.6,1.74-.91a11.27,11.27,0,0,0,2-1.11c.67-.56,1.1-1.42,1.78-2s1.16-1.82,2.48-1.43c.12,0,.33-.28.52-.39a9,9,0,0,1,2.33-1.27c1.08-.25,1.44-1.24,2.24-1.73.42-.25.6-.83,1-1.2.83-.83,1.74-1.64,2.63-2.42a7.42,7.42,0,0,1,1.21-.87c1.9-1.15,4.21-1.43,6-2.82,1.42-1.08,2.93-2.07,4.42-3.06.92-.62,1.86-1.2,2.8-1.78,1.31-.83,2.67-1.59,3.94-2.49a26.23,26.23,0,0,0,2.43-2c.74-.64,1.43-1.34,2.18-2a4.78,4.78,0,0,1,1.1-.73,25.48,25.48,0,0,0,3-1.28c1.87-1.16,3.62-2.49,5.46-3.71,1.08-.71,2.27-1.27,3.37-1.95a18.46,18.46,0,0,1,3.46-2.21,10.27,10.27,0,0,0,4.32-3,2.65,2.65,0,0,1,1.14-.9,7.11,7.11,0,0,0,3.18-2.37,21.76,21.76,0,0,0,2-2.61,48.19,48.19,0,0,0,2.9-4.34,21.73,21.73,0,0,0,1.33-4,6.51,6.51,0,0,0,.23-1.7,30.93,30.93,0,0,0,0-3.73,4.37,4.37,0,0,0-.76-2.27,32.09,32.09,0,0,0-3.09-3c-.34-.32-.75-.56-1.06-.9-.78-.83-1.43-1.8-2.28-2.54-2-1.72-4.17-3.19-5.74-5.34a.55.55,0,0,0-.41-.21c-1.29,0-2.15-.88-3.07-1.53-1.45-1-2.73-2.29-4.14-3.41s-3.21-2.38-4.74-3.65-2.79-2.49-4.18-3.76a38.77,38.77,0,0,0-3.52-3.16c-1-.69-1.5-1.75-2.62-2.36a24.76,24.76,0,0,1-3.36-2.85c-1.79-1.44-3.63-2.82-5.44-4.24-.83-.65-1.63-1.36-2.46-2a9.12,9.12,0,0,1-2.07-1.62c-.42-.6-.7-.92-1.3-.81a5.25,5.25,0,0,0-.71-.85c-.41-.34-1-.55-1.37-.91-.8-.7-1.42-1.73-2.33-2.16-2.49-1.16-4-3.34-6.13-4.92a22.58,22.58,0,0,0-2.75-1.92c-1.31-.73-2.86-1.11-4-2-2.41-1.87-4.94-3.7-6.66-6.29a43.15,43.15,0,0,1-2.27-4.24c-.32-.62-.47-1.33-.81-1.93-.51-.89-1.12-1.73-1.7-2.6.62-.55.8-1,.24-1.59a3.1,3.1,0,0,1-.69-1.62,35.13,35.13,0,0,1-.19-3.7c0-.88.2-1.76.14-2.63-.12-1.52-.37-3-.57-4.56-.07-.59-.1-1.19-.21-1.77-.24-1.31-.52-2.61-.78-3.91v-.2c-.09-1.25-.15-2.49-.3-3.71-.12-1-.41-2-.52-3-.16-1.3-.18-2.63-.35-3.94-.12-.87-.51-1.71-.56-2.59-.07-1.16.14-2.33.08-3.49,0-.91-.34-1.81-.44-2.72a15.42,15.42,0,0,1-.13-3,10.68,10.68,0,0,0,0-2.65c-.22-1.41-.16-2.86-.27-4.3-.08-1,.29-2.09-.39-3-.07-.09.15-.36.16-.55a24.86,24.86,0,0,0,0-2.73c-.11-1.31-.38-2.6-.49-3.92s-.06-2.49-.14-3.73-.27-2.49-.33-3.76c0-.73.24-1.47.16-2.19-.25-2.18-.59-4.35-.91-6.53a17.29,17.29,0,0,1-.31-2,4.33,4.33,0,0,0-.12-2,6.25,6.25,0,0,1-.32-2.23c-.09-1.62-.11-3.24-.22-4.87,0-.58-.25-1.15-.32-1.74a7.66,7.66,0,0,1,1.16-4.91c.69-1.16,1.51-2.21,3.12-2a3.7,3.7,0,0,0,.86-.2,9.75,9.75,0,0,1,1.78-.23c1.69.08,3.37.22,5.06.36,1.88.16,3.76.38,5.64.53,2.46.19,4.9.82,7.39.32a.76.76,0,0,1,.3,0c1.36.29,2.72.61,4.08.88a42.75,42.75,0,0,1,7.47,2.72c1.12.45,2.4.5,3.56.9,1.46.5,3.27,0,4.42,1.47a1,1,0,0,0,.54.22c1.42.37,3.09.14,4,1.72l.51.93-.23.17c.54.3,1.17.53.88,1.38a.47.47,0,0,0,.2.41A2.81,2.81,0,0,1,250.61,97c.35,1,1.07,2,1,3.22a10.4,10.4,0,0,1-.1,1.11,6.5,6.5,0,0,1-.36.86c1.41.22,1,1.11.85,1.87,0,.31-.23.78-.09.92.77.79.46,1.84.68,2.74a9.52,9.52,0,0,1-.25,3c.9,1,.9,1-.41,2.71a3.82,3.82,0,0,1,.76,4,1,1,0,0,0,.11.77c.36.54.3.89-.32,1.13-.07,0-.11.14-.21.29l.48.18c.17.49.29.79.37,1.09a2,2,0,0,1,.14.72c-.1.9-.61,2-.26,2.63.5.93-.17,1.14-.47,1.63a1.1,1.1,0,0,0,.2.36,1.54,1.54,0,0,1,.57,2.14,3.07,3.07,0,0,0-.07,1.38c0,1,.13,2,.19,3a5.19,5.19,0,0,0,.11,1.91c.33.71.19,1-.42,1.38a7.9,7.9,0,0,0-.81.62c1.14,1,.8,2.24.63,3.47a24.72,24.72,0,0,0-.17,3.22c0,1.19.13,2.37.15,3.55s0,2.53,0,3.79c0,.76,0,1.53,0,2.53.86.71.85.7.22,2.11a1.12,1.12,0,0,0,.05.65,1.33,1.33,0,0,1-1,1.77c-1,.41-2,.95-3.16,1.49-.63-.62-1.33-.3-1.92.26a2.07,2.07,0,0,1-2.08.47,2.31,2.31,0,0,0-1.29.29c-.77.33-1.49.83-2.28,1.1-1.12.42-2.3.64-3.42,1.06-.85.31-1.62.82-2.45,1.17-1.21.53-2.46,1-3.64,1.54a2.65,2.65,0,0,1-3.43-1.16c-.27-.78-.35-1.47-1.13-.35-.08.11-.31.1-.46.16-.63.24-1.24.51-1.87.74a4.25,4.25,0,0,1-1.22.39c-.8,0-1.57.67-1.32,1.26.46,1.13-.32,1.86-.78,2.68-.12.19-.71.21-1.06.14-1.24-.22-2.45-.58-3.7-.74-.36-.05-.8.41-1.2.63.24.32.45.88.73.93a18.45,18.45,0,0,0,3.78.33,9.36,9.36,0,0,1,4.43.61c.83.38.92,1.16.31,1.87L224,173.9l.79.43-.41,1.22c.3,0,.44,0,.5-.1,1-1.38,2-2.76,3-4.14a.54.54,0,0,0,.1-.39c-.15-.78.42-1.14,1-1.33a28.39,28.39,0,0,0,2.9-1.24c1.36-.67,3.08-.64,4.64-.92a6.39,6.39,0,0,0,1.66-.35,5.82,5.82,0,0,1,4-.75.8.8,0,0,0,.57,0,3.79,3.79,0,0,1,3.22-.49,2.36,2.36,0,0,0,1,0c1.61-.25,3.21-.54,4.81-.8a6.66,6.66,0,0,0,2-.29,26.1,26.1,0,0,0,4.51-2.91c.51-.41.85-1.24,1.41-1.8.15-.16-.06-.65.1-.83,1.21-1.41.57-3,.37-4.49a6.47,6.47,0,0,1,0-2.28,4.63,4.63,0,0,0,.18-1c0-1-.09-2-.1-3,0-1.24.07-2.49,0-3.73s-.51-2.69.14-4c.08-.17-.11-.47-.19-.7a3.85,3.85,0,0,1-.31-1.05c0-1.28.11-2.55.12-3.83,0-.37-.24-.76-.19-1.12.09-.66-.31-1.2-.38-1.77a29,29,0,0,1-.07-4.06c0-1.17.3-2.35.3-3.52,0-1.8-.11-3.61-.2-5.39-.07-1.41-.19-2.8-.26-4.2a20.43,20.43,0,0,1,0-2.07c0-1.27.05-2.53.08-3.8a1.35,1.35,0,0,1-.28-1.37,11.71,11.71,0,0,0,.21-3.54c-.21-2.64-.58-5.26-.85-7.88-.06-.71.11-1.44,0-2.14-.15-1.56-.31-3.13-.61-4.67s-.09-2.9-1.17-4.25c-.83-1-2-1.31-2.91-2.07a14.82,14.82,0,0,0-1.34-.89c-.54-.12-1.21-.29-1.89-.42-1.56-.32-3.13-.64-4.71-.94-.74-.13-1.5-.18-2.25-.31a4.57,4.57,0,0,1-1.27-.33,4.56,4.56,0,0,0-3.15-.53,6.61,6.61,0,0,1-3.47-.34,4.76,4.76,0,0,0-2.26-.41,3.76,3.76,0,0,1-2-.17,8,8,0,0,0-4.79-1,16.67,16.67,0,0,1-1.87,0c-1.24,0-2.48-1.38-3.77-.07,0,0-.13,0-.19,0-1.36-.44-2.75.05-4.19-.34a32.77,32.77,0,0,0-5.39-1.08,44.49,44.49,0,0,0-4.64-.52c-.58,0-1.17.09-1.76.08-1.81,0-3.63-.12-5.45-.18a13.64,13.64,0,0,1-5.16-1,4.6,4.6,0,0,1-2.82-3.29,14.05,14.05,0,0,1-.2-4,25.86,25.86,0,0,1,.83-4.7,2.55,2.55,0,0,1,1.27-1.68,9.66,9.66,0,0,0,5-2.61c1.28-1.44,2.57-2.87,3.82-4.35.2-.24.19-.68.27-1a5,5,0,0,1,.14-.67c.37-1,1.9-1.66.85-3,0,0,0-.13,0-.19,0-1.45.71-3-.36-4.32a1,1,0,0,1-.1-.29,19,19,0,0,0-2.59-6.1c-.41-.6-1.07-1-1.5-1.61-1.05-1.44-1.66-3.29-3.76-3.65-.14,0-.23-.25-.37-.32a6.91,6.91,0,0,0-2.07-1,30.43,30.43,0,0,0-3.7,0c-1.46,0-2.87-.19-4,1.16-1,1.15-2.31,2-3.4,3a5.74,5.74,0,0,0-.83,1.66c-.57,1.15-1.4,2.2-1.16,3.6,0,0,0,.06-.06.08a5,5,0,0,0-.72,3.89,1.89,1.89,0,0,1-.1.55,4,4,0,0,0-.15,1.65,7.15,7.15,0,0,1,.2,3.61,2.34,2.34,0,0,0,.23,1c-.18.6-.33,1.14-.54,1.87l1-.32.83,1.89c.11.26.07.64.25.8.8.72,1.66,1.39,2.49,2a1.91,1.91,0,0,0,.73.28,1.7,1.7,0,0,1,1.48,1.78c.07.88-.13,1.81.51,2.6.14.18.05.57,0,.85a9.31,9.31,0,0,0-.32,2.24c.17,1.51.57,3,.81,4.49a2.77,2.77,0,0,1-.17,1.24c-.2.56-.61,1.07-.75,1.63a4.06,4.06,0,0,1-3,3c-1.32.18-2.61.28-3.91.48-2.78.41-5.56.86-8.32,1.34a9.63,9.63,0,0,0-2.23.7c-.7.3-1.29.94-2,1.11a32.22,32.22,0,0,1-4.15.63,16.12,16.12,0,0,0-2,0c-.88.22-1.71.56-2.58,0-.14-.08-.39,0-.58,0l-3.32.32a.11.11,0,0,1-.09,0c-1.22-1-2.49-.25-3.73,0a3.37,3.37,0,0,1-2.4-.22,2.73,2.73,0,0,0-1.3-.41c-1.35,0-2.71.19-4.05.34a14.8,14.8,0,0,1-1.57.36c-1.21,0-2.44-.16-3.66-.22a5.21,5.21,0,0,0-3.2.39c-.58.34-1.28.5-1.56-.42-.53.2-1.22.66-1.41.5-1.24-1-2.53.21-3.75-.25-.12-.05-.41.12-.5.26-.39.65-.8.41-1.25.08a.89.89,0,0,0-.52-.21,14.15,14.15,0,0,0-3.48.71,9.89,9.89,0,0,0-2,1.74,8.22,8.22,0,0,0-1.18,2c.41,1-1.05,1.13-1.25,2,.08.28.35.69.23.88a3.72,3.72,0,0,0-.49,2.07c0,1.06-.41,2.11-.52,3.18-.06.71.42,1.48-.23,2.14,0,0,0,.14,0,.18a1,1,0,0,1-.1,1.54c0,.75.11,1.24.09,1.75,0,.79-.48,1.84-.12,2.31,1,1.35-.12,2.56,0,3.83A13.73,13.73,0,0,1,115,109c-.07.58-.16,1.17-.25,1.8.72.57.49,1.36.38,2.18a12.75,12.75,0,0,0-.09,2.76c.08,1,.42,1.92.5,2.9.08.78,0,1.57,0,2.36,0,.56.16,1.12.19,1.68a13.67,13.67,0,0,0,0,1.81c.21,1.13.63,2.22.8,3.36a34.26,34.26,0,0,0,.21,3.51c.32,1.24.14,2.64,1,3.73a1,1,0,0,1,.09.58c0,1.38,0,2.78.11,4.15a1.14,1.14,0,0,0,.42.82c.76.42.64,1.08.62,1.73a2.42,2.42,0,0,0,0,.76c.19.6.48,1.16.67,1.76s.49,1.24-.15,1.82c-.08.08,0,.56.1.58,1.59.24,2,1.16,1.66,2.64a.23.23,0,0,0,0,.09c.51,1,1.06,2,1.53,3,.25.55.35,1.17.55,1.76a7.52,7.52,0,0,0,.64,1.65,2.47,2.47,0,0,1,.36,2.42,2.08,2.08,0,0,0,.65.4c.64.14.88.41.92,1.14a1.91,1.91,0,0,0,1.38,2c.19,0,.36.29.48.48a3.61,3.61,0,0,0,3.9,2,2.45,2.45,0,0,1,1,.19c1.22.36,2.24,1.51,3.73.83,1-.46,2.19.06,3.36-.55,1.41-.72,3.22-.48,4.76-1.2a20.56,20.56,0,0,1,3.18-1.09c.63-.18,1.21-.42,1.92.25s.46,1.55,1,1.91c.87.56,1.89.83,2.38,1.9.18.39.59.66.83,1a5,5,0,0,1,.35,1,6.87,6.87,0,0,0,.68-1.79c0-.93-.15-1.89-.12-2.83,0-1.56.83-2,2.21-1.39.12.06.25.18.36.17a12.26,12.26,0,0,0,1.59-.38c.09,0,.16-.45.08-.61a10.56,10.56,0,0,0-.71-1.08,23.72,23.72,0,0,1-1.72-2.7,2.07,2.07,0,0,1,0-1.72c.52-.73.24-1-.27-1.48a1.46,1.46,0,0,1-.45-1.13,3,3,0,0,1,1.52-1.82c.26-.15.41-.49.6-.75a19.37,19.37,0,0,0-3.54.66c-.05,0-.08.11-.13.15-.83.83-1.59,1.75-2.49,2.49-1.15,1-2.41,1.85-3.63,2.74-1.91,1.39-4.24,1.61-6.4,2.29-.83.25-1.79-.24-2.57.43-.09.08-.33,0-.49,0-1-.23-2.07-.39-3.08-.72-1.51-.49-3-1.07-4.47-1.68a3.55,3.55,0,0,1-1.06-.83c-.64-.66-1.24-1.34-1.86-2-1.3-1.51-2.9-2.88-2.54-5.2a1.36,1.36,0,0,0-.06-.29c-.29-1.24-.62-2.47-.87-3.71-.08-.43,0-.91,0-1.36-.08-.7-.24-1.4-.36-2.1-.2-1.25-.36-2.49-.6-3.73s-.63-2.53-.83-3.82c-.13-.87,0-1.78-.08-2.66-.2-1.46-.77-2.9-.31-4.4a.51.51,0,0,0-.06-.38c-.69-.34-.46-1-.55-1.54-.26-1.53-.47-3.05-.66-4.58a16.31,16.31,0,0,1,0-1.85,11.69,11.69,0,0,0-.09-1.31c-.09-.93-.18-1.87-.29-2.8s-.29-2.17-.41-3.25c-.22-2.23-.39-4.46-.61-6.7a6.18,6.18,0,0,1,.65-3.53A8.59,8.59,0,0,1,122,99.44c1.82-1.62,3.77-3.1,5.72-4.56.42-.32,1.21-.72,1.55-.55.82.42,1.17-.12,1.72-.41A13,13,0,0,1,133,93.2c.41-.13.82-.19,1.24-.3,1-.26,2-.55,3-.77a18.61,18.61,0,0,0,2.9-.56,21.94,21.94,0,0,1,6.71-1.7,27.57,27.57,0,0,1,4-.1c2,.17,4.06.52,6.08.77,2.37.3,4.75.56,6.13,2.9l.67,1.1a3.36,3.36,0,0,0,.61.83,4,4,0,0,1,1.25,3.27c0,.83.24,1.85-.14,2.49s-.33,1.2.14,1.52c.95.62.59,1.24.26,2a1.86,1.86,0,0,0-.16.81c0,.78.13,1.55.18,2.15s.46.78.45,1.09c0,.77-.26,1.53-.26,2.29,0,1,.14,1.92.24,3.13,0,.08-.32.51-.23.8a3.2,3.2,0,0,1-.24,2.55c-.09.19.1.55.19.83a4.73,4.73,0,0,1,.35.8c.18,1.35.3,2.71.48,4a1.55,1.55,0,0,0,.33.75,1.14,1.14,0,0,1-.06,1.61l-.1.09a3.54,3.54,0,0,0-.44.58c1.07-.24.87.36.85.86a3.76,3.76,0,0,0,.06,1.06c.43,1.65,1.34,3.22,1.09,5.05-.13.95-.14,1.92-.2,2.88-.12.21.24.37.24.54,0,1.14,0,2.29-.1,3.42a4.48,4.48,0,0,0,0,2.38,10.57,10.57,0,0,1,.42,3.26,14.77,14.77,0,0,0,0,1.63c.3,1.52.7,3,.13,4.56a4.69,4.69,0,0,0-.28,2.86c.37,1,.18,2.07.56,3.05.19.49.41,1.19.2,1.56-.54,1,0,1.85.14,2.72a9.4,9.4,0,0,1,.1,4.68c-.2.7-.89,1.39,0,2.1.08.06,0,.32,0,.48-.17,1.27.07,2.55-.54,3.82a26.41,26.41,0,0,0-.82,2.69,47.66,47.66,0,0,0-1.12,5.1,4.47,4.47,0,0,1-.59,1.15c-.24.66-.38,1.1-.57,1.52s-.72,1-.59,1.23c.37.65,0,.95-.3,1.4-.73,1-1.4,2-2,3.05s-1.21,1.54-2.36,1.39c-.92.76-.38,2.45-2,2.66a.19.19,0,0,0-.13.14c-.13,1.51-1.66,1.91-2.37,3-.2.29-.45.7-.72.75a3.67,3.67,0,0,0-1.93.9,10.73,10.73,0,0,0-2.59,2.66c-1.14,1.87-3.15,3.1-3.93,5.24a.46.46,0,0,1-.29.27c-1.32.25-1.6,1.61-2.4,2.39a17.41,17.41,0,0,1-3,2.52,2.09,2.09,0,0,0-.42.42c-1.05,1.27-2,2.63-3.18,3.82a33.35,33.35,0,0,0-3,2.72c-.88,1.12-2.27,1.66-2.75,3.1,0,.1-.19.18-.3.25-1.34.87-2.07,2.23-3,3.44a32,32,0,0,1-3,2.85c-.36.35-1,.86-.89,1.17a1.17,1.17,0,0,1-.73,1.46,3,3,0,0,0-1.74,2.3c-.08.41-.7.69-.83,1.1-.24.94-.5,1.76-1.51,2.16-.27.11-.45.45-.65.71-.39.49-.73,1-1.14,1.51-.57.68-1.24,1.29-1.77,2-.22.29-.13.81-.34,1.11-.59.83-1.25,1.63-1.91,2.41-.26.32-.73.51-.88.86a6.62,6.62,0,0,1-.88,2,24.18,24.18,0,0,0-2,3.73,3.16,3.16,0,0,1-.76.83c-.68.57-2,.63-1.51,2.07,0,.07-.07.18-.12.27-.91,1.83-1.86,3.65-2.73,5.51a3.09,3.09,0,0,0-.46,1.88c.35,1,.14,1.58-.64,1.87a8.76,8.76,0,0,0,0,2.2,4,4,0,0,1,0,2.61c0,.06.09.17.12.26.35,1.17.72,2.33,1,3.51a1.13,1.13,0,0,1-.13.86c-.49.69-.06,1,.42,1.41a3.75,3.75,0,0,1,.85.79c.77,1.26,1.49,2.57,2.23,3.85a.39.39,0,0,0,.23.17c.71.05.8.59,1,1.12a2.38,2.38,0,0,0,.47.61l1.35,1.68a9,9,0,0,0,1.06,1.24c1.21,1,2.53,2,3.69,3.05s1.81,2.1,2.82,3a12.06,12.06,0,0,0,2.27,1.38,15.12,15.12,0,0,0,1.66.83c1.16.51,2.35.95,3.51,1.47.5.23,1.16.49,1.34.92.36.8,1,1,1.69,1.3.95.49,2.17.39,2.9,1.35.28.37.51.85.89,1.06,1.07.6,2.21,1.08,3.33,1.6.91.42,1.84.83,2.74,1.27a7.9,7.9,0,0,0,1.66.85c2,.42,3.88.88,5.21,2.57.06.07.18.1.25.17.51.41,1,.86,1.51,1.3s.95.87,1.45,1.28c.8.56,1.66,1,2.47,1.59.14.1.34.33.31.45-.28,1.14.76,1.05,1.24,1.11,1.49.18,2.07.65,2,1.79.58.54,1.13,1.1,1.66,1.7,1,1.24,1.24,2.8.3,3.78-.51.52-1.07,1-1.61,1.5l.11.38c.51.13,1.09.46,1.53.34,1.19-.33,1.85,0,2.11,1.19a.45.45,0,0,0,.12.27c.23.16.53.44.7.38s.64-.47.59-.65c-.28-1.24.72-1.56,1.43-2s1.08.11,1.48.57c.1.11.34.09.44.2.34.32.65.67,1,1s.48.62.73.92a3.41,3.41,0,0,0,.34-1.21c-.05-.38-.42-.7-.66-1-.08-.12-.3-.25-.29-.35.16-.83-.36-1.52-.47-2.24a6.53,6.53,0,0,1,.5-3c.28-.83,1.93-1,2.56-.33a1.94,1.94,0,0,0,2.71-.1,10.48,10.48,0,0,0-1.74-2.07,1.75,1.75,0,0,1-.76-1.88,1.6,1.6,0,0,1,1.62-1.25,16.32,16.32,0,0,0,2.42-.17,2.28,2.28,0,0,0,.67-.26c-.11-.17-.19-.41-.35-.51-1.5-.69-3-1.36-4.56-2a1,1,0,0,0-.77.06,2.11,2.11,0,0,1-2.17-.06c-.75-.3-1.48-.34-2.19-.58a25.82,25.82,0,0,1-3.91-1.48,36.58,36.58,0,0,1-3.48-2.57,6,6,0,0,0-2.08-1.25c-1.61-.31-2.22-1.82-3.45-2.57s-2.19-1.63-3.28-2.45c-.46-.34-.95-.66-1.42-1s-.86-.83-1.29-.83a3.91,3.91,0,0,1-2.43-1.25c-.75-.56-1.44-1-2.18-1.43s-1.33-.8-2-1.17a1.92,1.92,0,0,0-1-.38,3.75,3.75,0,0,1-2.79-.83c-1-.58-2-1.1-3-1.66q-2.37-1.28-4.73-2.56a1.1,1.1,0,0,1-.28-.29,9.12,9.12,0,0,0-4.45-2.85,2.76,2.76,0,0,1-1.15-.6c-1.72-1.57-3.41-3.18-5.08-4.8-.42-.38-.64-1-1.1-1.28-2.39-1.36-2.49-3.91-3.17-6.11-.23-.74.22-1.66.23-2.49,0-1.46,1.18-2.67.86-4.19,0-.11.18-.27.25-.41.39-.86.77-1.74,1.18-2.6.33-.7.72-1.38,1.06-2.07a27.84,27.84,0,0,1,1.29-2.63,26.75,26.75,0,0,1,2.61-3.81c2.18-2.46,4.5-4.8,6.76-7.19,1.11-1.18,2.24-2.34,3.35-3.52a34.93,34.93,0,0,1,2.62-2.8,20.33,20.33,0,0,0,4.39-5,12.81,12.81,0,0,1,1.36-1.75c.79-.92,1.61-1.81,2.39-2.73s1.64-2,2.47-3,1.44-1.69,2.17-2.53c.17-.2.38-.36.56-.55.83-.83,1.74-1.61,2.49-2.51,2.07-2.46,3.86-5.16,6.58-7a2.69,2.69,0,0,0,.44-.51,9.12,9.12,0,0,1,1-1.3c1.29-1.18,2.69-2.25,3.95-3.47a33.35,33.35,0,0,0,2.22-2.69c.1-.12.29-.16.42-.26.38-.3.77-.6,1.14-.93a11.17,11.17,0,0,1,.86-.83c2-1.38,4-2.75,6-4.11A23.61,23.61,0,0,1,176.3,193c.93-.28,1.85-.6,2.95-1a2.21,2.21,0,0,1-.52-2.59c.29-1.18,1.24-1.81,2-2.65a2.51,2.51,0,0,1,2.85-.76,1.36,1.36,0,0,0,1.66-.6,2.62,2.62,0,0,1,2.33-1.43c.45,0,.91,0,1.37.06,1,0,2.57,1.69,2.43,2.65-.25,1.66.15,2.22,1.8,2.39a9.31,9.31,0,0,1,1.18,0c.32.09.78.33.83.58a31,31,0,0,1,.42,3.07c.78.42,1.79,1,2.84,1.43,1.34.58,3,.38,4,1.84,0,.06.2,0,.27.06.68.37,1.37.73,2,1.13.25.15.42.42.66.58l4.06,2.49a13.61,13.61,0,0,1,2.62,1.58,25,25,0,0,0,4.82,4.31A3.47,3.47,0,0,1,218,207a3.34,3.34,0,0,0,2.35,1.35c.78.15,1.51.3,1.58,1.32a2.07,2.07,0,0,1,2.28,1,.63.63,0,0,0,.28.28,7.85,7.85,0,0,1,3.57,2.36c.09.11.31.11.44.19,1,.62,1.93,1.24,2.88,1.88a10.31,10.31,0,0,0,.83.65c.83.44,1.72.78,2.53,1.25,2.32,1.38,4.59,2.84,6.91,4.21,1.56.91,3.17,1.73,4.76,2.58a15.56,15.56,0,0,1,3.64,2.07c1,.9,2.25,1.66,3.33,2.54a10.76,10.76,0,0,0,1.51.87c1.24.72,2.84,1.18,3.7,2.23,1.09,1.32,2.75,1.49,3.89,2.71s3.73,1,4.25,3.31c0,.11.2.16.29.26.46.5.9,1,1.36,1.51.17.21.64.19.83.41,1,1.3,2,2.64,2.93,4a21.31,21.31,0,0,1,1.33,1.93,30.55,30.55,0,0,1,1.84,3.49,17.73,17.73,0,0,1,.88,3.13,22.5,22.5,0,0,1,.74,3.81,11,11,0,0,1-.48,2.86,9.76,9.76,0,0,1-.42,1.31,7.61,7.61,0,0,1-.26,1.87,12.21,12.21,0,0,1-1.34,2.07,27,27,0,0,1-1.87,2.28,25.08,25.08,0,0,1-2.79,2.76c-1.1.83-2.38,1.46-3.56,2.2-.33.21-.59.64-.93.69a4.16,4.16,0,0,0-2.59,1.66,4.65,4.65,0,0,1-1.43.77c-.48.24-1.13.5-1.66.83-.7.44-1.35,1-2,1.45s-1.41.69-1.66,1.24c-.46,1-1.43,1-2.17,1.46s-1.73,1-2.6,1.53c-1.73,1-3.46,2-5.22,2.94-1.13.61-2.3,1.16-3.46,1.71a26.06,26.06,0,0,1-3.58,1.6c-.76.22-1.58.06-1.52,1.21,0,.09-.15.23-.26.28-.83.42-1.66.86-2.49,1.25-.52.23-1.1.34-1.61.59a17.68,17.68,0,0,0-1.6,1c-.69.41-1.37.88-2.07,1.3-.85.51-1.73,1-2.57,1.49-.56.35-1.08.79-1.61,1.2a7.47,7.47,0,0,1-.77.59c-1.7.93-3.43,1.82-5.13,2.76a5.63,5.63,0,0,0-1.46,1.06,3.43,3.43,0,0,1-1.92,1.08,4.83,4.83,0,0,0-3.25,1.86,3,3,0,0,1-1.86,1.09c-.68.12-.79.33-.83.93a2.82,2.82,0,0,1-.51,1.24,8.93,8.93,0,0,1-1,1.21,3.54,3.54,0,0,1-.82.72c-1.62.87-3.47,1.24-4.93,2.48-1.07.93-2.46,1.51-3.54,2.44a31,31,0,0,0-2.75,3c-.44.49-.9,1-1.35,1.45s-.66.71-1,1a19.47,19.47,0,0,0-2.47,2.32,2.88,2.88,0,0,1-2.45,1.41,6.52,6.52,0,0,1-2.6-.25,10,10,0,0,1-2.05-1.84A2.58,2.58,0,0,0,182.24,319.59Zm8.51-117.5c-.05-.22-.28-.63-.16-.88a.83.83,0,0,0-.31-1.13.64.64,0,0,0-.19-.08c-.29-.1-.86.24-1.11.54a10.58,10.58,0,0,0-1,1.77c-.21.36-.61.83-.51,1.1.17.51.6,1.21,1,1.28s1-.52,1.34-.94A11.49,11.49,0,0,0,190.75,202.09Zm-9-4.87a8.38,8.38,0,0,0,1.68-.66c.23-.14.22-.67.31-1a3.93,3.93,0,0,0-.89-.19,13.12,13.12,0,0,0-1.66.14,11.86,11.86,0,0,0-1.21.29,9.17,9.17,0,0,0,.85,1.19c.13.17.48.15.92.25Zm11.9-2.38c-1.83-.51-2.39-.36-2.88.7C191.38,195.92,192.93,195.57,193.69,194.84Zm26.63-30.1,2.17.21c-1.07-1.35-1.69-1.41-2.17-.22Zm-33.81,23.64,1.05,1.29c.14-.15.42-.37.42-.42-.25-.44-.54-.86-.83-1.28ZM157.61,94.9c.83.06,1.3-.37,1.42-1.33-1.24-.36-1.18.6-1.42,1.32Z"/><path class="cls-1" d="M177,110.73a12,12,0,0,1,.71-2.12c.16-.31.69-.42,1-.63a11.25,11.25,0,0,1,.45,1.14,2,2,0,0,1,0,.6c0,.3.11.74,0,.88a2,2,0,0,1-1,.37A4.9,4.9,0,0,1,177,110.73Z"/><path class="cls-1" d="M190.83,108.26a6.66,6.66,0,0,1-1.68-.26,1,1,0,0,1-.44-.87,1.53,1.53,0,0,1,1.62-1.43,1.51,1.51,0,0,1,.72.24.64.64,0,0,1,.28.54C191.2,107.11,191,107.72,190.83,108.26Z"/><path class="cls-1" d="M189.89,167.48c-.66-.3-1.87.28-1.85-.95,0-.54.61-1.18,1.11-1.55.3-.23,1.68,1.07,1.59,1.45S190.71,167.59,189.89,167.48Z"/></g></svg>