<svg id="Layer_1" data-name="Layer 1" xmlns="http://www.w3.org/2000/svg" viewBox="0 0 370 370"><g id="_2UlzJH.tif" data-name="2UlzJH.tif"><path d="M21.28,316.32c-1.48-1.23-2.86-2.3-4.15-3.46-1.87-1.69-1.61-4,.27-5.51a23.19,23.19,0,0,0,2.91-3.51l-.65-.64a9.94,9.94,0,0,1,2.71-.94c2.21-.12,3.21-1,3.59-3.29.16-1,2-1.84,3.18-2.37a11.67,11.67,0,0,1,3.92-.76,2.58,2.58,0,0,1,1.89.76,6.36,6.36,0,0,1,1,6.55c-.28.81-.57,1.61-.85,2.4,4.72,2.32,8.47,0,9.15-4.83.62-4.39-.57-8-2.35-11.88a35.84,35.84,0,0,1-2.39-9c-1.18-6.87-2.37-13.75-3.08-20.67-.43-4.19,0-8.47.08-12.71,0-5.42-.51-10.9.11-16.24,1.23-10.8,3.16-13,13.53-16,5.42-1.58,11.27-1.64,16.9-2.54C78,210,89,208.09,99.94,206.27a18.31,18.31,0,0,1,2-.4c6.18-.33,9.47-3.86,10.72-9.65,1.41-6.46,2.85-12.91,4.23-19.38,1-4.73,2.75-9.49,2.71-14.22,0-5.75,2.47-10.82,2.85-16.36.34-4.92-4.85-10-10.12-9.93q-6.51.16-13,.26c-4.1.07-8.19.18-12.28.12-6.62-.11-13.24-.42-19.85-.5a29.27,29.27,0,0,0-6.33.66c-5.52,1.17-10.71-1.81-11.67-7.4a80.11,80.11,0,0,1-1-13.41c0-6.19.45-12.38.72-18.57.33-7.55.92-15.09.92-22.64,0-4.71-.74-9.26-4.44-13.13-1.7-1.77-1.84-5.17-2.29-7.9-.12-.72,1.12-2.2,1.95-2.39s1.9.82,2.81,1.4a8.9,8.9,0,0,1,1.34,1.27,18,18,0,0,0,1.11-1.53A12.82,12.82,0,0,1,51.64,50a24.75,24.75,0,0,1,3.13-2.51c.94,1.32,1.93,2.61,2.8,4,.22.35.07.94.13,2.2A27.36,27.36,0,0,1,61,51.52c1-.46,2.21-1,3.13-.77.69.18,1,1.58,1.56,2.43.36.58.61,1.41,1.14,1.7,4.43,2.44,4.76,4.51,1.13,8a5.67,5.67,0,0,1-1.31.72c3.94,4.15,4.56,6.36,2.18,9A9.2,9.2,0,0,1,64.39,75c-1.36.36-2.06.66-2,2.21.41,7.18.76,14.36,1.1,21.54.24,5.33.42,10.67.66,16,.13,2.87,1.26,3.94,4.88,4.19s7.21.15,10.81.36c7.5.43,15,1.44,22.48,1.33,9.3-.12,18.58-1.13,27.87-1.77,2-.13,3.24-1.34,3.14-3.18-.17-3.27.05-6.91-1.3-9.71-3.65-7.56-2.86-15.15-1.28-22.81.9-4.34,5.89-7.74,10.32-7.79s8.68-.31,13-.25a5.47,5.47,0,0,1,3.38,1.37c4.87,4.64,8.85,10.14,8.07,17.07-.52,4.6-1.33,9.64-4.89,13.32a10.21,10.21,0,0,1-3.86,2.48c-4.31,1.51-4.35,1.42-6.23,6.45,1.69.37,3.34,1.07,5,1.05,9.73-.11,19.47-.42,29.2-.6,6.23-.12,12.46.12,18.67-.23,10.68-.6,21.43-.17,32-2.34,3-.62,6.23-.3,9.33-.59,5.71-.55,11.4-1.34,17.11-1.82,5.42-.44,10.87-.5,16.29-.92,10-.79,20.05-1.4,29.52-5,2.75-1,5.08-3.22,7.62-4.83a45.51,45.51,0,0,1,4.74-2.82,5.19,5.19,0,0,1,6.6,1.44c1.62,2,1.6,4.31-.5,6.7.74-.1,1.5-.15,2.23-.3,2.55-.55,5.08-1.23,7.65-1.66,2.34-.39,4.33,1.32,4.68,4.09.27,2.12-.74,3.47-3,3.7-1,.1-1.89.43-2.84.58s-1.83.2-3.46.37c2.4,1.1,4.22,1.66,5.71,2.7,2.91,2,3.78,4.5,2.55,6.28s-4.77,1.4-7.43-.42c-1.66-1.13-3.5-2-5.25-3l-.71.91a6.93,6.93,0,0,0,1.07,1.82c2.63,2.33,3.83,5.17,3,8.63-.23,1-1,2.54-1.54,2.55a4.8,4.8,0,0,1-3.22-1.4c-.75-.75-.93-2.06-1.61-3.74a29.41,29.41,0,0,1-2.82,3.42c-.95.85-2.55,2.22-3.2,1.92a5.52,5.52,0,0,1-2.81-3.36,31.31,31.31,0,0,1-.28-6.93c0-2.79-1.22-3.68-4-3.41-13.85,1.32-27.43,4.61-41.43,4.9-6.38.14-12.73,1.58-19.1,2.37a23.1,23.1,0,0,1-2.6-.16c-3.09.07-6.19.06-9.27.31-2.71.22-5.4.72-8.09,1.15-6.24,1-12.45,2.11-18.71,3a114.49,114.49,0,0,1-15.08,1.53c-10.09.07-20.2-.38-30.3-.54-3.64-.06-6.49,1.32-9.46,3.81-3.87,3.24-3.07,6.69-3,10.71a84.7,84.7,0,0,1-1.28,15.4c-1,6.28-2.54,12.49-4,18.68-1.38,5.65-3,11.25-4.59,16.83-1.3,4.5,1.89,10.08,6.38,11,2.28.48,4.49,1.54,6.77,1.68,7.47.48,15,.93,22.44.87,9.27-.07,18.53-.58,27.78-1.07,5.33-.28,11,.09,15.86-1.63,4.65-1.63,9.14-1.58,13.73-1.78,7.17-.32,14.36-.44,21.53-.41,3.89,0,5.83,2.9,7.11,6.1,2.59,6.45,2.34,13.21,1.43,19.89-1.15,8.47-3,16.85-4,25.33-1.46,12-2.43,24-3.72,36-.29,2.7,1,3.17,3.21,3.14s4.68.37,7,.13a22.54,22.54,0,0,0,5.06-1.71c.25-.09.4-.48.65-.57,1.83-.63,3.82-1.91,5.46-1.56.95.21,1.33,3,2.28,5.49,2.92,1.57,3.19,2.43,1.43,6.25a4.11,4.11,0,0,0,.07,2.19c.49,2.54.31,4.54-2.2,6.32-1.93,1.36-3,3.84-4.69,5.66-.7.77-2.32,1.82-2.74,1.54a12.73,12.73,0,0,1-3.37-3.56c-.33-.49.09-1.51.18-2.29.33-2.7-.7-4-3.33-4.38-5-.67-10-1.31-15-2.06-3.5-.53-6.11-4.19-6-7.73.13-5-.24-10,.07-15,.37-5.82,1.25-11.61,1.9-17.42.67-6.09,1.27-12.19,2-18.27.44-3.54,1.62-7.05,1.6-10.57a55.44,55.44,0,0,0-1.69-11.61c-.19-.86-1.88-2-2.88-2-5.24,0-10.47.19-15.71.42-5.43.25-10.86.54-16.29.93-4.24.3-8.49,1.2-12.72,1.08-5.69-.18-11.32.79-17.13-.35-5.23-1-10.81-.11-16.22-.37-4.37-.21-8.72-.91-13.07-1.35q-8.86-.9-17.72-1.71c-3.78-.34-7.56-.78-11.35-.81-11.2-.09-22.4.07-33.6,0a89.6,89.6,0,0,0-22,2.36,40,40,0,0,1-7.2.69c-4,.2-7,2.63-9.68,4.94-2.26,1.94-4.53,4.64-3.71,8.4,1.52,6.93,3,13.87,4.33,20.83,1.43,7.3,2.87,14.6,4,21.95.84,5.65,1,11.39,1.74,17.06A75.26,75.26,0,0,0,63.94,308c1.46,5.58.27,8.08-5.52,9.17-7,1.33-14.21,1.93-21.29,3.07A80.15,80.15,0,0,0,27,322.66c-2.05.6-3.89,2.63-6.11.43S19.39,318.54,21.28,316.32ZM319.53,104.4l-.5-.66c-.83.57-1.7,1.1-2.48,1.73-4.69,3.83-9.78,6.79-16,7.31q-12.48,1.05-25,1.94c-2.75.2-5.55,0-8.28.33-3.82.48-7.58,1.54-11.4,1.94-7.9.82-15.82,1.41-23.73,2-6.8.5-13.61.94-20.43,1.27-10.16.5-20.33.89-30.49,1.3-4.54.18-9.09.25-13.62.44-5.22.21-10.43.64-15.64.66-2.32,0-5.19-.62-5.5-3.41a102.58,102.58,0,0,1-.13-12.28,1.56,1.56,0,0,1,.62-1c2.05-1.76,4.05-3.58,6.22-5.19,3.3-2.47,5-5.58,4.37-9.74-.6-3.7-2-6.92-6-8.17A7.79,7.79,0,0,0,149,83c-1.7.13-3.65.85-5,.25-2-.86-3.25-.27-4.75.83-2.88,2.1-1.7,5.5-2.81,8.05-2.29,5.29-.32,10.07,1.26,14.73a21.94,21.94,0,0,1,.59,10.75,11.12,11.12,0,0,1-3.3,6.07c-1.26,1.15-3.65,1.13-5.57,1.48-8.28,1.55-16.7-.43-25,1-3.76.63-7.77-.06-11.66-.29-2.11-.12-4.2-.71-6.32-.79-6.69-.27-13.43,0-20.07-.72-4.34-.45-6.78-2.36-7.09-8.39-.38-7.67-.92-15.33-1.37-23-.3-5.14-.18-10.34-1-15.4-.6-3.77,3.46-7.28.3-11,1-3.29-1.8-2.95-3.51-3.57s-2.24.13-1.79,1.72,1.44,3.3,1.53,5c.27,5,.36,10,.24,15-.24,9.34-.75,18.66-1,28-.13,4.85,0,9.71.15,14.56.11,3,2,4.85,4.17,4.61,6.8-.76,13.59-1.27,20.39.07a20.53,20.53,0,0,0,4.08.14c4.35-.06,8.7-.31,13-.21s8.36,1,12.67.24a21.9,21.9,0,0,1,8.65.14c6.25,1.46,11.3,9,10.5,15.44-.48,3.83-1.61,7.56-2.26,11.37-.79,4.69-1.25,9.43-2.1,14.1-1.25,6.9-2.52,13.82-4.18,20.63A66.16,66.16,0,0,1,113.38,206a8.23,8.23,0,0,1-4.55,3.67,78.11,78.11,0,0,1-11.38,2.56c-6.32,1.05-12.68,1.88-19,2.8-7.09,1-14.2,2-21.27,3.12a48.62,48.62,0,0,0-8.45,2c-1.87.66-4,1.62-5.14,3.11-2.4,3.07-3.09,6.75-3,10.78.13,5.89-.42,11.8-.67,17.7a15.61,15.61,0,0,0,0,2.9c1,6.79,1.88,13.59,3.1,20.33.77,4.26,2.06,8.42,3.13,12.62,1,4,2.18,8,3,12,.34,1.65,0,3.43,0,5.16,0,3.95-.6,5-4.21,6.26a9.81,9.81,0,0,1-3.65.91c-3.64-.22-7.49,1.71-11-1.15-.61-.5-2.18.16-3.37.29l1.65,5.35c5.35-.48,10.64-1.41,15.9-1.28,4.26.11,8-1.27,12-2.22,3.37-.83,3.79-2.3,3.09-5.68a137.12,137.12,0,0,1-2.42-14c-.69-6.83-.38-13.78-3-20.32a3.45,3.45,0,0,1-.16-.86c-.91-6.14-1.65-12.31-2.79-18.41a96.52,96.52,0,0,0-3.43-13.51c-1.81-5.27.9-9.37,4-12.3A26.82,26.82,0,0,1,64,221.38c8.3-1.77,16.86-2.45,25.34-3.22,5.12-.46,10.3-.32,15.45-.29,4.65,0,9.3.29,13.94.45,7.67.27,15.37.22,23,.92,8.39.76,16.7,2.47,25.1,3.29,6.31.62,12.7.5,19,.71,1.07,0,2.15.11,3.22.1,7-.07,14,0,21-.28,4.07-.14,8.12-.79,12.2-1.1,6.67-.52,13.37-.78,20-1.47,5.18-.54,9.71,1.66,11.66,5.79s2.12,8.56,1.81,12.82c-.73,9.74-2.06,19.43-3.2,29.13-.35,3-1.12,5.9-1.25,8.86-.23,5.3-.13,10.62-.13,15.92a33.72,33.72,0,0,0,.26,6.68,4.09,4.09,0,0,0,2.55,2.72c4.42.66,8.92.79,13.36,1.35a42.61,42.61,0,0,1,6.07,1.64c1.19.33,2.37.69,3.85,1.13-1.16-6-1.47-6.14-6.39-5.84a95.64,95.64,0,0,1-11.1-.13A5.88,5.88,0,0,1,254.7,295c.25-5,.67-10.09,1.18-15.12q1-9.57,2.22-19.13c1-7.71,1.59-15.53,3.32-23.08a60.06,60.06,0,0,0,.93-22.77c-.48-3.14-2.45-4.63-5.34-4.88-4.55-.38-9.12-1-13.59.68a8.62,8.62,0,0,1-2.61.22c-4,.09-8-.07-11.94.31-7,.67-13.86,2.1-20.83,2.44-12.64.61-25.33.32-38,1.07a62.27,62.27,0,0,1-21.88-2.83c-2.69-.82-5.32-1.7-6.61-4.63-2.74-6.23-1.86-12.54-.46-18.82.89-4,2.28-8,3.27-12,.76-3.07.8-6.39,1.92-9.3,2.86-7.45,3-15.12,2.57-22.88,0-.93-.83-1.95-.6-2.75,1.19-4.28,2.28-8.69,6.25-11.45,1.54-1.07,3.15-2.66,4.82-2.79,6.37-.5,12.78-.62,19.17-.63,4.64,0,9.32.84,13.91.47,8.9-.71,17.76-2,26.63-3.07,6-.75,11.88-1.76,17.84-2.36,4.45-.44,9-.23,13.41-.61,6.94-.6,13.86-1.44,20.79-2.21,4.26-.48,8.51-.94,12.75-1.53,5.19-.73,10.36-1.59,15.55-2.38,2.87-.44,5.79-.66,8.62-1.31,5.79-1.32,8.85.17,11,5.67a8.06,8.06,0,0,0,1,1.32l3.32-2.71c-.7-3.66-1.71-5.53-5.27-5.49-2.62,0-3.33-2.9-1.54-5C317.49,106.39,318.53,105.42,319.53,104.4Z"/></g></svg>