<svg id="Layer_1" data-name="Layer 1" xmlns="http://www.w3.org/2000/svg" viewBox="0 0 370 370"><g id="dX0ltQ.tif"><path d="M101.84,46.37a11.24,11.24,0,0,1-1.61.43A10,10,0,0,1,97.4,47c-1.43-.26-2.24-2-1.39-3,1.78-2,3.19-4.49,6.22-5a8,8,0,0,0,1.9-1c-1.46-1-2.59-1.68-3.66-2.47a5,5,0,0,1-1.6-1.55,3.84,3.84,0,0,1-.53-2.61,2.61,2.61,0,0,1,2.16-1.17,57.27,57.27,0,0,1,6.6,1.14c1.23.26,2.42.7,4.16,1.22-.54-1-.81-1.44-1-1.91-.69-1.48-.93-3.39.46-4.1a7.51,7.51,0,0,1,4.81-.09c1.61.41,1.45,2.06,1.32,3.47-.18,1.89-.65,3.84-.37,5.67a37.72,37.72,0,0,0,2.15,8.24c1.64,4.13,3.67,8.1,5.5,12.15.48,1,.74,2.2,1.22,3.24,3.69,8.08,7.34,16.17,11.14,24.19,2.24,4.73,4.52,9.46,7.16,14,1.89,3.22,4.47,6,6.61,9.12,2.75,3.94,5,8.29,8.15,11.88,2.44,2.78,6,4.52,8.86,7,4.12,3.62,8.57,3.31,13.23,1.63a38.33,38.33,0,0,0,5-2.24c4-2.15,8.09-4.21,11.91-6.65,4-2.57,7.73-5.62,11.67-8.34,6.46-4.47,13-8.84,19.5-13.24,5.31-3.58,10.63-7.17,16-10.7,4-2.63,8.05-5.08,12-7.78,2.8-1.93,5.4-4.15,8.11-6.21,1.8-1.36,3.67-2.62,5.44-4A30.83,30.83,0,0,0,274.32,64a2.54,2.54,0,0,0-.14-3.68,9.32,9.32,0,0,1-1.89-2.89c-.25-.66-.2-1.94.22-2.24A3.07,3.07,0,0,1,275,55a9.27,9.27,0,0,1,3,1.79c1.48,1.3,2.64,2.33,5,1.23,1.25-.6,2.87.75,3.64,2.37s1.65,3.39,4.05,3.49c1.28.06,2.48,2.29,2.07,3.56s-1,2.34-1.61,3.76c.86.62,1.92,1.31,2.9,2.1.82.67,1.7,1.64.75,2.57a3.14,3.14,0,0,1-2.67.38c-1.5-.49-2.82-1.38-2.62,1.35a4.29,4.29,0,0,1-.66,1.92c-.33.68-.91,1.9-1.18,1.85a3.65,3.65,0,0,1-2.34-1.32,15.08,15.08,0,0,1-1.63-4.15c-.76-3.06-1.4-3.18-3.87-1.28-3.23,2.49-6.66,4.75-10.06,7-7.13,4.75-14.51,9.16-21.39,14.26-6,4.4-12.58,7.61-18.74,11.61-5.18,3.36-10.44,6.61-15.59,10-4,2.63-8,5.25-11.74,8.19-5,3.9-8.92,8.69-9.71,15.2-.45,3.64-.13,7.38-.17,11.07,0,2.17.06,4.36-.09,6.53-.34,5.11-.69,10.23-1.22,15.32s-1.37,10.42-1.89,15.64c-.35,3.52,2,5.78,5.8,6a63.8,63.8,0,0,1,6.89.83c6.7,1.15,10.67,6.83,10.63,13.33,0,8.2.24,16.41.4,24.61.08,4.76.24,9.52.26,14.29.05,9.14.57,18.32-.17,27.4-.57,7-.85,13.95-1.29,20.92-.43,6.8-1,13.72.4,20.54a34.93,34.93,0,0,1,.32,3.91c1.27-.94,2.14-1.64,3.06-2.25.73-.48,1.57-1.25,2.29-1.19a5.45,5.45,0,0,1,3.38,1.32c1.09,1.2.16,2.59-.74,3.68s-2.07,2.28-3.34,3.66a15.75,15.75,0,0,1,3.13.89,8.82,8.82,0,0,1,3,2.22c1.74,2.36.42,4.77-2.55,4.92-2.74.14-2.63.09-1.56,2.56a8.86,8.86,0,0,1,.64,4c0,.43-1.47,1.15-2.2,1.08a20.88,20.88,0,0,1-4.08-1.2c-.5-.16-1-.39-1.81-.72a27.46,27.46,0,0,1-.73,4.17,12.32,12.32,0,0,1-1.67,2.62,9.88,9.88,0,0,1-2.39-1.66,9.23,9.23,0,0,1-1.18-2.8c-.39-1.13-1-1.61-2.17-1s-2.41,2.44-3.92.28a4.66,4.66,0,0,1,.54-5.27,16.07,16.07,0,0,0,2.43-3.26,10.18,10.18,0,0,0,1.12-4.4c-.12-3.19-.79-6.35-1-9.53-.19-3.68,0-7.37-.1-11.05q-.57-17.13-1.27-34.25c-.26-6.52-.79-13-.95-19.57-.11-4.74.3-9.49.25-14.24,0-2.58-.62-5.15-.8-7.73-.31-4.35-.54-8.7-.75-13-.29-6.15-3.43-9.05-9.54-9.31-1.94-.08-3.8-.87-5.71.19a5,5,0,0,0-2.8,3.76,31.41,31.41,0,0,1-1.63,4.52,27,27,0,0,0-1,3.52,3,3,0,0,0,1.55,3.29c4,2.74,6.29,9.66,4.51,14.08-1.33,3.31-4,5.21-7.36,6.31a12.26,12.26,0,0,1-11.44-2c-4.85-3.45-6.73-11.43-2.32-16.78a14.11,14.11,0,0,1,2.6-2.58,4.27,4.27,0,0,0,2-4.22c-.4-3.67-.8-7.35-1.42-11-.41-2.35-5.66-5.48-8.52-5.17a10.09,10.09,0,0,0-8.82,6.49c-2.68,6-1.73,12-1.4,18.13.24,4.47.32,8.94.57,13.41.26,4.64.69,9.27.95,13.91s.32,9.42.66,14.11c.43,5.7,1.21,11.37,1.56,17.08.32,5.17.24,10.36.38,15.54.1,3.75,0,7.51.45,11.23a83.79,83.79,0,0,0,1.94,9.58,9.18,9.18,0,0,0,1.1,2.16c.68,1.26,1.54,1.2,2.49.33a4.9,4.9,0,0,1,5-.79,3.15,3.15,0,0,1,1.79,1.92c.15.53-.57,1.45-1.11,2-.86.87-1.36,1.58,0,2.39.47.27,1.08.53,1.31,1,.41.79,1,1.85.73,2.53s-1.33,1.18-2.15,1.5a12.37,12.37,0,0,1-2.86.27,20.34,20.34,0,0,0,2,2.55,2.28,2.28,0,0,1,.54,3.27,2,2,0,0,1-3,.44c-1.12-.8-1.77-.42-2,1.12-.12,1-.83,2.61-1.46,2.71a5,5,0,0,1-3.38-1.15c-.91-.69-1.41-1.93-2.41-3.4-.87,1.06-1.47,1.88-2.16,2.6a3.67,3.67,0,0,1-4.08,1.23,4.1,4.1,0,0,1-2.77-3.41c-.94-4,.25-7.71,1-11.51a14,14,0,0,0,.35-2,66,66,0,0,0-1-16.71,73.72,73.72,0,0,1-.88-9.18c-.45-5.79-.95-11.57-1.28-17.37-.31-5.34-.27-10.7-.66-16-.31-4.15-1.2-8.25-1.54-12.4-.52-6.41-.78-12.84-1.17-19.26-.06-1-.31-1.89-.34-2.84-.1-3.75-.16-7.5-.2-11.25,0-1.29.13-2.58,0-3.87A51.84,51.84,0,0,1,138,204.22c.79-3.15,1.22-6.39,3.54-8.94,2.17-2.39,5.12-3.31,7.92-4.53,3.08-1.34,6.12-2.74,9.17-4.14,2-.92,2.36-2.8,2.37-4.66,0-3.67-.12-7.34-.28-11s-.25-7.38-.71-11c-.75-5.83-1.35-11.73-2.81-17.39-1.36-5.29-4.29-10-7.64-14.39A78,78,0,0,1,143,117.76c-2.93-5.47-5.61-11.07-8.33-16.65-1.22-2.52-2.18-5.17-3.42-7.67-2.42-4.89-5.11-9.64-7.38-14.59-2.2-4.8-4.92-9.34-6.66-14.39-1-3-3-5.65-4.76-8.33-.82-1.26-1.93-1.22-3,.13a20.29,20.29,0,0,1-3.89,3.91,6.57,6.57,0,0,1-3.62,1c-1.76,0-2.5-1.57-2.06-3.68.13-.57.09-1.67-.15-1.76a2.51,2.51,0,0,1-2-2.73c.15-1.74.54-3.37,2.23-4.39a18.59,18.59,0,0,0,2.13-1.76ZM280.47,61.54c-1.55-.43-1.7,1-2.22,1.81-.85,1.38-1.31,3.19-2.48,4.16q-6.06,5-12.52,9.57c-4.16,2.91-8.56,5.46-12.78,8.29-5.07,3.42-10,7.06-15.09,10.42s-10.56,6.53-15.76,9.92c-3.54,2.31-6.92,4.86-10.36,7.31-4.37,3.1-8.7,6.24-13.1,9.28a32.39,32.39,0,0,1-4.91,2.83,120.46,120.46,0,0,1-13.07,5.66,11.15,11.15,0,0,1-9.53-1,52.48,52.48,0,0,1-6.85-5.1,64,64,0,0,1-7.7-7.84c-3-3.75-5.47-7.85-8.15-11.81-3-4.42-6.27-8.68-8.84-13.34-2.26-4.11-3.61-8.72-5.55-13-4.1-9.1-8.25-18.19-12.53-27.2-2-4.15-3.91-8.26-4.79-12.81a2.54,2.54,0,0,0-1.14-1.56,44.19,44.19,0,0,0-4.44-2c-1.29-.52-2.61-.94-4.21-1.51,1.38,1.62,3.37,2.92,3.33,4.17,0,1.48-1.83,2.91-2.87,4.38,2.86,2.62,3,3.37,1.08,6.1l2,3.88a11.27,11.27,0,0,1,2.9-.76c4.12-.1,5.6,3.52,7.27,6.13,2,3.17,3,7,4.48,10.54.69,1.64,1.48,3.24,2.32,4.8,1.93,3.59,4,7.08,5.86,10.72,4,8,6.78,16.64,11.57,24.33,2.36,3.8,4,8,6.26,11.9a120,120,0,0,0,7,11,27.36,27.36,0,0,1,4.59,9.66,125.49,125.49,0,0,1,2.48,13.76c.53,4.1.6,8.27.88,12.41.37,5.43.85,10.86,1.08,16.3.17,3.93-1.59,6.19-5.27,7.64-4.25,1.67-8.51,3.31-12.65,5.21a7.13,7.13,0,0,0-3.25,3.1,38,38,0,0,0-3.76,14.63c-.25,4.86-.69,9.72-.66,14.57s.49,9.68.83,14.52.68,9.67,1.16,14.49c.39,3.88,1.15,7.73,1.43,11.62.43,5.82.5,11.66.87,17.49.4,6.28.94,12.55,1.44,18.83.18,2.25.29,4.51.64,6.72,1.2,7.66,2,15.29,0,23a21.36,21.36,0,0,0-.42,5.43c0,.68.65,1.34,1,2a8.28,8.28,0,0,0,1.58-1.41c1.94-2.87,3.58-3.4,7-1.84.77-1.7,1.51-3.38,2.28-5.05.63-1.37.25-2-1.2-2.62-1.24-.5-2.83-1.38-3.26-2.48-2-5.35-4-10.77-3.46-16.68a26.32,26.32,0,0,0-.15-2.65c0-3.65,0-7.3-.06-10.95,0-3.29.07-6.58-.14-9.85s-.84-6.52-1.09-9.79c-.4-5.11-.61-10.23-.95-15.34-.27-4.1-.67-8.19-.91-12.29-.38-6.26-.68-12.51-1-18.77-.18-3.59-.2-7.2-.48-10.79A24.71,24.71,0,0,1,147.75,206c2.25-3.58,5.62-5.28,9.87-5.69,4-.38,10.6,3.12,12,6.77a2.52,2.52,0,0,1,.21.58c.71,5.41,1.44,10.82,2.12,16.24a2.9,2.9,0,0,1-2.84,3.29,3.1,3.1,0,0,0-1.83.55c-2,2.19-3.34,4.6-2.75,7.79.64,3.52,2.4,6.17,5.92,6.82a13,13,0,0,0,6.57-.58,6.36,6.36,0,0,0,4.49-5.85c.15-2.87-.2-5.53-3.11-7-4.2-2-4.47-4.9-3.6-8.63.66-2.84,2.1-5.51,2.59-8.36.66-3.78,3-5.49,6.3-6.47,3.9-1.16,7.52.58,11.21,1.29a6.48,6.48,0,0,1,3.88,2.36c2.85,4.33,3.75,9.2,4,14.41.2,4-.8,8.14.9,12.06a6.68,6.68,0,0,1,.28,2.62c0,7-.1,14-.08,21,0,1.68.39,3.37.44,5.05.06,2.58-.17,5.17,0,7.74.41,6.89,1,13.76,1.46,20.64a41.82,41.82,0,0,1,.39,6.77c-.91,9.25-.12,18.44.85,27.61.33,3.07.57,5.89-1.65,8.37.53.38.93.64,1.29.93s.8.69,1.47,1.29c.3-.82.51-1.42.72-2a1.63,1.63,0,0,1,2.44-1.08,9.81,9.81,0,0,1,1.94,1.78c.59.54,1.22,1.05,1.83,1.57l.59-.45a13.48,13.48,0,0,0-1.17-2.65c-2-2.71-2-2.76.33-5.29-1.32-.59-2.5-1-2.24-3.07.1-.77-2-1.79-3-2.77-.25-.25-.25-.78-.3-1.18-.16-1.28-.34-2.56-.43-3.84-.24-3.69-.63-7.38-.6-11.06.06-5.1.45-10.2.7-15.3.17-3.33.31-6.67.53-10,.36-5.64.89-11.27,1.11-16.9.16-4.29,0-8.59-.11-12.88-.14-6-.4-12-.48-18,0-2.32.5-4.65.4-7-.28-6.35-.81-12.68-1.13-19-.21-4.1-3.24-8-7.25-8.74a57.13,57.13,0,0,0-6.9-.78c-5.67-.36-8.3-2.33-8.67-7.27a57.72,57.72,0,0,1,.27-10.18c.41-4,1.37-7.93,1.81-11.93.48-4.33.65-8.71.93-13.07q.18-3,.24-6.11c.08-5-.94-10,1.09-14.88A31.61,31.61,0,0,1,201,122.63c3.12-2.41,6.74-4.17,10.07-6.33,5.88-3.82,11.68-7.77,17.57-11.58s11.92-7.51,17.85-11.31c4-2.55,7.87-5.19,11.82-7.76,1.78-1.16,3.71-2.11,5.38-3.41,5.34-4.13,10.58-8.41,15.88-12.59,2.67-2.11,4.2-1.63,5.52,1.58a2.21,2.21,0,0,0,.59.82,11,11,0,0,0,1.25.73,3.71,3.71,0,0,0,.09-1.27,29,29,0,0,1-1.44-4.84c-.2-2-.45-3.16-2.92-2.32-.68.23-1.8-.65-2.63-1.17C279.91,63.1,280.28,62.22,280.47,61.54Z"/></g></svg>