<svg id="Layer_1" data-name="Layer 1" xmlns="http://www.w3.org/2000/svg" viewBox="0 0 263.39 393.27"><defs><style>.cls-1{fill:#596b3d;}</style></defs><path class="cls-1" d="M180.66,208.28c-13,2.08-24.52-8.35-28.34-20.1a26.84,26.84,0,0,1,.53-18.65,33.22,33.22,0,0,1,12-14.49c10.91-7.49,26.36-9.94,38.65-4.41a19.17,19.17,0,0,1,11.64,16.55c.47,7-1.74,14.14-4.67,20.46-3.3,7.12-7.93,13.52-11.49,20.5s-6.57,14.81-5.77,22.77,5.61,14.3,11.25,19.8c6.72,6.55,13.65,12.9,20.47,19.34l41.56,39.23c5.79,5.46,12,11.34,13.84,19.39s-.76,16.21-4.66,23.1c-4.06,7.17-9.81,13.14-15.24,19.26s-10.58,12.63-14.12,20.15c-6.92,14.74-8.5,31.25-8.92,47.33-.11,3.92-.14,7.84-.17,11.77l2.88-.78q-4.86-10.28-9.89-20.45a1.54,1.54,0,0,0-2.39-.31L215.4,438.85l2.33,1.8c4-5.93,8.5-18.13-.59-21.83l.6,2.27a12.68,12.68,0,0,0,2.69-14.46l-1.69,1.69L227.6,413a1.23,1.23,0,0,0,1.82-1c.69-9.36,5.31-17.78,10.61-25.31,5.5-7.81,11.89-14.94,17.49-22.67,5.05-7,9.65-14.7,10.76-23.38,1.31-10.21-3-19.38-9.41-27.09-7.09-8.53-16-15.57-21.26-25.49-4.56-8.54-8.78-21-20.38-21.25-11-.25-19.07,11.56-20.56,21.35-1,6.86.07,13.9,1,20.7,1,7.36,1.78,14.66.45,22-1.27,7.07-3.62,14-3.86,21.19a32.31,32.31,0,0,0,3.66,15.78c4.89,9.5,14.45,17.28,25.08,19.15a33.53,33.53,0,0,0,7.94.41c1.52-.1,1.53-2.47,0-2.38-10.59.65-21-5-27.43-13.23a31.87,31.87,0,0,1-6.36-14.3c-1.07-6.51.52-13.06,2-19.38,1.54-6.78,2.55-13.36,2-20.32s-2-13.8-2.42-20.77c-.33-6.16.36-12.05,3.46-17.48,2.57-4.48,6.59-8.69,11.73-10,11.51-3,16.79,10,20.88,18,4.83,9.56,12.55,16.6,19.67,24.41,6.67,7.31,12.21,15.8,11.76,26.09-.37,8.37-4.55,16-9.22,22.73-10,14.46-24.72,27.32-29,45a40.68,40.68,0,0,0-1,6.19l1.81-1L220,406.18a1.26,1.26,0,0,0-1.7,1.7,9.9,9.9,0,0,1-2.47,11.29,1.36,1.36,0,0,0,.28,2.13c7,3.07,2,13.55-.94,17.85-1,1.51,1.12,2.79,2.34,1.8L230,430.89l-2.39-.3q5,10.2,9.86,20.47c.67,1.44,2.86.66,2.87-.78.13-16.91.32-34.33,5.77-50.53a69.22,69.22,0,0,1,12.27-21.89c5.51-6.73,11.76-12.87,16.75-20,4.65-6.66,8.21-14.57,8.5-22.79s-3.42-15.3-8.83-21.27c-3-3.27-6.27-6.23-9.48-9.25l-11-10.3L232.87,274,211,253.44c-6.18-5.81-13.17-11.74-15-20.45-1.73-8.33,1.55-16.82,5.31-24.12s8.6-14,11.86-21.5c2.78-6.42,4.87-13.54,4.28-20.6a21.25,21.25,0,0,0-10.54-17c-12-6.89-28.21-5.26-40,1.29-11.32,6.3-19.76,18.34-18.1,31.69,1.52,12.31,10.82,24.83,23.43,27.34a23.52,23.52,0,0,0,8.89,0c1.19-.22.67-2-.5-1.81Z" transform="translate(-77.87 -145.3)"/><path class="cls-1" d="M245.81,397.33c1.43,8.89,8.63,14.8,16.11,18.9,4.09,2.24,8.37,4.08,12.62,6q7.71,3.46,15.15,7.49a227.22,227.22,0,0,1,28.61,18.41q6.85,5.19,13.31,10.9c3,2.69,8.19,6.65,6.31,11.35-1.32,3.28-5.45,4.62-8.6,5.31-5,1.08-10.24.63-15.29.56q-19.29-.27-38.56-1.33c-25.38-1.4-50.62-3.82-75.85-6.94-9.31-1.16-20.07-1.75-27.8,4.54-6.82,5.54-8.63,16.51-4,24a18.42,18.42,0,0,0,4.18,4.62,1.79,1.79,0,0,0,3-1.24,10.76,10.76,0,0,0-9.66-11.05c-5.55-.43-10.41,4.22-11,9.57h3.17l-1.71-13.8a1.51,1.51,0,0,0-1.87-1.43,14.12,14.12,0,0,1-14.55-4.8l-1,2.46,11.1-1.07c1.08-.1,2.06-1.57,1-2.43-2.13-1.73-2.47-4.53-1.7-7.06.93-3,3.55-5,6.28-6.26a41.7,41.7,0,0,1,10-2.83,88.9,88.9,0,0,1,10.42-1.35c14.23-1,28.49.83,42.56,2.83s28.24,4.2,42.49,3.87a93.14,93.14,0,0,0,20.69-2.69c3-.75,6.61-1.53,8.52-4.22s1-5.7-.94-7.93c-2.22-2.55-5.41-3.87-8.41-5.25l-11.34-5.19-22.91-10.5-5.67-2.6c-1.94-.89-3.64,2-1.68,2.88q11.34,5.2,22.69,10.38l11.35,5.19a109.94,109.94,0,0,1,10.54,4.95c1.85,1.09,5.35,3.59,3.72,6.12-.77,1.18-2.31,1.72-3.59,2.13-1.64.51-3.32.93-5,1.31a96.53,96.53,0,0,1-20.69,2.22c-14.28.11-28.46-2.12-42.58-4-14-1.87-28.15-3.51-42.25-2.1a92.54,92.54,0,0,0-10.32,1.59,39.25,39.25,0,0,0-9.53,3.05c-5.14,2.58-9.25,8.35-7,14.25a7.74,7.74,0,0,0,2.31,3.24l1-2.44-11.1,1a1.47,1.47,0,0,0-1,2.47A17.08,17.08,0,0,0,154.78,486l-1.87-1.43,1.5,13.8a1.59,1.59,0,0,0,3.17,0,7,7,0,0,1,13.93,1.48l3-1.25c-6-5-6.94-15.58-1.69-21.41,6.46-7.16,17.59-6.12,26.23-5.1,25.09,3,50.17,5.59,75.42,6.67q19,.81,38.07.84c5.32,0,10.79.34,16.06-.58,3.66-.64,7.68-1.94,10.29-4.72a9,9,0,0,0,.65-11.36,29,29,0,0,0-5.21-5.46q-3.22-2.82-6.55-5.52A232.39,232.39,0,0,0,300,432.61a284.65,284.65,0,0,0-29.21-14.67c-7.77-3.47-16.61-7.61-21.25-15.13a18.78,18.78,0,0,1-2.36-5.84c-.19-.88-1.46-.49-1.32.36Z" transform="translate(-77.87 -145.3)"/><path class="cls-1" d="M211,411.34l-4.43-3c-.71-.48-1.43-1-2.15-1.44a9,9,0,0,0-2.31-1.36c-.4-.12-.61.37-.38.65a9.32,9.32,0,0,0,2.16,1.62c.71.48,1.44.95,2.16,1.42l4.46,2.94c.52.34,1-.49.49-.84Z" transform="translate(-77.87 -145.3)"/><path class="cls-1" d="M175.57,213.48c2.73,6.92,0,13.9-4.8,19.17-5.05,5.58-11.54,9.08-18.56,11.53-13,4.51-28.09,7.75-35.42,20.68-7.75,13.68-4.15,30.19,1.23,44,3.14,8.07,6.85,15.9,9.61,24.12a147.27,147.27,0,0,1,6,24.56,146.67,146.67,0,0,1-1.09,50.71c-.41,2.07-.87,4.12-1.37,6.17a1.48,1.48,0,0,0,2.14,1.65,20,20,0,0,0,9.22-23,1.46,1.46,0,0,0-2.82.78l4.71,18a1.47,1.47,0,0,0,1.81,1,12.9,12.9,0,0,0,6.93-16.92l-2.54,1.49,5.67,11.4c.67,1.35,2.74.66,2.75-.74a13,13,0,0,1,7.37-11.55c1.11-.53.79-1.94,0-2.54-14.39-11-22.56-27.84-27.9-44.76-2.74-8.65-4.83-17.5-6.75-26.37-2.16-9.94-4.22-20.3-2.89-30.51a33.55,33.55,0,0,1,4.55-13.58,24.51,24.51,0,0,1,7.46-7.37c5.67-3.64,13.25-5.61,19.74-3,8.48,3.41,10,13.21,10.27,21.29.35,11.53.26,23.1.38,34.64l.35,35.45c.05,4.93.4,10-.16,14.88-.39,3.37-1.24,7.24-3.63,9.79a7.35,7.35,0,0,1-4.07,2.23c-1.89.39-1.09,3.28.8,2.9,8.32-1.69,10-11.85,10.14-18.93.11-5.94-.11-11.91-.17-17.86l-.2-19q-.21-18.73-.4-37.45c-.1-9.37.4-20.89-7.35-27.68-5.71-5-13.89-5.34-20.81-2.93a28.46,28.46,0,0,0-17,15.68c-4.25,10-3.63,21.22-1.89,31.74a287.6,287.6,0,0,0,6.63,29.46c5,18,12.27,36.38,26.15,49.44a68.15,68.15,0,0,0,5.29,4.46V394A15.85,15.85,0,0,0,156,408.05l2.74-.74-5.67-11.41c-.86-1.72-3.28-.21-2.54,1.49a9.94,9.94,0,0,1-5.18,12.6l1.81,1q-2.35-9-4.72-18l-2.82.78a17,17,0,0,1-7.87,19.7l2.13,1.65a149.84,149.84,0,0,0,3.42-50.64,150.07,150.07,0,0,0-4.78-25.21,203,203,0,0,0-8.9-24.1c-6-14.25-12.1-30.44-6.07-45.75,5.66-14.36,21.26-18,34.31-22.86,6.78-2.5,13.2-5.76,18.22-11.09,4.42-4.69,8.09-11,7.4-17.66a16.33,16.33,0,0,0-1.2-4.61c-.19-.46-.94-.27-.75.21Z" transform="translate(-77.87 -145.3)"/><path class="cls-1" d="M123.87,392a158.11,158.11,0,0,0-40.44,56.12c-2.38,5.52-5.18,11.48-5.53,17.56a16.07,16.07,0,0,0,4.75,12.43c6.26,6.18,16,7.87,24.46,8.58,7.31.61,14.67.89,22,1.31,7.74.46,15.5,1.1,23.25,1.31,1.89.05,1.84-2.75,0-2.9-6.58-.55-13.2-.74-19.79-1.08l-19.79-1c-8.72-.45-18.36-1-25.87-6a14.29,14.29,0,0,1-6.36-9.25c-1.09-6,1.9-12.3,4.09-17.71a161.29,161.29,0,0,1,15.8-29.58,173.54,173.54,0,0,1,24.38-28.82c.64-.6-.3-1.52-.95-.95Z" transform="translate(-77.87 -145.3)"/><path class="cls-1" d="M169.89,486c22,.88,42.65,14.62,52.7,34.12a56.88,56.88,0,0,1,5.63,17.31c.24,1.56,2.95,1.59,3.17,0a45.07,45.07,0,0,0-7.65-32.11l-2.35,2.35,8.76,6.08a1.72,1.72,0,0,0,2.51-1.93l-4.75-15-1.18,2.08,10.19-2c1.76-.34,1.44-2.74,0-3.25A20.2,20.2,0,0,1,224.07,479a1.68,1.68,0,0,0-1.6-1.22c-4.12-.06-7.71-1.52-11.46-3-1.2-.49-2.15,1.32-1.24,2.14,3.4,3.06,8.21,4.17,12.7,4.24l-1.61-1.23a23.59,23.59,0,0,0,15.17,17v-3.25l-10.2,2a1.7,1.7,0,0,0-1.18,2.08l4.71,15,2.51-1.93-8.74-6.1c-1.39-1-3.33,1-2.35,2.35a42.25,42.25,0,0,1,7.38,30l3.23-.44c-3.62-22.59-21.09-41.94-42.5-49.38a55.87,55.87,0,0,0-19-3.14,1,1,0,0,0,0,2Z" transform="translate(-77.87 -145.3)"/><path class="cls-1" d="M181.51,457.67a65.8,65.8,0,0,1-31.2-4.41,48.69,48.69,0,0,1-13.41-8c-3.53-3.1-6.8-7.5-5.8-12.47s5.16-8.62,8.83-11.75a94.61,94.61,0,0,1,13-9.4c8.73-5.18,18.67-8.71,28.92-8.39,10.45.33,20.74,4.53,27.34,12.83,1,1.32,3.39-.46,2.35-1.82-6.21-8.13-15.79-12.6-25.8-13.81-11-1.33-22,1.74-31.64,6.94a92,92,0,0,0-14.28,9.7c-4.17,3.38-8.68,7.11-10.85,12.16-4.84,11.25,6.55,20.14,15.39,24.59a57.42,57.42,0,0,0,18.22,5.72,49.75,49.75,0,0,0,19-1.07c.45-.12.37-.88-.11-.83Z" transform="translate(-77.87 -145.3)"/></svg>