<svg id="Layer_1" data-name="Layer 1" xmlns="http://www.w3.org/2000/svg" viewBox="0 0 370 370"><defs><style>.cls-1{fill:#231f20;}</style></defs><g id="dNU6MP.tif"><path d="M83.74,203.32a1.3,1.3,0,0,0,2,.34,1.24,1.24,0,0,1,.63-.2c1.76.07,3.54.14,5.29.12a22.5,22.5,0,0,1,3.76,0c2,.34,4,.28,6,.43a23.34,23.34,0,0,0,2.51-.18c2.46-.06,4.91-.13,7.37-.11,3.67,0,7.37.36,11,.15,5.24-.3,10.39-.41,15.63-.25a13.06,13.06,0,0,0,2.33-.32c.19,0,.44-.14.59-.09,1.66.52,2.77-.38,4.29-.87a1.55,1.55,0,0,1,.93,0,13.55,13.55,0,0,0,8.26-.19,29.33,29.33,0,0,1,3.51-.65A33.7,33.7,0,0,0,163.9,200a51.65,51.65,0,0,1,5.18-1.27c1.88-.5,3.94-1.15,6-1.83s4.16-1.77,6.4-1.95a54.68,54.68,0,0,0,6.64-1.36,32.79,32.79,0,0,1,3.29-.38,8.26,8.26,0,0,0,5.28-2.85,15.09,15.09,0,0,0,2.95-4.81,11.83,11.83,0,0,1,1-1.6,1.58,1.58,0,0,0-.33-2.32,8.63,8.63,0,0,0-4.51-1.82,7,7,0,0,1-1.21-.35c-.31-.09-.61-.2-.8-.11-2.2,1-4.28.48-6.56.69s-4.55.18-6.83.29-4.56.18-6.83.35c-3.2.24-6.39.71-9.59.93-1.5.1-3.05-.2-4.52-.18s-2.82.33-4.25.34c-2,0-4-.1-6.07-.09-.46,0-.92.27-1.37.24-1.59-.11-3.14-.3-4.72-.46a3.89,3.89,0,0,0-.59,0c-2.11.12-4.09.32-6.23.4s-4.14,0-6.37.17-4.54,0-6.92.08-5.11-.19-7.56.1c-3,.37-6-.12-9,0-2.1.07-4.15-.19-6.3-.18s-4.35.17-6.53.33a61.53,61.53,0,0,1-8.16.43,31.58,31.58,0,0,0-4.92.45c-2.18.21-4.4.34-6.58.56-.83.08-1.65.29-2.46.4a18.2,18.2,0,0,1-4.13.41c-2.87-.25-5.6.19-8.45.23-1.48,0-2.9,0-4.41.07-.26,0-.39.23-.76.36a5.93,5.93,0,0,1-1.55.41c-1.58,0-3.16.17-4.75.37-2.08.27-3.76,1.3-6,1.28a13.9,13.9,0,0,0-5.06,1.4,22.39,22.39,0,0,1-5.08,1.13c-1.62.24-2.69.65-4.28,1s-3.08,1.06-4.77.39a.7.7,0,0,0-.59.15c-.93,1.2-1.87.21-2.54-.43a2.23,2.23,0,0,1-.64-2.2A31.08,31.08,0,0,1,21,184.24c.81-1.44.74-1.77-.54-2.73-.8-.6-1.86-1.06-2.68-1.71a3.59,3.59,0,0,1-.89-1.41,3.48,3.48,0,0,1-.13-1.12c-.12-1,.24-1.67,1.22-1.78,1.76-.21,3.56-.22,5.29-.37s1.77-.46,1.41-2.14-.78-3.35-1-5.06A1.75,1.75,0,0,1,25,165.85c1-.29,1.43.31,1.85,1.2A26.81,26.81,0,0,0,29,171c.81,1.14,1.66.74,2.12-.37a26.81,26.81,0,0,0,1.12-3.74,2.82,2.82,0,0,1,1.47-2.15c2.83-1.45,5.07-1.59,6.9,1.28.09.14.13.42.29.38,1-.28,1.81-.74,2.91-1a2.21,2.21,0,0,1,2.62,1.48c.32,1.06.21,1.78.46,2.7a1.74,1.74,0,0,0,.93,1.22,25.33,25.33,0,0,0,4.11.55,3.37,3.37,0,0,0,.71,0c1.72-.21,3.43-.44,5.15-.63,2.61-.28,5.24-.46,7.84-.83,3.12-.45,6.21-1.08,9.32-1.58,1.33-.21,2.67-.31,4-.47.35,0,.69-.19,1-.25l3-.56c1.52-.27,3-.32,4.51-.72a20,20,0,0,1,4.84-.41c1.62,0,3.23.14,4.84.28a4.14,4.14,0,0,1,.87.24c.26.09.54.27.78.23,2.38-.38,4.67-.07,7-.43,2.89-.43,5.85-.56,8.78-.7,2-.1,4-.15,6.07-.2h.12c1.66-.87,3.47-.36,5.19-.48a39.34,39.34,0,0,0,4.83-.6,30,30,0,0,1,6.89-.22c1.52.05,2.76-.18,4.41-.16s3.4.26,5.28.27a58.58,58.58,0,0,0,6.13-.26c2.81-.3,5.67-1,8.55-1.1,1.75-.08,3.49.46,5.29.55s3.7-.05,5.52,0c1.32,0,2.68.21,4,.35a4.38,4.38,0,0,0,.91.14c2-.26,3.74.33,5.62.66,2.44.43,5,.74,7.35,1.15.78.14,1.73.39,2.32.45s1,.12,1.31.17.46.17.61.12c1.68-.51,3.18.55,4.7.7s3,.32,4.31.55,2.44.45,3.68.68c2.5.46,4.91.91,7.4,1.33,1.71.3,3.35.55,5.09.79a2.18,2.18,0,0,0,.8-.11,5.52,5.52,0,0,1,1.66-.3c2.91.39,5.82.9,8.75,1.3.87.12,1.76,0,2.65,0a13.2,13.2,0,0,1,5,1.25,6.32,6.32,0,0,0,1.94.39c1.22.15,2.51.28,3.71.41a30.78,30.78,0,0,0,3.54.31,30.89,30.89,0,0,1,6.68,1.12c1.53.33,3.05.49,4.59.73l.58.09a14,14,0,0,0,4.07.62,28.23,28.23,0,0,1,4.49.14c2.77.15,5.55.31,8.33.41a20.58,20.58,0,0,0,2.46-.28c3.08-.28,6.21-.51,9.28-.79a11.65,11.65,0,0,0,1.66-.48,2.67,2.67,0,0,1,1.11-.05c1.11.15,1.67-.3,1.6-1.44a1.72,1.72,0,0,0-.46-1.08c-1.28-1.21-2.6-2.34-3.92-3.47a10.42,10.42,0,0,0-2.52-1.85c-2.27-1-4.58-1.7-6.87-2.53-.44-.16-.91-.34-1.31-.46s-1-.29-1.27-.35-.37,0-.49,0c-2.55-1.37-5.15-1.51-7.9-1.9-.83-.11-1.6-.52-2.41-.63-2.4-.34-5-.57-7.3-.89s-4.48-.73-6.75-1a6.42,6.42,0,0,0-1.81.16c-.47.08-1,.36-1.25.22-1.95-.93-3.82-.33-5.79-.81-1.33-.33-2.58-.72-3.9-1a4.27,4.27,0,0,0-.68-.18c-1.54-.05-3.06-.11-4.6-.08-2.44.05-4.87.25-7.31.23a28.49,28.49,0,0,1-3.79-.5,1,1,0,0,0-.23,0c-2.07.55-4-.26-6-.42-2.75-.23-5.41-.5-8.13-.73-2.33-.2-4.66-.28-7-.43-1-.06-2-.19-3.05-.15-.6,0-1.21.5-1.78.48-1.42-.05-3-.32-4.35-.44s-2.37,0-3.57-.23c-3.1-.55-5.88-1.22-9-.75-.39.06-.82-.21-1.25-.25-1.86-.19-3.63-.43-5.55-.46a54.18,54.18,0,0,0-6,.32c-1,.09-2.09.53-3,.65a11,11,0,0,1-2.23,0c-.17,0-.31-.1-.46-.11-2.24-.19-4.55-.35-6.76-.42a2.93,2.93,0,0,1-2.32-1.17A1.58,1.58,0,0,1,152,151c0-.07.15-.1.17-.17a14.71,14.71,0,0,1,1.79-4.28c.49-.75.12-1.44-.28-2.14-1.09-1.93-2.25-3.89-3.29-5.83a2.71,2.71,0,0,1,.23-2.87c.81-1.4,1.93-2.2,3.44-1.72s2.7,1.16,4.1,1.72c.9.35,1.76.75,2.61,1.1.13.05,0,.48.09.39a7.18,7.18,0,0,0,.49-1.22c.75-2.08,1.34-4.14,2.94-5.73a7,7,0,0,1,2.93-1.7,1.69,1.69,0,0,1,1.88.54,2.7,2.7,0,0,1,.68,2.7,19.59,19.59,0,0,0-.7,3.6,7.74,7.74,0,0,0,4.35-1.29,2.86,2.86,0,0,1,4.36,1.6c.23.66-.6,1.46-.93,2-.17.28-.7.46-.9.75a1.63,1.63,0,0,0-.25,1.1c.07.33.42.43.68.5,1.11.32,2.3.62,3.41.86a5.5,5.5,0,0,1,3,1.13c.28.26.67.58.75.88.28,1.07,1,1.17,1.82,1.33,1.51.3,2.8-.25,4.27-.29s2.91,0,4.37-.09a16.7,16.7,0,0,1,1.85-.16c2.62.22,5.23.56,7.85.76,1.52.12,3.08.07,4.57.17a16,16,0,0,0,4-.63c1.45-.25,2.73.32,4.28.46s3.12.6,4.79.14a5.89,5.89,0,0,1,2.58.39c.15.05.36.28.49.27,2.11-.25,3.9.84,6,.9.16,0,.36.07.46,0,1.56-.92,2.9-.17,4.57-.28a18.73,18.73,0,0,1,3.56.58c1.26.15,2.72.09,4,.14.19,0,.41-.05.6,0,1.5.24,3.23.58,4.67.73s2.69,0,4,.21c1.77.21,3.46.62,5.18.88,1.11.16,2.31.17,3.34.34a18.47,18.47,0,0,0,2.83.69c1,0,1.85-.64,2.8-.63,1.95,0,3.84.3,5.76.48,1.41.13,2.83.29,4.21.44.38,0,.88,0,1.1.28a2,2,0,0,0,2.05.56c1.8-.44,2.95.79,4.42,1.39a72,72,0,0,1,7.85,3.65,67,67,0,0,1,5.88,3.87c1.29.9,2.54,1.81,3.75,2.84a9,9,0,0,1,1.32,1.71c1.12,1.6,2.28,3.17,3.33,4.83a14.29,14.29,0,0,1,1.09,2.54,21.94,21.94,0,0,1,1.31,4,12.87,12.87,0,0,0,2.28,5.15,3,3,0,0,1,.44,1.6,1.81,1.81,0,0,0,1.25,1.76c.68.23,1.33.53,1.76.69s.78.17.94,0c1-.9,2.12-.94,2.61-2.26,0-.07.07-.17.14-.19,1.65-.55,2.77-1.5,4.62-1.19a6.07,6.07,0,0,0,2.15-.07c.81-.14,1.63-.8,2.56-.2.05,0,.39-.17.45-.3a2.63,2.63,0,0,1,2.31-1.41,30.49,30.49,0,0,1,4.42-.76c3.08-.06,5.92,0,8.78,1.35,1.19.57,2.62.82,3.75,1.45a7.24,7.24,0,0,1,2.57,2.41,5.1,5.1,0,0,0,2.56,2.34,4.19,4.19,0,0,1,1.92,2.23,13,13,0,0,1,1.23,4.33,10.67,10.67,0,0,1-.76,5.71c-.41.81-.87,1.68-1.22,2.5a11.79,11.79,0,0,1-3.25,4c-1.87,1.63-4.44,2.48-6.37,3.68a9.82,9.82,0,0,1-5.52,1.61,27.76,27.76,0,0,1-6.53-.53c-2-.44-3.31-1.82-5.24-2.36a8.31,8.31,0,0,1-2.52-1.23c-2.09-1.44-2.75-4-4.39-5.8a5.46,5.46,0,0,0-5.8-2c-1.76.37-3,2.39-3.27,4.34s-.76,4.08-.89,6a15.2,15.2,0,0,1-1.47,5c-.34.85-.3,1.77-1,2.4,0,0,0,.1,0,.11-1.71.73-2.29,2.51-3.73,3.57a4.18,4.18,0,0,1-1.35.43c-1.57.45-3.36.84-4.84,1.43s-2.88,1.6-4.24,2.07a12.58,12.58,0,0,1-3.71.46c-.66.05-1.16-.19-1.85-.15-1.26.07-2.06-.26-3.41.28-.88.36-2.31-.44-3.37-.49a18,18,0,0,0-3.54.51,9.37,9.37,0,0,1-2.77.51,9.57,9.57,0,0,0-4.63.78,6.81,6.81,0,0,1-2.5.06c-.9,0-1.75.15-2.64.25-1.55.18-3,.38-4.59.55-.31,0-.5-.09-1-.07s-1.24.1-1.85.12c-2,.06-4,0-6,.16s-4.06.42-6.06.71c-1.45.2-2.89.55-4.34.8a17.06,17.06,0,0,1-2.37.3,19.4,19.4,0,0,0-6.24,1.51,17.59,17.59,0,0,1-3.18.52c-2.79.52-5.6,1.15-8.4,1.66-1.62.3-3.34.44-4.92.72s-3,.69-4.54,1-3,.54-4.54.79a2.25,2.25,0,0,1-.69-.07c-.21,0-.39-.22-.56-.2-1.53.17-3.11.35-4.59.6s-2.85.59-4.29.92c-.81.18-1.58.41-2.38.61a1.43,1.43,0,0,1-.34.09c-2.7-.13-5.08,1-7.68,1.42a25.13,25.13,0,0,0-3.14.89c-.15,0-.39.06-.44.15-1,1.56-2.33,1.21-3.83,1.42-.38.05-.8.08-1,.28a3.9,3.9,0,0,1-2.83,1.51,1.49,1.49,0,0,0-.83.37c-.87,1-1.67.78-2.85.62a1,1,0,0,1-.77-.93,3.75,3.75,0,0,1,.41-2c.6-.89,1.46-1.56,2.13-2.41a.78.78,0,0,0,.1-.89,2.1,2.1,0,0,0-1.17-.85,2.28,2.28,0,0,1-2.1-1.13.72.72,0,0,0-.48-.24c-1,.05-1.48-.43-1.64-1.49a2.76,2.76,0,0,1,.79-2.65,3.12,3.12,0,0,0,.17-4.33,11.19,11.19,0,0,1-1.84-3,1.59,1.59,0,0,1,.66-1.67,2.46,2.46,0,0,1,2.07-.15,15.48,15.48,0,0,1,2.17,1.6,7.57,7.57,0,0,0,2.29,1.34c.85.19,1.3,0,1.46-1.11s.27-2.78.58-4.18a1.85,1.85,0,0,1,2.35-.87c.69.41,1.14,1.24,1.88,1.22s.84-1.14,1.4-1.54c1.69-1.22,4.12-1.41,5.46.4a4.56,4.56,0,0,1,.53,2c.45,1.91,1,2.54,2.92,2.44,2.45-.12,5-.42,7.45-.55.61,0,1.25.15,1.85.1,1-.08,2.07-.38,3.08-.42,2.25-.09,4.69,0,6.86-.05a47.68,47.68,0,0,0,6-.11c2.15-.28,4.45-1,6.63-1.47,1-.21,2.06-.33,3.06-.44a6.4,6.4,0,0,0,2.53-.86,12.51,12.51,0,0,1,3.74-.76c1.14-.14,2.11-.26,3.21-.38.16,0,.3-.12.45-.13,2-.1,4-.12,6-.32,1-.11,2-.54,3.06-.75,1.86-.37,3.73-.64,5.59-1,.89-.17,1.75-.44,2.64-.65a3.1,3.1,0,0,1,1.05-.14,5,5,0,0,0,4-1.1c.53-.42,1.47-.34,2.2-.44,2.46-.34,5.27-.76,7.68-1.09s4.48-.56,6.81-.92a9.81,9.81,0,0,0,1.92-.71c.18-.06.42-.2.56-.15,1.79.59,3-.51,4.81-.59a20.73,20.73,0,0,0,5.19-.79,8.31,8.31,0,0,0,4.55-2.86,8.57,8.57,0,0,0,1.89-3.16c.16-.6,1.09-.64.89-1.78a5.16,5.16,0,0,0-3-3.17c-1.16-.24-2-.93-2.87-1.05s-1.49.38-2.31.36-1.27,0-2.12-.09-2-.17-2.85-.27c-.11,0-.29-.06-.34,0-.69.68-1.51.29-2.29.42-2.33.39-4.56.94-6.87,1.18-3.26.33-6.51.37-9.77.68a44.81,44.81,0,0,0-4.61.94,1.8,1.8,0,0,1-.92,0c-1.33-.55-2.3,0-3.41.63-.4.23-.89.52-1.23.44a7.69,7.69,0,0,0-4.24.42,24.67,24.67,0,0,1-3.91.59c-1.78.2-3.51.3-5.26.56-2.42.35-4.79.82-7.2,1.21-1.14.18-2.28.24-3.44.42a2.48,2.48,0,0,0-.93.47,5.25,5.25,0,0,1-5.2.69,1.28,1.28,0,0,0-.91.11,6.67,6.67,0,0,1-1.6.62,21.53,21.53,0,0,1-4.88,0,18.77,18.77,0,0,0-5.9.36,25.38,25.38,0,0,1-4.43.07c-1.35,0-2.27-.13-3.54-.15a2,2,0,0,0-.74.27,1.87,1.87,0,0,1-.76.24c-2.21-.27-4,.4-6.18.65s-4.53.91-6.81,1.3c-3.17.54-6.41.87-9.63,1.32-2.57.36-5.21.78-7.77,1.28-1,.2-2,.72-3,1a18.85,18.85,0,0,1-3.08.51,24.85,24.85,0,0,0-5.57,1.27,8.3,8.3,0,0,1-1.5.45c-2.16.31-4.32.64-6.49.83-1.19.1-2.37-.21-3.56-.09-1.63.16-3.22.58-4.86.73a22.6,22.6,0,0,1-3-.17c-1.86-.08-3.77-.16-5.61-.18a23.77,23.77,0,0,0-5.42.36c-3.23.73-6.32.55-9.59.93-1.34.15-2.68-.34-4.08-.37s-2.55.2-4.08.28-3.4.26-5.06.27c-2.92,0-6-.08-8.89-.18-1.31,0-2.69,0-4-.07s-2.26-.37-3.48.29c-.26.14-.72,0-1.08,0-2.8-.32-5.66-.67-8.47-1-2.06-.21-4.11-.15-6.17-.44-3.09-.45-6.17-1.14-9.26-1.62-1.53-.24-3.09-.33-4.64-.42-3.78-.23-7.45-.53-11.26-.47-1.18,0-2.33.88-3.44,1.34-.75.31-1.62.6-2.32,1a35.29,35.29,0,0,0-3.63,2.2c-1,.75-1.49,1.5-2.42,2.24a2.74,2.74,0,0,1-1.24.35c-1.5.34-2.93,1.17-4.47,1.12a2.22,2.22,0,0,1-1.94-1.08,2.09,2.09,0,0,1-.44-2.5,5.28,5.28,0,0,0,.51-1.64c.09-.66-.22-.88-.92-1.13a25.07,25.07,0,0,1-5.18-2.18,2.44,2.44,0,0,1-.24-3.32,6.26,6.26,0,0,1,4.39-2.27c1.21-.1,1.62-.85,1.52-2A4,4,0,0,0,24.65,203a2.26,2.26,0,0,1,2.21-3.85c1.15.25,1.47-.12,1.83-1.29a7.07,7.07,0,0,1,1-2.27,1.88,1.88,0,0,1,3-.24c.6.54,1,.59,1.58.09s.91-1,1.4-1.5a4.38,4.38,0,0,1,4.93-1.29,1,1,0,0,1,.5.62c.42,1.17.7,2.37,1.08,3.55a1.48,1.48,0,0,0,1.49,1.24,51.42,51.42,0,0,1,7.46.46c2.67.49,5.54.17,8.33,1.19,2.19.79,4.79.9,7.19,1.34s4.93,1.1,7.36,1.59c.57.12,1.17.09,1.75.16,1.89.23,3.73.52,5.65.71A14.57,14.57,0,0,0,83.74,203.32Zm95.5,32.86c2.92-.9,5.82-1.84,8.73-2.73l2.37-.7c2.3-.65,4.62-.41,6.79-1.62a3.71,3.71,0,0,1,1.4-.25c3.81-.46,7.65-.92,11.47-1.4,3.38-.44,6.74-.92,10.12-1.42,2.08-.3,4.13-.7,6.22-1,2.67-.44,5.25-.92,8-1.4,1.08-.19,2.18,0,3.11-.9.18-.18.85,0,1.13,0s.64.25.9.15a28.81,28.81,0,0,1,4-1c1.9-.38,3.54-1.21,5.53-.55.14,0,.38-.1.56-.12.55-.08,1.24-.16,1.77-.2s.95,0,1.43,0a34.13,34.13,0,0,1,5.63-.47,16.39,16.39,0,0,0,5.74-.52,15.36,15.36,0,0,1,2.95-.46c1-.1,1.73,0,2.79-.16s2.38-.53,3.53-.62,2.31.12,3.47.07c2.37-.1,4.71-.28,7.1-.44A39.87,39.87,0,0,0,296.2,218a8.71,8.71,0,0,1,2-.69,3.9,3.9,0,0,0,2.75-1.6,3.15,3.15,0,0,1,.81-.85c2.1-1.24,2.1-3.41,3.36-5.31-.27-2.19.74-4.06.42-6.29a5.81,5.81,0,0,1,.31-3.22,24.7,24.7,0,0,1,2.62-4.11,3.6,3.6,0,0,1,1.44-1.33,11.9,11.9,0,0,1,3.83-1.2,30.18,30.18,0,0,1,4.79.27c1.6.15,2.54,1.18,3.33,2.58a4.17,4.17,0,0,0,.4.6c1.46,1.89,2.84,3.82,4.4,5.63a5.83,5.83,0,0,0,2.32,1.71c1.57.56,3.17.84,4.74,1.34a17.59,17.59,0,0,0,5.88.6,8.75,8.75,0,0,0,3.26-1.23c2.75-1.24,5.18-2.42,6.58-5.36.42-.89,1.42-1.64,1.54-2.62.45-3.64.17-6.73-1.86-9.87s-5.39-4.21-8.5-5.91a.63.63,0,0,0-.24,0l-4.46-.49c-1.58-.17-3.31-.41-5-.5a2.21,2.21,0,0,0-1.39.49,22.71,22.71,0,0,1-7.23,4,7.64,7.64,0,0,0-3.2,1.58c-1.85,2-3.74,2.12-6.16,2.38a2.46,2.46,0,0,1-2.26-1c-1.53-1.66-2.3-4-3.49-5.85-1.75-2.8-2.21-5.8-3-8.94a4.84,4.84,0,0,0-.37-1.15c-.63-1.16-1.32-2.32-2-3.44a15.05,15.05,0,0,0-3.51-4.31c-1.43-1-2.57-1.8-3.91-2.83-1.69-1.29-3-2.72-5.13-3.14-.09,0-.18-.15-.28-.21a19.54,19.54,0,0,0-6.46-3,.76.76,0,0,1-.32-.17,6.85,6.85,0,0,0-3-1.18,20.58,20.58,0,0,0-2.21-.78c-1.58-.19-3-.14-4.56-.2a2.77,2.77,0,0,1-.92-.15c-2.18-.88-4.35-.82-6.63-1.08a8.16,8.16,0,0,0-1.27.2,4,4,0,0,1-1.17-.09c-.49-.09-1.38-.36-1.89-.45a13,13,0,0,0-1.34-.1c-1.09-.09-2-.22-3.15-.27-.58,0-.95.22-1.68.16s-1.76-.34-2.64-.42a99.66,99.66,0,0,0-10.22-.7,31.05,31.05,0,0,1-4-.26c-2.66-.3-5.33-.27-8-.34a15.18,15.18,0,0,1-2.52-.09,22.32,22.32,0,0,0-7.37-.51,4.2,4.2,0,0,1-1.59-.25,11.88,11.88,0,0,0-6.47-.16c-2,.61-3.68.21-5.65.07-1.12-.08-2.13-.4-3.19-.44s-2.28.19-3.23.19-1.63-.28-2.46-.25c-1.43,0-2.76.26-4.15.33-2,.09-3.93.08-5.9.18a10.58,10.58,0,0,0-1.68.43,8.17,8.17,0,0,1-1.21.15,15.84,15.84,0,0,0-1.67.19c-.61.13-1.51.5-2.15.57a5.07,5.07,0,0,1-1.64-.22c-1.85-.33-3.19-.39-4-2.42a1.76,1.76,0,0,0-2.09-1.25c-2.71.2-4.59-.5-6.16-3-.6-1-1.13-1.07-2.23-.21a4,4,0,0,1-4.62-.2c-1.22-1.1-2.4-2.11-3.67-3.05-.23-.17-.81-.23-1,0a1,1,0,0,0,0,1,5.69,5.69,0,0,0,1.15,1.47c1.56,1.35,3.47,2.72,5,4,1,.85,1.62,2,1,3.2s-2,1.29-3.19.86a4.68,4.68,0,0,0-1.55-.4c-.46,0-1.13.33-1.22.68-.23.88.49,1.15,1.14,1.2A34.26,34.26,0,0,0,162,151c1.58-.1,3.1-.57,4.68-.66,2.59-.16,5.15-.21,7.75-.21a13.48,13.48,0,0,1,3.32.34c1.13.29,2,.94,3.07.05a.79.79,0,0,1,.46,0c2.52.42,5,.84,7.56,1.25,1,.16,1.94.2,3,.39s2.42.56,3.6.75a7.16,7.16,0,0,0,1.65-.13,26.83,26.83,0,0,1,2.89-.36,24.17,24.17,0,0,1,2.5.28c1.36.1,2.66.1,4,.19a22.6,22.6,0,0,1,2.82.27,9.37,9.37,0,0,0,4.53.22c.33-.09.83.45,1.26.53,1.7.3,3.52.54,5.26.74a21.4,21.4,0,0,0,2.26,0l5.87.1c1.79,0,3.22,0,4.88.15a12.6,12.6,0,0,1,2.22.6,7.06,7.06,0,0,0,1.69.42c1.09,0,2.21-.57,3.21-.32a10,10,0,0,0,2.75.6,56.3,56.3,0,0,1,10.55.39c3.19.48,6.3.28,9.44,1.31a43.69,43.69,0,0,0,6,1.13c2,.35,4,.81,6,1.23,1.08.23,2.16.54,3.25.74,2.88.52,5.75,1.14,8.18,2.84a61.59,61.59,0,0,1,6.88,5.07,13,13,0,0,1,3,4.88c.27.64-.66,1.92-1,2.54a.93.93,0,0,1,0,.13c-1.11,1.82-2.39,2.69-4.51,2.32a3.88,3.88,0,0,0-1.51.07,14,14,0,0,1-1.78.45c-1.25.09-2.53,0-3.78.09-2.43.14-4.84.34-7.26.5a3.91,3.91,0,0,1-.58-.1c-1-.08-1.89-.16-2.89-.22s-2.08-.12-3.11-.17a62.47,62.47,0,0,0-6.26-.17,17.6,17.6,0,0,1-7.12-1c-1.84-.68-3.41-.6-5.25-1-1.33-.28-2.46-.72-3.82-.21-.08,0-.21-.08-.32-.11-1.29-.27-2.58-.57-3.89-.8-.84-.15-1.68-.15-2.54-.28-.49-.08-.87-.3-1.42-.39s-1.23-.06-1.84-.12c-1.9-.19-3.82-.36-5.72-.61-1.43-.19-2.83-.5-4.26-.75-1-.18-1.93-.39-3-.49s-2.54-.06-3.58-.12-1.86-.22-2.81-.26c-1.49-.06-2.92.32-4.33-.28a10.22,10.22,0,0,0-4.2-1,20.12,20.12,0,0,1-3.33-.55c-1.83-.31-3.67-.59-5.52-.86-2.29-.34-4.6-.67-6.91-1-1.33-.17-2.69-.14-4-.34-2.84-.44-5.64-1-8.46-1.52-1.84-.36-3.58-.67-5.47-1a43.31,43.31,0,0,0-7.59-.31c-2.66,0-5.68.28-8.41.44a1,1,0,0,1-.24,0c-1.68-.43-3,.43-4.48,1a3.18,3.18,0,0,1-2.09.2,22.9,22.9,0,0,0-2.39-.37c-.85-.06-1.71,0-2.61-.08s-1.91-.15-2.86-.15c-1.76,0-3.51.16-5.28.07a54.78,54.78,0,0,0-10.08.27c-.93.13-1.89-.09-2.82.13a10,10,0,0,1-2.74.39,65.56,65.56,0,0,0-7.41.21c-4,.35-8.09.82-12.08,1.29-.93.11-2,.09-2.78.13l-2.16.14a37.16,37.16,0,0,1-4.46.25,37.71,37.71,0,0,0-8.43.05c-2,.35-4.1.66-6.16.9-1.13.13-2.27.13-3.4.26-.67.07-1.33.3-2,.42-1.52.28-3.13.52-4.62.84-.93.2-2,.65-2.81.81a19.05,19.05,0,0,1-2.1.05c-2.17.27-4.3.93-6.43.94a40.38,40.38,0,0,0-6.05.8,19,19,0,0,1-3,.29c-1.6,0-2.81-.06-4.58-.22s-3.4-.41-4.25-2.52c-.12-.29-.87-.55-1.41-.53s-1.38.28-2.08.31c-1.76.07-2.7-1.1-2.44-2.92a4.45,4.45,0,0,0,0-1.26c-.06-.29-.68-.28-.7-.23A11.59,11.59,0,0,0,33.93,172a4.72,4.72,0,0,1-3.16,4.3,4,4,0,0,0-1.27,1.05A11.72,11.72,0,0,1,28.17,179a.93.93,0,0,0-.07,1.47,2.66,2.66,0,0,0,1.09.79c1.21.43,1.42,1.1,1.35,2.32,0,.45-.51.8-1.05.94s-1.35,0-2,0-1.54.28-2.31.36a2,2,0,0,0-1.74,1.61c0,.35.44.84.66.83a32.11,32.11,0,0,0,4.39-.55c1.49-.29,3-.8,4.52-1.12,2.62-.55,5.27-1.13,7.89-1.77,2-.49,4-1.21,6-1.54,2.5-.39,5-.44,7.52-.7.63-.06,1.26-.23,1.88-.28,1.47-.09,3-.1,4.45-.19a36.85,36.85,0,0,1,4.31-.19c3.08.16,6-.5,9-.81,1.27-.13,2.5-.58,3.74-.7s2.4.09,3.61,0c1.93-.07,3.86-.25,5.78-.36a14.94,14.94,0,0,0,3.74-.33,15.26,15.26,0,0,1,7-.58c.45.05.85.06,1.28.07,2,0,3.88,0,5.84.11s3.92.33,5.9.32c2.43,0,4.84-.34,7.28-.36a93.05,93.05,0,0,0,11.07-.34,42.21,42.21,0,0,1,6.46,0l4.55.12c1.44,0,2.68-.07,4.06,0,2.62.05,5.09.46,7.71,0a35.55,35.55,0,0,1,5.08-.31c.27,0,.53.08.81.09a19.29,19.29,0,0,0,3.65,0,10.25,10.25,0,0,1,4.27,0,1.77,1.77,0,0,0,.69.05c4.85-.43,9.71-.81,14.56-1.09,2.23-.13,4.47-.1,6.67-.15.93,0,2-.14,2.82-.15s1.5.1,2.26.05c2.65-.16,5.08-.18,7.55.93a7.64,7.64,0,0,1,3.19,3,2.8,2.8,0,0,1,.16,2.35,60.34,60.34,0,0,1-3.21,6.5,11.22,11.22,0,0,1-2.39,2.85,1.92,1.92,0,0,0-.78,1.3c0,.45-.22,1-.44,1.09-2.72.67-4.93,1.77-7.75,1.79a28,28,0,0,0-4.45.76,28,28,0,0,0-4.83.9c-1.6.58-3.35.25-4.65,1.64a.62.62,0,0,1-.33.12c-.65.15-1.34.26-2,.45-1.05.3-2.12.7-3.16,1-1.73.5-3.5,1-5.22,1.42s-3.37.81-5.07,1.19c-1.25.27-2.51.49-3.73.81a16.23,16.23,0,0,1-3.65,1c-3.07.05-6,.54-9,.07a1.29,1.29,0,0,0-.48,0,43.9,43.9,0,0,1-4.8.86c-2.68.23-5.41.35-8.07.38s-5.34-.26-7.93-.12a50.33,50.33,0,0,1-7.47,0,2.07,2.07,0,0,0-.35,0c-1.54,0-2.93.11-4.5.09s-3.27-.21-4.91-.17c-2.12.06-4.27.33-6.41.42a13.17,13.17,0,0,1-1.5-.28c-1.42-.12-2.86-.2-4.28-.28a5,5,0,0,0-1.16.07,7.45,7.45,0,0,1-2.6.5c-1.36-.23-2.38-.75-3.59.15-.05,0-.16,0-.24,0-2.48-.17-5-.36-7.51-.52-1.29-.08-2.79-.07-4-.23a30.54,30.54,0,0,1-3-.8c-1.56-.37-3-.72-4.53-1.05-.4-.09-.8,0-1.21-.11-1.34-.19-2.67-.41-4-.63a33.16,33.16,0,0,0-5.54-.79c-.89,0-1.59.55-2.25-.41-1.94.32-3.76-.38-5.69-.3s-3.66.4-5.62-.15c-1.5-.42-2.76-.92-3.24-2.68a6.89,6.89,0,0,0-.87-1.65c-.62.52-1.61,1.19-1.91,1.91a5.51,5.51,0,0,1-2.87,3,2.35,2.35,0,0,0-1.21,3.31A2.18,2.18,0,0,1,31,208.7c-.56.56-1,.91-1.41,1.36a8.09,8.09,0,0,0-.74,1.09,5.15,5.15,0,0,0,1.12.43c1.82.21,2.25.67,2.35,2.57,0,.11-.08.17,0,.39s.42.79.59,1.05c.29-.19.85-.48,1-.81a4.43,4.43,0,0,1,3.23-2.91,37.24,37.24,0,0,0,4.89-1.74,12.63,12.63,0,0,1,5.44-.86,10.62,10.62,0,0,0,2.46.37,31.53,31.53,0,0,1,7.64.24c2.16.24,4.11,1.23,6.36.94a5.72,5.72,0,0,1,1.67.32,38.08,38.08,0,0,0,4.56,1c2.79.27,5.86.14,8.53.45s5,1,7.56.89,5-.19,7.53-.13c1.64,0,3.17.4,4.8.43,3,.05,6.11,0,9.15-.14,1.52-.06,2.9-.43,4.44-.45,2.42,0,4.65.2,7.16.18s5.2-.74,7.81-.14a2.13,2.13,0,0,0,.73-.14,7.27,7.27,0,0,1,1.39-.24c2.06,0,4.14.14,6.23.17,1.63,0,3.36.11,5,0,2.41-.2,4.83-.72,7.22-.82a26.29,26.29,0,0,0,5.42-1.08c.67-.16,1.33-.29,2-.44,1.39-.32,2.75-.7,4.14-1,.7-.15,1.44-.08,2.14-.23,2.33-.49,4.55-1.14,6.88-1.63,1.14-.24,2.28-.22,3.49-.37s2.54-.37,3.79-.56c2.18-.33,4.41-.67,6.58-1.08,1.47-.29,2.91-.64,4.37-.92.73-.14,1.5-.16,2.22-.3,1.92-.37,3.87-.86,5.78-1.17,1.06-.17,2.29,0,3.25-.09s1.56-.48,2.43-.51c1.57-.06,2.76.17,4.41.11s3.52-.27,5.31-.42,3.9-.43,5.74-.46,3.56.23,5.37.32a5.06,5.06,0,0,0,1.4-.16c2-.49,4-1.13,6.09-1.48,3.31-.56,6.64-1,10-1.45.5-.07,1-.47,1.46-.48s1,.28,1.47.12a13.56,13.56,0,0,1,2.68-.87,27.21,27.21,0,0,0,3.55-.43c2.49-.62,5.15-1,7.7-1.49,1.23-.22,2.48-.49,3.72-.72a2.36,2.36,0,0,1,.7,0,43.89,43.89,0,0,0,8.95-.16c.54,0,1.09.12,1.62.08,1.06-.07,2.13-.18,3.16-.34,1.63-.27,3.34-.74,4.93-.88a41.42,41.42,0,0,1,4.6,0c2.4,0,4.71-.07,7.12.17a12.45,12.45,0,0,1,2.86,1.18,5,5,0,0,1,3.28,5.07,25.22,25.22,0,0,1-1.71,5.71,10.73,10.73,0,0,1-1.92,2.48,5.3,5.3,0,0,1-.76,1,6.56,6.56,0,0,1-1.71,1.29,40.36,40.36,0,0,1-4.12,1.32,44.2,44.2,0,0,1-5.31,1.3c-3.62.53-7.27.82-10.89,1.27-.61.08-1.19.56-1.78.51a11.09,11.09,0,0,0-4.57.51,65.36,65.36,0,0,1-7.64,1.53c-1.78.31-3.58,0-5.18,1.24a1.43,1.43,0,0,1-1,.1,10,10,0,0,0-6.1.65,14.18,14.18,0,0,1-2.93.8c-1,.14-1.73,0-2.71.11s-2.11.43-3.12.52a28.06,28.06,0,0,0-3,.07,38.67,38.67,0,0,1-5.71,1.19,30.21,30.21,0,0,0-5.33,1.13,20.58,20.58,0,0,1-2.78.64c-1.45.15-3.08.1-4.43.18s-2.31.15-3.57.34c-.77.12-1.32.45-2.15.59a19,19,0,0,1-2.68.18c-2.29,0-4.43.6-6.67-.37a1.78,1.78,0,0,0-.83,0,45.66,45.66,0,0,1-4.8.72c-1.49.07-2.32,0-3.49,1-.17.15-.53.1-.92,0s-1.07-.2-1.6-.26a3.45,3.45,0,0,1-3.41-3.39,5.41,5.41,0,0,0-.09-.85c-.08-.24-.19-.46-.4-.52s-.42.13-.51.29a8,8,0,0,0-.74,1.73,9.82,9.82,0,0,1-2.52,3.84c-.65.72-1.68,1.1-1.9,2.08-.36,1.56-.3,2.69.94,3.83a3,3,0,0,1,.61,1.31C178.94,235,179.14,235.65,179.24,236.18Z"/></g><path class="cls-1" d="M326.62,159.56l.21-.19c-.11.11-.12.09,0,0a2.93,2.93,0,0,1,.45-.25l-.09,0,.14,0,.22-.06.23-.05c.3-.07-.26,0,0,0s.31,0,.47,0h.14c.1,0,.06,0-.1,0a.94.94,0,0,1,.28.06l.22.06c.25.08,0,0,0,0s.44.25.49.28l-.45-1.71a11.54,11.54,0,0,0-1.51,3.54,4.56,4.56,0,0,0,.59,3.53,4.22,4.22,0,0,0,2.51,1.69,3,3,0,0,0,2.92-.88,1.25,1.25,0,0,0-1.77-1.77l-.16.17c-.15.18.22-.12,0,0a.59.59,0,0,0-.19.11c.19-.08.22-.1.1-.06l-.1,0c-.26.08.15,0,.05,0h-.22c-.27,0,.14.05,0,0l-.22,0a1.87,1.87,0,0,0-.22-.07q-.14,0,.12.06l-.14-.07s-.42-.24-.41-.25.23.2,0,0l-.17-.16-.16-.19s.18.26,0,0l-.12-.21c-.13-.22.08.26,0,0,0-.08-.05-.15-.07-.23s-.05-.39,0-.14a4.09,4.09,0,0,1,0-.7c0-.29,0,.13,0-.14,0-.11,0-.23.08-.35s.13-.46.21-.69c0,0,.14-.35.06-.15l.15-.34c.23-.48.49-1,.76-1.41a1.28,1.28,0,0,0-.45-1.71,4.68,4.68,0,0,0-5.75.59,1.25,1.25,0,0,0,1.77,1.76Z"/><path class="cls-1" d="M336.42,144.31l5.1.18-1.21-1.59-1.38,8.58a1.28,1.28,0,0,0,.88,1.54,8,8,0,0,0,7.74-2.67,1.3,1.3,0,0,0,0-1.77,1.26,1.26,0,0,0-1.77,0,5.59,5.59,0,0,1-5.31,2l.87,1.54,1.38-8.58a1.27,1.27,0,0,0-1.2-1.58l-5.1-.18c-1.61-.06-1.6,2.44,0,2.5Z"/><path class="cls-1" d="M345,128.84l8,2.16-.75-1.83a6.6,6.6,0,1,0,11.1,7.07c.78-1.4-1.38-2.67-2.16-1.26a4.11,4.11,0,1,1-6.78-4.55,1.26,1.26,0,0,0-.75-1.84l-8-2.16a1.25,1.25,0,0,0-.67,2.41Z"/></svg>