<svg id="Layer_1" data-name="Layer 1" xmlns="http://www.w3.org/2000/svg" viewBox="0 0 370 370"><g id="kMHYkX.tif"><path d="M314.36,257.7a44.06,44.06,0,0,1,13.15-2c.9-3.14-1.27-4.59-3.14-6a7.66,7.66,0,0,1-2.82-5.1c-.19-1.17,1.81-2.6,3.33-2.3a15.14,15.14,0,0,1,3.57,1.48c1.22.61,2.3,2.47,4.14,1.39.23-.14.43-.34.8-.63l-1-.34a3.86,3.86,0,0,1,4-2.5c.15,0,.39,0,.46-.1,1-1.43,1.56-.12,1.86.43.84,1.55,2.11,3.11.71,5.06a.93.93,0,0,0,.48,1.47c.33.15.38.89.61,1.49a10,10,0,0,1,1.73-1.52,19.34,19.34,0,0,1,3.56-1.54,1,1,0,0,1,1.44.86,3.84,3.84,0,0,0,.92,1.5,2.88,2.88,0,0,1,.56,2.86,19.26,19.26,0,0,0-.27,2.3c0,.25-.35.44-.5.68-.45.77-.87,1.55-1.33,2.31a2.26,2.26,0,0,1-.66.82c-1.05.57-1.11,1.13-.07,1.78a10.7,10.7,0,0,0,2.18,1.12c1.91.63,2.5,2.33,3,3.93a1.92,1.92,0,0,1-1,2.3c-1.21.56-2.22,1.53-3.44,2a10.18,10.18,0,0,1-3.05.42c-1.32.09-1.93,1.06-1.12,2.15s.46,1.79.45,2.81c0,1.19-.75,2-.9,3.09,0,.3-1,.75-1.5.64a4.51,4.51,0,0,1-2-1.17,15.33,15.33,0,0,1-2.83-3.35c-1-1.77-2.44-2.7-3.83-3.84a7.71,7.71,0,0,0-8.77-2,12.61,12.61,0,0,1-3.52,1c-1.27,0-2.5.69-3.84,0-.56-.26-1.46.18-2.2.3-.54.08-1.09.12-1.62.25s-1,.36-1.48.48a3.89,3.89,0,0,1-1.83.27,3.43,3.43,0,0,0-2.26.23,21.92,21.92,0,0,1-3.65.39c-1.86.21-3.71.49-5.58.65s-3.31,1.56-5.2.81a.58.58,0,0,0-.26,0c-2.25.47-4.49.95-6.75,1.41-1.5.31-3,.64-4.53.84-2.14.28-4.32.19-6.4,1a7.2,7.2,0,0,1-2.28.24c-2.24.06-4.48,0-6.71.15a10.74,10.74,0,0,0-1.9.61c-2.84.76-5.69,1.49-8.53,2.24a20.6,20.6,0,0,1-3.11.8,26.24,26.24,0,0,1-3.65-.11l-1.72,0c-.08,0-.22.08-.24.05-.95-1.11-1.62-.24-2.48.2a5.57,5.57,0,0,1-2.15.18,12.75,12.75,0,0,0-2.15.11,7,7,0,0,1-7.88-4.23,1.55,1.55,0,0,0-.57-.83c-1.57-.69-1.85-2.34-2.74-3.53-.55-.74-1.21-1.39-1.79-2.11a7.47,7.47,0,0,1-1.06-1.57,24.38,24.38,0,0,1-2.18-6.87c-.15-1.11-.79-2.18-.7-3.39,0-.22-.33-.46-.49-.7s-.47-.58-.48-.88c-.07-1.18,0-2.36-.08-3.54a17.45,17.45,0,0,0-.33-1.87c-.25-1.66-.54-3.32-.7-5a10.57,10.57,0,0,1,.25-2.22c0-.12.18-.24.17-.34-.16-1.32-.34-2.64-.52-4,0-.17-.15-.34-.13-.5.48-3.43-.8-6.77-.6-10.2.12-2.1.08-4.21,0-6.31a14.16,14.16,0,0,0-.53-2.62,19.26,19.26,0,0,1,.14-8c.62-3.43.39-6.89.47-10.35,0-2,.45-4.06.54-6.1.08-1.68-.11-3.38-.13-5.07,0-1.23.07-2.47.08-3.71,0-1.82-.11-3.65,0-5.47.1-2.17.38-4.33.52-6.5.06-.88-.09-1.77-.09-2.66,0-.59.08-1.18.13-1.77,0-.16.12-.4.05-.46-1-1-.26-2-.14-3.1S220,164,220,162.9s.24-2.32.3-3.49,0-2.45.06-3.66c.15-2-.64-3.86-.87-5.8-.09-.79-.3-1.24-1.2-1.34a5.37,5.37,0,0,1-1.62-.75c-1-.51-1.67-.3-1.76.8s-.66,1.34-1.57,1.21c-.55,2.54-2.84,5.83-6.25,5.54a2.15,2.15,0,0,1-1.4-1,4.42,4.42,0,0,1-.45-2.13c0-1.39.22-2.77.34-4.16a1.1,1.1,0,0,0,0-.51c-1.08-3,.28-5.65.86-8.44a7.9,7.9,0,0,0,0-2.52,8,8,0,0,0-.58-2.22,4.71,4.71,0,0,0-1.19-1.48,10.43,10.43,0,0,0-1.64-1c.27-.31.39-.42.49-.55l.86-1.09a5.28,5.28,0,0,0-1.44-.61,3,3,0,0,0-1.48.36,7.46,7.46,0,0,1-4.07.4c-.5,0-1,.09-1.52,0-.78-.09-1.54-.31-2.32-.4-1.64-.19-3.28-.32-4.92-.5-.65-.08-1.29-.24-1.93-.38-.21,0-.4-.21-.6-.22-1.72-.07-3.44-.06-5.16-.18a13.66,13.66,0,0,1-2.2-.56c-.75-.19-1.63-.7-2.23-.47-1.67.61-3.3,0-4.93.16-2.06.22-4.12.51-6.18.77a4.41,4.41,0,0,1-1.5.17,25.08,25.08,0,0,0-5.46-.41,10.21,10.21,0,0,0-4.26.29,5.9,5.9,0,0,1-4.27-.26c-1.31-.65-2.3-.06-3.28.15-1.32.29-2.52,1.09-3.92.3-.15-.09-.42,0-.63,0a3.68,3.68,0,0,1-2.52-.15c-.59-.28-1.57.23-2.37.43-.45.11-.89.44-1.31.4-1.39-.15-2.76-.45-4.14-.64a13,13,0,0,0-1.65,0c-2.26,0-4.52,0-6.78,0-1.18,0-2.35-.26-3.56-.4a27.51,27.51,0,0,1-.81,2.73,1.3,1.3,0,0,1-.9.6,3.49,3.49,0,0,1-3.42-2,3,3,0,0,0-2.84-2c-1.68-.17-3.35-.5-5-.67a3.45,3.45,0,0,0-1.38.38c-.15,0-.27.34-.37.32-1.65-.31-2,1-2.47,2a3.3,3.3,0,0,0-.3,1.31c0,3.2.13,6.4,0,9.59a12.86,12.86,0,0,0,.08,3.39c.22,1.09-.24,2.31-.37,3.48-.19,1.82-.36,3.64-.54,5.47a18,18,0,0,1-.44,3.77,4.56,4.56,0,0,0,.13,2.72,15.67,15.67,0,0,1,.44,2.88c.09,1.58.09,3.17.1,4.75,0,1.38-.58,3.12.06,4.08,1,1.54-.56,2.73.12,4.17a12.37,12.37,0,0,1,.68,4.17,23.52,23.52,0,0,1,.08,3.46c0,1.08-.26,2.16-.43,3.45,1.44.62,1.54,2.1,1.46,3.65,0,.21-.08.49,0,.63,1.45,2,.71,4.55,1.73,6.68.23.48-.28,1.31-.47,2.06,1.79.68.49,2.2.72,3.36a28.65,28.65,0,0,1,.32,3.61c0,.42-.07.85-.09,1.27s-.09.75.06.86c1.21.87.7,2,.41,3-.19.69-.42,1.32.34,1.84a.75.75,0,0,1,.2.57,22.18,22.18,0,0,1,0,3c-.27,2.59.69,5.07.62,7.62a8.15,8.15,0,0,1-.39,1.73c0,.2-.23.47-.16.6.88,1.55.22,3.32.72,4.93a2.92,2.92,0,0,1,.15,1.13c-.14,1.43-.34,2.85-.52,4.27,0,.09-.07.19,0,.26a8.41,8.41,0,0,1,.48,4.6,9.43,9.43,0,0,0-.17,1.75c.15,1.72.47,3.43.57,5.16s1.35,2.24,2.6,2.52c1.82.4,3.65,1.47,5.61.44a.41.41,0,0,1,.37,0c1.79,1.19,3.66.08,5.47.23a7.92,7.92,0,0,1,2.1.79c.27.11.55.19.83.29a3.33,3.33,0,0,1,1.73,1.52c.89,1.37.43,2.34.31,3.65a2.65,2.65,0,0,1-1.41,2.26,5,5,0,0,1-3.13.64c-.93-.16-1.55-.2-2.05.43.27,1.43.59,2.78.76,4.14a2.57,2.57,0,0,1-3.16,3c-.46-.11-.8-.72-1.21-1.08a18.39,18.39,0,0,0-2-1.71,22.2,22.2,0,0,0-2.62-1.16c.16,1.91-1,3.7.28,5.54-.74,1-1.53,1.81-3,1.58-.66-.11-1.31-.05-1.47-.91a.39.39,0,0,0-.17-.19,7.15,7.15,0,0,1-2.83-3.34c-.46-.89-.87-.61-1.27.07-.58,1-1.21,2-1.76,3-.41.75-.82,1.39-1.84,1.28s-1.34-1-1.73-1.82c-.92-1.83-.68-3.7-.3-5.6a1.12,1.12,0,0,0-1.44-1.39,8.27,8.27,0,0,0-2.94,1.61c-1.06,1-3.85,1.74-5.11,1.07a1.51,1.51,0,0,1-.47-.67c-1.07-2,0-3.67.85-5.39.28-.6.4-1.27.72-1.83,1.15-2,2.17-4,4.23-5.35,1.14-.73,1.19-2.19,1.05-3.52-.19-1.73-.37-3.46-.52-5.19-.25-2.78-.45-5.56-.7-8.33s-.52-5.29-.81-7.93c-.13-1.24-.83-2.4-.1-3.74.27-.49-.17-1.35-.27-2-.2-1.35-.47-2.7-.56-4.07-.11-1.57,0-3.15-.09-4.73a29.86,29.86,0,0,1-.34-4.6c.15-1.41-.91-2.83.09-4.21.12-.17,0-.57-.13-.84s-.36-.52-.3-.67c.46-1.07-.12-2.26.13-3.14.33-1.12-.45-1.69-.5-2.56a33.1,33.1,0,0,0-.67-3.38c-.11-.73,0-1.49,0-2.24-.11-1.88-.28-3.76-.35-5.64s0-3.83-.12-5.74c-.18-2.37-.62-4.72-.81-7.09-.14-1.78-.06-3.58-.07-5.36,0-1.2,0-2.39,0-3.59,0-2.54.14-5.09.12-7.63a25.63,25.63,0,0,0-.4-2.56c-.12-1.09-.14-2.18-.24-3.28,0-.59-.2-1.17-.22-1.76a6.82,6.82,0,0,1,.21-2c-.59-1.23-1-2.49-.58-3.43-.31-1.58-.53-2.73-.77-3.88-.43-2.07-1.32-4.17-1.2-6.21.15-2.63-1.6-5.05-.57-7.69a.47.47,0,0,0,0-.37c-1.15-1.29-1.46-3.39-3.52-3.8-1.17-.23-2.36-.31-3.54-.48a33.47,33.47,0,0,0-4.42-.59,29.67,29.67,0,0,0-5.48.53,1.32,1.32,0,0,0-.79,2c1.22,2.14.7,4.31.43,6.49a12.06,12.06,0,0,1-.22,2.2,7,7,0,0,1-2.83,3.86c-.35.22-.53.74-.77,1.14-.13.2-.15.55-.31.63-1,.53-2.05,1-3.08,1.49-2.18,1-4.61,1.06-6.89,1.71-.12,0-.28.15-.35.11-1.45-.89-3,0-4.41-.14-1-.09-2-.07-2-1.63-1.76,1.25-3.09.49-4.4-.48a1,1,0,0,0-.59-.23,4,4,0,0,1-3.23-1.12c-1.29-1.21-3-2-4.35-3.13a18.81,18.81,0,0,1-2.82-3.39c-.29-.42-.16-1.1-.32-1.63a3.5,3.5,0,0,1-.37-1.24c-.12-.45-.28-.91-.37-1.37-.22-1-.43-2.09-.61-3.15a6.51,6.51,0,0,1-.2-1.9A10.56,10.56,0,0,1,32,115.73a16.67,16.67,0,0,0,1.51-2.68,5.86,5.86,0,0,1,1-1.81c2.82-2.33,5.72-4.31,9.78-3.79,2.44.31,5-.28,7.45-.07,3.39.27,6.77.86,10.13,1.41,3.62.59,7.22,1,10.85.24.82-.18,1.59-.6,2.42-.74,1.87-.32,3.76-.54,5.65-.77,1.69-.21,3.39-.46,5.09-.53,2.47-.11,4.94,0,7.41-.1,2.07,0,4.16-.08,6.22-.29,3-.31,6.08-.76,9.11-1.18.58-.08,1.13-.38,1.71-.49a32.28,32.28,0,0,0,4.53-.82,9.89,9.89,0,0,1,4.22-.18,6.58,6.58,0,0,0,1.83-.32c.2,0,.45-.2.6-.13,2,.89,4.05.59,6.09.24s4-.86,6-1.22a26.33,26.33,0,0,1,2.94-.27,75.2,75.2,0,0,1,9.46-.59c3.14.17,5.6-1.53,8.33-2.36a49.53,49.53,0,0,1,8.72-1.42c.76-.09,1.51-.27,2.28-.33,1.64-.14,3.3-.18,4.94-.33s3.4-.42,5.09-.62c.47-.06.94,0,1.4-.11.66-.11,1.31-.3,2-.44,1.49-.31,3-.57,4.48-.94,2.23-.57,4.42-1.3,6.66-1.81,2.66-.61,5.35-1,8-1.57a12.83,12.83,0,0,0,1.37-.29,31.72,31.72,0,0,1,11-1.71,38.58,38.58,0,0,0,5.36.22c3.53-.3,7,.42,10.42.76,1.9.19,3.83,2.29,4.33,4.14.17.62,1,1,1.29,1.66a29.74,29.74,0,0,1,2,4.16c.76,2.17,1.38,4.39,2,6.62.3,1.15.41,2.35.6,3.52,0,.13,0,.3,0,.38a5.12,5.12,0,0,1,.9,4.16c-.24,1.56,1,2.85.36,4.47a3.54,3.54,0,0,0,.37,2.46,4.8,4.8,0,0,1,0,3.36,10.57,10.57,0,0,0,.12,2c0,2.74-.38,5.48.44,8.19.17.56-.43,1.31-.41,2a38.9,38.9,0,0,0,.38,4.45c.2,1.49.57,3,.76,4.46a4.07,4.07,0,0,1-.31,1.5,4.44,4.44,0,0,0-.05,2.32c.21,1-.31,2.08-.54,3.27,1.45.78.43,2.29.34,3.46a40.8,40.8,0,0,1-1.21,7c-.26,1-.62,1.92,0,2.9.09.12-.13.44-.17.68a7.11,7.11,0,0,0-.13,1.13c0,.45.14.91.11,1.36a48.67,48.67,0,0,1-.73,7.07,7.1,7.1,0,0,0-.28,3.29c.06.26-.3.59-.36.91a3.69,3.69,0,0,0-.07,1.28,14.69,14.69,0,0,1,.39,2.23c-.1,2.23-.31,4.46-.48,6.68a6.16,6.16,0,0,1-.22,1.12,7.08,7.08,0,0,0-.06,2.83,18.33,18.33,0,0,1-.47,4.44c0,.48,0,1-.09,1.45s-.1,1.12-.17,1.67a23.69,23.69,0,0,1-.33,2.37,6.4,6.4,0,0,1-.55,1.24c1,.77.61,1.54.09,2.58-.37.74-.08,1.81-.1,2.74,0,.5-.08,1-.09,1.51s-.16,1.07.08,1.38a4.31,4.31,0,0,1,.33,4.75,1.65,1.65,0,0,0-.17.83c0,.88.07,1.77.11,2.66l-.39.07.56.42c.07.93.12,1.65.17,2.37,0,.34.2.73.07,1a1.91,1.91,0,0,0,.5,2.43,1.52,1.52,0,0,1,.2,1.27,1.69,1.69,0,0,0,.64,2.22,2.63,2.63,0,0,1,.81,1.67c.2,1.42.8,2.85.07,4.31-.13.27.11.72.19,1.09a10.82,10.82,0,0,1,.42,3.81c-.11.69.64,1.49.56,2.19-.2,1.84,1,3.27,1.25,4.94a25.62,25.62,0,0,0,2.18,6.44,48.27,48.27,0,0,0,3,5c.64,1.13,1.19,2.41,2.7,2.38,1.12,0,2.23-.54,3.35-.6,2.27-.11,4.3-1.4,6.69-1.09,1.1.14,2.29-.48,3.46-.6,1.57-.16,3.15-.1,4.71-.27,1.18-.13,2.33-.56,3.52-.71,1.53-.19,3.07-.21,4.61-.33,1.18-.09,2.36-.26,3.55-.33a38.36,38.36,0,0,0,3.88-.16c1.85-.31,3.64-1,5.49-1.24,2-.28,4.13-.25,6.2-.37.55,0,1.08-.14,1.63-.19.92-.07,1.84-.12,2.77-.18,1.38-.1,2.76-.25,4.14-.31.78,0,1.58.17,2.35.07,3.16-.4,6.3-.91,9.46-1.3A4.66,4.66,0,0,1,314.36,257.7Zm25.38,3a5.32,5.32,0,0,1,.55-1.66c1-1.27,2.73-1.86,3.29-3.55.06-.2.38-.33.6-.46a3.21,3.21,0,0,0,1.65-3.34,1.54,1.54,0,0,0-.61-1.08c-.33-.12-.86.13-1.24.32a10.88,10.88,0,0,0-1.6,1,3.47,3.47,0,0,0-.95,1,17.25,17.25,0,0,1-1.5,2.9,1.79,1.79,0,0,1-2.57.29,3.38,3.38,0,0,1-.81-2.73c.67-2,0-4,.25-6,0-.26-.33-.7-.61-.83s-.67.19-.81.43a1.29,1.29,0,0,0,.09.89c.12.33.49.65.47,1a7.33,7.33,0,0,1-.48,2.08,1.72,1.72,0,0,1-.88.86c-1.26.5-4.28-.7-4.54-2-.29-1.47-1.36-2.21-2.21-3.19-.44-.52-.95-1.2-1.46-.48a2,2,0,0,0,.4,1.88c1.94.8,2.8,2.49,3.78,4.09a6.18,6.18,0,0,1,.49,1.76,13.85,13.85,0,0,1,.37,1.92c0,.44.13,1.13-.12,1.32a13,13,0,0,1-3,1.84c-.34.15-1-.45-1.49-.69-.11-.05-.29-.09-.37,0a5.85,5.85,0,0,1-4.62.89c-.12,0-.27.2-.43.25a4.19,4.19,0,0,1-1.23.27,18.14,18.14,0,0,0-7.18,1.15,6.14,6.14,0,0,1-2.26,0c-1,0-2.2-.41-2.8,0a5.22,5.22,0,0,1-4.06,1,23.26,23.26,0,0,0-3.4.28c-1.14,0-2.29-.09-3.44-.06a53.47,53.47,0,0,1-6.06.18,12.7,12.7,0,0,0-3.86.47c-1.77.36-3.62.4-5.43.59a10.63,10.63,0,0,0-1.25.25c-2.09.52-4.09,1.47-6.39.93a10.48,10.48,0,0,0-3.58-.08c-1.66.23-3.29.74-4.95,1-2.05.36-4.27-.87-6.22.65-.13.11-.48-.05-.73-.1a4,4,0,0,0-1.09-.21c-1.13.14-2.24.36-3.36.55l-5.36.9c-1.46.25-3.07.61-4.34-.1a11.3,11.3,0,0,1-3.52-3.19,17.1,17.1,0,0,1-1.6-3.82,7.12,7.12,0,0,0-.36-.67,24.66,24.66,0,0,1-1.49-3.06c-.74-2.21-1.17-4.54-2-6.7a21.12,21.12,0,0,1-1.24-5.91c-.28-2.93-1-5.82-.95-8.79a5.66,5.66,0,0,0-.41-2.2,17.19,17.19,0,0,1-1.37-8.46,17,17,0,0,0-.05-2.67,21.72,21.72,0,0,0-.45-3.53c-.49-1.94-.12-4.11-.05-6.19.07-1.89.16-3.79.32-5.68.2-2.33.54-4.64.7-7,.13-1.78,0-3.58.13-5.37a8.11,8.11,0,0,1,.69-3.24,5,5,0,0,0,.25-2.95c0-.83-.3-1.66-.36-2.49-.13-1.58.4-3.12.06-4.77-.21-1,.5-2.25.78-3.39a5.2,5.2,0,0,0,.21-1.35c0-.81-.21-1.62-.23-2.43a15.06,15.06,0,0,1,.14-2.32,10.6,10.6,0,0,1,.61-3.43,4.16,4.16,0,0,0,.23-3.44,1.14,1.14,0,0,1-.1-.61,12.49,12.49,0,0,0,.54-3.85c.09-2.59.6-5.17.72-7.76a80.69,80.69,0,0,0,0-8.23c-.1-1.83-.65-3.63-.78-5.46-.16-2-.07-4.1-.1-6.15,0-2.46-.23-4.92-.09-7.36a31.44,31.44,0,0,0-.62-6.79c-.19-1.26-.4-2.51-.62-3.76a66.93,66.93,0,0,0-1.29-6.92,54.29,54.29,0,0,0-1.66-5.46,27.52,27.52,0,0,0-2.46-5.13c-1.22-1.88-2.83-3.11-5.26-2.79a3,3,0,0,1-1.24-.24,13,13,0,0,0-7.26-.81,6.86,6.86,0,0,1-2.31-.27,17,17,0,0,1-2.15.38c-2.1.12-4.22,0-6.3.28a14.31,14.31,0,0,0-3.06,1.16,5.74,5.74,0,0,1-1.24.29c-1.79.28-3.6.52-5.39.83-.48.08-1,.53-1.26-.26,0,0-.71.15-.71.23,0,.86-.27.79-.95.54a2.78,2.78,0,0,0-1.58.27c-.84.28-1.65.68-2.49,1a9.12,9.12,0,0,0-1.54.33c-1.08.59-2,1.52-3.43,1-.22-.09-.56.12-.84.18a29.38,29.38,0,0,1-5.2,1.2c-2.94.15-5.89-.09-8.83-.16-.13,0-.3,0-.37.06a2.68,2.68,0,0,1-3.15.76c-.16-.06-.39.17-.6.19-.42,0-.84,0-1.27,0q-1.87.1-3.75.24c-.09,0-.17.19-.27.25-1.09.62-1.81,2-3.53,1.23-.6-.26-1.76.46-2.49,1a5.62,5.62,0,0,1-3.43.9c-1.11-.26-2.27-.47-3.11.76-.62-.69-1.18-.94-1.92-.26-.25.23-.78.18-1.19.21a12.46,12.46,0,0,0-1.5.06c-1.36.28-2.68.78-4.05.93-2.91.33-5.83.51-8.75.7-.6,0-1.23-.31-1.83-.26a60.76,60.76,0,0,1-7.45.59c-2.23-.12-4.18.68-6.26,1-1.89.32-3.77.67-5.66.94a25.36,25.36,0,0,0-3.64.36c-.73.22-1.29.56-2,.08a1.67,1.67,0,0,0-.87-.2c-2.3,0-4.61,0-6.92.07a9.36,9.36,0,0,0-1.85.38c-1.1.26-2.22.73-3.17-.36-.37.13-.82.45-1.06.33-1.57-.79-2.92.61-4.63.29s-3.9.93-5.88,1.42c-1,.25-2.27,0-3.1.57-2,1.24-4.31-.37-6.22.92-.05,0-.17,0-.24,0-1.91-1-3.93-.83-6-.54a3,3,0,0,1-1.1-.16c-1-.24-2-.86-2.85-.69-2.79.53-5.33-.2-7.91-1a5.06,5.06,0,0,0-2,0c-.92.1-1.82.36-2.74.49-1.75.25-3.74-.42-5.1,1.37-.12.16-.51.11-.71.25A4.1,4.1,0,0,0,37,113.63a35.71,35.71,0,0,1-3.08,5.07c-.8,1-.76,2.71-1.06,4.11,0,.15.18.36.3.52.92,1.24,1.64,2.5.81,4.1-.14.27-.13.91,0,1a5,5,0,0,1,2.23,2.06,8.69,8.69,0,0,0,3.34,3A9.77,9.77,0,0,1,42.09,135c.16.18.56.15.84.22a19.86,19.86,0,0,1,2.67.74c1.29.56,2.5,1.35,4,.88.34-.1.76.14,1.14.13a26.89,26.89,0,0,0,3.48-.25,23.5,23.5,0,0,0,3.7-1c1.27-.44,2.76-.74,3.65-1.62a8.87,8.87,0,0,0,2.72-4.74,11.21,11.21,0,0,0-.74-6.27c-.59-1.64-.81-3.7,1-4.93a6.59,6.59,0,0,1,4.31-1.3c.74.06,1.52-.3,2.28-.29a22.42,22.42,0,0,1,2.55.38,9.23,9.23,0,0,0,1.56.19,16.52,16.52,0,0,1,3.28-.11c2.09.41,4.11,1.13,6.17,1.64,2.21.54,2.89,1.26,3.1,3.49a5.76,5.76,0,0,0,.17,1c.37,1.48.77,2.95,1.13,4.43.15.62.23,1.26.34,1.89a34.38,34.38,0,0,0-.14,4.07c0,.07.08.15.13.22.78,1,1.29,2,.64,3.13a15.12,15.12,0,0,1,1.13,4.21c.13,1.47,1.18,3.07-.36,4.29a16.2,16.2,0,0,1,1.08,3.13c.2,1.73-.11,3.55.26,5.22.32,1.45-.78,3,.39,4.3.11.12-.09.49-.11.74a25.77,25.77,0,0,0-.27,3.6c.13,2.79.39,5.56.6,8.34.08,1,.17,2,.27,3q.27,2.72.57,5.43c0,.26.12.5.12.75.06,3.25.1,6.5.17,9.75,0,.57.24,1.13.28,1.7.07.86,0,1.73.1,2.58.19,1.25.63,2.48.74,3.73.13,1.44-.07,2.9,0,4.34.12,2.05.42,4.1-.45,6.08-.08.17.11.45.17.68a5.73,5.73,0,0,1,.32,1.33c0,.7-.31,1.52,0,2.09.64,1.4.25,2.79.29,4.19,0,.4.13.8.13,1.2a22.48,22.48,0,0,0,0,4c.33,1.71,1.42,3.27.86,5.13,1.2,1.19,0,2.63.39,3.93a6.17,6.17,0,0,1,.09,2.39c0,.65-.31,1.28.66,1.5a.93.93,0,0,1,.22.83c-1,1.2-.18,2.43,0,3.58.41,2.58,1,5.12-.13,7.14.43,1.21.73,2,1,2.84.61,1.88.63,3.64-1,5.12a3.92,3.92,0,0,0-.67.94c-1,1.69-2.11,3.33-4,4.13a1.47,1.47,0,0,0-.7,2.13c.39.82,1.15.29,1.65-.24a6.25,6.25,0,0,1,.84-.93,6.82,6.82,0,0,1,1.93-1,10.17,10.17,0,0,1,2-.06c1.18-.1,1.78.33,1.92,1.48s.92,1.55,2,1.16a7.91,7.91,0,0,1,2.06-.53c1.77-.13,1,1.64,1.71,2.39.2.22.09.7.11.93l1.77,1c.2-.61.38-1.2.58-1.78.26-.75.33-1.7.85-2.19,1.52-1.45,5.43-.2,6.37,1.92.12.26.43.43.65.64,0-.31.2-.7.08-.93-.67-1.22-1.4-2.39-2.1-3.58,1.44-1.64,2-1.83,4-1.38a7.72,7.72,0,0,0,2,.45,33.63,33.63,0,0,0,3.65-.69c.26-.81.26-.81-1.1-2.45a19.34,19.34,0,0,0-2.81-.53c-1.17-.06-2.35.1-3.52.1s-2.36.86-3.8.27c-1-.43-2.4,0-3.6-.06-2.77-.25-3.81-1.11-4.26-3.79-.41-2.42-.59-4.89-.84-7.34-.1-1-.18-2.09-.18-3.13a32,32,0,0,0,0-5.54c-.17-.93.56-1.82.13-2.35-.88-1.07-.24-2-.24-3,0-.76-.11-1.51-.16-2.26-.09-1.44-.25-2.88-.26-4.31,0-2,.55-4,0-5.83-.81-2.63-.41-5.26-.78-7.86-.21-1.52-.12-3.08-.25-4.61-.07-.87-.34-1.73-.45-2.6-.19-1.41-.28-2.83-.47-4.24-.14-1-.39-1.92-.58-2.88-.24-1.16-.49-2.31-.69-3.48-.32-1.88-.66-3.76-.91-5.66-.22-1.68-.26-3.39-.48-5.07s-.69-3.39-.83-5.1c-.15-1.86,0-3.75-.09-5.62-.06-1.27-.43-2.53-.47-3.8-.07-2.22.06-4.44,0-6.66,0-1.1-.38-2.21-.31-3.3.13-2.15.48-4.28.7-6.42a18.05,18.05,0,0,1,.26-3.55,21.09,21.09,0,0,0,.38-4c.15-1.54.33-3.08.47-4.63a4.66,4.66,0,0,0,0-1.49c-.12-.57-.77-1.26-.6-1.6.69-1.37,0-2.66-.17-3.91-.26-2,1.44-5.4,2.9-5.37a8.22,8.22,0,0,1,1.2-1.19c1.48-.89,3.08-.71,4.74-.61,3,.19,6,.07,9.08.14,1.52,0,3.08.48,4.55.26s2.47,1.33,4.21.62c1.37-.56,3.21.66,4.85-.13a.47.47,0,0,1,.38,0c1.45.92,3.13,0,4.77.74,1.44.6,3.45.15,5.14-.16a33.36,33.36,0,0,1,9.24-.6,23.83,23.83,0,0,0,3,.33c2.48-.06,4.95-.27,7.43-.36,1.16,0,2.31.07,3.47.1a5.82,5.82,0,0,0,1.82,0,18.28,18.28,0,0,1,7.31-.91c2.61.26,5.24.47,7.86.74.87.09,1.72.32,2.59.45,1.09.17,2.18.31,3.27.45.66.09,1.32.18,2,.23a31,31,0,0,1,4.74.32c3.43.77,6.81,1.13,10.19-.13a1.48,1.48,0,0,1,.63,0c1,.09,2.06.16,3.08.32,2.53.4,5.06.85,7.59,1.3a1.14,1.14,0,0,1,.52.32c.67.67,1.33,1.35,2,2,1,1.08,2.7,1.7,2.46,3.7-.17,1.46.74,2.34,1.81,3.27.78.69,1.95,1,2.26,2.38a5,5,0,0,1,.2,2.84c-.36,1.12-.2,2.44-.69,3.48-.73,1.56-.18,3-.18,4.55a15.16,15.16,0,0,0,.26,2c.11.44.54,1.18.37,1.75-.28,1-.84,1.87.1,2.78-1.05,1.13-.24,2.37-.22,3.56,0,.4-.28.82-.24,1.21a32.46,32.46,0,0,1,.46,3.89c0,1,.61,2.34-.7,3a4.57,4.57,0,0,1,.42,1.4c-.07,1.42-.22,2.85-.38,4.27-.25,2,.53,4,.28,6.1-.28,2.44-.76,5,.08,7.5.05.16-.17.39-.2.59a17,17,0,0,0-.4,3.06c.06,1.93.38,3.84.43,5.76,0,1.09-.34,2.18-.36,3.27,0,1.71.13,3.41.18,5.12A9.23,9.23,0,0,1,223,207q-.3,3-.64,5.94a6.48,6.48,0,0,1-.24.83,4.33,4.33,0,0,0-.27,1.38c.21,1.72.52,3.43.77,5.15s.94,3.4-.14,5.07c-.12.17,0,.49,0,.73,0,.77.08,1.53.07,2.3,0,.37-.26.81-.15,1.11a9.33,9.33,0,0,1,.56,4c-.12,2.08.53,4.2.73,6.31.09.87-.24,1.77-.2,2.64s.66,1.54.48,2.18c-.58,2.16.42,4.14.47,6.22,0,1.29.41,2.57.57,3.87a8.32,8.32,0,0,1-.09,1.57,18.36,18.36,0,0,1,1.61,4.07,8.53,8.53,0,0,1,0,2.47c0,.4-.08.81-.12,1.21l1.41.55-.65,1.13c.3.25.64.41.8.68.73,1.17,1,2.73,2.56,3.22.1,0,.17.19.23.3.7,1.28,1.36,2.59,2.11,3.84.21.36.68.56,1,.84s.61.5.9.77.62.88,1,.94a28.82,28.82,0,0,0,4.52.44c1.64,0,3.28-.25,4.92-.38a10.85,10.85,0,0,1,2.57-.37,11,11,0,0,0,1.25.12c2.31-.38,4.62-.79,6.91-1.24,1.17-.24,2.29-.65,3.45-.9,1.76-.37,3.53-.73,5.31-1a52.35,52.35,0,0,1,5.86-.57c1.07,0,2.15.35,3-.7a.86.86,0,0,1,.6-.2c1.56,0,3.13.13,4.69.06a22.22,22.22,0,0,0,4-.5c1.53-.33,3-1,4.53-1.25s3.3-.27,4.94-.45c1.14-.13,2.27-.32,3.4-.55,1.94-.4,3.87-.91,5.82-1.28s4.16.27,6.14-.78a5.42,5.42,0,0,1,2.08-.25c1.18-.08,2.37,0,3.55-.17,2.15-.23,4.28-.55,6.42-.84a6.91,6.91,0,0,0,1.22-.21c2.47-.81,4.88-1.64,7.57-.67,2.24.8,4.52,1.42,6.19,3.26,1.05,1.16,2.12,2.3,3.22,3.4a2.72,2.72,0,0,0,1,.39c.06-.33.23-.72.13-1-.19-.55-.64-1-.79-1.56-.19-.72-.49-1.68-.17-2.17s1.32-.61,2-.64c2.09-.1,4.18-.06,6.26-.08a1,1,0,0,0,.38-.07c.74-.33,1.34-1.58.89-1.93-.89-.7-1.62-1.66-3-1.64s-2.92-.11-4-.16Zm-124.68-117c-1.33-.31-1.34-1.39-.93-2.32.8-1.85-.09-3.17-1.11-4.5s-1.84-1.25-3-.18a6.9,6.9,0,0,1-.89.64,4.38,4.38,0,0,1-1,4.39,1.87,1.87,0,0,0-.36,1.33c0,.22.52.59.79.58,1.85-.07,2.08,0,2.89,1.84.41.93,1.16,1.25,1.66.67C213.76,145.48,214.33,144.69,215.06,143.77Zm-7.75,3.81.25,3.86a3.52,3.52,0,0,0,1.36-.28c.55-.37.89-1,1.4-1.44.67-.55.62-.85-.18-1.12C209.16,148.27,208.19,147.9,207.31,147.58Z"/></g></svg>