<svg id="Layer_1" data-name="Layer 1" xmlns="http://www.w3.org/2000/svg" viewBox="0 0 370 370"><g id="_1c6cek.tif" data-name="1c6cek.tif"><path d="M226.83,178.85c5.14.1,10.14,1.12,14.36,4.28a17.48,17.48,0,0,1,6.59,8.76c2.43,7.3,2.85,14.92,4.43,22.33.81,3.75.46,7.74.67,11.62s1,7.59.53,11.25c-.51,3.86.43,7.43.76,11.12.39,4.23,1.15,8.42,1.56,12.65.36,3.73.37,7.49.7,11.22.47,5.46.7,11,1.75,16.33s.7,10.77,1,16.16c.31,5.17,1.26,10.31,2,15.46,0,.23.36.42.54.62,4.3-2.27,5.78-1.7,6.91,2,2.06.8,4.09,1,5.19,2.18s0,3.08-3.42,6.2l.84,1.15a2.75,2.75,0,0,1-1.49,4.46c-1.29.44-2.52,1.06-3.78,1.61-1.09.48-1.18,1.15-.4,2,.33.37.83.78.87,1.21.09,1.13,0,2.27,0,3.41a21.84,21.84,0,0,1-3.89-.15,12.74,12.74,0,0,1-2.84-1.41l-.36.55c.44.62.9,1.24,1.33,1.88.85,1.26,1.55,2.52.08,3.86a3.37,3.37,0,0,1-4.87.25c-2.32-1.83-2.56-4.54-2.74-7.09-.6-8.37-1-16.76-1.43-25.15-.16-3.39,0-6.78-.13-10.17-.18-4.67-.37-9.34-.78-14-.75-8.73-1.54-17.45-2.55-26.15-.48-4.06-1.54-8.05-2.24-12.09-.28-1.61-.29-3.27-.45-4.91-.33-3.45-.6-6.9-1-10.34-.59-4.58-1.23-9.16-2-13.72-.73-4.4-.92-8.91-3.55-12.87-1.78-2.68-2.83-5.86-4.6-8.56a49.77,49.77,0,0,0-5.59-6.58,2,2,0,0,0-1.95-.1,11.64,11.64,0,0,0-3,2.73c-2.08,2.91-4.05,5.91-6,8.94-2.88,4.61-5.64,9.3-8.51,13.93-1.77,2.87-3.79,5.6-5.45,8.53-1.18,2.11-1.83,4.51-2.9,6.68-1.7,3.43-3.45,6.83-5.37,10.13-1.43,2.47-3.32,4.67-4.74,7.15a81.64,81.64,0,0,0-4.21,8.55,48.16,48.16,0,0,1-5.33,9.76c-1.3,1.78-2,4-3.11,5.93-3.7,6.18-7.53,12.29-11.24,18.47-1.15,1.92-2.05,4-3.13,5.94-2.8,5.07-5.75,10.05-8.41,15.18-2.08,4-3.82,8.25-5.69,12.39-.83,1.83-1.52,3.73-2.46,5.49-.66,1.23-.05,1.68.84,2.2a6.43,6.43,0,0,1,3.52,5.38c.17,2.84-1.93,4.72-4.64,3.92-1.29-.38-1.85-.11-2.15,1.23-.22,1-.62,2.23-1.35,2.65-.5.28-1.94-.45-2.53-1.12-1.05-1.18-1.7-1-2.86-.14a4.45,4.45,0,0,1-3.17,1c-1.59-.38-1.76-1.9-1.4-3.4a3.66,3.66,0,0,0-.15-1.06,6.5,6.5,0,0,1-1.68.34c-.85-.06-2.27-.1-2.4-.51a5.77,5.77,0,0,1,.09-3.13c.16-.63.94-1.07,1.3-1.67a25.42,25.42,0,0,0,1.15-2.44,15.22,15.22,0,0,1-1.56-.46c-1.46-.61-3.21-1-2.54-3.28a3.58,3.58,0,0,1,4.5-2.34,6.46,6.46,0,0,0,6.73-1.8,21.31,21.31,0,0,0,3-4.72q4.91-8.58,9.71-17.2c1-1.74,1.72-3.6,2.66-5.36,3.48-6.45,7.06-12.85,10.47-19.34q5.72-10.86,11.2-21.83c3.26-6.52,6.24-13.19,9.65-19.64,2.64-5,5.82-9.69,8.65-14.58,3.26-5.62,6.42-11.29,9.58-17,1-1.89,2.07-3.81,2.93-5.79,2.87-6.72-.35-10.16-6.63-11.45A86.74,86.74,0,0,0,179.71,195c-4.84.15-9.69.23-14.53.05-4.54-.17-9.07-1-13.61-1.05-5.86-.11-11.74.16-17.6.36-3.61.11-4.82,2.95-6.07,5.67a14.58,14.58,0,0,0-1,2.62,40.29,40.29,0,0,0-.75,4.37c-.26,2.37-.22,4.8-.69,7.12a63.89,63.89,0,0,0-.29,22.11c.35,2.38-.28,4.89-.43,7.35-.54,9.14-1,18.28-1.63,27.41-.3,4.07-1.34,8.08-1.58,12.15-.49,8.14-.62,16.29-1,24.44-.08,2,1.25,2.67,2.75,2.5,1.92-.21,3.4.3,4.19,1.94.88,1.81-.11,3.5-1,5.07a9.73,9.73,0,0,1-1.5,1.61,21.42,21.42,0,0,1,1.93,3.58c.73,2.2-.25,3.25-2.57,3-1.08-.12-2.16-.36-3.24-.55,0,1.13.08,2.26,0,3.39a4.4,4.4,0,0,1-.35,1.69c-.38.78-.9,2.1-1.39,2.11a5.15,5.15,0,0,1-2.82-1.14,13.94,13.94,0,0,1-2-2.19c-4.17,3.83-4.87,3.57-6.65-2.46a10.87,10.87,0,0,1-2.07.95c-1,.23-2.76.6-2.9.3a5.23,5.23,0,0,1-.52-3.59,13.93,13.93,0,0,1,2.91-4.5,14.84,14.84,0,0,0,4-11.44,47.45,47.45,0,0,1,.42-4.73c.45-9.25.82-18.5,1.33-27.75.15-2.72.7-5.43,1-8.15.5-5.12,1.13-10.24,1.37-15.38.48-9.9.76-19.82,1.07-29.73.09-3-.12-6.09.08-9.12.34-4.94.82-9.88,1.4-14.81.42-3.53-.43-4.52-3.88-4.8-4.66-.39-9.29-1.07-13.93-1.63-1.27-.15-2.07.2-2.27,1.64-1.3,9.07-10.19,12.74-17.8,7.52-3.26-2.24-5.61-5-6.36-8.87A11.33,11.33,0,0,1,79,178.74c2.19-.88,4.78-.86,7.2-1,3.82-.26,7.36,1.54,11.09,1.81a103.11,103.11,0,0,0,12.18.05c3.82-.18,5-1.68,4.26-5.46-.92-5-2.18-9.87-3.08-14.84-.94-5.12-2.13-10.28-2.3-15.45-.26-8-1.23-15.9-.2-24,.93-7.28.35-14.75.4-22.13,0-3.94.19-7.89-.05-11.81-.22-3.46-1-6.89-1.34-10.35-.45-5-1-10.12-.94-15.17,0-6.5-1.88-12.41-4.45-18.2-.66-1.48-3.25-2.22-4.89-1.9a11.27,11.27,0,0,1-4.51.16,3.11,3.11,0,0,1-1.87-2.3,7,7,0,0,1,1.25-3.47c.37-.61,1.27-.9,2.35-1.61-1.08-.29-1.93-.26-2.26-.66a5.4,5.4,0,0,1-1.41-2.82c0-.51,1.28-1.3,2.11-1.55,1-.3,2.18-.05,3.23-.26a11.08,11.08,0,0,0,2.44-1.32c-1.41-.75-2.33-1.25-3.25-1.72-.7-.36-1.74-.49-2.07-1a15.35,15.35,0,0,1-1.08-3.36,9.49,9.49,0,0,1,2.54-.68,7.39,7.39,0,0,1,6.3,3.64,5.76,5.76,0,0,0,1.8,1.84c.54.32,1.37.14,2.06.18a5,5,0,0,0-.08-2c-1.47-3-3.25-5.79-4.54-8.82-1-2.45,0-3.55,2.62-3.46a6.47,6.47,0,0,1,5.46,4.3c.68,2.09,1.52,4.12,2.39,6.14.15.36.72.6,1.15.72.12,0,.35-.64.64-.83a22.87,22.87,0,0,1,4.7-2.76c.94-.32,2.14,3.48,1.64,5.1a8.25,8.25,0,0,0-.57,2.69,10.38,10.38,0,0,1-2.86,7.28,7.9,7.9,0,0,0-1.58,6.51c.45,3.58.48,7.21.83,10.8.31,3.15.88,6.28,1.23,9.43.69,6.33,1.42,12.65,1.94,19,.56,6.92,1,13.87,1.32,20.81.36,8.28.34,16.59.85,24.86.43,7.05,1.28,14.09,2.12,21.11.42,3.5,1.3,6.94,1.88,10.43.67,4,.83,8.21,2,12.08a22,22,0,0,0,4.71,7.91c1,1.13,3.41,1.08,5.2,1.46,2,.42,3.95.8,5.95,1a65.47,65.47,0,0,0,6.71.54c7.31.12,14.62.28,21.93.17s14.47-.63,21.7-.81m-67,134.69-.27-.64h-4.08c-1.48,0-2.57-.38-2.53-2.19,0-2.16-.07-4.31,0-6.46.19-5.55.19-11.12.71-16.64.62-6.56,1.89-13.06,2.54-19.62.54-5.45.71-10.95.81-16.44.12-6.05,1.53-12,.51-18.16a49.36,49.36,0,0,1-.24-10.39c.18-3.89.78-7.76,1.12-11.65.19-2.31-.16-4.73.41-6.93a67.37,67.37,0,0,1,3.61-10.09c.48-1.12,1.74-2.53,2.8-2.68,4.41-.61,8.77-2,13.32-1.32a23.79,23.79,0,0,0,4.3-.06,58.07,58.07,0,0,1,6.3-.28c4.91.32,9.8,1.06,14.71,1.26,6.34.25,12.7-.08,19,.25,4.89.26,10,.44,14.58,1.89,8.7,2.73,10.24,8.34,7,15.92-1.9,4.42-4.65,8.47-7,12.69s-4.61,8.66-7.25,12.78a133,133,0,0,0-11.08,20.77c-.52,1.26-1.4,2.37-2,3.59-2.27,4.43-4.46,8.9-6.75,13.32-2.92,5.63-6,11.22-8.87,16.85-2.06,4-4,8-6.05,12-1.4,2.7-2.93,5.32-4.38,8-2.48,4.58-4.91,9.19-7.44,13.75-.54,1-1.6,1.67-2.11,2.66-1.52,2.95-2.61,6.13-4.38,8.9-1.21,1.9-2.79,3.94-5.68,3.77-.39,0-1.08.85-1.19,1.39s.22,1.78.5,1.82c2.91.46,2.46,2.49,2.1,4.65,1.83-.37,3.49-.74,5.16-1s3.22-.44,5.26-.7a22.11,22.11,0,0,0-2.36-2.8c-2.86-2.49-3-3.59-.78-6.49a10.59,10.59,0,0,0,1.25-2.26c2.22-5.09,4.11-10.36,6.67-15.27,4.15-8,8.65-15.74,13.15-23.51,3.95-6.81,8.13-13.48,12.17-20.23,1.63-2.72,3.26-5.45,4.73-8.26,1.71-3.24,3.22-6.58,4.88-9.85.59-1.14,1.47-2.14,2.08-3.27,3.19-5.93,6.25-11.92,9.53-17.8,4.09-7.32,8.15-14.66,12.57-21.77,3.58-5.75,7.67-11.19,11.56-16.75,1.28-1.83,5.9-2.16,7.37-.47s3.06,3.6,4.43,5.52a53.61,53.61,0,0,1,5.9,10.06A45.34,45.34,0,0,1,245,222.59c.32,2.15.33,4.34.64,6.5.75,5.16,1.47,10.33,2.42,15.46.92,5-.09,10.18,2,15a17.61,17.61,0,0,1,.88,5.11c.6,6,.66,12.17,1.82,18.1,1.32,6.79,1.26,13.62,1.69,20.43.36,5.56.14,11.14.38,16.71.23,4.93.76,9.85,1.12,14.78.09,1.3,0,2.61.12,3.9,0,.47.5,1.23.83,1.27,1.84.21,3.69.23,5.6.31a2.43,2.43,0,0,0-.05-.72c-1.45-3.29-1.44-3.27,1.95-4.54,1.41-.52,2.77-1.18,4.15-1.77l-.15-.59-1.93-.74-2.88-5.54c-1-.19-2.67-.08-3-.68a33.34,33.34,0,0,1-2.54-6.83c-.33-1.21,0-2.58-.07-3.88-.25-3.63-.57-7.26-.85-10.89q-.67-8.64-1.32-17.27c-.23-3.08-.44-6.15-.66-9.22-.08-1.08-.12-2.17-.3-3.24-.3-1.89-.74-3.76-1-5.65-.21-1.35-.25-2.73-.4-4.08-.7-6.12-1.53-12.21-2.07-18.34-.31-3.59-.1-7.22-.25-10.82s-.5-7.36-.72-11a71.07,71.07,0,0,0-.44-8c-1.26-7.24-2.9-14.41-4.15-21.66-1-5.87-4.61-9.11-9.88-11.12-4-1.54-8.12-1.72-12.37-1.63-8.56.2-17.13.08-25.69.15-2.31,0-4.62.38-6.92.39-3.23,0-6.46-.29-9.69-.22-6.14.13-12.27.5-18.42.64q-7.41.17-14.83,0c-2.43,0-4.85-.45-7.27-.68a36.44,36.44,0,0,0-4.52-.39c-3,.07-6-.43-7.81-3-2.66-3.63-5-7.53-5.84-12.05-.93-4.9-1.78-9.81-2.52-14.74-1-6.71-2.24-13.42-2.71-20.17-.67-9.45-.72-18.94-1-28.41-.17-4.85-.17-9.71-.61-14.53-.9-9.75-2.06-19.47-3.1-29.2-.58-5.44-1.2-10.87-1.67-16.32-.38-4.52-.69-9.09,2.82-12.79A5.83,5.83,0,0,0,115,28.92a14.22,14.22,0,0,0,.4-3L113.86,27c-2.57,1.78-3.31,1.58-4.33-1.4-.84-2.47-1.4-5-2.31-7.48A13.06,13.06,0,0,0,105,14.57c-.31-.39-1.14-.35-1.73-.5,0,.59-.23,1.3,0,1.76,1.18,2.21,2.66,4.27,3.68,6.55.58,1.28,1.12,3.3.51,4.22-1,1.46-2.55,3.08-5,2.07-1-.42-2.74,1.19-2.25,2.09,1.14,2.09-.29,3.19-1.37,4.44,1.85,1.5,3.91,2.73,5.38,4.45,3.7,4.34,4.18,9.91,4.95,15.22.56,3.9.3,7.91.45,11.87a38.65,38.65,0,0,0,.4,4.29c.42,2.91,1.14,5.8,1.33,8.73.39,5.75.06,11.57.83,17.26,1.07,7.88-.09,15.61-.46,23.41a116.44,116.44,0,0,0-.21,14.7c.58,7.49,1.73,14.93,2.7,22.38.21,1.64.76,3.24,1,4.88.86,4.9,1.86,9.79,2.4,14.73a5.15,5.15,0,0,1-2.57,5.07c-2.66,1.61-5.43,1.46-8.29,1.21-1-.09-2.12-.07-3.18-.06-1.3,0-2.6.08-3.9.11-1.55,0-3.22-.32-4.61.17a2.37,2.37,0,0,1-2.67-.46A8.08,8.08,0,0,0,89,181.28a13.08,13.08,0,0,0-9.71,2.07c-3.91,2.78-5,8.46-1.59,11.84a18.36,18.36,0,0,0,5.92,3.8c3.16,1.27,8.09-1.66,8.66-4.94.27-1.54-.06-3.19.23-4.73a3.09,3.09,0,0,1,1.67-2,6.78,6.78,0,0,1,2.94.18c3.78.52,7.55,1.17,11.34,1.58,2.14.23,4.33,0,6.48.15a4.93,4.93,0,0,1,4.34,2.79,12.31,12.31,0,0,1,.88,7.13c-.53,4.83-1.06,9.66-1.38,14.5-.37,5.34-.47,10.69-.75,16-.15,2.83-.53,5.64-.65,8.46-.17,3.74,0,7.5-.3,11.24-.46,6.12-1.28,12.22-1.72,18.35-.6,8.6-1,17.21-1.49,25.82-.3,5-.4,10-1.15,14.93-.54,3.51.69,7.51-2.45,10.25.83,1.27,1.53,2.34,2.25,3.42,1.08-.52.84-2.95,2.66-1.81A14.76,14.76,0,0,1,117.7,323c.71-1.66.09-4.53,3.57-3.53-2.17-2.67-1.94-3.16,1-4A10.55,10.55,0,0,0,124.84,313.69Z"/></g></svg>