<svg id="Layer_1" data-name="Layer 1" xmlns="http://www.w3.org/2000/svg" viewBox="0 0 370 370"><g id="veN3j0.tif"><path d="M167.49,129.72a1.42,1.42,0,0,1,1-1.77c.2-.08.34-.39.42-.62a13.1,13.1,0,0,1,.83-2.33,13.56,13.56,0,0,1,6.28-5.09c2.75-1.18,5.73-2,8.84-1a7.66,7.66,0,0,0,1.45.16c1.24.14,2.5.21,3.71.47s2.28.11,3.36.26a7.56,7.56,0,0,0,4.9-1,7.12,7.12,0,0,0,3.18-4.49c.58-2-.68-3.79-.78-5.69a4.29,4.29,0,0,0-2.21-3.87c-.51-.3-.86-.86-1.37-1.16-2-1.16-3.07-3.11-4.41-4.84A13.49,13.49,0,0,1,190.11,93c-.17-.87-.82-1.68-.86-2.54a12.56,12.56,0,0,1,1.69-6.65c.69-1.27,1.31-2.59,2.07-3.8s1.76-2.18,2.41-3.39c.9-1.67,2.45-2.65,3.82-3.75A15.78,15.78,0,0,1,207,69.5a14.9,14.9,0,0,1,10.14,2.35c.79.48,1.63.86,2.43,1.31a3.87,3.87,0,0,1,.62.53,12.16,12.16,0,0,1,1.2,1.18c.74.95,1.45,1.93,2.15,2.93a18.09,18.09,0,0,1,1.68,2.61c1.11,2.36,2.39,4.67,2.22,7.46-.06,1.06.44,2.15.47,3.24a35.92,35.92,0,0,1-.26,4.13c-.07.67-.28,1.32-.39,2-.48,2.93-1.08,5.85-3.35,8-1.5,1.39-3.21,2.56-4.85,3.8-.62.47-1.34.81-2,1.28a3.3,3.3,0,0,0-1.34,2.67,10.33,10.33,0,0,0,2.45,6.93,10.79,10.79,0,0,0,3.17,2.32c2.5,1.58,5.51,2.35,7.57,4.62,1,1.12,1.95,2.29,2.93,3.43a12.05,12.05,0,0,1,1.19,1.3,25.36,25.36,0,0,1,1.77,3c.75,1.55,1.41,3.14,2.05,4.74a10.82,10.82,0,0,1,.43,1.72c.54,2.53,1.15,5.06,1.6,7.62s.78,5.32,1.21,8c.3,1.88.7,3.73,1,5.6.35,2.07.66,4.14,1,6.21.15.91.35,1.81.52,2.72a23.22,23.22,0,0,0,.88,4.45,15.86,15.86,0,0,1,.72,4.15c.1.73.71,1.38.94,2.11s.2,1.47.36,2.2.4,1.19.57,1.8c.6,2.26,1.06,4.57,1.8,6.78.86,2.6,2,5.11,2.94,7.7.53,1.47.85,3,1.3,4.51.55,1.79,1.15,3.57,1.72,5.35a11.77,11.77,0,0,1,.47,1.74,18.16,18.16,0,0,0,1.9,5.58,7.55,7.55,0,0,1,.33,2,19.9,19.9,0,0,1,.91,1.88c.69,1.8,1.28,3.62,2,5.42a39.76,39.76,0,0,1,2.11,5.51,9.63,9.63,0,0,0,1.7,4.31,9.32,9.32,0,0,1,1.09,2.49c.61,1.64,1.07,3.35,1.81,4.92a8.52,8.52,0,0,0,1.95,2.42,6.74,6.74,0,0,1,2,3.65,3.86,3.86,0,0,0,1.8,2.84c1.54,1,2.64,2.7,3.92,4.12.46.5.85,1.07,1.31,1.57,1.08,1.15.77,2.69,1.17,4a.93.93,0,0,1-.23.68,3.81,3.81,0,0,1-5.19,1.2l-1.72-.83a20.93,20.93,0,0,0,.31,3.21,4,4,0,0,1-.86,3.74c-.7.85-1,.82-2,.09a13,13,0,0,0-1.46-.82,3.54,3.54,0,0,1-1.73-2.77c-.15.87-1.53,1.12-1,2.29a.68.68,0,0,1-.06.52,23.23,23.23,0,0,1-1.69,2.85,1.7,1.7,0,0,1-2.75-.72c-.18-.7-.22-1.43-.37-2.15a5.33,5.33,0,0,0-.35-.91,6.41,6.41,0,0,0-1.08.54,17.21,17.21,0,0,1-2.38,1.86,2.68,2.68,0,0,1-3.6-1.09,2.32,2.32,0,0,1-.22-.82c-.09-1.71-.07-1.57-1.83-1.48a3.57,3.57,0,0,1-2.65-.87c-.72-.94-1.47-2.22-.28-3.57.74-.84,1.15-2,1.87-2.82a3.72,3.72,0,0,1,1.75-1.09,3.18,3.18,0,0,0,2.31-3.44c-.07-.49-.12-1-.15-1.49-.12-2.14-.11-4.31-.38-6.43a20.15,20.15,0,0,0-1.31-5.47,17.92,17.92,0,0,1-1.15-3.14c-.49-2.08-1-4.16-1.53-6.24-.64-2.51-1.31-5-1.95-7.51-.58-2.26-1.16-4.52-1.68-6.8-.44-1.92-.78-3.87-1.2-5.8a3.18,3.18,0,0,0-.45-1c-.13-.2-.41-.34-.48-.56-.38-1.21-.76-2.43-1-3.67-.19-.85,0-1.86-.32-2.58a25.35,25.35,0,0,1-1.22-3.92c-.31-1,0-2.12-.9-2.95a.76.76,0,0,1-.14-.7c.61-1-.06-1.74-.33-2.59-.38-1.25-.61-2.54-1-3.8-.16-.57-.48-1.1-.65-1.67-.72-2.44-1.58-4.86-2.06-7.36-.42-2.2-1.38-4.2-1.88-6.35-.26-1.1-.4-2.23-.66-3.34-.22-.92-.56-1.82-.77-2.75-.1-.44.07-.93,0-1.37-.14-.8-.36-1.59-.55-2.38-.08-.31-.32-.69-.22-.92.77-1.86-.35-3.62-.27-5.47,0-1.09-.88-2.19-1.22-3.34a26.39,26.39,0,0,1-1.11-4.85,21,21,0,0,0-1.8-7.48c-.07-.12-.22-.23-.23-.36-.14-2.39-2-3.77-3.3-5.46a7,7,0,0,0-3.38-2.12c-1.12-.34-1.53,1-1.92,1.79a13.43,13.43,0,0,0-.86,6c0,4.4.08,8.8.18,13.2,0,.94.35,1.88.42,2.83s-.07,1.84,0,2.75c.12,2.95.27,5.89.41,8.84,0,.17.09.38,0,.52-.66,1.56,0,3,.29,4.5.39,2,.55,4.09.88,6.12a17.51,17.51,0,0,0,.74,2.33c0,.17.17.37.13.51-.59,2,.37,3.86.63,5.78.31,2.27.79,4.52,1.18,6.77.44,2.58.92,5.15,1.25,7.74.25,1.9.26,3.84.43,5.75.1,1.05.33,2.09.48,3.15.21,1.6.32,3.22.64,4.8s.81,2.88,1.21,4.33c.31,1.15.56,2.32.88,3.47.38,1.41.86,2.78,1.19,4.2.37,1.58.6,3.19.92,4.78.12.59.33,1.15.47,1.73.67,2.78,1.34,5.55,2,8.33a7.69,7.69,0,0,1,.09,1.8c0,.49,0,1,0,1.48-.06,1.26-.07,2.53-.25,3.78a7.8,7.8,0,0,1-3.14,5.25c-2.07,1.54-4.08,3.1-6.73,3.8a50.48,50.48,0,0,1-9.91,1.92c-3.07.2-6.12.85-9.19,1.14-2.26.22-4.54.19-6.81.27s-4.31.16-6.46.27c-.79,0-1.58-.32-2.37.43-.36.34-1.37.06-2.07,0a9.56,9.56,0,0,0-2.17-.34,3.4,3.4,0,0,1-1.2.4,23.42,23.42,0,0,1-2.49-.39,1.14,1.14,0,0,0-.52,0c-.84.25-1.65.58-2.5.77-1.66.35-3.34.65-5,.92s-3.44.5-5.17.72c-2.64.35-5.3.56-7.91,1a3.13,3.13,0,0,0-2.87,2.65,4.66,4.66,0,0,1-1.24,1.82,31.38,31.38,0,0,1-3.41,3.85,11.71,11.71,0,0,1-3.59,1.92c-2.46.91-5,1.76-7.49,2.42-2.16.56-4.4.82-6.6,1.22-1.25.23-2.49.55-3.75.71-3.31.44-6.62.85-9.94,1.21-1.55.17-3.13.1-4.67.33a2.93,2.93,0,0,0-2.31,1.43,28.07,28.07,0,0,1-2.06,2.84,7.31,7.31,0,0,0-.58.87,4.8,4.8,0,0,1-4,2.19c-.32,0-.63-.43-.87-.71a2.93,2.93,0,0,1-.54-3.15l-1.8-.15a2.32,2.32,0,0,1-1.76-3.56,12.27,12.27,0,0,0,.89-1.91c.29-.77,0-1.16-.86-1.14-.6,0-1.2-.05-1.8,0-1.08,0-1.46-.75-1.81-1.52s.18-1.25.69-1.74.85-1.21,1.43-1.56a20.89,20.89,0,0,1,2.49-.89,9.74,9.74,0,0,0,1.39-.87,5.94,5.94,0,0,0-.94-1.2c-1.46-1.13-1.83-2.41-1.46-3.41a3.69,3.69,0,0,1,5.37-2.05c1.6.89,3.18,1.82,4.76,2.75a2,2,0,0,1,.59.45c1.32,1.54,1.81,1.53,3.84,1a32.41,32.41,0,0,1,5.4-.67c2.45-.18,4.91-.27,7.37-.39,1.22-.05,2.44,0,3.66-.1a19.9,19.9,0,0,0,2.3-.33c2-.37,3.89-.76,5.83-1.15a1.2,1.2,0,0,0,.65-.28A19.89,19.89,0,0,0,142.3,268,8.27,8.27,0,0,0,144,264.5c.1-.81.53-1.58.65-2.4a20.3,20.3,0,0,0,0-2.34,6.35,6.35,0,0,1,.19-1.13c0-.1.16-.22.13-.28-.54-1.34.07-2.63.15-3.94.09-1.59-.46-3.1-.28-4.75.16-1.45-.55-3-.89-4.51-.24-1.11-.51-2.21-.76-3.32,0-.1,0-.25,0-.31-1.64-2-1.22-4.68-2.25-6.92-.47-1-.25-2.34-.42-3.51-.08-.53-.45-1-.55-1.54-.29-1.47-.43-3-.75-4.43-.49-2.22-1.08-4.42-1.62-6.63,0-.14-.11-.3-.07-.42.64-2.16-.61-4-.84-6.09-.07-.68,0-1.38,0-2.07,0-.14,0-.36,0-.4-1.19-.81-.78-2.14-1-3.22-.6-3-1.08-6-1.53-9.06-.31-2-.46-4.1-.73-6.13-.1-.76-.41-1.48-.53-2.23a8.84,8.84,0,0,1-.14-2.23c.17-2,.38-4,.68-6a6.83,6.83,0,0,1,5.16-5.38c2.14-.48,4.27-1,6.42-1.44a6.74,6.74,0,0,1,2-.16,1.17,1.17,0,0,0,1.34-.95c.83-2.45,1.62-4.9,2.47-7.33.65-1.84,1.37-3.65,2.06-5.47a.16.16,0,0,1,0-.09,7.33,7.33,0,0,0,1.53-3.44,21.08,21.08,0,0,1,1.57-3.57c.21-.51.14-1.14.36-1.64.59-1.32,1.29-2.6,1.92-3.91,1-2,1.94-4.09,2.93-6.13.34-.72.79-1.39,1.12-2.11.21-.48.22-1.06.45-1.52.52-1,1.14-1.95,1.68-2.94.69-1.24,1.32-2.51,2-3.74A7.21,7.21,0,0,1,167.49,129.72Zm75.26,67.22c.47,1.48,1,3,1.44,4.5a5.87,5.87,0,0,1,.54,2,14.42,14.42,0,0,0,1,5c.51,1.8,1.19,3.55,1.8,5.32.43,1.22.38,2.5.84,3.77a60.87,60.87,0,0,1,1.77,7.4c.15.69.22,1.4.4,2.08.54,2,1.14,4,1.67,6,.76,2.84,1.47,5.69,2.2,8.54.14.58.23,1.17.39,1.74a12.78,12.78,0,0,1,.63,1.93c.15,1.21,0,2.46.23,3.67.21,1.41.77,2.78.88,4.19a15.28,15.28,0,0,1-.3,4.32,24.12,24.12,0,0,1-1.48,3.73,3,3,0,0,1-2.21,1.82,4.41,4.41,0,0,0-1,.56l.15.3c.75-.18,1.52-.32,2.25-.56.56-.18.9-.3,1.29.39a8,8,0,0,0,1.6,1.64c.59-.63,1.11-1.24,1.69-1.81a1.78,1.78,0,0,1,2.71.06c.39.38.84.71,1.29,1.08a8.23,8.23,0,0,0,1-1.15,2.57,2.57,0,0,1,2.27-1.46c.55,0,1.25-.89,1.5-1.52s.69-1.21,1.38-1.23a4.58,4.58,0,0,1,1.65.45c.2.07.33.39.53.44.78.18,1.57.33,2.37.44a3.41,3.41,0,0,0,.92-.12,3.84,3.84,0,0,0-.29-.53,42.61,42.61,0,0,0-3-3.22,18.12,18.12,0,0,1-2.91-3.74c-1-1.54-1.88-3.18-2.82-4.77-.3-.5-.69-1-1-1.47a12.16,12.16,0,0,1-.73-1.65c-.12-.32,0-.85-.23-1-1.23-.74-1.59-1.95-2-3.2a8.58,8.58,0,0,0-1.35-3.13c-1.05-1.18-.59-3.05-2.05-4-.06,0,0-.21-.05-.31q-1.46-4.38-2.92-8.76c-.21-.64-.49-1.25-.66-1.89-.37-1.37-.65-2.76-1-4.12-.22-.77-.58-1.51-.87-2.26a9.87,9.87,0,0,1-1-3.76.3.3,0,0,0-.08-.2c-1.48-1.68-1.33-3.92-2-5.87-.48-1.39-.69-2.86-1.14-4.26-.2-.61-.81-1.09-1-1.71-.93-2.69-1.8-5.4-2.63-8.13a68.55,68.55,0,0,0-2.35-7.67,1.81,1.81,0,0,1,0-.53,16.24,16.24,0,0,0-.22-2.1c-.1-.42-.64-.78-.65-1.17a12,12,0,0,0-.7-3.36c-.34-1.08-.24-2.29-.47-3.41-.58-2.77-1.27-5.53-1.87-8.3-.53-2.42-1.08-4.83-1.47-7.27-.47-2.92-.76-5.86-1.17-8.79a18.22,18.22,0,0,0-.67-3.3c-.7-2-.16-4.36-1.72-6.12a.38.38,0,0,1,0-.1c-.56-1.44-1.1-2.88-1.68-4.31-1.15-2.78-3.56-4.42-5.76-6.24a10.43,10.43,0,0,0-2.36-1.62c-3-1.32-6-2.74-8.2-5.34a12.61,12.61,0,0,1-2.88-11.43c.53-2.41,1.8-4.58,4.21-5.4a14.67,14.67,0,0,0,5.18-3.6,5.7,5.7,0,0,0,2-3.56,31.75,31.75,0,0,1,.78-3.58,13.88,13.88,0,0,0,.49-6.35,39.05,39.05,0,0,0-1.06-4c-.76-2.42-2.44-4.25-3.42-6.5a4.53,4.53,0,0,0-1.66-2,62.3,62.3,0,0,0-6.48-3.39,14.73,14.73,0,0,0-3.42-.7c-.06,0-.14,0-.2.07-.54.15-1.08.29-1.61.45a17.46,17.46,0,0,0-2.91,1c-1.25.66-2.37,1.54-3.57,2.29A9.54,9.54,0,0,0,197.51,79a45,45,0,0,0-3.83,6,8.48,8.48,0,0,0-.56,6.48,23.47,23.47,0,0,0,1.81,3.87A15.18,15.18,0,0,0,197,98.11c1,1.07,2.19,2,3.26,3A11.63,11.63,0,0,1,201.9,103c.71,1,1.74,2.08,1.82,3.19a17.66,17.66,0,0,0,.9,3.54,4.61,4.61,0,0,1,.33,1.64,35.18,35.18,0,0,1-.82,4.91,13.3,13.3,0,0,1-1.34,2.48c-1.06,2-3.1,3.11-4.62,4.69a.87.87,0,0,1-.49.2c-1.5.29-3,.7-4.5,0a1.85,1.85,0,0,0-.63-.08c-1.44-.12-2.89-.21-4.33-.38-3.08-.36-6.1-1.35-9.26-.3-2.51.84-4.89,1.73-6.3,4.21-1,1.69-2,3.32-3.09,5a17.41,17.41,0,0,0-2.08,3.31c-.54,1.54-2.13,2.63-1.87,4.48,0,.06-.06.13-.09.19-.66,1.13-1.37,2.22-1.95,3.39-1.35,2.73-2.64,5.49-4,8.24a17.85,17.85,0,0,0-.93,1.92c-.56,1.63-1,3.32-1.59,4.94-.75,2-1.64,3.93-2.44,5.91-.4,1-.7,2-1.08,3s-.79,1.86-1.15,2.81a27.06,27.06,0,0,0-.91,2.67.81.81,0,0,0,.4.66c.84.28,1.7.47,2.55.7.34.09.78.07,1,.29.47.43,1,.6,1.42.2a2.78,2.78,0,0,0,.54-1.26,12.69,12.69,0,0,1,.87-2.94c.77-1.27,1.83-2.33,2-3.94a18.1,18.1,0,0,1,1-3.44c.67-2,1.26-4.06,2.12-6a27.09,27.09,0,0,1,3.09-5.55c1.45-1.91,1.28-4.4,2.69-6.27.47-.63.58-1.51,1-2.18,1.57-2.49,3.12-5,4.85-7.38a20.61,20.61,0,0,1,5.18-5.53,7.52,7.52,0,0,1,7.28-.85,10.34,10.34,0,0,1,2.43,1.53,6.6,6.6,0,0,1,2.9,4.14,38.6,38.6,0,0,1,.43,5.15c.06,2.33,0,4.66-.05,7,0,.91,0,1.82-.05,2.72a3.1,3.1,0,0,1,0,.43c-.29,2.45-.65,4.9-.87,7.36s-.28,4.94-.44,7.41c-.11,1.59-.31,3.17-.44,4.76-.1,1.27-.08,2.55-.26,3.8a17.54,17.54,0,0,0-.28,4.29,56.29,56.29,0,0,1,0,6.23c0,1.33-.19,2.66-.15,4,.06,2.82.16,5.63.36,8.44a54.89,54.89,0,0,0,.72,5.56c.45,2.62,1.11,5.22,1.49,7.85s.51,5.35.85,8a41.9,41.9,0,0,0,.89,4.57c.33,1.37,1.1,2.71,1.12,4.06a30.63,30.63,0,0,1-.66,6.82,16.85,16.85,0,0,1-5.44,8.75c-.67.62-1.74.8-2.41,1.42a4.25,4.25,0,0,1-2.84,1.22,12,12,0,0,0-2.08.47,19.06,19.06,0,0,1-7,.63.9.9,0,0,0-.4.05,38.9,38.9,0,0,1-3.72,1.28,22.5,22.5,0,0,1-3.4.3c-2.86.19-5.71.44-8.57.52-1,0-1.32.27-1.28,1.2.06,1.16.14,2.33.11,3.49,0,1.41-.12,2.82-.26,4.23-.1.95.2,2-.7,2.79a.56.56,0,0,0-.09.49,7.49,7.49,0,0,1,.16,3.93c-.17,1,.07,1.27,1.14,1.15,1.68-.19,3.35-.41,5-.57,3.16-.31,6.34-.56,9.5-.88,2-.2,4-.49,5.93-.73a26,26,0,0,1,3.19.09c2.46,0,4.91-.48,7.37-.71,1.12-.1,2.25,0,3.37-.08,1.33,0,2.65-.12,4-.15,1,0,2.06.07,3.08,0,2.3-.21,4.59-.58,6.88-.75,1.48-.1,3,.4,4.37-.6.17-.12.56.12.83.09a7.69,7.69,0,0,0,1.25-.25,6,6,0,0,1,.77-.28,34.43,34.43,0,0,0,8.07-1.88,14,14,0,0,0,5.26-3.46.93.93,0,0,0,.27-.67,15,15,0,0,1,.17-2.77,23.6,23.6,0,0,0-.5-4.94c-.14-.89-.84-1.77-.76-2.6a10.42,10.42,0,0,0-.56-3.49c-.81-3.55-1.57-7.11-2.33-10.67-.25-1.2-.38-2.43-.68-3.61s-1.07-2-1.23-3.2c-.27-2.21-.89-4.37-1.36-6.55-.23-1.12,0-2.24-.29-3.42-.42-1.81-1.13-3.71-.45-5.66a1.22,1.22,0,0,0,0-.63c-.22-1.13-.49-2.26-.7-3.39-.27-1.38-.5-2.77-.74-4.16-.31-1.8-.59-3.6-.92-5.4s-.77-3.81-1.1-5.73q-.56-3.24-1-6.51a17.34,17.34,0,0,1,0-2.28c0-.46-.35-.9-.44-1.39-.33-1.74-.62-3.5-.82-5.26a29.59,29.59,0,0,1-.07-3.4c0-1.69.08-3.38,0-5.07s-.33-3.25-.32-4.88c0-2.2.19-4.41.3-6.61a2.08,2.08,0,0,0,0-.43c-.16-1.18-.44-2.36-.48-3.54-.08-2.38,0-4.76,0-7.14a4.83,4.83,0,0,1,.12-.85c.15-.84.3-1.67.44-2.51a8.61,8.61,0,0,1,3.33-5.15,4.42,4.42,0,0,1,4.1-.63,7.43,7.43,0,0,1,3.8,1.91,49.35,49.35,0,0,1,4.24,6.89,42.13,42.13,0,0,1,1.81,4.12,1.77,1.77,0,0,1,.08.31c.46,2.56.87,5.12,1.39,7.66.44,2.11,1.07,4.19,1.5,6.3.36,1.76.58,3.55.82,5.34.15,1.13.12,2.3.34,3.42a57.18,57.18,0,0,0,1.6,7.14,53.43,53.43,0,0,1,2,7.56c.26,1.51,1.09,2.93.76,4.56,0,.12.17.29.26.44.27.46.52.93.82,1.37a5.64,5.64,0,0,1,.52,2.46,27.7,27.7,0,0,0,1.14,3.4A5.32,5.32,0,0,1,242.75,196.94ZM105.8,283.62a11.66,11.66,0,0,0,1.81.82c1.43.35,2.57-.51,3.79-1a8.89,8.89,0,0,1,2.22-.91c3-.33,6-.52,9-.76,1-.08,2.05.17,3-.5.12-.09.35,0,.53,0a19.22,19.22,0,0,0,3,0c1.93-.34,3.82-.86,5.73-1.27,1.12-.23,2.29-.31,3.38-.63,1.25-.36,2.44-.92,3.66-1.38a45.33,45.33,0,0,0,4.49-1.65c2.11-1,3.39-3,4.68-4.84a13.66,13.66,0,0,0,2.28-5.1c.2-1,.38-2,.55-3a15.41,15.41,0,0,0,.23-1.66c.1-1.29.12-2.6.25-3.89.24-2.24.94-4.42.83-6.72-.08-1.61.11-3.23-.72-4.74a1.9,1.9,0,0,1,0-1,29.35,29.35,0,0,0,.37-3,30.51,30.51,0,0,0-.3-3.28c-.19-1.76-.35-3.53-.58-5.29-.2-1.51-.48-3-.72-4.5-.16-1-.25-2-.46-2.94s.34-1.8-.31-2.84-.51-2.5-.81-3.75c-.44-1.91-.91-3.81-1.48-5.68-.45-1.49-1.11-2.92-1.57-4.41s-.76-2.79-1.07-4.21a10.89,10.89,0,0,1-.42-3,12.85,12.85,0,0,1,.89-3.29,8,8,0,0,1,1.11-2.13,14.88,14.88,0,0,1,1.89-1.83,2,2,0,0,1,.81-.52,11.58,11.58,0,0,1,6.82.07c1.26.43,2.18,1.49,3.34,1.9,2.82,1,4.6,3.25,6.72,5.07a56.92,56.92,0,0,1,5.66,5.75,54.61,54.61,0,0,1,3.35,4.6c.22.32.57.69.54,1a2.59,2.59,0,0,0,1,2c.84,1,1.65,2,2.56,3,1.55,1.6,2,4,4.07,5.31,1,.65,1.48,2.26,2.23,3.4q1.59,2.43,3.26,4.78c.14.2.51.22.77.32a7.63,7.63,0,0,0,.59-2.27,41.28,41.28,0,0,0-.67-4.94c-.37-1.95-1-3.85-1.27-5.8s-.41-4-.61-5.94c-.13-1.19-.23-2.39-.41-3.57s-.44-2.52-.65-3.78-.42-2.7-.68-4c-.09-.48-.34-.85-1-.59a1.22,1.22,0,0,1-1-.09,26.28,26.28,0,0,1-2.62-2.33c-1-1-1.84-2.25-2.88-3.24-1.8-1.69-3.82-3.17-5.54-4.94s-3.64-2.52-5.47-3.76c-2.1-1.42-4.37-2.6-6.55-3.91-1.16-.7-2.29-1.46-3.41-2.23a10.29,10.29,0,0,1-1.1-1,2.8,2.8,0,0,1-.63-.09c-2.31-.71-4.6-1.48-6.91-2.15a6.2,6.2,0,0,0-2.22-.21c-2.26.24-4.52.48-6.75.91a22.31,22.31,0,0,0-3.9,1.3,1.6,1.6,0,0,0-.84.91c-.34,1-1.14,1.92-.74,3.12.08.23-.14.54-.15.81-.05,1.26-.14,2.51-.09,3.76.05,1,.31,2.08.45,3.13,0,.27,0,.56,0,.83.29,1.54.65,3.08.91,4.63q.79,4.88,1.53,9.76c.32,2.16.53,4.34.89,6.49.31,1.78.82,3.52,1.15,5.3.41,2.19.76,4.4,1.07,6.61.19,1.38.15,2.8.38,4.18.26,1.57.72,3.11,1.07,4.67s.69,3.28,1.08,4.92c.28,1.15.68,2.28,1,3.44.56,2.21,1,4.45,1.64,6.65a22.37,22.37,0,0,1,.51,6.82c0,1.74-.09,3.47-.19,5.21a18.7,18.7,0,0,1-.4,3.9,19.17,19.17,0,0,1-2.89,5.7c-1.39,2.09-3.5,2.87-5.5,3.79a22.39,22.39,0,0,1-5.75,1.53c-2.93.48-5.91.75-8.87,1.07-.59.07-1.22-.15-1.81-.08-2.32.26-4.63.61-7,.88a10.35,10.35,0,0,1-6.4-1.19,21.61,21.61,0,0,0-2.18-.93c-.61,1.25-1.18,2.36-1.69,3.51a.78.78,0,0,0,.22.65C107.21,280.64,106.88,282.06,105.8,283.62Zm84.42-143.91a25,25,0,0,1-.69-3.41,4.52,4.52,0,0,0-2.34-3.42,4.71,4.71,0,0,0-6.88,1.53c-.63.93-.81,2.28-2.25,2.47-.05,0-.1.09-.14.15-.57.79-1.18,1.57-1.69,2.4-.91,1.48-1.84,3-2.63,4.52-1.45,2.85-2.79,5.76-4.21,8.63-.59,1.21-1.65,2.21-1.7,3.68,0,.08-.15.15-.2.24a20,20,0,0,0-1.61,2.84c-.71,1.86-1.2,3.8-1.87,5.67-1,2.81-2.12,5.58-3.12,8.38-.89,2.5-.37,3.36,1.86,4.68,1.59,1,3.7,1.15,4.7,3,.06.11.31.13.48.19,1.22.45,2.51.77,3.26,2,.14.23.39.54.61.56a4.65,4.65,0,0,1,2.44,1.17c2.09,1.54,4.35,2.82,6.14,4.81,1.62,1.81,3.48,3.39,4.81,5.47.24.36,1,.45,1.58.46.17,0,.52-.68.49-1-.11-1.2.76-2.42-.1-3.6a.74.74,0,0,1,0-.63c.62-1.35.22-2.78.17-4.12a54.81,54.81,0,0,1,.55-10.79,4.84,4.84,0,0,0-.07-.84,14.86,14.86,0,0,1-.11-2.1c.14-2.12.32-4.24.52-6.35.29-3.15.23-6.36,1.44-9.36a1,1,0,0,0,0-.43,21.39,21.39,0,0,1-.08-2.65c.12-1.23.55-2.44.58-3.66C190.27,146.89,190.22,143.53,190.22,139.71Zm-2.93,96.37a2.55,2.55,0,0,0-.09-2.93c-.49-.82-1-1.6-1.52-2.43a26.91,26.91,0,0,0-3.9-5.74,31.25,31.25,0,0,1-2.41-3c-1.13-1.53-2.23-3.09-3.31-4.66-.74-1.08-1.42-2.18-2.13-3.28-.59-.91-1-2-2.11-2.46a1,1,0,0,1-.49-.51,15.26,15.26,0,0,0-4.82-5.64c-1.84-1.49-3.75-2.91-5.45-4.56a10.2,10.2,0,0,0-7-2.94A2.09,2.09,0,0,0,152,199.2a9,9,0,0,0-.48,5.82,79.64,79.64,0,0,0,2.09,7.81c.33,1.2.56,2.43.91,3.63s.21,2.69,1.08,3.83a1.59,1.59,0,0,1,.2.71c.31,2,.62,4,.91,6,.19,1.3.36,2.6.5,3.9.07.66,0,1.34.07,2,.12,1.28.34,2.54.43,3.82.14,2,.17,4.05.36,6.06,0,.41.5,1.07.83,1.11,1.33.2,2.68.16,4,.27,1.54.12,3.1-1,4.64.05,0,0,.09,0,.1,0,.87-1,2.12-.14,3.26-.75,1.51-.81,3.48-.8,5.27-1.09,1.14-.18,2.31-.27,3.47-.39a14.44,14.44,0,0,0,1.87-.15c1.38-.33,2.74-.75,4.1-1.13a5.15,5.15,0,0,0,3.27-2,3.4,3.4,0,0,0,.25-2c0-.19-.78-.31-1.2-.45Z"/></g></svg>